<svg width="44" height="18" viewBox="0 0 44 18" fill="none" xmlns="http://www.w3.org/2000/svg">
<path d="M36.4012 17.9893C38.4219 17.9893 39.3729 17.2183 40.2037 14.8811L43.8431 4.67336H41.7359L39.2954 12.5707H39.2526L36.8121 4.68406H34.6452L38.1562 14.3998L37.9682 14.9908C37.8354 15.8367 37.0759 16.4401 36.2211 16.3777C36.058 16.3777 35.7416 16.3608 35.6132 16.3438V17.9483C35.8744 17.9839 36.1382 18.0009 36.4012 18V17.9893ZM29.3791 12.8774C28.2738 12.8774 27.5723 12.3426 27.5723 11.5332C27.5723 10.6944 28.2489 10.206 29.5422 10.1284L31.8455 9.98314V10.7372C31.7947 11.9798 30.7455 12.9469 29.503 12.8961C29.4611 12.8943 29.4201 12.8907 29.3791 12.8872V12.8774ZM28.8229 14.4613C30.077 14.4952 31.25 13.8418 31.8802 12.757H31.923V14.3615H33.8412V7.71644C33.8412 5.78933 32.3001 4.54768 29.9273 4.54768C27.7265 4.54768 26.0989 5.80627 26.0392 7.53638H27.9066C28.1294 6.65662 28.9655 6.07635 29.8676 6.1744C31.1351 6.1744 31.8455 6.76536 31.8455 7.85281V8.58907L29.2605 8.74327C26.8539 8.88856 25.5525 9.87351 25.5525 11.5867C25.5507 13.3239 26.8949 14.4711 28.822 14.4711L28.8229 14.4613ZM17.7068 2.75517H20.0957C21.8944 2.75517 22.9221 3.71426 22.9221 5.40159C22.9221 7.08892 21.8944 8.05604 20.0876 8.05604H17.7068V2.75517ZM15.6344 1.00812V14.3588H17.7068V9.80755H20.5761C22.9132 9.93323 24.909 8.14072 25.0346 5.8036C25.0418 5.67078 25.0427 5.53886 25.0373 5.40605C25.1479 3.09477 23.3643 1.13202 21.053 1.0206C20.9166 1.01436 20.7811 1.01525 20.6447 1.02149L15.6344 1.00812ZM8.75588 3.49945C7.56503 3.43081 6.54621 4.17599 5.9811 4.17599C5.41598 4.17599 4.54245 3.53421 3.60029 3.55204C2.3524 3.58413 1.21503 4.27493 0.611587 5.36772C-0.672852 7.57739 0.277331 10.8486 1.51899 12.6465C2.12689 13.5379 2.85601 14.5139 3.81422 14.4791C4.72162 14.4453 5.08172 13.8882 6.17808 13.8882C7.27445 13.8882 7.59979 14.4791 8.55889 14.4613C9.55185 14.4444 10.1776 13.5699 10.7873 12.6786C11.2169 12.0475 11.5512 11.3567 11.7802 10.6285C10.6099 10.1168 9.85135 8.96433 9.84511 7.68702C9.86294 6.56035 10.453 5.52104 11.4121 4.93007C10.8006 4.06189 9.81926 3.52886 8.75766 3.49143L8.75588 3.49945ZM8.01249 2.32019C7.49105 2.97712 6.69328 3.35416 5.85452 3.33901C5.80104 2.52074 6.07915 1.71585 6.62554 1.10439C7.16927 0.473308 7.93583 0.0775476 8.76479 0C8.82362 0.841437 8.55354 1.67218 8.0107 2.31752" fill="#3C4043"/>
</svg>
