<svg width="275" height="339" fill="none" xmlns="http://www.w3.org/2000/svg"><path d="M77.757 43.8V55H64.029V43.8h1.168v10.176h5.12V43.8h1.168v10.176h5.104V43.8h1.168Zm10.86 7.344h-7.04c.064.875.4 1.584 1.008 2.128.608.533 1.376.8 2.304.8.522 0 1.002-.09 1.44-.272a3.23 3.23 0 0 0 1.136-.832l.64.736c-.374.448-.843.79-1.408 1.024a4.675 4.675 0 0 1-1.84.352c-.864 0-1.632-.181-2.304-.544A4.051 4.051 0 0 1 81 53c-.374-.65-.56-1.387-.56-2.208 0-.821.176-1.557.528-2.208a3.956 3.956 0 0 1 1.472-1.52 4.153 4.153 0 0 1 2.112-.544c.778 0 1.477.181 2.096.544.618.363 1.104.87 1.456 1.52.352.64.528 1.376.528 2.208l-.016.352Zm-4.064-3.648c-.811 0-1.494.261-2.048.784-.544.512-.854 1.184-.928 2.016h5.968c-.075-.832-.39-1.504-.944-2.016-.544-.523-1.227-.784-2.048-.784Zm12.824-.912V55h-1.04v-2.784h-2.96L91.425 55h-1.232l2.096-2.944c-.65-.181-1.152-.49-1.504-.928-.352-.437-.528-.992-.528-1.664 0-.939.32-1.653.96-2.144.64-.49 1.514-.736 2.624-.736h3.536Zm-5.968 2.912c0 1.248.794 1.872 2.384 1.872h2.544v-3.776h-2.464c-1.643 0-2.464.635-2.464 1.904ZM30.515 74.8V86h-1.168V75.824H22.26V86h-1.168V74.8h9.424Zm10.387 2.784V86h-1.136v-7.408h-4.032l-.112 2.08c-.085 1.75-.288 3.093-.608 4.032-.32.939-.89 1.408-1.712 1.408-.224 0-.496-.043-.816-.128l.08-.976a2.2 2.2 0 0 0 .4.064c.438 0 .768-.203.992-.608.224-.405.374-.907.448-1.504.075-.597.139-1.387.192-2.368l.144-3.008h6.16Zm10.59 4.56h-7.04c.064.875.4 1.584 1.008 2.128.608.533 1.376.8 2.304.8.522 0 1.002-.09 1.44-.272a3.23 3.23 0 0 0 1.136-.832l.64.736c-.374.448-.843.79-1.408 1.024a4.675 4.675 0 0 1-1.84.352c-.864 0-1.632-.181-2.304-.544A4.051 4.051 0 0 1 43.876 84c-.374-.65-.56-1.387-.56-2.208 0-.821.176-1.557.528-2.208a3.956 3.956 0 0 1 1.472-1.52 4.153 4.153 0 0 1 2.112-.544c.778 0 1.477.181 2.096.544.618.363 1.104.87 1.456 1.52.352.64.528 1.376.528 2.208l-.016.352Zm-4.064-3.648c-.811 0-1.494.261-2.048.784-.544.512-.854 1.184-.928 2.016h5.968c-.075-.832-.39-1.504-.944-2.016-.544-.523-1.227-.784-2.048-.784Zm12.946-.912V86h-1.136v-3.504c-.97.427-1.925.64-2.864.64-1.013 0-1.802-.23-2.368-.688-.565-.47-.848-1.168-.848-2.096v-2.768h1.136v2.704c0 .63.203 1.11.608 1.44.406.32.966.48 1.68.48.79 0 1.675-.208 2.656-.624v-4h1.136Zm3.226 0h1.136v6.688l5.616-6.688h1.008V86h-1.136v-6.688L64.624 86H63.6v-8.416Zm-43.478 32.24h-3.936V120h-1.168v-10.176h-3.936V108.8h9.04v1.024Zm4.234 1.696c1.098 0 1.941.277 2.528.832.586.544.88 1.355.88 2.432V120h-1.088v-1.312c-.256.437-.635.779-1.136 1.024-.49.245-1.078.368-1.76.368-.939 0-1.686-.224-2.24-.672-.555-.448-.832-1.04-.832-1.776 0-.715.256-1.291.768-1.728.522-.437 1.35-.656 2.48-.656h2.672v-.512c0-.725-.203-1.275-.608-1.648-.406-.384-.998-.576-1.776-.576-.534 0-1.046.091-1.536.272a3.78 3.78 0 0 0-1.264.72l-.512-.848a4.43 4.43 0 0 1 1.536-.832 5.827 5.827 0 0 1 1.888-.304Zm-.4 7.664c.64 0 1.19-.144 1.648-.432.458-.299.8-.725 1.024-1.28v-1.376h-2.64c-1.44 0-2.16.501-2.16 1.504 0 .491.186.88.56 1.168.373.277.896.416 1.568.416Zm13.712-7.6V120h-1.136v-7.408H32.5l-.112 2.08c-.085 1.749-.288 3.093-.608 4.032-.32.939-.89 1.408-1.712 1.408-.224 0-.496-.043-.816-.128l.08-.976c.192.043.325.064.4.064.437 0 .768-.203.992-.608.224-.405.373-.907.448-1.504.075-.597.139-1.387.192-2.368l.144-3.008h6.16Zm3.23 0h1.135v6.688l5.616-6.688h1.008V120h-1.136v-6.688l-5.6 6.688h-1.024v-8.416Zm17.479 0V120h-1.04v-2.784h-2.96L52.425 120h-1.232l2.096-2.944c-.65-.181-1.152-.491-1.504-.928-.352-.437-.528-.992-.528-1.664 0-.939.32-1.653.96-2.144.64-.491 1.514-.736 2.624-.736h3.536Zm-5.968 2.912c0 1.248.794 1.872 2.384 1.872h2.544v-3.776h-2.464c-1.643 0-2.464.635-2.464 1.904Zm-40.604 31.368h-2.32V151H8.333v-5.136H5.995L2.573 151H1.196l3.84-5.776-3.551-5.424h1.28l3.216 5.024h2.351V139.8h1.152v5.024h2.32l3.232-5.024h1.28l-3.551 5.424 3.84 5.776h-1.377l-3.423-5.136Zm6.64-3.28h1.135v6.688l5.616-6.688h1.008V151h-1.136v-6.688l-5.6 6.688h-1.024v-8.416Zm16.375 4.064c1.141.267 1.712.955 1.712 2.064 0 .736-.272 1.301-.816 1.696-.544.395-1.355.592-2.432.592H29.46v-8.416h3.712c.96 0 1.712.187 2.256.56.544.373.816.907.816 1.6 0 .459-.128.853-.384 1.184-.246.32-.592.56-1.04.72Zm-4.256-.32h2.528c.65 0 1.146-.123 1.488-.368.352-.245.528-.603.528-1.072 0-.469-.176-.821-.528-1.056-.342-.235-.838-.352-1.488-.352h-2.528v2.848Zm2.672 3.776c.725 0 1.27-.117 1.632-.352.362-.235.544-.603.544-1.104 0-.501-.166-.869-.496-1.104-.33-.245-.854-.368-1.568-.368h-2.784v2.928h2.672Zm9.43.976c-.81 0-1.541-.181-2.192-.544A4.08 4.08 0 0 1 38.938 149c-.373-.651-.56-1.387-.56-2.208 0-.821.187-1.557.56-2.208a3.97 3.97 0 0 1 1.536-1.52c.65-.363 1.382-.544 2.192-.544.81 0 1.542.181 2.192.544.65.363 1.158.869 1.52 1.52.373.651.56 1.387.56 2.208 0 .821-.187 1.557-.56 2.208a3.963 3.963 0 0 1-1.52 1.536c-.65.363-1.381.544-2.192.544Zm0-1.008c.598 0 1.13-.133 1.6-.4.48-.277.854-.667 1.12-1.168.267-.501.4-1.072.4-1.712 0-.64-.133-1.211-.4-1.712a2.781 2.781 0 0 0-1.12-1.152 3.088 3.088 0 0 0-1.6-.416c-.597 0-1.136.139-1.616.416-.47.267-.842.651-1.12 1.152-.267.501-.4 1.072-.4 1.712 0 .64.133 1.211.4 1.712.278.501.65.891 1.12 1.168.48.267 1.019.4 1.616.4Zm12.308-6.48H51.79V151h-1.136v-7.408h-3.185v-1.008h7.505v1.008ZM12.872 173.8h8.192v1.008H14.04v3.664h3.664c1.323 0 2.326.272 3.008.816.694.544 1.04 1.333 1.04 2.368 0 1.077-.373 1.904-1.12 2.48-.736.576-1.797.864-3.184.864h-4.576v-11.2Zm4.56 10.256c1.035 0 1.814-.197 2.336-.592.534-.395.8-.981.8-1.76 0-.768-.261-1.339-.784-1.712-.512-.384-1.296-.576-2.352-.576H14.04v4.64h3.392Zm14.153-2.912h-7.04c.064.875.4 1.584 1.008 2.128.608.533 1.376.8 2.304.8a3.73 3.73 0 0 0 1.44-.272 3.228 3.228 0 0 0 1.136-.832l.64.736a3.596 3.596 0 0 1-1.408 1.024 4.67 4.67 0 0 1-1.84.352c-.864 0-1.632-.181-2.304-.544A4.046 4.046 0 0 1 23.97 183c-.373-.651-.56-1.387-.56-2.208 0-.821.176-1.557.528-2.208a3.955 3.955 0 0 1 1.472-1.52 4.153 4.153 0 0 1 2.112-.544c.779 0 1.478.181 2.096.544a3.843 3.843 0 0 1 1.456 1.52c.352.64.528 1.376.528 2.208l-.016.352Zm-4.064-3.648c-.81 0-1.493.261-2.048.784-.544.512-.853 1.184-.928 2.016h5.968c-.074-.832-.389-1.504-.944-2.016-.544-.523-1.226-.784-2.048-.784Zm14.631 6.512v3.024H41.08V185h-7.536v2.032h-1.072v-3.024h.48c.566-.032.95-.448 1.152-1.248.203-.8.342-1.92.416-3.36l.112-2.816h6.208v7.424h1.312Zm-6.592-4.544c-.053 1.195-.154 2.181-.304 2.96-.15.768-.416 1.296-.8 1.584h5.248v-6.416h-4.048l-.096 1.872Zm13.142-2.944c.79 0 1.504.181 2.144.544.64.352 1.141.853 1.504 1.504s.544 1.392.544 2.224c0 .843-.181 1.589-.544 2.24a3.888 3.888 0 0 1-1.504 1.52c-.63.352-1.344.528-2.144.528a4.096 4.096 0 0 1-1.856-.416 3.582 3.582 0 0 1-1.344-1.248v4.688h-1.136v-11.52h1.088v1.664c.341-.555.79-.981 1.344-1.28.565-.299 1.2-.448 1.904-.448Zm-.08 7.552c.587 0 1.12-.133 1.6-.4.48-.277.853-.667 1.12-1.168.277-.501.416-1.072.416-1.712 0-.64-.139-1.205-.416-1.696a2.883 2.883 0 0 0-1.12-1.168 3.143 3.143 0 0 0-1.6-.416c-.597 0-1.136.139-1.616.416a3.02 3.02 0 0 0-1.12 1.168c-.267.491-.4 1.056-.4 1.696 0 .64.133 1.211.4 1.712.277.501.65.891 1.12 1.168.48.267 1.019.4 1.616.4Zm9.562-7.552c1.099 0 1.941.277 2.528.832.586.544.88 1.355.88 2.432V185h-1.088v-1.312c-.256.437-.635.779-1.136 1.024-.49.245-1.078.368-1.76.368-.939 0-1.685-.224-2.24-.672-.555-.448-.832-1.04-.832-1.776 0-.715.256-1.291.768-1.728.523-.437 1.35-.656 2.48-.656h2.672v-.512c0-.725-.203-1.275-.608-1.648-.405-.384-.998-.576-1.776-.576-.534 0-1.046.091-1.536.272a3.78 3.78 0 0 0-1.264.72l-.512-.848a4.43 4.43 0 0 1 1.536-.832 5.827 5.827 0 0 1 1.888-.304Zm-.4 7.664c.64 0 1.19-.144 1.648-.432.459-.299.8-.725 1.024-1.28v-1.376h-2.64c-1.44 0-2.16.501-2.16 1.504 0 .491.187.88.56 1.168.373.277.896.416 1.568.416ZM47.326 217.8V229h-1.168v-5.168H39.15V229h-1.184v-11.2h1.184v4.992h7.008V217.8h1.168Zm6.98 11.28c-.81 0-1.54-.181-2.191-.544A4.079 4.079 0 0 1 50.579 227c-.374-.651-.56-1.387-.56-2.208 0-.821.186-1.557.56-2.208a3.968 3.968 0 0 1 1.536-1.52c.65-.363 1.381-.544 2.192-.544.81 0 1.541.181 2.192.544.65.363 1.157.869 1.52 1.52.373.651.56 1.387.56 2.208 0 .821-.187 1.557-.56 2.208a3.965 3.965 0 0 1-1.52 1.536c-.65.363-1.382.544-2.192.544Zm0-1.008c.598 0 1.131-.133 1.6-.4.48-.277.854-.667 1.12-1.168.267-.501.4-1.072.4-1.712 0-.64-.133-1.211-.4-1.712a2.782 2.782 0 0 0-1.12-1.152 3.089 3.089 0 0 0-1.6-.416c-.597 0-1.135.139-1.615.416a2.91 2.91 0 0 0-1.12 1.152c-.267.501-.4 1.072-.4 1.712 0 .64.133 1.211.4 1.712.277.501.65.891 1.12 1.168.48.267 1.018.4 1.616.4Zm12.653-6.48h-4.816V229h-1.136v-8.416h5.952v1.008Zm1.641-1.008h1.136v6.688l5.616-6.688h1.008V229h-1.136v-6.688l-5.6 6.688H68.6v-8.416Z" fill="#474763"/><path fill-rule="evenodd" clip-rule="evenodd" d="M116.948.405c-2.965 1.026-4.893 3.045-5.314 5.563-.153.916-.713 1.826-1.79 2.91-3.012 3.032-4.195 6.521-4.206 12.41-.005 2.848-.121 3.507-.742 4.243-.405.479-.736 1.216-.736 1.638 0 1.266 1.029 3.585 2.351 5.298.684.887 1.36 2.138 1.501 2.78.734 3.343 1.488 4.848 3.279 6.542 1.97 1.863 2.368 2.971 2.413 6.717.032 2.673-.626 4.643-2.081 6.225-2.065 2.245-4.262 3.06-11.185 4.152-6.96 1.096-10.31 2.14-13.052 4.068-8.253 5.8-9.644 13.96-8.995 52.752l.17 10.104-1.19 3.527c-2.112 6.261-2.385 7.929-2.37 14.454.01 4.541.246 7.544.973 12.389 1.093 7.283 1.165 9.602.414 13.47-.313 1.613-.537 4.985-.544 8.198-.016 6.622.228 7.248 4.069 10.45 1.443 1.203 3.101 2.801 3.685 3.551l1.063 1.365v-1.246c0-1.606-1.046-4.15-2.532-6.162-1.141-1.543-1.172-1.682-1.07-4.763l.106-3.173.46 1.541c.916 3.069 1.3 3.958 2.179 5.052 1.042 1.298 1.801 1.481 1.42.343-.14-.424-.388-3.006-.549-5.737-.244-4.146-.46-5.39-1.31-7.535-1.652-4.165-1.603-4.94.91-14.323 3.948-14.744 4.21-16.363 4.268-26.435.05-8.617.07-8.841 1.572-16.745 1.48-7.793 2.332-14.097 2.853-21.102l.255-3.425.482 2.155c.649 2.903 2.074 5.7 3.789 7.43 1.257 1.271 1.485 1.783 2.035 4.568 1.221 6.182 1.673 10.599 1.674 16.33.001 7.572-.393 9.221-3.798 15.901-6.677 13.098-8.753 21.282-8.682 34.223.021 3.891-.16 8.847-.401 11.013-.717 6.426.01 17.126 1.713 25.174.319 1.507 2.126 8.982 4.015 16.611 1.889 7.63 3.61 14.797 3.823 15.927.214 1.13.433 4.752.487 8.049.09 5.543.022 6.277-.903 9.761-1.792 6.743-2.244 10.141-2.254 16.954-.005 3.485.197 7.646.45 9.247.252 1.602 1.887 8.923 3.633 16.269l3.175 13.358.003 5.823.002 5.822-1.893 3.609c-4.183 7.975-3.324 10.266 3.955 10.544 4.022.154 6.387-.313 7.161-1.413.47-.668.468-1.12-.015-3.668-.358-1.886-.532-4.831-.498-8.387.029-3.014-.065-6.559-.207-7.877-.489-4.509.83-18.419 2.777-29.276 1.673-9.337 2.045-15.278 1.421-22.731-.631-7.523-.644-13.631-.06-26.94.449-10.247.843-14.208 2.465-24.773.496-3.235 1.105-7.808 1.353-10.163.442-4.196.672-22.363.33-25.979-.145-1.525-.056-1.913.53-2.312.997-.679 2.28-.594 3.142.209.645.6.703.936.459 2.654-.426 3.01-.275 19.181.23 24.572.247 2.637.935 7.955 1.529 11.816 1.641 10.67 1.811 12.43 2.201 22.777.198 5.274.511 11.069.695 12.877.198 1.943.202 4.813.009 7.021-1.316 15.054-1.212 19.35.739 30.532 2.259 12.946 2.636 17.241 2.801 31.942.117 10.397.047 12.806-.414 14.311-.755 2.466-.257 3.422 2.233 4.291 1.457.507 2.574.614 5.367.514 6.914-.249 7.522-2.059 3.432-10.218l-1.978-3.946-.077-5.644-.076-5.644 3.171-13.358c4.08-17.19 4.125-17.469 4.123-25.859-.002-7.409-.546-11.372-2.469-17.982-.685-2.354-.787-3.525-.723-8.319.041-3.069.25-6.605.465-7.858.215-1.254 2.036-8.915 4.046-17.026 5.399-21.785 6.206-27.127 5.691-37.695-.156-3.202-.321-9.598-.368-14.214-.069-6.811-.233-9.165-.872-12.501-1.479-7.718-4.07-14.885-8.049-22.263-3.054-5.662-3.485-7.313-3.683-14.088-.182-6.221.363-11.791 1.784-18.247.644-2.927.854-3.366 2.307-4.812 1.689-1.68 3.044-4.49 3.429-7.109.321-2.18.84-1.133.847 1.71.009 3.904 1.064 11.982 2.669 20.446 1.506 7.943 1.529 8.179 1.568 16.62.047 10.04.288 11.575 4.081 25.964 2.73 10.357 2.791 11.24 1.086 15.61-.824 2.112-1.035 3.387-1.282 7.753-.163 2.874-.41 5.397-.549 5.606-.451.679.376.404 1.181-.394.934-.925 1.665-2.518 2.279-4.961.7-2.79 1.257-1.883.971 1.583-.195 2.364-.427 3.189-1.182 4.203-1.352 1.816-2.707 5.064-2.695 6.458l.011 1.199.603-.856c.332-.471 2.214-2.332 4.183-4.134 2.878-2.636 3.639-3.542 3.884-4.624.497-2.193.242-11.336-.4-14.361-.785-3.694-.743-5.001.398-12.443.8-5.217.981-7.658.981-13.245.002-7.407.195-6.267-2.706-15.927-.752-2.503-.765-2.994-.528-19.18.448-30.538-1.04-38.87-7.983-44.68-3.288-2.752-6.282-3.781-14.48-4.976-5.701-.83-8.634-1.829-10.42-3.547-2.162-2.08-2.953-5.236-2.339-9.338.34-2.279.478-2.538 2.188-4.13 1.834-1.707 2.683-3.392 3.253-6.453.14-.754.671-1.833 1.179-2.398 2.36-2.625 3.33-6.387 1.963-7.607-.581-.519-.691-1.167-.715-4.21-.018-2.434-.267-4.456-.772-6.26-.794-2.838-2.727-5.956-4.279-6.902-.631-.386-.906-.867-.906-1.587 0-2.076-1.818-4.405-4.415-5.656-1.706-.821-7.68-1.045-9.655-.361Zm141.92 2.572c-.607.149-1.606.513-2.219.811-1.363.661-4.291 3.526-5.109 5-.331.594-.683 1.081-.783 1.081-.101 0-.8-.379-1.554-.842-4.158-2.551-11.016-3.603-15.905-2.44-4.693 1.117-8.92 4.228-11.076 8.152-.999 1.817-1.789 5.222-1.796 7.734-.006 2.55-.483 3.528-2.966 6.08-1.002 1.03-1.822 1.997-1.822 2.148 0 .152.497.718 1.104 1.26 1.277 1.139 1.323 1.43.485 3.068-.597 1.165-.591 1.235.154 1.98.539.54.715 1.053.581 1.693-.116.551.043 1.233.397 1.703.389.516.59 1.515.59 2.921 0 1.72.149 2.266.762 2.797.836.726 2.273 1.079 4.387 1.079 1.475 0 7.21-.864 8.285-1.248.606-.217.632.025.38 3.636-.468 6.722-1.464 8.508-6.835 12.25-2.812 1.958-3.872 3.004-6.862 6.769-2.431 3.06-5.531 6.306-9.921 10.384l-6.384 5.932.006 1.603c.007 2.245.966 5.786 2.019 7.46 1.091 1.732 3.143 3.45 5.093 4.263l1.464.61.054 6.622c.047 5.762.16 6.95.869 9.134.909 2.798 2.444 5.791 4.319 8.42 3.238 4.54 5.47 14.773 6.431 29.485.527 8.071.307 15.668-.591 20.379-.565 2.97-.685 5.386-.691 13.871-.005 8.944.1 10.897.808 15.07 1.535 9.057 4.39 18.415 9.323 30.565 2.508 6.177 2.537 6.286 2.537 9.604 0 4.227.637 6.536 2.984 10.822 1.397 2.551 2.115 4.446 2.917 7.706 2.142 8.704 5.662 29.877 7.864 47.308 1.529 12.093 1.508 11.664.654 13.461-2.069 4.355-8.674 8.709-18.273 12.047-7.106 2.471-8.216 3.238-5.958 4.117 3.665 1.425 15.219 1.512 22.873.172 2.847-.499 5.497-.705 8.94-.697 4.825.011 4.907-.002 5.795-.894 1.298-1.304 1.191-3.211-.391-6.98-1.45-3.456-2.201-7.532-1.857-10.094.126-.942.634-4.179 1.128-7.193 1.711-10.44 2.158-15.85 2.175-26.373.023-13.309-1.045-20.227-4.312-27.946-4.572-10.802-5.291-17.205-3.227-28.738.59-3.297 1.275-8.444 1.523-11.439.546-6.589.277-19.298-.594-28.12-.363-3.668-.525-7.441-.399-9.315l.21-3.149 2.056-2.477c2.206-2.659 4.634-7.001 5.38-9.624.376-1.324.663-1.683 1.58-1.981 3.473-1.127 5.854-4.211 5.821-7.537-.036-3.528-2.721-6.698-6.422-7.581-1.537-.367-1.946-.641-2.522-1.692-.378-.691-2.816-3.24-5.417-5.665-8.906-8.304-11.119-13.195-10.041-22.192.602-5.031 1.247-7.605 4.684-18.694 4.309-13.905 4.905-16.542 5.148-22.777.3-7.714-.676-10.79-5.224-16.469-3.545-4.426-4.019-5.802-4.008-11.616.013-6.644.881-9.9 3.494-13.11 2.353-2.892 4.339-6.702 4.883-9.365.373-1.83.498-2.027 1.158-1.823 1.78.548 5.897.544 7.295-.008 2.205-.87 4.452-3.033 5.617-5.407.891-1.816 1.051-2.582 1.054-5.051.004-3.203-.877-5.568-2.904-7.8-2.171-2.389-6.125-3.616-9.218-2.86Z" fill="#EC445A"/><ellipse cx="266.151" cy="155.433" rx="8.848" ry="8.22" fill="#fff"/><ellipse cx="104.668" cy="199.273" rx="8.848" ry="8.22" fill="#fff"/><ellipse cx="139.325" cy="199.273" rx="8.848" ry="8.22" fill="#fff"/><ellipse cx="122.734" cy="133.17" rx="12.904" ry="11.988" fill="#fff"/><ellipse cx="234.812" cy="125.635" rx="12.904" ry="11.988" fill="#fff"/><ellipse cx="123.102" cy="49.257" rx="6.636" ry="6.165" fill="#fff"/><ellipse cx="86.973" cy="85.562" rx="6.636" ry="6.165" fill="#fff"/><ellipse cx="157.759" cy="85.562" rx="6.636" ry="6.165" fill="#fff"/></svg>