<svg width="94" height="105" fill="none" xmlns="http://www.w3.org/2000/svg"><path d="m8.01 26.658.005.015-.094.033.094-.033v.003l.003.007.01.03.042.115.16.44c.14.38.345.926.606 1.586a74.693 74.693 0 0 0 2.146 4.928c.883 1.83 1.907 3.712 2.99 5.242 1.088 1.534 2.223 2.696 3.327 3.114 1.113.422 2.524.483 4.025.333 1.499-.151 3.077-.512 4.516-.928a43.84 43.84 0 0 0 5.087-1.83l.017-.007-2.47-6.274-.11.045c-.132.053-.323.13-.562.221-.478.184-1.145.432-1.902.685-1.512.507-3.395 1.043-4.85 1.148M8.01 26.658l13.032 8.773M8.01 26.658 8 26.646 5.047 22.73c-.388-.517-.383-1.22-.005-1.66l.003-.004 2.473-3.16.003-.004a1.692 1.692 0 0 1 1.361-.714h.144c1.035-.065 1.885.775 1.886 1.891l-2.902 7.58zm13.04 8.873-.008-.1m.007.1-.007-.1m.007.1c-.385.028-.83-.148-1.306-.453-.48-.307-1.003-.754-1.548-1.293-1.09-1.077-2.277-2.53-3.373-3.987a96.554 96.554 0 0 1-3.949-5.723l-.062-.099-.016-.025-.004-.006v-.002h-.001l.085-.054s7.35 11.748 10.167 11.542" fill="#F9C495" stroke="#000" stroke-width=".2"/><path d="M25.76 33.767a8.111 8.111 0 0 0 .206-.12l.304-.18c.367-.213.89-.513 1.524-.853 1.267-.68 2.966-1.514 4.702-2.121 1.74-.608 3.502-.983 4.9-.758.696.113 1.298.373 1.762.825.465.45.8 1.1.952 2.002l-14.35 1.205zm0 0 1.816 8.008c5.94-.964 9.154-2.769 10.843-4.575 1.694-1.813 1.858-3.636 1.691-4.638l-14.35 1.205zm-.031-.098a.19.19 0 0 1 .01.023l-.062.007.052-.03z" fill="#263238" stroke="#000" stroke-width=".2"/><path d="M15.552 19.278c-.518.42-1.22.507-1.954.299-.732-.208-1.488-.71-2.095-1.451-.573-.776-.89-1.633-.932-2.4-.042-.768.192-1.437.71-1.858.518-.42 1.22-.507 1.954-.299.733.208 1.489.71 2.096 1.452.606.776.923 1.632.957 2.398.033.766-.217 1.437-.736 1.859z" fill="#608CFF" stroke="#000" stroke-width=".2"/><path opacity=".2" d="M14.299 16.118v.001c.474.61.794 1.25.953 1.845.155.58.157 1.11.008 1.525-.514.242-1.174.241-1.846.012-.685-.234-1.373-.703-1.911-1.376-.934-1.201-1.132-2.587-.69-3.573.443-.207 1.032-.175 1.654.086.635.268 1.291.771 1.832 1.48z" fill="#000" stroke="#000" stroke-width=".2"/><path d="M9.164 21.75c-1.301.993-2.565 1.778-3.569 2.228-.502.226-.934.366-1.27.408-.34.043-.55-.018-.654-.146-.084-.11-.091-.314.034-.635.122-.313.356-.702.689-1.14.663-.877 1.704-1.936 2.97-2.962 1.301-.993 2.565-1.778 3.569-2.23.502-.225.934-.364 1.27-.407.341-.043.551.018.655.147.102.129.114.345-.006.665-.119.315-.354.7-.691 1.135-.672.868-1.73 1.91-2.997 2.937z" fill="#608CFF" stroke="#000" stroke-width=".2"/><path opacity=".2" d="M6.528 23.098c.054.116.108.229.162.338-.754.422-1.42.726-1.94.872-.269.076-.492.107-.664.093-.171-.013-.28-.07-.343-.158-.065-.09-.088-.221-.054-.405a2.26 2.26 0 0 1 .266-.664c.277-.497.746-1.102 1.366-1.76.241.191.485.44.73.746.183.32.334.638.477.938z" fill="#000" stroke="#000" stroke-width=".2"/><path d="M5.11 27.521c-.518.421-1.22.508-1.954.3-.733-.209-1.489-.71-2.096-1.452-.607-.776-.924-1.632-.957-2.398-.033-.767.217-1.437.736-1.859.518-.42 1.22-.507 1.953-.299.734.208 1.49.71 2.096 1.452.607.776.924 1.631.958 2.398.033.766-.217 1.436-.736 1.858z" fill="#608CFF" stroke="#000" stroke-width=".2"/><path opacity=".6" d="M37.696 37.866c-1.202 1.056-2.99 2.051-5.56 2.92.09-4.012 1.104-6.026 2.082-7.038.495-.511.984-.77 1.347-.9a2.489 2.489 0 0 1 .555-.131l.013-.002.689.376.874 4.775z" fill="#000" stroke="#000" stroke-width=".2"/><path d="m49.012 101.864-4.639 14.463-.008.025.005.025.098-.019-.098.019v.003l.003.012.008.046c.007.041.018.102.03.183.027.16.063.398.103.705.08.614.177 1.505.24 2.61a42.645 42.645 0 0 1-.385 8.704c-.515 3.469-2.284 14.305-3.924 24.275a14319.385 14319.385 0 0 1-2.89 17.495l-.193 1.167-.051.306-.005.031-4.346.527v-.02l.006-.392a2909.003 2909.003 0 0 1 .113-6.92c.079-4.531.193-10.677.334-17.139.284-12.925.679-27.107 1.125-32.152.48-5.048.996-9.375 1.39-12.44a294.59 294.59 0 0 1 .654-4.757l12.43 3.243z" fill="#F9C495" stroke="#000" stroke-width=".2"/><path opacity=".1" d="m36.636 98.639.014-.086 12.362 3.31-2.963 9.16-10.746-1.892c.34-3.22.68-5.882.935-7.744a175.94 175.94 0 0 1 .398-2.748z" fill="#000" stroke="#000" stroke-width=".2"/><path d="m70.149 99.376 2.593 16.448.005.031.022.022c.629.663 1.318 2.007 2.043 3.87.722 1.858 1.474 4.218 2.232 6.901 1.516 5.365 3.055 12.011 4.433 18.49a712.844 712.844 0 0 1 3.467 17.476 739.93 739.93 0 0 1 1.305 7.205l.072.412.008.05-4.153 1.055c-9.427-23.623-15.427-40.872-19.072-52.218-1.825-5.679-3.059-9.879-3.837-12.659-.389-1.39-.663-2.425-.841-3.112a75.945 75.945 0 0 1-.235-.931l11.958-3.04z" fill="#F9C495" stroke="#000" stroke-width=".2"/><path opacity=".1" d="m58.267 102.381-.008-.034 11.89-3.04 1.479 9.276-11.083 2.027a192.37 192.37 0 0 1-1.785-6.274 89.946 89.946 0 0 1-.493-1.955z" fill="#000" stroke="#000" stroke-width=".2"/><path d="m57.282 86.173-.02.007-.015.014.068.074-.068-.073-.003.002-.008.008-.03.029-.119.112a30.356 30.356 0 0 0-1.789 1.883c-1.03 1.186-2.193 2.727-2.68 4.12-.482 1.376-1.857 5.723-3.11 9.724-.627 2.001-1.224 3.916-1.664 5.331-.22.707-.4 1.29-.527 1.695l-.145.469-.025.081-12.12-2.167.007-.065a601.875 601.875 0 0 1 .21-2.143c.144-1.441.35-3.465.599-5.797.498-4.662 1.168-10.552 1.854-15.462a651.246 651.246 0 0 1 1.55-10.388l.185-1.195c.214-1.387.382-2.494.487-3.306.053-.405.09-.739.11-.997a3.82 3.82 0 0 0 .014-.456l23.158-1.975.019.103.057.283.054.265c.096.472.228 1.15.358 1.975.259 1.65.507 3.887.43 6.236-.154 4.705-1.61 9.814-6.837 11.613zm6.019-20.484h-.002.001v-.004.004z" fill="#608CFF" stroke="#000" stroke-width=".2"/><path opacity=".1" d="m50.74 75.757 2.583.904 3.806 9.582-.044.044c-.312.308-1.133 1.118-2.002 2.14-.97 1.143-2.011 2.562-2.464 3.851-.14.347-.311.899-.524 1.58l-.002.006c-.185.59-.4 1.281-.654 2.03-.8-4.787-.979-9.783-.954-13.619.013-1.969.08-3.63.143-4.8a74.386 74.386 0 0 1 .112-1.718z" fill="#000" stroke="#000" stroke-width=".2"/><path d="M54.455 92.004c-3.123-8.305-4.117-14.409-4.33-18.434-.108-2.012-.02-3.505.094-4.493a13.5 13.5 0 0 1 .17-1.106 6.82 6.82 0 0 1 .06-.273l.006-.024 14.913-1.498c2.266 3.862 3.254 9.786 3.672 14.767a86.222 86.222 0 0 1 .284 8.324 46.895 46.895 0 0 1-.016.66l-.002.035v.011l.1.005-.1-.004v.01l.002.011 2.868 16.185-13.205 2.641-.01-.044-.093-.399a368.555 368.555 0 0 0-1.499-6.188c-.919-3.648-2.053-7.879-2.914-10.186z" fill="#608CFF" stroke="#000" stroke-width=".2"/><path d="M37.452 6.059h.016l1.744-.125-1.282 2.437-1.936 1.807c-.753-2.222-.367-3.234.16-3.698.273-.24.597-.347.856-.393a2.12 2.12 0 0 1 .436-.029h.006z" fill="#263238" stroke="#000" stroke-width=".2"/><path opacity=".6" d="M37.452 6.059h.016l1.744-.125-1.282 2.437-1.936 1.807c-.753-2.222-.367-3.234.16-3.698.273-.24.597-.347.856-.393a2.12 2.12 0 0 1 .436-.029h.006z" fill="#000" stroke="#000" stroke-width=".2"/><path d="M35.472 30.21h.001c.699-.75 2.079-1.294 3.884-1.683 1.8-.389 3.998-.618 6.31-.75 3.618-.209 7.503-.18 10.554-.159.85.007 1.634.012 2.33.012 2.01 0 3.685 1.541 3.886 3.483l3.63 35.76a79.69 79.69 0 0 1-1.061.085c-.833.065-2.168.163-4.177.3-4.008.275-10.698.703-21.433 1.318l-.035-.173-.154-.76c-.134-.669-.33-1.66-.574-2.948a501.45 501.45 0 0 1-1.966-11.075c-.192-1.21-.387-2.409-.578-3.587-.668-4.11-1.296-7.973-1.603-11.22-.197-2.088-.26-3.916-.118-5.387.143-1.475.493-2.572 1.104-3.216z" fill="#263238" stroke="#000" stroke-width=".2"/><path d="M40.368 28.372c3.8-.67 8.991-.808 13.273-.81-.03.697-.369 1.781-1.533 3.352-1.213 1.637-3.316 3.795-6.877 6.582a23.725 23.725 0 0 1-.783-.824 25.362 25.362 0 0 1-1.822-2.253c-.65-.91-1.28-1.945-1.715-3.001-.424-1.032-.657-2.077-.543-3.046z" fill="#608CFF" stroke="#000" stroke-width=".2"/><path d="M42.2 28.104c2.837-.334 6.201-.47 9.31-.474-.044 1.056-.83 3.726-6.267 8.07a22.712 22.712 0 0 1-.574-.827 27.868 27.868 0 0 1-1.315-2.17c-.454-.838-.87-1.74-1.106-2.568-.23-.806-.28-1.52-.049-2.03z" fill="#F9C495" stroke="#000" stroke-width=".2"/><path d="m50.98 29.05-5.866 4.99-2.645-4.627c.994-.749 1.395-1.481 1.395-2.286 0-.796-.394-1.642-.927-2.613l4.678-6.588c.109 1.663.321 3.625.828 5.381.53 1.837 1.386 3.47 2.805 4.287l.006.048c.006.062.01.158.002.286a3.773 3.773 0 0 1-.276 1.122z" fill="#F9C495" stroke="#000" stroke-width=".2"/><path opacity=".2" d="M46.394 23.944c-.782.888-1.776 1.694-2.756 2.144-.144-.451-.396-.954-.7-1.506l2.945-4.217c.15.04.319.057.489.066.128.006.262.008.394.009.07 0 .14.001.208.003.196.004.377.015.528.048.135.03.235.075.302.14.003.09.017.18.03.268l.005.026c.017.109.032.22.033.347-.102.76-.669 1.752-1.478 2.672z" fill="#000" stroke="#000" stroke-width=".2"/><path d="M49.727 11.867v.004c.01.242.02.477.028.706.091 2.245.158 3.878-.036 5.279-.212 1.535-.736 2.79-1.894 4.254-3.461 4.343-9.817 3.448-11.506-1.482-.785-2.254-1.195-5.312-.803-8.12.393-2.81 1.586-5.348 3.984-6.598h.001c3.385-1.828 7.651-.543 9.48 2.842.476 1.02.746 2.034.746 3.115z" fill="#F9C495" stroke="#000" stroke-width=".2"/><path d="M40.859 14.203v-.008l-.002-.009c-.063-.378.13-.658.338-.71.082-.021.166.013.247.125.082.112.147.284.18.48.062.372-.122.649-.326.709-.203-.009-.437-.223-.437-.587zm-3.979.343v.009l.002.008c.061.37-.122.648-.326.707-.203-.008-.438-.222-.438-.586v-.017c-.064-.378.128-.658.337-.71.086-.022.186.017.275.128a.75.75 0 0 1 .15.461z" fill="#1A2E35" stroke="#000" stroke-width=".2"/><path d="M38.728 18.053c-.4.148-.852.1-1.264-.11.437-.722.785-1.449 1.045-2.25l.22 2.36z" fill="#CDCDCD" stroke="#000" stroke-width=".2"/><path d="M41.279 19.466h-.002c-.095.032-.19.048-.294.065h-.003c-.094.017-.196.033-.298.065a.058.058 0 0 1-.016-.01c-.011-.013-.013-.023-.013-.025 0-.002.002-.012.013-.023.012-.012.022-.014.024-.014h.007c1.066-.071 2.053-.71 2.686-1.623l.014-.021a.06.06 0 0 1 .006-.001l.001.006a3.915 3.915 0 0 1-2.125 1.58zm2.111-6.751-.006-.011-.009-.01c-.564-.635-1.345-1.064-2.204-1.064a.177.177 0 0 1-.118-.057.177.177 0 0 1-.057-.118c0-.03.013-.053.041-.072a.246.246 0 0 1 .13-.034c.938.068 1.863.468 2.39 1.255a.244.244 0 0 1 .031.133.083.083 0 0 1-.039.06.294.294 0 0 1-.1-.01c-.011-.004-.03-.015-.059-.072zm-8.263-.571.004-.004a2.291 2.291 0 0 1 2.107-.724l.009.002h.008c.03 0 .052.012.071.04a.25.25 0 0 1 .035.134c0 .03-.013.053-.041.072a.246.246 0 0 1-.129.034 2.175 2.175 0 0 0-1.793.648l-.03.03v.009h-.037c-.035 0-.078 0-.12-.007-.045-.007-.072-.02-.084-.032l-.004-.007a.265.265 0 0 1 0-.188l.004-.007z" fill="#1A2E35" stroke="#000" stroke-width=".2"/><path d="m48.413 16.447-.015-.062-.062-.013-1.544-.322.017-.065a20.502 20.502 0 0 0 .411-1.886c.091-.543.159-1.12.155-1.625a3.476 3.476 0 0 0-.065-.695 1.278 1.278 0 0 0-.221-.523c-.196-.25-.46-.487-.751-.73l-.313-.256c-.2-.163-.408-.332-.615-.513-.63-.554-1.233-1.21-1.534-2.112-.092-.277-.338-.438-.653-.535-.316-.097-.723-.137-1.178-.156-.295-.013-.61-.017-.939-.02-.695-.01-1.446-.02-2.172-.112-1.066-.137-2.044-.45-2.67-1.181-.582-.68-.877-1.742-.622-3.42.081.206.198.484.347.785.301.612.74 1.335 1.276 1.728l.236.174-.081-.282-.001-.003-.003-.01a3.498 3.498 0 0 1-.048-.203 5.798 5.798 0 0 1-.092-.573c-.052-.473-.062-1.093.101-1.69.163-.596.495-1.166 1.129-1.552.635-.388 1.586-.598 2.998-.445 2.82.272 5.135 1.903 6.75 3.476a18.311 18.311 0 0 1 1.865 2.127 15.41 15.41 0 0 1 .643.928l.007.013.002.003.086-.051-.085.052.011.019.02.013.004.003.015.01a6.16 6.16 0 0 1 .278.205c.185.145.442.361.726.642.57.562 1.247 1.382 1.687 2.418a5.602 5.602 0 0 1 .262 3.713c-.38 1.429-1.346 3.045-3.26 4.805l-.003.003c-.492.492-1.368.319-1.69-.375l-.41-1.707z" fill="#263238" stroke="#000" stroke-width=".2"/><path d="m51.518 15.683-.003.01a3.39 3.39 0 0 1-1.601 2.202l-.003.002c-.515.322-.983.253-1.317-.027-.34-.285-.555-.801-.522-1.395v-.005c0-.534.15-1.222.46-1.8.31-.577.77-1.028 1.379-1.124.834-.128 1.673.514 1.74 1.416-.001.259-.066.52-.133.72z" fill="#F9C495" stroke="#000" stroke-width=".2"/><path d="M50.875 6.774c.04-.047.083-.098.132-.152.218-.242.524-.538.882-.758.358-.221.76-.362 1.174-.311.41.05.851.292 1.286.877.221.315.343.54.392.694a.36.36 0 0 1 .022.16.079.079 0 0 1-.035.058.253.253 0 0 1-.118.033 1.068 1.068 0 0 1-.22-.008 5.135 5.135 0 0 1-.648-.14c-.125-.033-.258-.07-.396-.108-.407-.113-.857-.238-1.285-.315-.42-.075-.837-.108-1.186-.03z" fill="#263238" stroke="#000" stroke-width=".2"/><path d="m48.353 19.451-.009.009a.7.7 0 0 1-.393-.18 1.097 1.097 0 0 1-.121-.123c.585-.608.806-1.17.876-1.589.036-.216.032-.393.018-.517a1.293 1.293 0 0 0-.034-.184l-.001-.005c-.062-.61.178-.952.426-1.146a1.35 1.35 0 0 1 .501-.242c.265.081.437.199.543.335.11.14.157.31.154.505-.006.396-.22.879-.52 1.357-.296.474-.666.929-.962 1.266a12.89 12.89 0 0 1-.478.514z" fill="#608CFF" stroke="#000" stroke-width=".2"/><path opacity=".8" d="m48.353 19.451-.009.009a.7.7 0 0 1-.393-.18 1.097 1.097 0 0 1-.121-.123c.585-.608.806-1.17.876-1.589.036-.216.032-.393.018-.517a1.293 1.293 0 0 0-.034-.184l-.001-.005c-.062-.61.178-.952.426-1.146a1.35 1.35 0 0 1 .501-.242c.265.081.437.199.543.335.11.14.157.31.154.505-.006.396-.22.879-.52 1.357-.296.474-.666.929-.962 1.266a12.89 12.89 0 0 1-.478.514z" fill="#F9C495" stroke="#000" stroke-width=".2"/><path opacity=".6" d="m58.325 34.819 1.877-.454 2.585.53.796 8.29c-2.142-1.617-3.455-3.697-4.236-5.392a15.86 15.86 0 0 1-.822-2.188 11.889 11.889 0 0 1-.2-.786z" fill="#000" stroke="#000" stroke-width=".2"/><path d="M64.453 36.785h-.014l1.204-7.023c4.963.142 6.412.185 7.853.105.629-.035 1.255-.093 2.17-.176h.003c.4-.047.79-.28 1.165-.633.376-.355.744-.839 1.1-1.405.71-1.131 1.376-2.604 1.947-4.062a59.684 59.684 0 0 0 1.388-3.988 63.676 63.676 0 0 0 .495-1.672l.027-.097.007-.024.001-.007v-.001l-.096-.027.097.026.004-.017-.001-.018-.55-6.183v-.003a1.85 1.85 0 0 1 1.63-2.087h.006l.754-.138c.462-.065.916.002 1.302.26l.003.001 1.99 1.236a2.055 2.055 0 0 1 .786 2.423l-2.13 5.425-.004.011-.001.012.099.014-.1-.014v.01l-.005.03a33.798 33.798 0 0 1-.088.571c-.063.391-.157.953-.285 1.636a67.863 67.863 0 0 1-1.156 5.135c-.519 1.925-1.172 3.926-1.963 5.602-.794 1.681-1.72 3.018-2.774 3.637-1.066.627-2.533 1.032-4.142 1.286-1.607.253-3.347.354-4.954.375a58.414 58.414 0 0 1-5.768-.22z" fill="#F9C495" stroke="#000" stroke-width=".2"/><path d="M70.148 28.697a1.328 1.328 0 0 1-.081-.02.123.123 0 0 0-.005.02h.086zm-.17.058c.032.01.06.017.083.023l-.135 8.894c-6.186.329-9.69-.562-11.638-1.81-1.95-1.25-2.349-2.862-2.316-4 .043-.963.294-1.727.696-2.33.403-.602.96-1.05 1.626-1.372 1.333-.647 3.087-.791 4.846-.693 1.757.098 3.504.438 4.814.75a39.422 39.422 0 0 1 2.024.538z" fill="#263238" stroke="#000" stroke-width=".2"/><path d="M81.407 10.86v.003c-.405.876-1.026 1.528-1.7 1.886-.674.358-1.396.42-2.014.127-.617-.292-1.014-.896-1.147-1.653-.133-.758 0-1.664.438-2.54V8.68c.405-.875 1.026-1.528 1.7-1.886.674-.357 1.396-.42 2.014-.126.617.292 1.014.895 1.147 1.653.133.757 0 1.663-.438 2.54z" fill="#608CFF" stroke="#000" stroke-width=".2"/><path opacity=".2" d="m81.407 10.862-.001.002c-.737 1.607-2.185 2.451-3.35 2.153-.502-.79-.504-2.172.164-3.51.406-.812.946-1.451 1.506-1.852.549-.394 1.106-.551 1.575-.44.641.86.773 2.246.106 3.647z" fill="#000" stroke="#000" stroke-width=".2"/><path d="m90.409 15.185-.003.007c-.062.136-.243.239-.582.271-.332.032-.78-.006-1.317-.113-1.072-.213-2.472-.69-3.944-1.375-1.472-.719-2.735-1.505-3.577-2.202-.422-.35-.733-.672-.913-.95-.183-.283-.212-.488-.137-.625l.003-.007c.063-.136.243-.239.582-.271.332-.032.78.007 1.317.113 1.072.213 2.473.69 3.945 1.375 1.471.685 2.734 1.47 3.576 2.176.422.353.733.683.913.966.183.288.212.497.137.635z" fill="#608CFF" stroke="#000" stroke-width=".2"/><path opacity=".2" d="m87.703 13.693.001-.003c.124-.309.304-.616.54-.87.755.498 1.357.974 1.741 1.39.198.215.333.41.403.578.07.166.07.296.02.398-.05.088-.155.161-.328.21a2.255 2.255 0 0 1-.687.055c-.545-.024-1.262-.167-2.082-.425a5.59 5.59 0 0 1 .392-1.333z" fill="#000" stroke="#000" stroke-width=".2"/><path d="m89.006 14.454.001-.003c.404-.876 1.025-1.528 1.7-1.886.673-.357 1.395-.42 2.013-.127.582.291.963.894 1.096 1.653.133.76.017 1.667-.387 2.543-.404.876-1.026 1.528-1.7 1.886-.674.358-1.396.42-2.014.127-.617-.292-1.013-.896-1.146-1.653-.134-.758-.001-1.664.437-2.54z" fill="#608CFF" stroke="#000" stroke-width=".2"/></svg>