<svg width="65" height="177" fill="none" xmlns="http://www.w3.org/2000/svg"><path d="M64.68 34.012h-51v84.298h51V34.012z" fill="#F9F3DD"/><path fill-rule="evenodd" clip-rule="evenodd" d="M33.398 5.169h-.208c-.21 0-.21.224-.21.224-1.467 1.349-2.095 3.147-2.305 4.945-.21 2.921.63 6.067 1.467 8.989.629 2.022 1.675 4.27 3.351 4.943 1.048.45 2.305.225 3.771-1.123l.628-.674c.21-.45.63-.675.84-1.124L41.358 20c.42-.674.63-1.348.84-2.022 0 0-.002-.225-.212-.225h-.208a4.956 4.956 0 0 1-1.048 1.798c-.21.45-.42.899-.839 1.124-.21.224-.418.674-.628.899-.21.225-.627.449-.837.674-1.257 1.123-2.095 1.123-2.934.899-1.257-.674-2.094-2.473-2.723-4.27-.838-2.697-1.885-5.843-1.675-8.54 0-1.797.627-3.37 1.884-4.719l.21-.225c.42 0 .419 0 .21-.224.209 0 .209 0 0 0 .209 0 .209 0 0 0z" fill="#000"/><path fill-rule="evenodd" clip-rule="evenodd" d="M35.493 23.821c-.209.225-.208-.225-.208.224v.225c.21.9.208 1.798-.21 2.697 0 .45-.21.674-.42 1.123-.21.225-.208.45-.418.675-.21.225-.21.224 0 .45h.418l.63-.675c.419-.674.627-1.124.837-1.798.21-.674 0-1.573-.21-2.472v-.225c-.209-.45.21-.224-.419-.224.21 0 .21 0 0 0z" fill="#000"/><path fill-rule="evenodd" clip-rule="evenodd" d="M35.703 27.866c-.21 0 0 0 0 0h-.417c-.838.674-2.095 1.124-3.143 1.573-.838.45-1.676.674-2.514.899-.838.224-2.095.45-3.143.898-.628.225-1.258.675-1.886 1.35-1.048 1.347-1.676 3.145-2.095 4.943-.629 2.697-.837 5.393-1.256 7.865-.838 5.618-1.676 11.237-2.723 16.63-.42 2.472-1.05 5.169-1.678 7.64-.21.675-.418 1.349-.418 2.023-.209.45-.21.9-.21 1.349 0 .224.001.224.21.224.21 0 .21 0 .21-.225l.627-1.348.628-2.022c.42-1.573.838-3.371 1.048-4.944 1.466-6.517 2.306-13.034 3.353-19.551.42-2.247.628-5.17 1.256-7.641.42-1.798 1.049-3.371 1.887-4.495.419-.449.838-.898 1.467-1.123.838-.45 2.094-.674 2.931-1.124 1.258-.45 2.515-.899 3.563-1.573.628-.45 1.466-.899 2.095-1.348 0 0 .208 0 .208-.225.21.45.21.45 0 .225.21 0 .21.224 0 0 0 0 .21 0 0 0z" fill="#000"/><path fill-rule="evenodd" clip-rule="evenodd" d="M16.846 72.586c0 .225-.208.225-.208.45-.21.45-.419 1.123-.629 1.798-.838 2.921-1.886 5.618-2.933 8.314-.838 2.023-1.466 4.27-2.304 6.293-.629 1.348-1.047 2.697-1.676 4.045v.224h.209c.629-1.348 1.466-2.697 2.095-4.045.838-2.022 1.886-4.044 2.514-6.292 1.048-2.921 1.886-5.618 2.515-8.54.21-.674.417-1.123.417-1.797.21 0 .21-.225 0-.45.21 0 .21 0 0 0 .21 0 .21 0 0 0z" fill="#000"/><path fill-rule="evenodd" clip-rule="evenodd" d="M8.257 100.901c.21-.224.209-.449.209-.449l.63-2.697c.21-.45.208-.674.418-1.123 0 .45-.21 1.123-.21 1.573-.209.674-.208 1.573-.627 2.247 0 0-.21.674-.42 1.124-.21.224-.21.225-.42.225-.209 0-.209 0-.419-.45v-2.023c0-1.123.21-2.247.42-3.146.21-.898.628-1.797 1.047-2.696v-.225h.211c.21.225.209 0 .209.225 0 .224-.209.224-.209.224-.419 1.349-.838 2.472-1.047 3.82-.21.675-.211 1.124-.211 1.798.419.225.42 1.124.42 1.573z" fill="#000"/><path fill-rule="evenodd" clip-rule="evenodd" d="M11.401 104.722v-.674l-.42-3.371v-2.023c0-.45.211-.898.211-1.348.21-.45.419-1.123.628-1.573l.629-1.348c.21-.45.21-.9.419-1.349 0 0 0-.224.209-.224 0 0 .21 0 .21.224 0 .674 0 1.349-.21 1.798-.21.45-.21.674-.42 1.124l-.628 1.348c-.21.45-.209.899-.209 1.348v2.023c0 .674.21 1.573.21 2.247v1.124s-.21.899-.21 1.124c0 .224-.21.224-.419.224-.21-.225-.628-.674-.628-1.124-.42-.899-.419-2.247-.628-2.921v-.674.449c0 .675-.001 1.124.209 1.798 0 .674.21 1.573.419 2.248 0 .449-.001.674-.21 1.123 0 .225-.21.225-.21.225h-.208c-.21 0-.21-.674-.42-.899l-.419-1.349c0-.449-.209-.898-.209-1.348v-2.247.449l-.42 3.821v1.123s0 .225-.21.45c0 .224-.417.224-.417 0-.21-.45-.21-.675-.42-1.124 0-.45-.21-.674-.21-1.124v-1.123l-.418 2.023c0 .224-.21.674-.21 1.123 0 .225-.21.225-.21.449-.209 0-.419 0-.419-.224v-2.697c0-1.124.21-2.472.629-3.595.21-.674.209-1.349.628-2.023l.63-1.348h.208c-.209.45-.208.898-.208 1.348-.21.899-.42 2.022-.63 2.921-.21.899-.208 1.798-.418 2.697v1.124l.628-2.697.21-.899.21-.45s-.001.001.208.225v3.146c0 .45.21.674.21 1.124v.225-.674c0-.675.21-1.574.21-2.248 0-.449.209-.898.209-1.573l.21-.898v-.675s.209 0 .209.225v.225c.21 1.348 0 2.472.209 3.82l.21 1.124v-.225c0-.674-.21-1.349-.21-2.023 0-.449-.21-.898 0-1.573 0-.674 0-1.348.21-2.022v-.45h.21v.225s.21.45.21.674l.209 1.348c.209.675.209 1.798.628 2.922l.419.899zm-4.61 1.348c-.209 0-.209 0 0 0z" fill="#000"/><path fill-rule="evenodd" clip-rule="evenodd" d="M13.287 93.036c.21 0 .207-.224.417-.224v-.225c.419-.675.838-1.124 1.047-1.798 1.886-3.146 3.773-6.292 5.449-9.439.838-1.573 1.675-3.146 2.304-4.943l1.258-3.371s-.001-.225-.21-.225c-.21 0-.21 0-.21.225a27.654 27.654 0 0 0-1.675 3.596c-1.886 3.82-3.982 7.64-6.077 11.46-.628.9-1.048 1.798-1.467 2.922-.21.45-.627 1.123-.836 1.573v.449c0 .225 0 0 0 0 0 .225 0 .225 0 0z" fill="#000"/><path fill-rule="evenodd" clip-rule="evenodd" d="M23.133 75.058c.21-.225.21-.45.42-.674.209-.225.21-.674.419-1.124.21-1.123.628-2.247 1.047-3.596.21-1.123.63-2.472.839-3.595.838-4.045 1.465-8.315 1.884-11.236 0-.45.211-.9.211-1.349v-1.348l-.21-.225c-.21 0-.21 0-.21.225s0 .674-.21 1.348c0 .45-.209.899-.209 1.349-.21 1.797-.628 4.045-1.047 6.517-.629 3.37-1.258 6.742-1.887 9.663-.21 1.349-.627 2.472-.836 3.371-.42 0-.42.224-.211.674-.21 0-.21 0 0 0z" fill="#000"/><path fill-rule="evenodd" clip-rule="evenodd" d="M29 31.462c-.21 0-.211 0-.211.224v.225c0 .45-.209.899-.209 1.349-.419 2.471-1.047 4.719-1.675 7.19-.21 1.349-.42 2.697-.42 4.046 0 .899.209 2.022.209 2.921.21 1.349.63 2.697.839 4.27.21 1.798.419 3.37.419 5.169 0 1.797-.21 3.595-.21 5.168.209-1.797.418-3.595.627-5.168 0-1.798.21-3.596 0-5.394-.21-1.573-.418-3.37-.628-4.944 0-.674-.208-1.348-.208-2.022 0-3.596 1.256-6.967 1.675-10.338.21-.899.418-1.573.209-2.472 0 0-.208 0-.417-.224.21 0 .21 0 0 0z" fill="#000"/><path fill-rule="evenodd" clip-rule="evenodd" d="M28.371 57.305c0 .224-.21.224 0 0-.419.898-.417 1.573-.417 2.247-.21 1.573-.21 2.921-.42 4.494 0 1.573-.21 2.922-.419 4.495-.21 1.573-.419 2.921-.628 4.27-.21 1.348-.419 2.472-.628 3.82-.21.899-.21 1.573-.42 2.697 0 0 0 .224.209.224.21 0 .21 0 .21-.224.21-.9.42-1.798.629-2.472.21-.675.209-1.124.209-1.798.418-2.023.629-4.045.838-6.517.21-1.573.21-2.922.42-4.495.21-2.022.209-4.045.209-6.067v-.45c.418 0 .418 0 .208-.224.21 0 .21 0 0 0z" fill="#000"/><path fill-rule="evenodd" clip-rule="evenodd" d="M26.695 74.16c-.21.224-.21.224 0 0-.419.674-.42 1.348-.42 2.022-.628 2.697-1.256 5.393-1.675 7.865-.419 1.349-.627 2.922-.837 4.27a3681.492 3681.492 0 0 0-1.886 16.63l-.628 5.393c-.21 1.349-.419 2.472-.628 3.821 0 .449-.211 1.123-.211 1.573 0 0 .001.225.21.225 0 0 .21-.001.21-.225.209-.899.418-1.574.628-2.473.419-1.797.629-3.82.838-5.842.838-6.517 1.466-12.81 2.304-19.327.21-2.022.63-3.82.839-5.618.419-2.022.838-3.82 1.047-5.842.21-.9.42-1.799.42-2.697 0 .449-.001.45-.21.224 0 0 .209 0 0 0z" fill="#000"/><path fill-rule="evenodd" clip-rule="evenodd" d="M20.41 115.958c-.21.225-.21.225-.21.449-.209 1.349-.42 2.697-.838 4.046-.838 3.371-2.304 6.966-2.932 10.337a661.05 661.05 0 0 0-1.258 8.314c-.629 4.045-1.256 8.315-1.885 12.36-.21 2.023-.42 4.045-.839 6.293-.21.899-.21 1.573-.419 2.472 0 .449-.209 1.123-.209 1.573 0 0 0 .225.209.225.21 0 .21 0 .21-.225.21-.674.42-1.124.629-1.798.21-.45.208-.899.208-1.124.42-2.472.84-4.719 1.259-7.191.628-4.045 1.256-8.315 1.884-12.36.42-2.696.838-5.393 1.467-8.09.628-3.371 2.095-6.966 2.723-10.337.21-1.348.42-2.697.42-4.27v-.449c0-.225 0-.225-.42-.225.21-.225.21 0 0 0 0 0 .21-.225 0 0z" fill="#000"/><path fill-rule="evenodd" clip-rule="evenodd" d="M12.448 160.229c-.21.225-.209.225-.209.449-.21.225-.21.45-.21.675-.838 1.573-1.676 2.921-2.723 4.269-1.258 1.573-2.723 3.146-4.4 4.495-.418.449-.838.674-1.257.899-.629.449-1.258.898-2.096 1.348-.209.225-.838.449-1.047.674-.21.225-.42.45-.42.674-.209.45.002.674.211.899.42.45 1.257.674 1.676.674 1.257 0 2.932.45 4.399.225.838 0 1.466-.224 2.095-.674.628-.449 1.257-1.123 2.095-1.573.21-.225.629-.225.839-.45 1.676-.449 4.19-.224 5.657-1.123.628-.45 1.256-1.124 1.675-2.248.21-.674.21-1.572 0-2.471-.21-1.124-.838-2.472-1.047-3.371 0 0 0-.225-.209 0-.21 0-.21 0-.21.224 0 .899.21 1.799.419 2.697.21.45.208.675.208 1.124v1.573c-.419 1.124-1.046 1.573-1.884 2.022-1.467.45-3.352.225-4.818.675-.42.224-.838.224-1.048.449-.628.449-1.257 1.123-2.095 1.573-.628.449-1.257.45-2.095.45-1.257 0-2.725-.225-3.772-.225-.21 0-.629 0-1.048-.225-.21 0-.627-.225-.417-.449 0-.225.208-.225.417-.225.21-.225.63-.45.839-.45.628-.224 1.258-.674 1.886-1.123.629-.45 1.257-.899 1.676-1.348 1.676-1.573 3.352-2.922 4.61-4.72 1.047-1.348 1.884-2.921 2.303-4.719.21-.224.209-.449.209-.674-.21.449-.209.225-.209 0z" fill="#000"/><path fill-rule="evenodd" clip-rule="evenodd" d="M17.057 168.094c.21-.225.209-.449.209-.449 0-1.349.209-2.922.628-4.271l1.258-4.718c.628-1.798 1.047-3.596 1.676-5.394 1.466-4.045 3.352-8.09 4.61-12.36.837-2.921 1.465-5.843 1.675-8.764.21-1.798.208-3.596.208-5.394v-1.797c0-.674.001-1.124-.208-1.798 0 0 0-.225-.209-.225 0 0-.21 0-.21.225 0 .449-.21 1.123-.21 1.573-.209 1.123-.21 2.472-.21 3.596-.21 1.797-.208 3.595-.418 5.168-.209 2.247-.838 4.494-1.466 6.742-1.258 4.045-3.143 8.09-4.61 12.135l-1.886 5.393c-.42 1.798-1.047 3.821-1.256 5.618-.21 1.124-.21 2.248-.21 3.596v.225c.42.899.42.899.629.899-.21.225-.21.225 0 0 0 .225 0 .225 0 0z" fill="#000"/><path fill-rule="evenodd" clip-rule="evenodd" d="M26.905 125.171s.21 0 0 0c.21-.224.209-.224.209-.449.419-1.124.627-2.472 1.256-3.596a28.57 28.57 0 0 1 1.467-3.82c.838-1.798 1.466-3.82 2.095-5.618 2.304-7.416 4.82-14.832 7.124-22.248.419-1.573.837-2.921 1.256-4.494.21-.45.21-.674.21-1.124 0 0 0-.225-.21-.225h-.209c-.21.225-.21.45-.42.9l-.627 2.022c-.21.899-.63 1.573-.84 2.472-2.513 7.416-5.027 14.832-7.332 22.472-.628 1.798-1.466 3.821-2.095 5.619-.419 1.348-.837 2.471-1.256 3.82-.419 1.348-.63 2.472-.839 3.82v.225c0 .225.001.224.21.224 0 .225 0 0 0 0s0 .225 0 0z" fill="#000"/><path fill-rule="evenodd" clip-rule="evenodd" d="M39.892 84.497c.21 0 0 0 0 0 .21.225.21 0 .21 0 .839-.225 1.467-.45 2.305-.674.21 0 .21-.225.21-.45s-.21-.225-.42-.225c-.837.225-1.467.45-2.305.675h-.209c.21.449.21.449.21.674 0-.225 0-.225 0 0z" fill="#000"/><path fill-rule="evenodd" clip-rule="evenodd" d="M42.408 83.597c0 .225-.209.225-.209.225-.21.45-.21.899-.21 1.348-.21 2.248-.21 4.27-.21 6.518 0 4.944.21 9.887.42 14.831.21 4.944.208 9.888-.21 14.832v3.146c0 .225.21.225.21.225.21 0 .209 0 .209-.225s.21-.674.21-.899c0-.449.21-.898.21-1.573.209-3.37.208-6.517.208-9.888 0-7.64-.418-15.28-.418-22.922v-5.393c.21 0 0 0-.21-.225.21 0 .21 0 0 0z" fill="#000"/><path fill-rule="evenodd" clip-rule="evenodd" d="m42.617 123.824-.21.224s0 .225-.21.225c-.209 1.124-.628 2.247-1.047 3.595-.21.674-.418 1.573-.628 2.247-.628 2.248-1.048 4.495-1.467 6.742-.838 6.742-1.047 13.484-1.675 20.225-.21 2.248-.63 4.495-.84 6.742 0 .225.002.45-.208.674v1.124s0 .225.209.225c0 0 .209 0 .209-.225.209-.225.21-.674.419-.899 0-.224.001-.449.21-.674.42-2.247.839-4.495 1.048-6.967.838-6.741 1.048-13.483 2.095-20 .42-2.472 1.047-4.944 1.676-7.416.21-1.124.628-2.022.628-3.146.21-.674.21-1.348.42-2.247v-.225c-.42 0-.42-.224-.629-.224 0-.225 0 0 0 0 0-.225 0-.225 0 0z" fill="#000"/><path fill-rule="evenodd" clip-rule="evenodd" d="M36.96 161.128c-.209.224-.21.224-.21.449-.42 1.124-1.046 2.247-1.465 3.371-.21.674-.42 1.124-.42 1.798 0 .674.21 1.124.21 1.798.209.224.21.674.21.898.21.225.208.45.417.9.21.224.21.449.42.674h.21c0-.225.21-.45.21-.674v-.225c0-.45-.21-.674-.21-1.124-.209-.674-.63-1.348-.63-2.247 0-1.798 1.048-3.371 1.467-4.944 0-.225.21-.225 0-.449.21 0 .001-.001-.208-.225.21 0 .21 0 0 0 0 0 .21 0 0 0z" fill="#000"/><path fill-rule="evenodd" clip-rule="evenodd" d="M36.123 171.016c-.21 0 0-.225-.209 0v.224c-.21.899-.838 2.023-1.047 2.922-.21.674-.001 1.348.208 1.798.21.449 1.049.674 1.887.899h2.514c.629 0 1.257-.225 1.676-.225.21 0 .628-.225 1.047-.225.42-.225.628-.224.628-.449.21-.225.209-.674.209-1.124 0-.899-.419-2.022-.628-2.472-.21-.674-.21-1.348-.42-1.798-.209-.899-.208-2.022-.208-2.921v-.45c0-.224-.209-.449-.209-.898 0-.225-.21-.225-.21-.225-.21 0-.21 0-.21.225 0 .224-.21.674-.21.898 0 .674.21 1.349.21 2.248.21 1.123.21 2.022.629 3.146.21.449.418 1.348.628 2.022.21.45.21.899 0 1.349 0 .225-.21.224-.42.449-.419.225-.837.225-1.047.225-.629 0-2.094.225-3.351 0-.838 0-1.468-.225-1.887-.674-.21-.225-.21-.674 0-1.124.21-.899.63-2.247.84-2.921 0 0 .209-.225 0-.225-.21-.899-.001-.674-.42-.674.21-.225.21 0 0 0 0 0 .21-.225 0 0z" fill="#000"/><path fill-rule="evenodd" clip-rule="evenodd" d="M41.57 167.869c.21 0 0 0 0 0l.208-.224c.21-.899.21-1.799.42-2.697 0-1.124.208-2.023.208-3.146.21-.899.21-1.798.629-2.473 1.466-5.168 4.819-10.112 6.704-18.202.629-2.921 1.257-6.293 1.047-10.338v-1.348c0-.449-.208-.899-.208-1.348 0-.225-.21-.225-.21-.225-.21 0-.21 0-.21.225 0 .449-.208.899-.208 1.348v2.023c-.21 5.168-.84 9.214-1.887 12.585-1.885 6.292-4.61 10.561-5.657 15.056-.419 1.573-.628 2.921-.628 4.494v4.046c0 .224-.21.224 0 .449-.419-.225-.418-.45-.208-.225-.21 0-.21 0 0 0z" fill="#000"/><path fill-rule="evenodd" clip-rule="evenodd" d="M50.37 130.115c0-.449.001-1.123.21-1.573 0-.449 0-1.123.21-1.573.209-1.123.419-2.022.419-3.146.21-2.472.628-4.944 1.047-7.416.21-1.573.63-3.37.84-4.943l1.884-11.462c.628-3.82.839-7.64 1.258-11.46.21-2.023.417-4.27.417-6.518v-2.247c0-.674-.209-1.573-.209-2.247 0 0 .001-.225-.208-.225-.21 0-.211 0-.211.225v2.247c0 1.124-.209 2.247-.209 3.146-.21 1.798-.21 3.596-.42 5.394-.209 3.82-.836 7.64-1.255 11.46l-1.887 11.462c-.21 1.573-.629 3.37-.839 4.943-.209 2.472-.627 4.944-.836 7.416-.21 1.574-.42 2.922-.42 4.495v.674c-.21.45 0 .899.209 1.348z" fill="#000"/><path fill-rule="evenodd" clip-rule="evenodd" d="M56.024 79.552c.21 0 .211 0 .211-.224.21-.674 0-1.349 0-2.247-.21-1.798-.63-3.596-.839-5.394-.419-2.697-.627-5.393-1.256-8.09 0-.45-.21-.674-.21-1.124-.21-.898-.42-1.573-.629-2.472 0-.224-.208-.224-.208-.224-.21 0-.211.224-.211.224.21.9.21 1.798.21 2.697 0 .674.21 1.348.21 1.798.418 2.247.628 4.72 1.047 6.966.419 1.349.838 2.922 1.047 4.495.21.899.209 1.798.209 2.697v.225c.21.449.21.448.42.673-.21 0-.21 0 0 0z" fill="#000"/><path fill-rule="evenodd" clip-rule="evenodd" d="M53.093 61.125c0-.225 0-.225 0 0l.208-.224v-1.124c0-1.798-.208-3.596-.208-5.394 0-1.123.208-2.472.208-3.595v-2.472c0-1.349-.21-2.697-.419-4.046 0 0 0-.224-.209 0 0 0-.21 0-.21.225v2.023c0 1.123-.21 2.023-.21 3.146-.209 1.573-.208 3.146-.208 4.72 0 .898 0 1.797.209 2.696.21 1.123.42 2.472.42 3.596v.224s.21 0 .419.225c-.21 0-.21 0 0 0z" fill="#000"/><path fill-rule="evenodd" clip-rule="evenodd" d="M43.873 18.652c-.209.674-.419 1.349-.419 1.798-.21 1.573.21 3.146.839 4.495.838 2.022 2.305 3.82 4.61 4.719 2.095.898 4.399 1.573 6.285 2.696 1.257.674 2.094 1.574 2.723 3.147.628 1.573.838 3.146 1.047 4.944.21 2.696 0 5.393 0 7.64.21 3.37.418 6.742.837 10.113.419 3.595.628 6.967 1.047 10.562.21 1.124.211 2.022.211 3.146 0 .45.209.9.209 1.349l.21.224c.21 0 .21 0 .21-.224v-1.574c0-1.124-.21-2.247-.21-3.595 0-1.349-.21-2.697-.21-4.045-.42-5.394-1.047-10.563-1.256-15.956-.21-2.922.208-6.068-.211-8.989-.21-1.348-.418-2.697-.837-3.82-.628-1.798-1.887-2.921-3.353-3.595-2.095-1.124-4.399-1.799-6.494-2.698-1.466-.674-2.723-1.797-3.351-3.146l-.63-1.348c-.42-1.124-.837-2.247-.837-3.371v-.674c0-.674-.21-1.123-.42-1.798.21 0 .21 0 0 0z" fill="#000"/><path fill-rule="evenodd" clip-rule="evenodd" d="M61.682 72.137c0 .225 0 .225 0 0 .21.225.209.449.209.674.21.898.419 2.022.419 2.921v3.371c0 1.348-.209 2.697-.209 3.82-.21 1.349-.21 2.697-.21 3.821-.21 1.124 0 2.247 0 3.37 0 1.124.21 2.248.21 3.596-.21-1.348-.418-2.696-.628-4.27-.21-.898-.21-1.797-.21-2.92v-3.372c0-1.123.21-2.022.21-3.146.21-1.573.209-3.146.209-4.72 0-.898-.209-2.022-.209-2.92v-.675h.209c-.21.45-.21.45 0 .45zM58.54 95.283c0-.225 0-.225 0 0 .21-.45.209-.899.209-.899l.21-.898c.21-.45.21-.9.42-1.574v-.224c.21-.225.209 0 .209-.225a.21.21 0 0 0 .209.225v.224c-.21.45-.208.9-.418 1.574l-.21.898c-.21.225-.21 1.124-.629 1.349-.21.225-.21.225-.42 0-.209 0-.209-.225-.418-.45l-.21-.45v-2.022c0-.899.21-1.798.21-2.472v-.674h.21c0 .225.209.674.209.9 0 1.123-.21 2.47 0 3.594l.21.675.21.449z" fill="#000"/><path fill-rule="evenodd" clip-rule="evenodd" d="M58.538 100.677c0-.225.209-.225.209-.225l1.047-2.247c.21-.225.21-.45.42-.899.21-.674.63-1.349.839-2.023.21-.674.418-1.348.628-1.797 0 0-.001-.225.208-.225h.211v.225c0 .45-.21 1.123-.42 1.797-.209.674-.42 1.349-.838 2.023-.21.225-.208.674-.417.899l-1.259 2.023c-.21.224-.21.449-.42.449-.209 0-.208 0-.208-.225-.21-.225-.208-.449-.208-.899.209-.674.418-1.348.628-1.798.419-.899.627-2.022.836-2.921 0-.45.211-.899.211-1.573 0-.45.209-.899.209-1.573h.21c0 .225 0 .45.21.674v1.797c-.21 1.124-.63 2.248-1.048 3.596l-.628 1.349c-.629 1.124-.63 1.348-.42 1.573z" fill="#000"/><path fill-rule="evenodd" clip-rule="evenodd" d="M56.863 101.126c.419-.224.419-.449.628-.674.419-.449.838-.898 1.047-1.348h.21c-.21.45-.42.674-.629 1.124-.21.449-.627.674-.837 1.123 0 0-.21.225-.63.45-.21 0-.208.224-.417 0-.21 0-.211-.225-.211-.225 0-.225.21-.45.21-.45l.838-1.797c.419-.675.628-1.574 1.047-2.248.21-.45.419-1.123.628-1.573v-.225h.21v.225c0 .674-.209 1.124-.419 1.573-.209.9-.627 1.798-1.256 2.472l-.42 1.573z" fill="#000"/><path fill-rule="evenodd" clip-rule="evenodd" d="M56.444 99.778c.21-.45.628-1.124 1.047-1.573l.42-.45h.208s.21 0 0 .226c0 .224-.417.898-.836 1.572-.42.675-.838 1.573-1.048 1.573-.419.225-.629 0-.42-.674.21-.674.838-2.022 1.257-3.146.419-.899.839-1.573.839-2.023h.208c0 .45-.418 1.574-.628 2.472-.21.45-.628 1.349-1.047 2.023z" fill="#000"/><path fill-rule="evenodd" clip-rule="evenodd" d="M56.236 98.43c.21-.225.838-.9 1.048-1.574h.208s.209 0 .209.225c-.419.899-.838 1.573-1.047 1.798-.21.224-.629.225-.629.225-.21 0-.21-.225 0-.675.21-.45.63-1.348.84-2.472.418-.899.628-2.022 1.047-2.921 0-.225.209-.45.209-.674v.899c-.21.45-.21 1.123-.42 1.797-.419 1.124-1.255 2.697-1.465 3.371zm0 0c0 .224 0 .224 0 0 0 .224 0 .224 0 0zm1.884-8.09c.209 0 .209 0 0 0l.21-.225c-.21-.674-.63-1.348-.63-2.247v-3.147s0-.224-.209-.224c0 0-.209 0-.209.224 0 .225-.21.675-.21.9 0 .224-.209.673-.209.898v1.349c0 .45.21.898.42 1.348.209.45.207.674.417 1.123.21.225.21 0 .42 0 0 .225 0 .225 0 0 .209.225 0 .225 0 0z" fill="#000"/><path fill-rule="evenodd" clip-rule="evenodd" d="M57.492 85.62c-.21-.674-.209-1.124-.209-1.573 0-.674-.21-1.123-.21-1.798l-.629-4.045c-.419-2.472-.838-4.944-.838-7.416.419 2.472 1.049 5.394 1.677 8.09.21 1.124.419 2.247.628 3.596.21.899.21 1.797.21 2.696v.225c-.21.225 0 0-.21 0-.209.45-.21.45-.419.225z" fill="#000"/><path fill-rule="evenodd" clip-rule="evenodd" d="M55.817 73.485c.21-.225 0-.225 0-.45-.21-1.123-.42-2.022-.42-3.145v-5.394c-.21-3.371-.628-6.517-1.047-9.888-.21-1.573-.63-2.921-.839-4.494-.21-.675-.419-1.349-.628-1.798 0 0-.209-.225-.209 0-.21 0-.21 0-.21.225 0 .45.21.898.21 1.348.21.674.21 1.348.42 2.022.21 1.574.418 3.146.628 4.944.21 2.697.628 5.393.628 8.09.21 2.023-.001 4.27.209 6.293.209.898.21 1.573.63 2.472 0 0-.001.224.208.224l.42-.45c0 .226-.21.226 0 0 0 0 0 .226 0 0zm-25.56-42.249s0-.224 0 0c-.21 0-.209.225-.209.225-.21.9-.42 2.023-.42 2.922-.209 1.573-.21 3.37-.21 4.944 0 .674.001 1.348.21 2.022 0 .45.21.9.42 1.349.42.674.838 1.123 1.676 1.348.838.45 1.884.674 2.932.899 2.095.45 5.029.45 7.543 0 1.886-.45 3.352-1.124 4.61-2.472.419-.45.627-.899.836-1.348.42-.675.628-1.573.628-2.248.21-1.348.421-2.696.63-3.82 0-.899.21-1.798.21-2.697s-.002-1.798.208-2.697v-.224c0-.225 0-.225-.209-.225 0-.224.001-.225-.208-.225-.21 0-.211 0-.211.225l-.209.225v.674c-.21.899-.21 1.798-.21 2.697 0 2.023-.21 4.045-.629 6.067-.21.675-.209 1.349-.628 2.023-.21.45-.418.899-.628 1.123-1.047 1.124-2.514 1.798-4.19 2.248-2.514.45-5.237.45-7.333 0-.838-.225-1.885-.45-2.723-.675a2.197 2.197 0 0 1-1.258-1.123c-.21-.45-.21-.674-.42-1.124-.209-.674-.208-1.348-.208-2.022 0-1.798 0-3.371.209-5.169 0-.674 0-1.348.21-2.247 0-.225.21-.45 0-.675h-.42c.21-.224.21 0 0 0 0 0 .21-.224 0 0z" fill="#000"/><path fill-rule="evenodd" clip-rule="evenodd" d="M37.827 16.348c.143 0 .287-.154.573 0h.142c.572.153.859.613.859 1.227v.92c-.143.306-.287.613-.43.767-.143.306-.428.613-1 .46-.286 0-.43-.154-.572-.307-.143-.153-.287-.307-.287-.614 0-.153-.142-.306-.142-.46 0-.46.143-.92.286-1.38 0-.153.143-.306.143-.306.143-.154.285-.307.428-.307z" fill="#F4D9D9"/><path fill-rule="evenodd" clip-rule="evenodd" d="M33.253 13.434c-.143 0-.143 0 0 0-.143-.153 0-.153 0 0 .143-.153.143-.153.286 0s.144.46.144.46c0 .307.142.613.142.92 0 .307 0 .614.143.92v3.22c0 .46-.143.92-.143 1.38 0 .154-.142.154-.142.154-.143 0-.144-.153-.144-.153 0-.46-.142-.92-.142-1.38v-4.908c-.286-.153-.43-.46-.144-.613-.143 0-.143 0 0 0zM40.4 30.303c0-.153 0-.153 0 0 .143-.307.43-.306.43-.46.286-.153.429-.307.715-.307.143 0 .285-.153.57-.153l2.574-.46c.572-.153 1.144-.153 1.716-.307.143 0 .286 0 .286.154 0 .153 0 .153-.143.306-.571.154-1.144.46-1.715.46-.858.154-1.86.307-2.717.46-.143 0-.428 0-.571.154-.143 0-.43.153-.573.153 0 0-.43.154-.572.154 0 0 .143-.154 0-.154s-.143.153 0 0c-.143 0-.143 0 0 0 0-.153 0 0 0 0zm-4.289.46s-.143.154 0 0c-.143-.153-.428 0-.428 0h-3.431c-.572 0-1.144 0-1.716.154-.143 0-.286 0-.286-.154 0-.153 0-.153.142-.306.715-.154 1.43-.46 2.145-.46h2.145c.285 0 .428 0 .714.153.143 0 .287.153.43.153l.285.154c0 .306.143.306 0 .306 0 .154 0 .154 0 0 0 0 0 .154 0 0zM27.533 49.78v-.614l.144.153c0 .154 0 .154.143.307 0 .153.143.307.143.307 0 .153.143.46.143.613.143.614.143 1.227.286 1.84 0 .46.142.767.142 1.227v1.227c.143 1.073.287 1.994.287 2.914 0 .613 0 1.227-.143 1.84-.143.614-.286 1.227-.286 1.687 0 .307-.144.46-.144.767 0 .153-.142.153-.142.153-.143 0-.143-.153-.143-.153v-.767c0-.92.142-1.84.285-2.607v-.767c-.143-.767-.285-1.687-.285-2.607 0-.613-.143-1.227-.143-1.84v-1.227c0-.613 0-1.227-.143-1.687v-.613c-.143 0-.144-.154-.144-.154z" fill="#000"/><path fill-rule="evenodd" clip-rule="evenodd" d="M27.39 53.46c0-.153-.143-.153-.143-.153-.143-.307 0-.767 0-.92 0-.614.142-1.227.142-1.687v-1.074s0-.153.143-.153h.143c.143.46.144.767.287 1.227 0 .613-.144 1.226-.144 1.687 0 .153 0 .613-.143.92 0 0-.143.153-.286.153l.143.307v.46-.307h-.143v.154-.614zm2.86-2.147h.142c.286 0 .716.153.859.153l2 .46c.144 0 .145.154.145.154 0 .153-.144.153-.287.153h-1.287c-.286 0-.571-.153-.857-.153-.143 0-.572-.154-.857-.46-.286-.154-.287-.307-.144-.46.143.153.143.153.286.153zm14.44.46h.286c.286 0 .572-.306 1-.306.716-.307 1.573-.767 2.145-1.38a1.79 1.79 0 0 0 .715-.768c.429-.46.714-.92.857-1.226v-.154h-.142l-1.001 1.074c-.286.153-.429.46-.715.613-.715.46-1.43 1.074-2.145 1.38l-1 .767s0-.153 0 0zm8.864 21.47c.429-.153.858-.307 1-.307h.287c.143 0 .286 0 .429.307.428.613.286 1.074 0 1.38v.307c-.143.307-.287.46-.573.613-.286 0-.571.154-.857.154h-1.572l-.144.153c-.143.154-.429.153-.715.153l-.428.46c-.286.307-.572.307-.858.307-.286 0-.43-.307-.43-.46l-.142.767c0 .153-.143.153-.286.153s-.287-.153-.287-.306c0 0 .001-.614-.142-1.074v-.307a1.04 1.04 0 0 1 0-.92c0-.306.286-.46.429-.613.286-.154.428-.154.715 0h.143c.143-.154.286-.154.429 0h.142c.143-.307.43-.307.573-.154h.286c.429-.153 1-.306 1.43-.46.286-.306.428-.306.57-.153zm1.716.613.142-.153c-.143-.153-.142 0-.142.153zm-27.165.921c.143-.154.43-.154.572-.154.286 0 .428.154.571.307h2.145c.143 0 .43 0 .572.153h.715c.143 0 .428 0 .571.154 0-.154.144-.154.144-.154h.142v-.153c0-.153.144-.153.287-.153v.306s.142 0 .142.154c0 .153.143.306 0 .613 0 .46-.142.92-.142 1.227v.767c0 .153-.143.153-.429.153h-.144c-.143 0-.285.154-.428 0 0 0-.143 0-.143-.153l-.144-.154-.857-.306c-.286 0-.428-.307-.428-.614-.286 0-.573-.153-.86-.153-.428-.153-.857-.46-1.143-.614h-2.144c-.143 0-.286-.153-.429-.153-.143-.153-.142-.307-.142-.46 0 0 0-.153.142-.307-.143 0-.142-.153-.142-.306v-.307c0-.153.142-.307.428-.307.43.46.858.46 1.144.614zm-.286 1.227c-.143 0-.143 0 0 0-.143.153-.143.153 0 0zm1.574-44.934c.143-.613.285-.46.285 0v.154l.144.153c.286-.307.572-.46.715-.46.143 0 .286.153.286.306 0 .154-.143.307-.287.307-.142.153-.143.307-.286.46v.154c0 .306-.286.766-.286 1.073.143 0 .286.154.286.307l-.142.613v.307l-.144 1.687v.306c0 .767 0 1.534-.142 2.3 0 .46-.144.921-.287 1.228v1.073c.143 0 .287.154.287.154 0 .153.143.766 0 1.073 0 .154-.144.307-.287.307h-.857c-.286.153-.572.153-.715-.154h-.143c-.286 0-.287-.306-.287-.306l.144-.154c.143 0 .143-.153.143-.306-.143 0-.287-.154-.287-.154v-.766s.144-.154.287-.154v-.153s0-.307.143-.46v-.767l.285-2.147c0-.614.144-1.227.144-1.84l.142-.92v-.46c0-.307.144-.46.144-.46v-.154l.143-1.38s0-.307.142-.46c.143-.153.287-.307.43-.307-.143 0-.143 0 0 0zm-1.001 11.042h.142c0 .153.001.153-.142 0 .143 0 .143 0 0 0zm20.015-.921-.286.307c-.143.154-.286.154-.43.154-.285 0-.285-.154-.428-.307v-.46s.142-.307.285-.307c0-.153.144-.153.144-.307v-1.533c0-.614.143-1.074.286-1.687 0-.307.143-.767.143-1.074 0-.46.142-.92.142-1.38.143-1.073.143-2.147.286-3.067 0-.307.001-1.074.144-1.534a2.11 2.11 0 0 1 .429-.613c.143 0 .428 0 .57.307.144.613.287 2.147.287 2.3-.143 1.227-.286 2.3-.429 3.527-.143.767-.142 1.534-.142 2.3 0 .767-.286 1.38-.286 1.994v.767s-.001.153-.144.307h-.143c0 .153-.142.306-.428.306z" fill="#000"/><path fill-rule="evenodd" clip-rule="evenodd" d="M47.12 41.192c.429-.154.858 0 1.287 0 .143 0 .286 0 .286-.154 0-.153.142-.153.285-.153s.144.153.144.307v.153s-.143 0-.286.153h-2.002c-.286 0-.285-.306-.285-.306 0-.154.142-.154.285-.154h.143c0 .153.143.154.143.154zm-.143.46s-.143 0 0 0zM21.53 124.311c.142 0 .141.153.284.153h.715c.286 0 .573-.153.859-.306.143 0 .142-.154.142-.307 0-.154-.143-.154-.286 0-.143.153-.428.153-.571.307-.286 0-.573 0-.859.153-.143-.153-.285-.153-.285 0-.143-.153 0-.153 0 0-.143 0-.143 0 0 0zm24.733 2.147h.142s.144 0 .144.153c.143 0 .286.154.429.154h.428c.143 0 .287 0 .287-.154l.428-.46c.143-.153 0-.46-.142-.613-.286-.153-.43 0-.573.153h-.142c-.286 0-.572.154-.715.154-.429.306-.572.306-.286.613-.143 0-.143 0 0 0 0 0-.143 0 0 0z" fill="#000"/><path fill-rule="evenodd" clip-rule="evenodd" d="M49.95 29.664c-.209.225-.21.45-.419.9-.21 1.347-.21 2.92-.42 4.269 0 .898-.208 2.022-.208 2.921 0 1.798-.002 3.82.417 5.393.21.9.63 2.248 1.259 3.147.628.674 1.257 1.123 2.095 1.123.21 0 .42-.225.42-.45 0-.224-.21-.449-.42-.449-.629 0-1.048-.449-1.467-.898-.629-.675-.838-1.798-1.048-2.697-.21-1.348-.208-2.697-.208-4.045v-3.371c.21-1.798.208-3.371.208-5.169v-.225s.001-.224-.208-.45c0-.224 0 0 0 0s0-.224 0 0zM28.16 54.608c-.21 0-.21 0 0 0h.209c.628 0 1.257-.225 1.886-.225h4.818l11.103-.224h6.496c.21 0 .42.225.42.45 0 .224-.21.449-.42.449h-6.496l-11.103.225H28.16c-.21 0 0 0 0-.225s-.21-.225 0-.45c0 0-.21.225 0 0zm10.057-9.438.21-.225c.21-.224.21-.449.21-.898v-.9c0-.674-.21-1.348-.21-1.798 0 0 0-.224-.21-.224s-.209 0-.209.224v2.023c0 .45-.21.899 0 1.348 0 .225 0 .225.209.45zm-11.31 28.54s0 .225 0 0c.21 0 .418 0 .628.224.628.225 1.465.225 2.303.45 1.467.225 2.935 0 4.401.225h2.723c1.257 0 2.723-.225 3.98-.225 2.304 0 4.82-.225 7.124-.674a31.42 31.42 0 0 0 6.285-1.349c.21 0 .418-.224.628-.224h.21c.21 0 .21 0 .21.224 0 0 0 .225-.21.225v.225c0 .224-.21 0-.419.224-1.676.45-3.353.9-5.029 1.124-2.723.45-5.655.899-8.589.899-1.257 0-2.724.225-3.98.225h-2.724c-1.676-.225-3.352-.225-5.238-.45-.628-.224-1.258-.224-1.886-.674h-.209v-.225c-.419.225-.418.225-.208-.224 0 .225-.21.225 0 0 0 .225 0 .225 0 0zm15.711 10.112c.21-.224.417-.224.417-.449.42-.674.839-1.349 1.467-2.023.629-.674 1.258-1.348 1.887-1.798 1.466-1.123 3.142-2.247 4.818-2.92.628-.226 1.257-.45 2.095-.675.628-.225 1.047-.225 1.675-.45.21 0 .21 0 .42-.224.21 0 .209 0 .209-.225s-.21-.225-.21-.225c-.209 0-.21 0-.419-.225-.419 0-1.047 0-1.466.225-.839.225-1.884.674-2.513.899-1.885.674-3.562 1.798-5.029 3.147-.628.674-1.258 1.123-1.886 2.022-.629.674-1.047 1.573-1.256 2.247 0 .225-.21.225-.21.45-.209.224-.209 0 0 .224-.209 0-.209 0 0 0 0 0-.209 0 0 0zm-2.094.675c.21-.225.209 0 .209-.225 0-.674-.63-1.124-.84-1.573l-1.884-2.023c-1.047-.899-2.305-1.797-3.562-2.472-1.257-.674-2.513-1.348-3.77-1.797-.629-.225-1.468-.675-2.306-.675-.629-.225-1.257-.224-1.676-.224-.21 0-.42.224-.42.45 0 .224.21.448.42.448.42 0 .839 0 1.467.225.838.225 1.466.45 2.304.674 1.257.45 2.516 1.124 3.773 1.798 1.257.674 2.303 1.573 3.35 2.472.63.45 1.258 1.124 1.677 1.573.419.45.629.9.838 1.349 0 0 0 .224.209.224 0 0 .001-.224.21-.224 0 .225 0 .225 0 0 0 .225 0 .225 0 0zm-1.887-20.225c-.21.224-.209.224-.209.449v.224c0 .45.21.9.21 1.349l.208.225s.21 0 .21-.225V64.72l-.419-.45zm-4.19-60.901h-.209v.225c-.628 1.124-.839 2.247-.839 3.37 0 1.35.628 2.697 1.676 3.596.21.225.418.225.628.45.628.449 1.466.449 2.095 1.123l.839.9c.838 1.348 1.467 3.145 2.514 4.494.21.224.628.45.837.674.629.45 1.258.45 1.886.899l.629.674c.21.45.418 1.123.628 1.573l.21.225c.21 0 .21-.225.21-.225-.21-.45-.21-1.124-.42-1.798-.21-.45-.419-.899-.628-1.124-.629-.449-1.256-.674-1.885-1.123-.21-.225-.42-.225-.63-.45-.838-1.123-1.257-2.696-2.095-3.82-.419-.674-.837-1.123-1.256-1.573-.21-.224-.419-.225-.628-.45-.629-.45-1.467-.45-2.095-1.123-.629-.674-1.049-1.349-1.258-2.247-.21-1.124 0-2.472.419-3.596l.21-.225c-.628-.224-.838-.224-.838-.449zm-4.609 22.922-1.256.449c-.629 0-1.257-.224-2.095-.674-.629-.45-1.048-1.123-1.048-1.798v-.225c.21-.224.209-.449.209-.449l.839-1.798c.419-.674.627-1.348.837-2.247.21-.674.42-1.573.42-2.247v-3.372c0-1.124-.21-2.023-.42-3.146V9.438c0-1.123.419-2.247 1.047-3.37.629-1.124 1.257-2.023 2.095-2.922.42-.45.63-.674 1.258-1.124.21-.225.628-.45.837-.45h.211c-.21.226-.419.225-.628.45l-1.258 1.349c-.629.674-1.256 1.797-1.885 2.696-.419 1.124-.838 2.023-.838 3.147v1.348c.209 1.123.21 2.023.419 3.146v3.372c0 .9-.21 1.573-.42 2.472-.209.674-.629 1.573-.838 2.247l-.837 1.798-.42.674c0 .45.42 1.124.84 1.348.628.45 1.256.675 1.675.675.21 0 .627-.225.837-.45h.42s.21 0 .21.225c0 0 .209.225.209.45 0 .224.208.449.208.449 0 .225.21.225.42.45.628.449 1.257.449 2.095.673.628 0 1.466 0 2.095-.224.21 0 .21 0 .21.224 0 .225 0 .225-.21.225-.838.225-1.885.45-2.724.225-.628 0-1.256-.45-1.675-.674l-.42-.45c-.209-.224-.208-.45-.208-.674 0-.225-.001-.225-.21-.45z" fill="#000"/><path fill-rule="evenodd" clip-rule="evenodd" d="M32.98 1.798c.21 0 .63-.225.839-.225.419-.225.837-.225 1.256-.45C35.913.9 36.752.9 37.381.675c.838 0 1.885-.224 2.723 0 .629 0 1.256.225 1.884.225.629.224 1.05.45 1.678.674.419.225.836.674 1.465 1.124.628.449 1.049 1.123 1.678 1.797.628.675.837 1.349 1.256 2.023.21.225.208.45.208.674.21.45.211.9.211 1.349l1.676 6.067c.21.674.63 1.573.839 2.247.21.45.628.9 1.047 1.349.42.45 1.257.674 1.676 1.123.21.225.42.225.42.45s-.002.674-.212.899c-.21.449-.627.899-.836 1.348l-.63 1.348-.418.45c-.419.225-.838.45-1.047.899-.839.674-1.468 1.348-2.306 1.798-.42.224-.837.45-1.256.674-.21 0-.21.224-.42.224l-.209.225.21.225h.419c.628 0 1.047-.45 1.467-.674.837-.45 1.465-1.124 2.303-1.798.42-.225.838-.45 1.048-.9.21-.224.42-.224.42-.449.209-.224.208-.224.208-.449.21-.225.21-.674.21-.899.21-.449.839-1.123 1.048-1.797.21-.45.21-.675 0-1.124 0-.45-.211-.675-.63-.9-.629-.449-1.257-.674-1.676-1.123-.419-.45-.838-.899-1.047-1.573-.21-.674-.419-1.124-.628-1.798l-1.676-6.067c-.21-.45-.21-1.124-.42-1.573 0-.225-.208-.45-.208-.675-.419-.674-.84-1.573-1.258-2.247-.629-.674-1.047-1.348-1.676-1.798A6.393 6.393 0 0 0 43.455.9C42.827.449 42.2.225 41.571.225 40.942 0 40.313 0 39.685 0c-1.048 0-2.096 0-2.934.225-.838 0-1.886.224-2.723.674-.42.224-.838.225-1.048.45.21 0 0 0 0 .449-.21-.225-.21-.225 0 0 0 0-.21 0 0 0z" fill="#000"/></svg>