<svg width="59" height="147" fill="none" xmlns="http://www.w3.org/2000/svg"><path fill-rule="evenodd" clip-rule="evenodd" d="M29.44 23.676L59 97.171H0l29.44-73.495z" fill="#F4D9D9"/><path fill-rule="evenodd" clip-rule="evenodd" d="M23.08 7.275c-.111 0-.223 0-.334.119-.111.12-.222.12-.333.238-.89.716-1.335 1.67-1.668 2.624-.334.954-.334 2.027-.223 3.1.223 1.67.89 3.34 1.668 4.89.89 1.55 2.113 2.982 3.224 4.055 1.335 1.193 2.78 1.908 4.225 2.027 1.445 0 2.78-.715 3.78-2.623.334-.597.557-1.193.779-1.79.222-.595.333-1.192.444-1.788 0 0 0-.12-.11-.12 0 0-.112 0-.112.12l-.667 1.789a11.234 11.234 0 01-.779 1.67c-.889 1.669-2 2.265-3.335 2.265-1.223 0-2.556-.835-3.78-1.908-1.111-.954-2.112-2.385-3.001-3.816-.89-1.431-1.446-2.981-1.78-4.532-.111-.954-.11-2.027.112-2.862.222-.954.667-1.789 1.445-2.504.111-.12.222-.12.333-.239.112-.477.112-.596.112-.715.111.119.111 0 0 0z" fill="#000"/><path fill-rule="evenodd" clip-rule="evenodd" d="M27.305 23.136c-.11.12-.222.12-.222.358v.119c0 .477-.223.835-.445 1.073-.334.358-.889.596-1.334.716-.333.119-.778.358-1 .477-.112 0-.223.119-.111.238 0 .12.11.239.333.12.333 0 .778-.12 1.222-.239.667-.12 1.223-.477 1.668-.954.445-.477.779-.954.668-1.67v-.119c-.334-.12-.445 0-.779-.12.111 0 .111-.118 0 0 .111 0 0 0 0 0zM23.302 1.67c-.222.119-.444.119-.777.238l-.668.358c-.445.238-.89.477-1.334.835-1.446 1.192-2.335 2.623-2.78 4.054-.445 1.431-.444 2.982-.444 4.651.111 2.266.334 4.532 0 6.679-.111.954-.556 1.789-1.001 2.504-1.223 1.908-3.113 3.459-3.891 5.724a7.199 7.199 0 00-.334 2.147c0 .716.222 1.431.667 2.146.445.835 1.223 1.432 1.668 2.266.222.358.334.716.334 1.074.111.358.11.715.11 1.073s-.11.716-.222 1.073c-.445 1.074-1.223 2.147-1.445 3.34-.222.834-.111 1.669.556 2.385.111.238.334.357.445.477.223.238.555.357.778.596.333.238.556.358.89.477l1.333.715h.112v-.119c-.334-.238-.667-.477-1.112-.596l-1-.716c-.334-.238-.557-.357-.78-.596-.11-.12-.332-.358-.443-.477-.556-.715-.557-1.431-.446-2.147.334-1.073 1.112-2.146 1.446-3.22.11-.357.223-.834.334-1.192 0-.477 0-.835-.112-1.192-.111-.477-.222-.835-.444-1.193-.445-.835-1.223-1.431-1.668-2.385-.333-.597-.444-1.193-.556-1.908 0-.716.111-1.312.334-1.908.778-2.147 2.668-3.578 4.002-5.486.556-.835 1.001-1.789 1.223-2.862.334-2.147.111-4.532.111-6.798-.111-1.55 0-2.981.334-4.412.333-1.431 1-2.743 2.223-3.936.222-.238.445-.358.668-.477.333-.238.667-.358 1.112-.596.333-.12.555-.358.777-.596.111.119.111.119 0 0 .111 0 0 0 0 0z" fill="#000"/><path fill-rule="evenodd" clip-rule="evenodd" d="M17.41 44.482c-.112-.119-.111-.119-.111-.238l-.668-.716c-.556-.715-.667-1.43-.667-2.146.112-.716.445-1.431.89-2.028.667-1.073 1.445-2.146 1.779-3.1.111-.477.333-.835.333-1.312 0-.477-.11-.835-.333-1.312-.111-.358-.556-.715-.778-1.073-.112-.12-.112-.358 0-.477.11-.358.444-.596.778-.716.89-.358 2-.238 2.668-.715.333-.239.667-.477.889-.835.445-.716.556-1.431 1.112-2.147.222-.238.445-.477.667-.596.223-.12.334-.238.556-.358.445-.238.89-.596 1.335-.834.11 0 .11-.12.11-.239 0-.12-.111-.12-.222-.12-.445.24-1 .358-1.445.597-.111.12-.223.12-.334.239a2.699 2.699 0 00-1 .954c-.557.715-.668 1.55-1.113 2.266l-.666.715c-.667.477-1.779.358-2.557.715-.445.12-.78.478-.89.835a.809.809 0 000 .716c.11.477.445.835.667 1.192.112.358.223.716.223 1.074 0 .358-.112.715-.334 1.073-.445.835-1.223 1.908-1.779 2.981-.444.716-.778 1.55-.889 2.266-.111.835.11 1.79.89 2.505.221.238.555.477.778.715-.111.12-.112.12.11.12z" fill="#000"/><path fill-rule="evenodd" clip-rule="evenodd" d="M26.904 24.788s-.125 0-.125-.134c-.124 0-.248 0-.373.134-.373.133-.623.4-.872.534-.124.134-.25.134-.499.267-.373.134-.871.268-1.245.401-.498.267-1.369.267-2.116.267-.872.134-1.62.267-2.367.535a2.423 2.423 0 00-1.495 1.47c-.124.667.126 1.201.126 1.736 0 .267-.001.4-.126.668-.249.534-1.12.534-1.742.935a1.56 1.56 0 00-.623.668c-.25.801 0 1.336.497 1.736.374.401.872.802 1.246 1.203.249.4.249.801 0 1.336v.133h.125c.374-.668.248-1.202.124-1.603-.25-.534-.872-.935-1.245-1.336-.374-.4-.624-.801-.5-1.47.125-.267.25-.4.5-.534.622-.4 1.495-.4 1.744-.935.124-.267.123-.534.248-.801 0-.535-.25-1.069 0-1.603.249-.535.747-.802 1.245-1.069.623-.267 1.371-.267 2.243-.267.872-.134 1.743-.267 2.365-.534.374-.134.748-.401 1.122-.535.124-.133.373-.133.497-.267l1.245-.935c0 .133.125.133 0 0 .125.133.125 0 0 0zM22.793 7.688s-.124 0-.249.134c-.125 0-.249.134-.373.267-.25.134-.498.401-.498.401-.498.534-.997 1.336-1.37 2.004-.25.534-.498 1.069-.498 1.603v2.405c.125.667.249 1.202.373 1.603.374.801.997 1.469 1.246 2.27.249.401.248.936.124 1.47-.25.534-.622.935-1.12 1.336-.623.4-1.247.668-1.62 1.069-.25.267-.498.534-.623.935-.124.4-.124.668 0 1.068.125.401.375.802.375 1.203 0 .267-.001.534-.375.668l-.623.4s-.124.134 0 .134h.126l.747-.4c.373-.268.498-.669.498-.936 0-.4-.125-.802-.25-1.069-.124-.267-.248-.668-.123-.935.249-.534.747-.935 1.245-1.202.623-.4 1.245-.668 1.743-1.069.249-.267.498-.534.623-.935.124-.534.125-1.068.125-1.47-.25-.934-.997-1.87-1.37-2.804-.125-.401-.25-.936-.374-1.47-.125-.802-.125-1.737 0-2.271 0-.534.124-.935.373-1.47.374-.667.747-1.469 1.246-2.003.124-.134.498-.401.748-.668 0 0-.001-.134-.126-.268.125 0 .125 0 0 0 .125 0 0 0 0 0zM32.883 15.971c0 .267.249.534.373.668.25.267.747.534.996.668 1.246.668 2.615.668 3.86 1.069.499.133.873.4 1.371.801l.374.4c.124.134.124.268.249.402.25.534.25.935.25 1.335-.25 1.203-1.246 2.004-1.495 3.34-.125.668.123 1.069.497 1.47.623.668 1.994 1.068 2.243 2.004.124.4-.001.801-.126 1.202-.124.4-.373.668-.622 1.068-.374.535-.747 1.07-.996 1.604v.133h.124c.249-.534.747-1.069 1.121-1.47.25-.4.498-.667.747-1.068.249-.4.25-.935.125-1.47-.249-1.068-1.619-1.469-2.241-2.27a1.092 1.092 0 01-.25-1.07c.25-1.335 1.37-2.137 1.495-3.339.125-.534 0-1.069-.25-1.737-.124-.267-.249-.4-.249-.534a1.835 1.835 0 01-.373-.534c-.498-.535-.996-.802-1.619-.935-1.245-.401-2.616-.267-3.861-.935-.374-.134-.747-.268-.996-.535-.374 0-.623-.133-.747-.267 0-.133 0-.133 0 0 0-.133 0 0 0 0zM39.11 33.605c-.125 0-.25.133-.375.267a6.758 6.758 0 00-.373.935c-.125.668 0 1.47.125 2.004 0 .133.124.133.248.133.125 0 .126-.133.126-.133-.125-.401-.126-.935-.126-1.47 0-.4.125-.668.25-1.069 0-.4.125-.534.125-.667.124 0 .124 0 0 0zM23.294 7.288s-.125-.134 0 0c0-.134-.25-.535-.25-.668 0-.4-.249-1.202-.249-1.87 0-.535 0-.936.25-1.336h.123v.133c-.124.267-.124.535 0 .935.125.802.25 1.603.375 2.138 0 .133.124.4.124.534l-.124.134h-.25c.125 0 .125 0 0 0zM32.134 25.456c.125 0 .125-.134.25-.134.249-.134.747-.267 1.121-.4.498-.134 1.12-.268 1.619-.402.249 0 .498-.133.622-.133 0 0 .124 0 .124-.134 0 0 .001-.133-.124-.133h-.748c-.498 0-1.12.133-1.618.267-.498.133-.871.267-1.12.534-.125.267-.126.4-.126.535-.124-.134-.124 0 0 0-.124 0 0 0 0 0z" fill="#000"/><path fill-rule="evenodd" clip-rule="evenodd" d="M28.275 26.39c0-.133-.125-.266-.25-.266-.124-.134-.374-.134-.498-.267-.623-.134-1.618 0-2.117-.134-.124 0-.125 0-.125.134 0 .133 0 .133.125.133.499.134 1.12.134 1.743.134.25 0 .498.133.623.133.249.134.374.134.499.134 0 .133 0 .133 0 0 0 .133 0 0 0 0zM31.885 45.093v.534c.124.668.125 1.47.125 2.138v4.141c0-.534.124-.935.124-1.47.125-1.068.126-2.27.126-3.34 0-.533-.001-1.068-.126-1.602 0-.134 0-.267-.25-.4.125-.135.125-.135 0 0 .125-.135 0 0 0 0zM21.673 62.727s.124-.134.124-.268c0-.133-.124-.267-.124-.534-.374-.801-1.37-1.87-1.62-2.27 0 0-.124-.135-.124 0 0 0-.124.133 0 .133.25.4.997 1.603 1.495 2.404 0 .134.124.134.124.267 0 0 0 .134.125.134-.124.134-.124.134 0 .134-.124 0-.124.133 0 0 0 .133 0 .133 0 0zM22.172 105.475c-.125.133-.124.133-.124.267 0 .267.125.4.25.668.124.267.372.4.497.534.249.134.498.267.622.401.125 0 .25 0 .25-.134s0-.267-.124-.267c-.125 0-.374-.134-.499-.267-.125-.134-.374-.267-.499-.401l-.373-.401c.125-.267.125-.267 0-.4.125 0 .125 0 0 0 0-.134 0 0 0 0zM39.11 106.276l.248-.267c.124 0 .25-.134.374-.134.125-.133.248-.133.248 0 .125.134.125.268 0 .268-.124.133-.248.267-.497.267-.125 0-.249 0-.373-.134 0 .134-.125.134 0 0-.623-.133-.623-.133 0 0zM20.745 30.887l.112.12c0 .357-.112.715-.112 1.073-.111.715-.445 1.431-.779 2.147-.222.715-.444 1.311-.444 2.027 0 .477.111.835.334 1.312.222.715.555 1.311.889 1.908.222.358.445.715.778 1.192.223.239.334.477.556.716v.238h-.222c-.334-.357-.667-.596-1-.954l-.668-.715c-.445-.597-.89-1.193-1.112-1.908a3.5 3.5 0 01-.333-1.55c0-.597.111-1.193.223-1.79.222-.715.444-1.311.666-2.027.111-.477.334-.835.334-1.312v-.238h.444c.668-.12-.11-.596.334-.239zM23.413 6.917c.111 0 .111.12.111.12.334.357.556.596.89.834.778.477 1.779.596 2.668.596 1.112 0 2.113 0 3.002.358.667.239 1.223.596 1.668 1.193.333.477.445.954.556 1.43.222 1.074-.112 2.147.333 3.22.111.24.223.478.445.716.778.954 2.223 1.55 2.668 2.743.11.358.222.716.222 1.073 0 1.312-.778 2.743-.445 4.055.334 1.431 1.446 2.385 2.002 3.578.223.596.445 1.192.334 1.908 0 .477-.111.954-.334 1.43-.333.836-.89 1.551-1.334 2.386-.445.715-.89 1.431-.89 2.266 0 .596.222 1.073.445 1.55.667 1.193 1.89 2.266 2.223 3.578.223.834.223 1.43.112 2.027-.111.358-.223.835-.334 1.193-.223.477-.444 1.073-.778 1.67 0 .118-.111.118-.222.118s-.112-.119-.112-.238c.222-.596.445-1.193.668-1.67l.333-1.073a3.784 3.784 0 00-.11-1.908c-.334-1.312-1.557-2.266-2.224-3.458-.334-.597-.556-1.193-.556-1.79 0-.476.11-.953.333-1.43.667-1.55 2.112-2.862 2.224-4.651 0-.596-.111-1.193-.334-1.67-.556-1.312-1.668-2.266-2.002-3.697-.333-1.43.445-2.862.445-4.174 0-.357-.11-.596-.11-.954-.445-1.192-1.78-1.67-2.558-2.623-.223-.239-.444-.597-.444-.954-.334-1.074-.111-2.266-.334-3.34a8.603 8.603 0 00-.445-1.192c-.778-1.074-1.89-1.193-3.113-1.312-1.334 0-2.668 0-3.78-.477-.445-.239-1-.596-1.334-1.193l-.111-.119v-.119s.111 0 .222-.12h.111c.223 0-.555 0-.11.12zM38.614 43.666c.121.13 0 .13.12.13h.121c.605 0 1.332 0 1.937-.13.363-.13.726-.26.968-.39.121 0 .121-.13.242-.13 0 0 0-.129.121-.129 0 0 .121-.13 0-.13h-.362c-.122 0-.122 0-.243.13-.242.13-.484.26-.847.39-.605.13-1.21.13-1.816.26h-.12c-.121-.13 0-.13-.12 0zM42.123 40.94c0-.13.122-.13.122-.26v-.519c0-.519.12-1.038.12-1.557v-1.039c-.12-.649-.242-1.168-.484-1.817-.121-.13-.12-.26-.241-.26h-.122c0-.13-.121-.13-.242-.13s-.121.13-.121.26v.13c0 .13 0 .26.12.26.243.519.365 1.038.365 1.557 0 .39.12.78.12 1.169 0 .648.12 1.168.12 1.817v.13l.243.26c-.121 0 0 0 0 0z" fill="#000"/><path fill-rule="evenodd" clip-rule="evenodd" d="M36.422 45.079c.222 0 .444 0 .777-.12.89-.238 1.668-1.073 2.336-1.908.444-.596.777-1.312 1-2.027.11-.477.222-1.073.222-1.55 0-.835-.445-1.67-.556-2.385 0-.239 0-.597.223-.835.333-.477.445-.597.778-.597.445.12.89.477 1.335.716.555.358 1.222.477 1.778-.12.445-.476.667-.953.667-1.43s-.222-1.074-.444-1.67c-.112-.477-.334-.954-.223-1.43.111-.24.222-.359.333-.597.445-.477 1.112-.835 1.445-1.431.223-.358.335-.596.335-.954.111-.597-.112-1.312.11-2.028.334-.954 1.001-1.67 1.335-2.623.111-.477.222-.835.11-1.431-.11-.716-.333-1.312-.778-1.909-.89-1.073-2.223-1.907-2.78-3.22-.222-.596-.11-1.192-.22-1.788-.112-.358-.113-.597-.335-.954-.556-.835-1.445-1.312-2.001-2.028-.222-.238-.445-.477-.556-.835-.111-.357-.222-.596-.333-.953-.223-.835-.334-1.67-.556-2.505-.334-.835-.667-1.55-1.223-2.146-.444-.597-1.112-1.193-1.78-1.79-.444-.357-.889-.595-1.334-.715-1.111-.357-2.223-.358-3.112-1.073-.556-.358-1-.835-1.446-1.193-.222-.238-.445-.357-.778-.477C29.417.358 28.083 0 26.749 0c-.667 0-1.223.12-1.89.358-.556.238-1.112.596-1.668 1.073-.111.12-.111.239-.223.358-.11.12-.11.238 0 .358.112.119.223.119.334 0 .111-.12.223-.12.334-.239.445-.358 1-.596 1.445-.835A4.2 4.2 0 0126.75.716c1.223 0 2.446.238 3.669.954.222.119.444.238.666.477a8.518 8.518 0 001.557 1.311c1 .716 2.224.716 3.336 1.193.333.12.778.358 1.111.596.556.477 1.112 1.074 1.668 1.67.445.596.779 1.192 1.001 1.908.334.835.334 1.55.556 2.385l.333 1.073c.111.477.445.835.667 1.074.667.596 1.445 1.073 1.89 1.908.111.238.223.357.223.596.11.716 0 1.312.222 2.027.556 1.431 2.001 2.266 2.89 3.34.334.477.667.954.667 1.55 0 .358 0 .715-.11 1.073-.334.954-1.001 1.67-1.335 2.624-.222.715-.11 1.43-.11 2.146 0 .239-.112.478-.223.716-.334.477-.89.835-1.335 1.312-.222.238-.332.477-.444.834-.11.597 0 1.193.222 1.67.111.477.334.954.334 1.431 0 .358-.111.716-.445.954-.445.358-.778.239-1.112 0-.556-.238-1-.715-1.445-.834-.444-.12-.89.119-1.334.834a2.424 2.424 0 00-.334 1.193c0 .834.445 1.67.445 2.385 0 .477-.11.835-.222 1.312-.222.596-.445 1.311-.89 1.908a6.253 6.253 0 01-2.001 1.908c0 .477-.222.715-.444.835 0-.12 0 0 0 0zM24.97 14.55c-.111.118-.111 0-.111.238 0 .119.11.238.11.477.557 1.311 1.113 2.385 1.558 3.697.11.477.334 1.073.445 1.67 0 .118.11.118.221.118s.223-.119.112-.238c0-.596-.111-1.073-.222-1.67-.112-.596-.334-1.073-.446-1.55a27.72 27.72 0 00-1.222-2.624s0-.119-.11-.119c-.112-.119-.113 0-.335 0 .11 0 0 0 0 0zM20.745 40.19c-.111 1.907.333 4.293.333 6.44 0 .953-.11 1.788-.444 2.623a11.943 11.943 0 01-1.223 2.027l-1.334 1.431c-.667.716-1.445 1.431-2.113 2.028-.889.834-1.779 1.67-2.446 2.623-.333.358-.556.835-.778 1.312-.111.12 0 .239.112.239.11.119.222 0 .333-.12.222-.358.556-.596.778-.954l.89-.954c1-.954 2.112-1.908 3.112-2.862.445-.477.89-.835 1.335-1.312a9.038 9.038 0 002-3.339c.334-.835.334-1.789.334-2.862-.222-2.027-.778-4.293-.89-6.32.112 0 .112 0 0 0 .112 0 0 0 0 0z" fill="#000"/><path fill-rule="evenodd" clip-rule="evenodd" d="M13.408 58.078h-.223c-.222.357-.334.715-.445 1.192-.11.358-.221.835-.221 1.193v.834c0 .12 0 .24.11.24.112 0 .223-.001.223-.12.111-.239.111-.596.223-.835.11-.716.221-1.312.444-1.908 0-.12.112-.12.112-.239-.112-.238-.112-.238-.223-.357z" fill="#000"/><path fill-rule="evenodd" clip-rule="evenodd" d="M12.296 61.297c.334-.238-.222 0 .223.12.444.238.11-.239.221 0v.239c-.111.476-.222.834-.333 1.192-.445 1.67-1.112 3.22-1.668 4.89-.89 2.384-1.667 4.65-2 7.274-.334 2.862.11 5.366 1 7.751 1.334 3.697 3.557 7.156 5.78 10.614.779 1.193 1.447 2.504 2.003 3.816.444.716.778 1.55 1.111 2.266.223.477.445 1.073.667 1.551 0 .119 0 .238-.11.238-.112 0-.112 0-.223-.119-.334-.597-.667-1.193-.89-1.79a32.58 32.58 0 00-1.446-2.742c-.556-.954-1.111-2.027-1.778-2.862-2.224-3.578-4.67-6.917-6.115-10.614-.89-2.504-1.445-5.247-1.112-8.228a24.128 24.128 0 011.335-5.605c.333-.954.667-1.909 1.111-2.863.556-1.43 1.112-2.742 1.668-4.293.334-.357.445-.596.556-.835zM41.868 37.923c-.222.12-.111-.119-.222.12V39.355c0 1.192.111 2.385-.111 3.577-.111.716-.223 1.431-.445 2.028-.223.715-.556 1.55-.89 2.265-.222.477-.444.954-.666 1.55-.222.597-.445 1.074-.668 1.67 0 .12.001.239.112.239s.223 0 .223-.12c.444-1.073 1.111-2.027 1.667-3.1.334-.716.667-1.431.89-2.266.444-1.312.555-2.504.666-3.697 0-.835 0-1.55-.11-2.385 0-.358-.112-.716-.112-.954v-.239c-.111-.119.111.12-.334 0 .111 0 .111 0 0 0 .111 0 0 0 0 0z" fill="#000"/><path fill-rule="evenodd" clip-rule="evenodd" d="M40.312 47.94c-.11.12-.111.12-.222.12-.334.596-.222 1.193-.334 1.789a6.948 6.948 0 000 2.147c.112.357.11.715.222 1.073.334 1.311 1.001 2.504 1.224 3.816.11.715.11 1.43.11 2.147 0 .715-.11 1.55-.333 2.265 0 .239-.11.477-.11.716v.358c0 .119-.001.119.11.238.111 0 .223 0 .223-.12.11-.118.11-.237.11-.357.111-.238.112-.477.223-.715.111-.597.222-1.074.333-1.67a12.32 12.32 0 000-2.862c-.111-.358-.111-.716-.222-1.073-.334-1.312-.89-2.505-1.112-3.816-.111-.716-.11-1.432-.11-2.147 0-.477.11-.954.11-1.431v-.239c0-.119-.11-.119-.222-.238z" fill="#000"/><path fill-rule="evenodd" clip-rule="evenodd" d="M41.758 60.82c0 .12.111.239.111.358.223.835.668 2.147 1.224 3.697.667 1.908 1.334 4.055 2 6.201.89 2.863 1.669 5.486 1.891 7.036.445 3.101.333 5.963-.112 8.825-.444 2.982-1.334 5.963-2.334 8.945-.222.596-.445 1.192-.668 1.907l-.666 1.79c-.112.119-.223.238-.334.119-.111 0-.223-.12-.112-.239.111-.596.334-1.312.445-1.908.223-.596.334-1.312.556-1.908.89-2.981 1.78-5.844 2.224-8.825.445-2.743.555-5.605.11-8.586-.333-2.266-1.89-7.036-3.112-11.091-.334-.954-.556-1.908-.89-2.743-.333-1.431-.667-2.504-.778-3.22 0-.12 0-.238-.11-.358h.555zM32.197 75.966c-.112.12-.11 0-.222.12a1.382 1.382 0 00-.112.596c-.11 1.43 0 2.862 0 4.293 0 .954 0 1.908-.11 2.743a47.416 47.416 0 01-1.002 5.485c-.667 2.982-1.445 5.844-2.223 8.825-.111.358-.222.716-.333 1.193-.223.835-.334 1.789-.556 2.623 0 .12 0 .12.11.12.112 0 .112 0 .223-.12l1.001-3.22a93.802 93.802 0 002.001-7.513c.667-2.385 1.112-4.889 1.445-7.274.111-1.073.112-2.147.112-3.22l-.334-4.293v-.358c.222 0 .11 0 0 0 .11-.12.11-.12 0 0 0-.12 0-.12 0 0z" fill="#000"/><path fill-rule="evenodd" clip-rule="evenodd" d="M28.416 98.267c-.11 0-.11 0 0 0-.11.119-.112.119-.112.119-.11.477-.221.954-.221 1.55-.111.835-.112 1.67-.112 2.505 0 .596.111 1.192.223 1.788 0 .239 0 .477-.111.716 0 .239-.111.596-.223.835-.11.238-.111.358-.222.596-.223.477-.445.954-.556 1.431 0 .119 0 .12.11.239.112 0 .112 0 .223-.12.334-.596.668-1.073 1.001-1.669.223-.358.333-.835.444-1.312 0-.239.111-.596 0-.835 0-.596-.11-1.192-.221-1.789-.111-.715-.112-1.55-.112-2.265v-1.55-.24c0 .12 0 .12-.11 0 .11 0 .11 0 0 0z" fill="#000"/><path fill-rule="evenodd" clip-rule="evenodd" d="M28.305 105.899c-.111 0-.111 0-.111.119v.12c-.111.596-.223 1.192-.223 1.788-.11 1.312-.333 2.743-.333 4.055-.111 1.312-.222 2.743-.333 4.055-.223 4.055-.556 8.229-.556 12.283v3.101c0 .119.11.119.11.119.112 0 .112-.119.112-.119.112-1.312.11-2.743.222-4.055.222-3.816.445-7.632.778-11.448.112-1.67.223-3.22.334-4.89.11-1.073.112-2.027.112-3.101v-1.908c0-.119-.001-.119-.112-.119.11 0 0-.119 0 0 0-.119 0-.119 0 0zM18.633 99.817c0 .12-.112.12-.112.238.111.477.223 1.074.112 1.551-.111.954-.557 2.027-.89 2.743l-.667 1.788c-.556 1.431-1.113 2.863-1.557 4.294-.445 1.431-.666 2.862-.778 4.293-.11 2.146.334 4.174 1.112 6.082 1 2.862 2.668 5.486 4.002 8.228.445.955.89 1.789 1.334 2.743.112.358.223.597.334.954.111.358.222.597.333.954 0 .12.112.12.112.12.111 0 .11-.12.11-.12 0-.357.001-.715-.11-1.073s-.223-.715-.334-.954c-.334-.954-.889-1.908-1.334-2.743-1.223-2.743-2.78-5.366-3.78-8.228-.667-1.789-1.112-3.697-1.001-5.844.111-1.431.333-2.862.778-4.174.445-1.431 1.001-2.862 1.557-4.174l.667-1.789c.333-.954.779-2.266.668-3.458 0-.477.11-1.073-.335-1.431h-.221z" fill="#000"/><path fill-rule="evenodd" clip-rule="evenodd" d="M21.19 131.658c-.112.12-.112 0-.112.12v.119c-.111.477-.11.954-.222 1.431-.111.477-.333.835-.556 1.312-.11.357-.111.715-.111 1.073.222 1.193 1.112 2.027 1.556 3.101.112.238.111.477.111.715.111 1.073-.11 2.028-.11 3.101 0 .477-.001.954.11 1.312 0 .357.111.715.223 1.073.11.238.223.477.445.715.333.239.666.358 1 .478.333.119.667.119 1 .119h.668c.11 0 .222-.119.222-.119 0-.12-.11-.239-.11-.239-.223 0-.446-.119-.668-.119-.334 0-.556-.12-.89-.12-.333-.119-.555-.238-.889-.357l-.333-.358c-.111-.358-.111-.716-.223-.954-.11-.477-.111-.835-.111-1.312 0-1.073.111-2.027.111-3.101 0-.357-.111-.596-.222-.954-.334-1.073-1.223-1.908-1.445-2.981 0-.239 0-.477.11-.835.111-.477.334-.835.445-1.312.112-.477.111-.834.111-1.311v-.477c.111-.12.112-.12-.11-.12.11-.119.11-.119 0 0 0-.119 0-.119 0 0z" fill="#000"/><path fill-rule="evenodd" clip-rule="evenodd" d="M26.971 129.631c-.111.119 0 0 0 0-.111.119-.111.119 0 0-.111.358-.112.596-.112.954 0 .596 0 1.192.112 1.789.111.596.111 1.192.333 1.788.334 1.551.89 2.982 1.668 4.294.334.477.556.835.89 1.312.666.954 1.444 1.788 2 2.742.223.239.446.597.668.954.111.239.221.477.221.716 0 .238-.11.477-.444.596-.444.239-1 .477-1.334.477-.778.239-1.667.477-2.557.597-.333.119-.778.119-1.112.119h-1.223c-.445 0-.89-.119-1.223-.239h-.11v.12a5.24 5.24 0 001.222.477c.445.119.89.119 1.334.119.445 0 .778 0 1.223-.119.89-.12 1.78-.477 2.669-.716.333-.119 1.11-.358 1.555-.716.223-.238.446-.477.335-.715 0-.239-.111-.477-.223-.835-.222-.358-.444-.715-.556-1.073-.11-.239-.334-.596-.445-.835-.667-1.073-1.556-2.147-2.223-3.22-.667-1.073-1.112-2.146-1.445-3.22-.334-.834-.445-1.669-.556-2.504-.111-.596-.112-1.193-.223-1.67 0-.357-.11-.596-.11-.954v-.119c-.223-.119-.111 0-.334-.119.111 0 .111 0 0 0zM30.085 94.689c-.112.12-.112.239-.112.477 0 .239.112.358.112.596.222.716.555 1.431.889 2.147l1.222 2.981 1.001 2.147c.112.358.334.715.445 1.073.112.358.333.716.445 1.074 0 .119.222.238.333.238.111 0 .222-.119.222-.358l-.333-1.431c-.333-1.073-1-2.027-1.445-2.981L31.53 97.67c-.223-.477-.445-.834-.667-1.311-.222-.477-.334-.835-.556-1.312 0-.12-.111-.239-.222-.358z" fill="#000"/><path fill-rule="evenodd" clip-rule="evenodd" d="M33.087 102.441l-.112.119v.119c.111.716 0 1.431-.11 2.147-.223.715-.446 1.55-.78 2.266-.555 1.311-1.222 2.742-1.667 4.173-.334.954-.445 2.028-.445 3.101.111 1.312.334 2.504.668 3.578.555 1.669 1.333 3.339 2 5.128.668 1.669 1.224 3.339 1.557 5.128.334 1.192.445 2.385.556 3.697.111.477.111 1.073.111 1.55 0 .119.11.119.11.119.112 0 .113-.119.113-.119v-1.67c-.111-1.311-.223-2.504-.446-3.816-.333-1.789-.889-3.458-1.445-5.247-.667-1.67-1.334-3.339-1.89-5.009a17.208 17.208 0 01-.666-3.458c-.112-.954.11-1.908.333-2.862.445-1.431 1.112-2.862 1.557-4.174.333-.954.778-1.908.889-2.862.111-.597 0-1.193-.112-1.789 0-.12.001-.119-.221-.119 0-.12 0-.12 0 0 0-.12 0-.12 0 0z" fill="#000"/><path fill-rule="evenodd" clip-rule="evenodd" d="M34.864 130.346c-.111.239-.11.358-.11.477-.112.597-.335 1.193-.446 1.789-.222.477-.333.954-.556 1.431-.444.954-1 1.908-1.222 2.862-.111.716 0 1.551.666 2.147l.334.358c.11.119.333.238.556.357.333.12.555.358.889.478.333.119.557.238.89.357.334.119.778.239 1.112.358.334.119.667.119 1.112.238.222 0 .444 0 .666.12.111 0 .111 0 .111-.12 0-.119 0-.119-.11-.119a5.131 5.131 0 01-.78-.358c-.666-.238-1.334-.357-1.89-.596-.333-.119-.555-.238-.889-.358-.222-.119-.556-.238-.778-.477-.111-.119-.333-.238-.444-.357-.111-.12-.223-.12-.223-.239-.444-.477-.556-1.073-.445-1.55.111-.954.778-1.908 1.112-2.743.334-.716.556-1.55.668-2.385.11-.477.11-.954.11-1.431v-.119c-.222-.12-.222-.12-.333-.12.111-.119.111-.119 0 0 0-.119 0-.119 0 0z" fill="#000"/><path fill-rule="evenodd" clip-rule="evenodd" d="M38.533 141.079c0 .12-.111.12 0 .239.111.477.668.954 1.001 1.312.445.477 1 .834 1.556 1.073.334.119.779.239 1.224.358.556.119 1.111.119 1.667.119h1.668c.556 0 1.112 0 1.668-.119.11 0 .11 0 .11-.119 0-.12-.11-.12-.11-.12l-3.336-.357c-.556 0-1.111 0-1.667-.12-.334 0-.668-.119-1.001-.238-.334-.12-.556-.358-.89-.597-.556-.477-1.112-.954-1.556-1.55 0 0-.111 0-.111-.119 0 .238 0 .238-.223.238.111 0 0 0 0 0zM43.76 97.551h-.111l-.334 1.073c-.112.597-.334 1.193-.334 1.909-.111.954.112 1.908.112 2.981 0 .358 0 .835-.112 1.192 0 .239-.111.477-.222.716-.111.358-.333.716-.444 1.073-.112.12 0 .239.11.239.111 0 .223 0 .223-.119.222-.358.444-.597.666-.954.112-.239.224-.478.335-.835.111-.477.11-.835.11-1.312 0-.954-.221-1.908-.11-2.862 0-.954.222-1.789.333-2.743 0-.12.111-.12 0-.239-.11-.119-.111-.119-.222-.119.11 0 0-.12 0 0 0-.12 0 0 0 0z" fill="#000"/><path fill-rule="evenodd" clip-rule="evenodd" d="M42.87 105.899c0 .119-.112.119-.112.238-.333.597-.333 1.312-.444 2.028-.111.954-.222 1.789-.333 2.743-.111.954-.112 1.788-.223 2.743-.111.954-.112 1.908-.112 2.862V125.457c0 3.458-.333 7.155.668 10.375.667 2.266 1.779 4.174 4.002 5.724.334.239.778.597 1.112.716.333.119.556.238.89.358.11 0 .11 0 .222-.12.11-.119 0-.119-.111-.119-.222-.119-.334-.238-.556-.358a4.955 4.955 0 01-1.224-.954c-2-1.431-3.112-3.339-3.668-5.485-.89-3.22-.556-6.917-.556-10.256v-4.771-4.174c0-.954.112-1.908.112-2.742.11-1.074.221-2.028.221-3.101.111-1.073.223-2.027.223-3.101 0-.357.112-.834.112-1.192-.112-.12-.112-.239-.223-.358.111 0 0 0 0 0z" fill="#000"/><path fill-rule="evenodd" clip-rule="evenodd" d="M48.095 142.153c0 .119.11.238.11.357.112.12.112.12.223.12.445.238.89.238 1.335.357l.556.12c.11.119-.001.119-.112.238s-.333.239-.444.239c-.445.238-.89.357-1.446.357h-.556c-.223 0-.555-.119-.778-.238-.11 0-.111 0-.222.119 0 .119 0 .119.11.239.334.238.78.357 1.224.477.667 0 1.333-.12 1.89-.358.222-.119.666-.239.778-.596.222-.239.223-.477.112-.835-.112-.119-.224-.239-.335-.239-.222-.119-.444-.119-.666-.119-.445 0-.89-.119-1.335-.238h-.11c-.112-.12-.111 0-.334 0zM41.535 62.37c-.222-.118 0-.118-.222-.118-.111 0-.11.119-.11.119-.446.477-1.002 1.073-1.335 1.67-1.112 1.55-1.89 3.22-2.78 4.77-.89 1.55-1.445 3.22-2.446 4.65-.556.716-1.112 1.432-1.89 1.79-.111 0-.11.119-.221.119l-.335.357c-.111 0-.11.12-.11.239.11.12.11.12.333.12.11 0 .334 0 .445-.12.111 0 .111-.12.222-.12.89-.476 1.557-1.192 2.224-2.027 1.112-1.43 1.779-3.22 2.557-4.65.778-1.313 1.556-2.863 2.334-4.294.334-.596.778-1.192 1.112-1.67.111-.119.222-.357.333-.476h.112c0-.239-.111-.12-.223-.358 0 .12 0 0 0 0z" fill="#000"/><path fill-rule="evenodd" clip-rule="evenodd" d="M32.196 76.204c0-.238.11-.357 0-.596 0-.12 0-.12-.111-.239-.445-.834-.778-1.67-1.223-2.385-1.111-1.67-2.335-3.22-3.78-4.65-1.445-1.432-3.002-2.624-4.67-3.698-.556-.357-1.111-.596-1.778-.834l-2.669-1.074c-.89-.357-1.89-.715-3.002-.954-.445-.119-1-.238-1.445-.238h-.556c-.111 0-.223 0-.223.12 0 .118.112.118.112.118h.111c.111 0 .223 0 .445.12.667.119 1.334.238 2.001.477.778.238 1.668.596 2.446.954l2.668 1.073c.556.238 1.112.596 1.668.835a27.567 27.567 0 014.447 3.577c1.334 1.431 2.558 2.862 3.67 4.532.444.716.889 1.55 1.222 2.266l.11.12c.112.357.334.357.557.476z" fill="#000"/><path fill-rule="evenodd" clip-rule="evenodd" d="M12.74 61.536c.11.12 0 .12.111.12h.11c.446-.24 1.002-.24 1.558-.24.667 0 1.223.12 1.89.24.778.119 1.445.357 2.224.596 1.667.596 3.335 1.43 5.113 2.027 2.224.835 4.67 1.192 7.005 1.192 2.334 0 4.669-.238 7.003-.834.779-.239 2.114-.835 3.114-1.431.445-.358.778-.597.89-.835.11-.12.11-.239.11-.358 0-.12 0-.12-.11-.238 0-.12-.112-.12-.223-.12s-.11.12-.11.239h-.113s0 .119-.11.119c-.334.238-.89.596-1.445.954-.779.358-1.558.715-2.002.835-2.224.596-4.558.835-6.893.835-2.223 0-4.558-.358-6.67-1.193l-4.337-1.789c-1-.358-2-.715-3.113-.835-.778-.119-1.668-.238-2.446-.119-.444 0-1 .12-1.445.358h-.112c-.11.358 0 .239 0 .477 0 0 0 .12 0 0zM31.419 55.812c.11.358-.112 0 .11.358h.111c.222.119.445 0 .668-.12.111 0 .11 0 .11-.119.112 0 .223-.12.223-.238 0-.12-.11-.239-.333-.239 0 0-.112 0-.112-.12-.222 0-.334-.118-.556-.118h-.11c-.223.477 0 .238-.111.596 0 0-.112 0 0 0-.112 0-.112 0 0 0zM20.857 39.831v.12c.111.477.221.835.221 1.312.223 1.908.334 3.816.445 5.843-.222-1.908-.666-3.816-.889-5.724-.11-.477-.111-.835-.111-1.312v-.12h.222c0-.119 0-.119.112-.119zM23.302 27.19h-.111c-.111 0-.111.12-.223.239-.333.477-.666 1.192-.889 1.789-.111.477-.222.834-.333 1.311-.111.597-.112 1.312-.112 1.909a5.51 5.51 0 00.668 1.908c.333.477.778.954 1.334 1.311.778.478 1.667.835 2.445.955 1.668.477 3.559.715 5.338.477.889-.12 1.666-.358 2.445-.835.222-.12.445-.239.667-.477l.223-.239c.111 0 .111-.119 0-.238-.111 0-.111-.12-.223 0-.11 0-.222.119-.333.119-.334.12-.556.238-.778.358-.89.357-1.78.715-2.78.715-1.445.12-2.89-.238-4.224-.477-.779-.238-1.558-.477-2.336-.954-.444-.358-.89-.715-1.112-1.073-.444-.716-.555-1.67-.555-2.624 0-.596.11-1.312.333-1.908a6.606 6.606 0 01.556-1.789c.11-.119.111-.238.111-.357.112-.12.111 0-.111-.12.11 0 .11 0 0 0 .11-.119 0 0 0 0z" fill="#000"/><path fill-rule="evenodd" clip-rule="evenodd" d="M25.909 19.845c0 .267-.124.534-.498.668-.373.134-.747 0-1.121-.534-.25-.401-.373-1.07-.373-1.47 0-.267 0-.4.124-.534.124-.267.25-.268.498-.268.25.134.498.401.498.401.124.134.623.668.748 1.07.124.266.248.4.124.667zM31.761 17.574c.125.668-.124 1.336-.872 1.603-.498.133-.872.133-1.245 0-.374-.134-.748-.535-.872-1.069-.125-.4 0-.802 0-1.202.124-.668.498-1.336.872-1.603.249-.134.499-.267.748-.134.249.134.622.4.747.534.373.535.622 1.203.622 1.87z" fill="#F4D9D9"/><path fill-rule="evenodd" clip-rule="evenodd" d="M20.857 42.336c0 .119-.112 0-.112.12.334.357.668.715 1.001.953.667.358 1.446.358 2.224.358 2.223.12 4.336-.596 6.448-.716h1.557c.445 0 .889.12 1.333.12.667.119 1.446.238 2.113.357.334.12.778.239 1.112.239h.333c.223 0 .334-.12.556-.12.111 0 .112-.119.112-.119 0-.119-.112-.119-.112-.119l-1.778-.358c-.667-.119-1.446-.238-2.113-.357-.445-.12-1-.12-1.445-.239h-1.668c-2.112.12-4.225.716-6.448.596-.556 0-1.112-.119-1.668-.238-.444-.12-.89-.239-1.223-.596h-.111s.111 0-.11.119c.11-.12.11-.12 0 0zM26.637 40.905c.445.358.78.238 1.224.238.445 0 .89 0 1.334-.119.445 0 .889-.12 1.334-.12.556 0 1.111.12 1.667.24.89.119 1.669.357 2.558.596.111 0 .111 0 .111-.12 0-.119 0-.119-.11-.119-.668-.358-1.446-.596-2.114-.835-.667-.238-1.445-.357-2.223-.357-.445 0-.89 0-1.445.119-.445.119-.89.119-1.334.238h-1.002c.112.12 0 .12 0 .239 0-.12 0-.12 0 0zM30.529 36.97l.222-.24v-.238c0-.477-.11-.954-.11-1.43v-2.267c0-.119-.112-.119-.112-.238-.111 0-.222 0-.222.12-.111.834-.334 1.669-.334 2.503 0 .477 0 .955.112 1.312v.12c.222.238.221.238.444.357-.111 0-.111 0 0 0zM19.3 35.18c0-.119.11-.119.11-.119l-.333-.357-.223-.239h-.11c-.112 0-.112.12 0 .12.11.238.222.476.333.596l.112.119.11-.12c0 .12 0 .12 0 0 0 .12 0 0 0 0zM16.744 38.758c-.111.358-.112.596-.112.954-.111.716 0 1.55.112 2.266.11 1.789.444 3.459.666 5.247.111.716.112 1.312.223 2.028v.238c0 .12.11.12.11.12.112 0 .113-.12.113-.12 0-.12.11-.238.11-.358.111-.477 0-.834 0-1.311 0-.597-.11-1.074-.11-1.67-.112-1.193-.335-2.504-.446-3.697-.11-.477-.111-1.073-.222-1.55-.111-.358-.111-.716-.111-1.074l-.333-1.073c.11 0 0 0 0 0z" fill="#000"/><path fill-rule="evenodd" clip-rule="evenodd" d="M17.632 49.372h-.333l-.112.12c-.89.834-1.667 1.55-2.335 2.384-1.222 1.431-2.223 2.862-3.112 4.651-2.557 4.77-3.892 10.137-6.004 15.026-.556 1.193-1.112 2.505-1.779 3.698 0 .119 0 .119.111.238h.223l2-3.578c2.224-4.89 3.558-10.136 6.115-14.907.556-1.073 1.223-2.146 2.001-3.1.334-.477.78-1.074 1.224-1.55.667-.716 1.223-1.432 2.001-2.147.111-.12.223-.12.223-.239-.112-.358-.112-.358-.223-.596.111 0 .111 0 0 0 .111 0 0 0 0 0z" fill="#000"/><path fill-rule="evenodd" clip-rule="evenodd" d="M5.736 80.259c.11-.12.112-.12.112-.12.11-.238.11-.476.11-.715v-1.192c0-.477.112-.954.223-1.431.111-.358.333-.835.444-1.193.222-.596.445-1.073.556-1.67 0-.119.111-.119.222-.119.112 0 .223.12.223.239 0 .477-.111.954-.223 1.43-.11.359-.222.836-.333 1.193-.222.597-.445 1.074-.445 1.67 0 .477 0 .954-.11 1.431 0 .239-.112.477-.112.596 0 0-.223.477-.334.597-.111.238-.333.119-.444.119-.111-.12-.222-.358-.333-.477-.112-.358-.224-.954-.335-1.193-.111-.477-.333-1.073-.556-1.67a15.846 15.846 0 01-.333-1.192 2.173 2.173 0 010-1.192h.222c.112 0 .111 0 .111.119v.119c0 .477.112.954.223 1.431.111.358.222.596.333.954.223.477.334.954.556 1.431.111.239.112.716.335 1.073-.112-.357-.112-.238-.112-.238z" fill="#000"/><path fill-rule="evenodd" clip-rule="evenodd" d="M5.848 85.506v-.238a8.236 8.236 0 00-.446-1.312 10.456 10.456 0 01-.666-2.504 3.112 3.112 0 010-1.431c0-.12.11-.239.11-.358h.111s.112 0 .112.12v1.192c0 .238.11.596.11.835.112.715.334 1.311.557 2.027.111.358.445 1.073.445 1.67.111.357.111.596 0 .834-.111.12-.222.12-.333.12 0 0-.112 0-.112-.12-.111-.12-.112-.238-.223-.357l-.333-.478c-.222-.357-.334-.715-.556-.954-.111-.358-.333-.715-.444-1.073-.334-.954-.556-1.789-.556-2.624-.111-1.192.11-2.385.11-3.577v-.239l.112-.12h.111c.112.12.111.12.111.24v2.265c0 .716 0 1.312.112 2.028.111.596.222 1.192.444 1.908.111.358.334.715.445 1.073.111.358.333.716.444.954l.335.12z" fill="#000"/><path fill-rule="evenodd" clip-rule="evenodd" d="M7.07 84.552c0-.12-.11-.12-.11-.238l-.335-.716c-.333-.596-.555-1.192-.777-1.908-.111-.358-.223-.596-.223-.954v-.358h.11c0 .12.113.239.113.358.11.239.11.596.221.835.223.596.557 1.311.89 1.789l.334.715c.111.12.111.358.222.477 0 .12.111.239.111.358 0 .12-.111.238-.222.238-.112 0-.333-.119-.445-.238-.222-.239-.444-.596-.555-.596-.445-.597-.779-1.193-1.112-1.908-.111-.12-.112-.239-.112-.358-.111-.358-.223-.597-.223-.954.112.357.334.596.556.954.111.238.224.358.335.596l1 1.431c-.112.12 0 .358.222.477z" fill="#000"/><path fill-rule="evenodd" clip-rule="evenodd" d="M8.292 84.314c0-.239-.11-.358-.11-.597-.223-.477-.668-.954-.779-1.43a14.834 14.834 0 01-.889-2.386c-.111-.238-.11-.596-.11-.835 0-.357.11-.596.11-.834h.11c0 .238.113.596.113.834.11.358.11.835.333 1.193.222.716.445 1.431.778 1.908.223.358.556.954.779 1.431.111.239.221.477.221.716 0 .119-.11.238-.11.357-.112 0-.111.12-.334 0-.333-.119-.889-.715-.889-.715-.333-.477-.778-1.073-1.112-1.55-.11-.239-.334-.597-.334-.835v-.358c.111.12.112.239.112.358.11.238.221.477.444.715a7.62 7.62 0 001.112 1.55c0-.238.444.358.555.478zm.112 0c0-.12 0-.12 0 0z" fill="#000"/><path fill-rule="evenodd" clip-rule="evenodd" d="M8.515 82.406c0-.12-.112-.239-.223-.358-.222-.477-.445-.954-.556-1.074a10.455 10.455 0 01-.666-2.504v-1.55c0-.358.111-.716.222-1.073 0-.12.111-.12.111-.12.111 0 .112.12.112.12v1.192c0 .596 0 1.193.11 1.789.112.596.223 1.312.446 1.908.11.239.444.835.556 1.312.11.358.11.596 0 .715 0 0-.112.12-.335 0-.111-.119-.445-.596-.556-.596l-.666-1.073c-.223-.358-.334-.835-.445-1.193h.111c.112.239.333.477.444.835.112.239.334.477.446.835.11.238.334.477.445.596.11-.12.333.12.444.239zM46.428 28.74c-.111.12-.112 0-.223.24 0 .118.11.238.11.238l.669 2.146c.222.477.332.835.444 1.312.11.835.222 1.55.222 2.385v3.578c0 1.55 0 3.1-.11 4.65-.112 1.67-.112 3.34-.223 4.89 0 .477 0 .835-.112 1.312v.835c0 .12 0 .12.112.12.111 0 .11 0 .11-.12 0-.358.112-.596.112-.954.112-1.193.223-2.505.334-3.816.11-2.385.222-4.77.333-7.036 0-1.193.11-2.386.11-3.697 0-.835-.11-1.67-.22-2.505-.112-.596-.223-1.192-.446-1.67-.333-.715-.556-1.311-.889-2.027 0 0 0-.119-.112-.119-.111.12.112.239-.221.239.11 0 .11 0 0 0z" fill="#000"/><path fill-rule="evenodd" clip-rule="evenodd" d="M47.54 49.849c-.111.12-.112 0-.223.12v.357c-.111 1.431.11 2.981.444 4.412.778 3.578 2.447 7.036 2.669 10.733.111.954 0 1.908-.11 2.862-.223 1.431-.446 2.863-.78 4.294-.333 1.55-.555 3.22-.889 4.77-.222 1.312-.444 2.504-.555 3.816 0 .358-.112.596-.112.954 0 .12 0 .239.112.239.11 0 .221 0 .221-.12.111-.358.111-.596.223-.954.556-2.862 1-5.724 1.557-8.467.333-1.43.666-2.862.889-4.293.111-.954.222-2.027.11-2.981-.11-1.074-.221-2.147-.443-3.22-.556-2.266-1.334-4.532-2.002-6.917-.11-.596-.333-1.193-.445-1.67-.222-1.073-.334-2.265-.445-3.339v-.238c0-.358.001-.239-.221-.358.11 0 0 0 0 0z" fill="#000"/><path fill-rule="evenodd" clip-rule="evenodd" d="M48.095 80.975h.11c.112 0 .111.119.111 0h.112c.111 0 0 .12.111.238l.333 1.074c.112.476.224 1.073.335 1.67a6.949 6.949 0 010 2.146c-.111.596-.334 1.073-.556 1.67-.222.476-.557.953-.89 1.43l-.444.597c0 .119-.112.238-.112.358-.111.119-.222.119-.334 0-.11-.12-.222-.358-.222-.478-.111-.238-.11-.596-.11-.834 0-.478-.001-1.074.11-1.55l.668-2.147h.11c.111 0 .112 0 .112.119l-.334 1.789c-.111.238-.111.477-.111.715-.111.358-.11.716-.11 1.074v.835l.11-.12.445-.715.667-1.431c.222-.478.334-.955.445-1.55.222-1.074-.112-2.267-.335-3.46 0-.357-.11-.596-.11-.953-.111-.12-.111-.239-.111-.477z" fill="#000"/><path fill-rule="evenodd" clip-rule="evenodd" d="M46.093 93.377c0-.119.112-.238.112-.358l.444-.834c.667-1.312.89-2.862 1.335-4.293 0-.12.111-.239.111-.239l.111-.12h.11c0 .12.113.12.113.12v.12a10.013 10.013 0 01-.668 2.623 34.551 34.551 0 01-.667 1.908l-.556.954c-.11.12-.11.358-.222.477-.111.12-.333.239-.444 0a2.377 2.377 0 01-.223-.954c.111-.715.333-1.431.444-1.908l.445-1.55h.111c-.11.238-.11.596-.11.835-.112.238-.112.477-.223.834-.111.358-.333.954-.333 1.55 0 .358 0 .597.11.835zm0 .12c-.11-.12-.11 0 0 0-.11 0-.11 0 0 0zM40.2 48.895c0 .238-.11.238-.11.477v.12c.111.476.333.834.444 1.311.445.954.78 2.027.89 2.982.112.954-.111 1.908-.222 2.862 0 .477-.112.834-.112 1.311v1.074c0 .238.112.477.112.715 0 .12.11.12.11.12.112 0 .112-.12.112-.12v-.596c0-.477.11-.954.222-1.431l.334-2.147c.112-.596.112-1.192 0-1.908a11.37 11.37 0 00-.667-2.623c-.223-.597-.556-1.312-.779-1.909v-.119c0 .12-.11 0-.333-.12zM44.092 56.408l.112.12s.11 0 .11.119c.223 0 .445-.12.667-.12.111 0 .223-.119.223-.238 0-.12-.111-.239-.334-.12h-.666c-.111 0-.112 0-.112.12v.12c-.111-.12-.111 0 0 0-.111 0 0 0 0 0z" fill="#000"/></svg>