<svg width="59" height="159" fill="none" xmlns="http://www.w3.org/2000/svg"><path fill-rule="evenodd" clip-rule="evenodd" d="M31.25 50.492l26.835 53.607H4.523L31.25 50.492z" fill="#F0E1F3"/><path fill-rule="evenodd" clip-rule="evenodd" d="M31.22 79.777L4.386 26.17h53.562L31.221 79.777z" fill="#F0E1F3"/><path fill-rule="evenodd" clip-rule="evenodd" d="M20.544 17.92c-.112.121-.112.121-.112.242v.242c.113.848.451 1.453.677 2.18.338.726.903 1.332 1.355 1.816 1.128 1.21 2.596 1.937 4.289 2.664.338.12.677.242 1.129.363.338.121.79.121 1.242.242.677 0 1.242 0 1.693-.242.677-.484 1.242-1.09 1.693-1.695.678-.969 1.129-2.18 1.468-3.27.903-2.542 1.354-5.811.79-8.717-.226-1.211-.565-2.422-1.242-3.39-.226-.364-.565-.727-.903-1.09-.226-.242-.452-.363-.79-.606h-.227v.243c.226.242.452.484.565.726.339.363.565.726.79 1.09.565.968 1.017 1.937 1.243 3.027.451 2.785 0 5.933-.79 8.354-.34.969-.79 2.18-1.468 3.148-.452.606-.904 1.211-1.58 1.575-.34.242-.904.242-1.356.12a13.452 13.452 0 00-1.128-.363c-.452-.12-.79-.242-1.016-.363-1.58-.605-2.934-1.332-3.95-2.422a9.086 9.086 0 01-1.243-1.695c-.338-.605-.677-1.21-.903-1.937 0-.121 0-.242-.112-.242h-.114s0-.121 0 0z" fill="#000"/><path fill-rule="evenodd" clip-rule="evenodd" d="M32.29 7.015s0-.144 0 0c0-.144 0 0 0 0 .135.145.134.145.269.145.134.289.27.722.405.867.404.433.807.722 1.211 1.155l1.077 1.156c.404.433.943.867 1.347 1.444.269.29.54.723.809 1.156.538 1.3.673 2.6.403 3.756a8.408 8.408 0 01-1.616 3.322h-.134v-.144c.673-1.156 1.077-2.167 1.346-3.323.135-1.155 0-2.167-.539-3.467-.134-.433-.404-.722-.673-1.01-.404-.434-.943-.867-1.347-1.445l-.673-.722c-.539-.578-.943-1.156-1.347-1.734-.134-.144-.269-.578-.404-.867-.134 0-.134-.144-.134-.289zM38.889 15.394c0 .722-.136 1.3-.27 1.733-.135.578-.404 1.011-.808 1.733v.145h.135c.404-.578.674-1.156.808-1.733.27-.434.27-1.012.135-1.878.134 0 .134 0 0 0zM7.782 51.94s-.135 0 0 0c-.135 0-.135.144-.404.144-.404 0-1.213-.144-1.482-.289-.135 0-.269-.144-.134-.289 0-.144.135-.144.27-.144.269 0 1.076 0 1.48.144.135.145.135.29.27.434 0-.145 0-.145 0 0 0-.145 0-.145 0 0 0-.145 0-.145 0 0zM28.655 112.031s.134 0 .134.145c.27.144.54.578.54.578.268.144.403.289.672.433.27.145.538.289.808.289.135 0 .135.145.135.289s-.135.144-.27.144c-.403 0-.807-.144-1.076-.289-.27-.144-.404-.288-.674-.433 0 0-.404-.578-.539-.867 0-.288.135-.433.27-.289 0-.144 0-.144 0 0zM22.459 110.731v.723c0 .144 0 .289.136.433 0 .145-.001.144-.136.289-.135 0-.134 0-.268-.145 0-.144-.136-.288-.136-.433v-.578c.135 0 .27-.289.404-.289 0-.144.135-.144 0 0 .135-.144.135 0 0 0 .135 0 .135 0 0 0zm.136 0c-.135 0-.135 0 0 0-.135 0-.135 0 0 0zM28.789 72.452l.27.289h.134a4.156 4.156 0 001.886 0c1.077-.29 2.02-.723 3.097-1.011a5.088 5.088 0 012.02-.434h.135v-.144a3.067 3.067 0 00-1.616 0c-.539.144-1.212.289-1.75.433-.54.145-1.214.433-1.752.578-.674.144-1.212.289-1.885.289h-.135c-.135-.145-.27-.145-.404 0 0-.145 0-.145 0 0 0-.145 0 0 0 0zM38.08 70.285l1.885-.722s.135-.145 0-.145c0 0-.134-.144-.134 0-.27.145-.808.145-1.212.434-.135 0-.404.288-.538.433zM36.465 73.174l.943-.433s.135-.145 0-.145c0 0-.135-.144-.135 0-.135 0-.269.145-.538.145 0 .144-.135.288-.27.433zM33.232 51.218c-.135 0 0 .144-.134.288 0 .145-.134 0-.134.145-.135.433.268 1.011.268 1.3 0 .289.136.578.136.867.134 1.155.134 2.31.27 3.322 0 0-.001.144.133.144 0 0 .134 0 .134-.144-.134-1.011 0-1.878 0-2.889 0-.433.001-.867-.134-1.3-.134-.434-.134-1.156-.403-1.3-.135-.145-.135 0-.27 0 0-.289.134-.289.134-.434 0 .145 0 .145 0 0z" fill="#000"/><path fill-rule="evenodd" clip-rule="evenodd" d="M31.832 4.117c-.113.12-.113 0-.113.12V5.57c0 .605-.112 1.09-.338 1.574-.339.847-.903 1.695-1.693 2.542-.677.727-1.242 1.453-1.92 2.18a7.33 7.33 0 01-1.466 1.21c-1.694 1.211-3.613 2.18-4.968 3.633-.903.969-1.692 2.18-1.805 3.754-.113.363-.114.605-.114.968s0 .606.114.969c0 .121.112.12.112.12.113 0 .113-.12.113-.12v-.848c0-.242.113-.605.113-.847.339-1.453 1.016-2.422 1.92-3.27 1.467-1.331 3.272-2.179 4.965-3.39a8.648 8.648 0 001.581-1.332l2.032-2.18c.338-.483.677-.847 1.016-1.21.452-.726.79-1.453.903-2.3.113-.364.112-.848.112-1.211 0-.363-.112-.727-.338-1.211V4.48c0-.363 0-.363-.226-.363.113 0 0 0 0 0zM28.559.484c-.113 0-.227-.12-.34-.12-.338-.122-.79-.122-1.129-.243-1.918-.242-3.95.242-5.756 1.09-2.258 1.09-4.177 2.906-5.08 5.206-.677 1.574-.677 3.39-1.016 4.965-.113.363-.225.726-.45 1.21-.904 1.938-3.388 3.996-3.84 6.175-.225.97.001 2.059 1.017 3.028.339.242.564.605.903.847.226.121.451.363.677.484h.113v-.12c-.225-.122-.338-.364-.564-.485-.226-.242-.452-.605-.79-.848-.903-.968-1.016-1.816-.903-2.663.451-2.18 3.048-4.117 3.95-6.054.226-.364.339-.848.451-1.211.452-1.574.452-3.39 1.13-4.964.902-2.18 2.71-3.875 4.854-4.965C23.479.97 25.397.484 27.316.606c.34 0 .79 0 1.13.12-.114-.12-.113-.12.113-.242 0 .121 0 .121 0 0z" fill="#000"/><path fill-rule="evenodd" clip-rule="evenodd" d="M13.545 21.068l-.113.242c0 .363-.112.727 0 .969.113.242.113.484.339.726h.113v.242h-.113c-.113 0-.113 0-.226-.12a.674.674 0 01-.338-.606c-.113-.363-.113-.848-.113-1.332l.113-.726c0-.122.113-.364.113-.485.113-.12.226-.12.338 0 .113.121.113.363.113.485.113.363.113.847.113 1.09.113.484.34.847.565 1.21.338.363.564.605 1.015.969.113 0 .677.484.903.726v-.12c0-.243-.113-.485-.113-.606v-.121s.113-.121.339 0c.113.12.564.484.564.484.226.121.339.242.565.363.226.121.338.242.564.242.677.243 1.468.364 2.145.242.339 0 .564-.12.903-.12.452-.122.79-.243 1.241-.485h.226c0 .121 0 .121-.112.242-.339.243-.79.485-1.242.606-.34.12-.677.12-.903.12-.79.122-1.58 0-2.37-.241-.226-.122-.453-.242-.678-.364-.226-.12-.452-.242-.565-.484 0 0-.338-.242-.45-.484 0 .12.112.242.112.363v.363h-.226c-.339-.12-1.015-.605-1.015-.605a2.74 2.74 0 01-1.017-.969c-.338-.363-.564-.847-.677-1.332-.112 0-.113-.242-.113-.484zm2.935 2.785s0-.121 0 0zM31.482 3.982s.134.144 0 0c-.135.144 0 .578 0 .722 0 .433-.134.867-.134 1.011-.135.722-.405 1.445-.81 2.023-.403.577-.807 1.155-1.48 1.588-.943.578-2.02 1.156-3.097 1.734-1.616.867-3.233 1.589-4.58 2.6-1.615 1.156-2.962 2.456-3.636 4.334h-.134v-.145c.674-2.022 1.885-3.467 3.501-4.767 1.347-1.011 2.963-1.878 4.58-2.744 1.077-.578 2.154-1.156 3.096-1.734.54-.433 1.078-.866 1.347-1.3.404-.578.674-1.155.809-1.878 0-.144.134-1.01.268-1.444v-.145c.135 0 .27 0 .27.145 0-.145 0-.145 0 0zM29.191 3.837c-.404.867-1.211 1.734-2.154 2.312l-2.02 1.3c-.808.433-1.48.866-2.154 1.155-.27.145-.674.434-1.078.723-.27.144-.404.288-.674.433-.134.144-.269.144-.403.144 0 0-.135 0 0 .145 0 0 0 .144.135 0 .27 0 .673-.145 1.077-.29.539-.288.943-.577 1.347-.721.673-.29 1.481-.723 2.29-1.156.673-.433 1.48-.867 2.02-1.445.673-.577 1.48-1.444 1.614-2.6.135 0 .135 0 0 0 .135 0 0 0 0 0zM22.729 6.004l-.27.29c-.269.288-.538.577-.673.577v.144h.136c.134-.144.538-.289.807-.577 0-.145.135-.29 0-.434.135 0 0 0 0 0zM17.611 14.094c-.135.144-.269.144-.404.288-.134.145-.269.434-.403.723.134-.145.269-.434.403-.723.135 0 .27-.144.404-.288z" fill="#000"/><path fill-rule="evenodd" clip-rule="evenodd" d="M17.208 24.205c-.134 0-.135 0-.27-.144-.134-.145-.269-.434-.269-.578-.27-.434-.403-1.011-.538-1.445-.134-.578-.135-1.011-.135-1.589 0 0 0-.144-.134-.144h-.136c-.135.433-.269.867-.134 1.444.135.723.404 1.445.673 2.023.135.144.27.578.54.722.269 0 .403 0 .403-.289.135.145.135 0 0 0 .135 0 0 0 0 0zM15.052 19.438v.434c0 .144.001.288.136.433h.134v-.145c0-.144 0-.288-.134-.288-.135-.145-.136-.29-.136-.434 0 0 0-.144 0 0 0-.144 0 0 0 0zM36.122 23.853l.226-.242.903-.606c.677-.484 1.242-1.09 1.806-1.695.339-.363.677-.847.903-1.332.451-.968.79-2.18.903-3.39.113-1.21-.113-2.3-.677-3.39-.564-1.09-1.468-1.938-2.145-2.906-.226-.242-.338-.484-.451-.848-.677-1.332-.903-2.663-1.355-4.116-.226-.848-.565-1.817-1.016-2.543-.452-.727-1.128-1.332-2.144-1.816-.226-.121-.452-.243-.79-.243-.452-.12-.904-.12-1.243-.242-.79-.12-1.467 0-2.258.121h-.112c-.113 0-.113-.12-.226-.12h-.112l.226-.243c.113-.121.338-.12.564-.12C29.801 0 30.364 0 31.042 0c.452 0 .903.121 1.355.121.339 0 .564.121.903.242a6.217 6.217 0 012.483 1.938c.565.847.903 1.695 1.129 2.663.339 1.332.678 2.664 1.242 3.996.113.242.338.484.451.726.678.97 1.581 1.817 2.145 3.027.565 1.09.79 2.422.677 3.633-.113 1.21-.45 2.543-1.015 3.511-.339.727-.79 1.211-1.355 1.817-.564.484-1.129.968-1.693 1.331l-.903.606c-.113 0-.227.242-.34.242-.112 0-.224 0-.224-.121s.112-.363.225-.606c.112-.12.113-.12.113-.242-.113.121-.339.242-.452.485-.677.605-1.467 1.09-2.37 1.21-.225 0-.339-.12-.226-.242 0-.12.34-.363.452-.484l.451-.606-.564.364c-.339.242-.79.363-1.13.605-.45.121-.789.242-1.24.242-.113 0-.114 0-.114-.12 0 0 0-.122.114-.122.451-.12.79-.121 1.128-.363.34-.121.677-.363 1.016-.606.113-.12.565-.484.904-.605.112-.121.225-.121.338-.121.113 0 .225.121.112.121 0 .121-.225.242-.338.363l-.564.727-.113.12c.677-.241 1.241-.604 1.806-1.089.451-.363.79-.847 1.016-1.332.113-.242.339-.363.339-.605 0-.121.112-.121.112-.121s.114 0 .114.12c0 0-.114.243-.114.364l-.112.606c-.113.242-.565.847-.79 1.331.112.606.112.727.112.727zm-2.483.726c0 .122 0 .122 0 0 0 .122 0 .122 0 0 0 .122 0 .122 0 0 0 .122 0 0 0 0zM23.029 22.037s-.113 0 0 0c.112 0 .225.12.225.242.113.121.113.242.226.363.226.484.338 1.21.451 1.816.113.969 0 1.938-.45 2.664-.226.363-.566.605-.905.848-.225.12-.563.242-.789.363-.338.121-.564.242-.79.242-.113 0-.339 0-.339-.121-.113-.121 0-.242.113-.363l.677-.364.678-.363c.338-.242.564-.363.676-.726.226-.485.339-.969.339-1.695 0-.727-.113-1.574-.338-2.18 0-.12-.113-.363-.113-.484.113-.363-.113 0 .112-.121h.114c.113 0 .113-.121.113-.121z" fill="#000"/><path fill-rule="evenodd" clip-rule="evenodd" d="M22.012 29.06c0-.122.113-.122 0-.243 0 0-.113 0-.113-.121a13.27 13.27 0 00-1.919-.848 8.052 8.052 0 00-2.37-.363c-.903.121-1.806.364-2.596.848-1.129.726-2.145 1.695-3.048 2.543a31.168 31.168 0 00-2.484 3.027c-1.016 1.574-1.919 3.39-2.822 5.085-.903 1.695-1.919 3.39-2.822 4.964-.225.364-.45.848-.676 1.332-.678 1.332-1.468 2.664-2.146 4.117-.451.969-.79 1.937-1.016 2.906 0 .12 0 .121.114.242.112 0 .113 0 .226-.121.225-.726.564-1.453.902-2.058.113-.364.338-.606.451-.969.677-1.332 1.356-2.543 2.033-3.754l3.611-6.296c.903-1.695 1.806-3.39 2.822-4.964a14.356 14.356 0 012.371-2.906c.903-.848 1.806-1.816 2.935-2.422.677-.363 1.467-.726 2.257-.726.565 0 1.13 0 1.694.12.79.122 1.58.485 2.257.727.113 0 .114.121.114.121.113 0-.001-.12.225-.242-.113.121 0 .121 0 0zM.114 52.67C0 52.791 0 52.912 0 53.033v.242c.113.606.452 1.332.678 1.938.564 1.09 1.242 2.18 1.92 3.269a34.268 34.268 0 005.417 6.175c1.242 1.09 2.483 2.18 3.837 3.148.678.484 1.242.848 1.92 1.332.338.121.564.363.902.484.113.122.227 0 .34 0 .113-.12.112-.242-.114-.363-.225-.242-.45-.363-.677-.605-.564-.485-1.128-.848-1.693-1.211-1.806-1.453-3.612-2.785-5.193-4.359-1.467-1.453-2.82-3.148-4.175-4.964l-1.694-2.543c-.451-.848-.677-1.695-1.128-2.422 0-.363 0-.363-.226-.484z" fill="#000"/><path fill-rule="evenodd" clip-rule="evenodd" d="M26.866 64.657c-.226-.12-.453-.121-.678-.242-.34-.121-.79-.121-1.242-.121-.451 0-.902-.121-1.467-.121-.338 0-.565 0-.904.12-.338 0-.45.122-.79.243-.564.242-1.128.605-1.692.848-.79.363-1.581.605-2.371.847-.226.121-.452.121-.677.121h-.339c-.113 0-.226 0-.226-.12 0-.122 0-.243.113-.243.113-.121.225-.121.338-.242.903-.363 2.033-.606 2.936-.969.564-.242 1.015-.484 1.467-.726.339-.121.677-.242 1.129-.364h1.016c.452 0 .903.121 1.467.121.452 0 .903 0 1.242.122.338 0 .564.12.902.242.113 0 .34.12.452.242.113.121.113.121.113.242 0 0 0 .242-.225.242-.113 0-.564.121-.564.121h-1.807c-.678 0-1.242.121-1.693.243-.565.242-1.016.484-1.58.847-.113.121-.339.242-.565.363l1.242-.12c.79 0 1.693-.122 2.483-.122.565 0 1.13 0 1.694.121.225 0 .676.121 1.015.242.226.122.339.243.452.364 0 0 0 .242-.339.363-.338.121-1.242.242-1.242.242-.564.121-1.241.121-1.806.121h-1.016c.451 0 .904 0 1.468.121.678 0 1.242.121 1.806.242.226 0 .677.121.903.243.113.12.338.242.338.363.113.242 0 .242-.112.363h-1.581c-.903 0-1.693-.242-2.596-.363h-1.467c.338.12.677.12 1.016.242.452.121.79.242 1.129.484.113.121.451.242.564.485.113.12.225.242.225.363 0 0 .001.242-.225.242h-.113c-.339 0-1.242-.242-1.355-.242-.564-.121-1.241-.242-1.806-.363-.338 0-.79-.121-1.128-.121-.34 0-.79.12-1.13.242-.902.363-1.692.847-2.595 1.09-.452.12-1.016.242-1.468.12-.338-.12-.678-.242-.903-.605-.226-.242-.226-.484-.339-.847 0-.122-.113-.243 0-.364 0-.12.114-.12.114-.242h.112c.113 0 .113 0 .226.121.226.242.113.727.339.969.225.242.338.242.564.363.339.121.79 0 1.129-.121.903-.242 1.806-.726 2.596-.969.451-.12.904-.242 1.242-.242.452 0 .79 0 1.241.121.565.121 1.242.242 1.806.485.113 0 .678.12 1.016.242-.112-.121-.339-.242-.452-.363-.338-.243-.676-.364-1.015-.485-.564-.242-1.242-.363-1.807-.484-.113 0-.112-.121-.112-.121l.112-.121c.113 0 .113-.121.226-.121h.339l1.129-.121h1.016c.79.12 1.467.242 2.258.242h1.016c-.226-.121-.452-.121-.678-.121-.451-.121-.903-.121-1.467-.242-.677-.121-1.468-.122-2.145-.122h-1.13c-.112 0-.45.122-.564.122-.113 0-.225-.122-.225-.243 0-.12.113-.242.339-.242.339-.12.902-.242 1.015-.242.452-.121 1.017-.121 1.581-.242.79-.121 1.467-.121 2.258-.121 0 0 .45-.121.902-.121h-.112a2.385 2.385 0 00-.79-.121c-.565-.121-1.13-.121-1.694-.121-.79 0-1.693.12-2.483.12l-1.241.122c-.113 0-.34.12-.452.12h-.339c-.113 0-.112-.12-.112-.241s.112-.243.338-.364c.226-.242.565-.363.79-.484.565-.363 1.13-.727 1.694-.969.564-.242 1.128-.363 1.918-.363h2.033z" fill="#000"/><path fill-rule="evenodd" clip-rule="evenodd" d="M17.158 66.11c0-.121.113-.121 0-.242 0-.121-.226-.242-.339-.363-.564-.727-1.015-1.453-1.467-2.18-.452-.726-.903-1.574-1.355-2.3-.338-.364-.564-.848-.902-1.211-.678-.969-1.355-1.816-2.032-2.785-.79-1.09-1.468-2.3-2.258-3.511l-.678-1.09-.338-.363c-.113 0-.113-.121-.113 0-.112 0-.112.12 0 .12.113.243.112.364.225.606.339.727.79 1.332 1.13 2.059.45.847 1.015 1.695 1.58 2.542l2.822 4.117c.338.605.678 1.21 1.016 1.695.339.605.678 1.21 1.129 1.695.339.484.677.848 1.129 1.211.338.121.338.121.45 0 0 .121 0 .121 0 0 .114.121.114 0 0 0z" fill="#000"/><path fill-rule="evenodd" clip-rule="evenodd" d="M7.901 52.186c.113 0 .114 0 .34-.121.113-.121.112-.242.112-.364.339-.726.903-1.453 1.467-2.058.565-.726 1.017-1.332 1.581-2.058.903-1.211 1.806-2.422 2.709-3.512.564-.726 1.242-1.453 1.806-2.18.226-.362.452-.604.79-.968.227-.242.452-.605.678-.847.338-.364.677-.848 1.016-1.332v-.121h-.114c-.451.363-.903.726-1.354 1.21-.678.606-1.242 1.332-1.806 1.938-1.467 1.695-2.822 3.511-4.177 5.327-.79 1.09-1.693 2.18-2.37 3.27-.338.484-.678.968-.678 1.453-.226.242-.226.12 0 .363-.113 0-.113 0 0 0-.113 0 0 0 0 0z" fill="#000"/><path fill-rule="evenodd" clip-rule="evenodd" d="M13.659 43.59c-.113.12-.227.241-.227.483-.112.606.114 1.09.226 1.574.226.848.678 1.575 1.13 2.18.676.969 1.58 1.816 2.483 2.664.903.847 1.692 1.695 2.482 2.542.565.727 1.13 1.575 1.355 2.543 0 .121.113.121.226.121s.113-.12.113-.242a6.376 6.376 0 00-1.016-2.785c-.903-1.332-2.145-2.543-3.274-3.632-.79-.727-1.467-1.574-2.031-2.422-.452-.726-.904-1.453-1.017-2.422 0-.12 0-.12-.112-.242l-.338-.363c.112 0 .112 0 0 0z" fill="#000"/><path fill-rule="evenodd" clip-rule="evenodd" d="M21.11 55.334c.112-.121-.113 0 .113 0h.112c.339.12 0-.121.113 0 .112.12 0 .242 0 .363-.113 1.09-.338 2.058-.79 3.027-.564 1.453-1.467 2.785-2.257 4.117-.339.605-.79 1.21-1.13 1.816-.112.242-.226.363-.339.606-.113.12-.112.12-.225.242 0 .12-.113.12-.226.12-.112 0-.113-.12-.113-.241v-.243c0-.242.113-.484.226-.605.338-.726.678-1.332 1.016-2.058.79-1.332 1.693-2.664 2.37-4.117.452-.848.677-1.816.903-2.785.226 0 .113-.121.226-.242zM14.45 68.895c-.226 0-.114-.121-.227 0-.113.242-.225.484-.338.605-1.016 2.543-2.146 5.086-2.371 7.628-.113 1.938.113 3.754 1.129 5.812.338.606.677 1.211 1.128 1.695.565.848 1.243 1.575 1.807 2.301.113.121.226.121.338 0 .113-.121.113-.121 0-.242-.564-.848-1.128-1.574-1.693-2.422-.338-.605-.677-1.09-.903-1.695-1.015-1.937-1.241-3.632-1.128-5.449.225-2.421 1.24-4.843 2.144-7.385.113-.243.226-.485.226-.606.113-.121.113 0-.113-.242.113.121.113 0 0 0 .113 0 0 0 0 0z" fill="#000"/><path fill-rule="evenodd" clip-rule="evenodd" d="M15.691 86.936c-.113.121-.112 0-.112.242 0 .121 0 .242.112.363.226.97.451 1.817.677 2.785.113.606.339 1.211.564 1.816.904 2.543 1.807 5.086 2.936 7.508 1.016 2.058 2.145 4.116 3.048 6.296.451.968.79 1.937 1.129 3.027l.338 1.089c0 .122.113.121.113.243 0 .121.113.121.226.121.112 0 .112-.121.112-.242v-.364c0-.242-.112-.484-.112-.726-.226-.848-.452-1.574-.79-2.301-1.017-2.543-2.258-5.085-3.387-7.386-.565-1.21-1.016-2.421-1.58-3.632l-1.693-4.722a97.908 97.908 0 00-1.016-3.148c-.113-.243-.114-.485-.226-.727-.113-.242-.113-.12-.339-.242.113 0 0 0 0 0z" fill="#000"/><path fill-rule="evenodd" clip-rule="evenodd" d="M24.269 110.305c.113-.242-.112.121.114 0h.112c.226 0 0-.121.226 0v.242c.113.848.112 1.695.112 2.422 0 .242-.112.605-.112.847-.226 1.09-.564 2.18-.903 3.269-.564 1.938-1.129 3.996-.79 6.054.226 1.453.677 2.906 1.129 4.238.79 2.059 1.693 4.117 2.483 6.175.564 1.574 1.016 3.27 1.241 4.844.226 1.21.339 2.3.339 3.511 0 .484 0 .969-.113 1.453 0 .121-.113.242-.226.242s-.226-.121-.226-.242c-.113-.606-.112-1.211-.225-1.816-.112-1.332-.338-2.785-.564-4.117-.226-1.211-.565-2.543-1.016-3.754-.79-2.058-1.807-4.116-2.484-6.175-.451-1.453-.903-2.906-1.129-4.359a11.484 11.484 0 010-2.784c.339-2.422 1.243-4.844 1.807-7.265.226-.969.338-1.817.338-2.785-.112.242-.226.121-.113 0z" fill="#000"/><path fill-rule="evenodd" clip-rule="evenodd" d="M27.656 143.36c-.113.121-.113.121-.113.242-.113.242 0 .484 0 .726 0 .969-.226 2.059-.452 3.027-.338 1.574-.79 3.149-1.015 4.602-.113.726-.114 1.453-.114 2.3 0 .484-.112 1.211-.112 1.937 0 .364.113.727.338.969.34.484 1.016.727 1.694.848.903.242 1.918.242 2.596.242.564 0 1.242 0 1.806-.121.34 0 .79-.121 1.13-.242l.112-.121-.113-.122c-.338.121-.79.122-1.128.122-.565 0-1.13-.122-1.694-.122-.677 0-1.693-.121-2.483-.242-.452-.121-1.016-.363-1.242-.726-.112-.121-.113-.363-.113-.606 0-.605.226-1.453.113-1.937-.112-1.937.452-3.996.903-5.933.226-.847.338-1.816.451-2.664 0-.726.226-1.453-.112-2.058-.226 0-.227 0-.452-.121.113 0 .113 0 0 0z" fill="#000"/><path fill-rule="evenodd" clip-rule="evenodd" d="M33.525 157.89c.113 0 .226 0 .338-.121.565-.364.678-1.211.79-1.817.227-1.089.114-2.058 0-3.269a44.916 44.916 0 00-.676-5.449c-.113-.968-.339-1.937-.564-2.784 0-.242-.114-.485-.114-.727 0-.121-.112-.121-.112-.121-.113 0-.113.121-.113.121v.727c0 .968.112 1.937.225 2.906.226 1.816.565 3.511.678 5.327.113.848.225 1.695.112 2.543 0 .726-.225 1.453-.564 2.179v.121c-.113.121-.113.121 0 .364-.113-.121-.113 0 0 0z" fill="#000"/><path fill-rule="evenodd" clip-rule="evenodd" d="M32.961 144.934l.114-.121c.113-.484 0-.848.112-1.332v-4.117c-.112-3.148-.113-6.296.113-9.444.339-4.722 1.016-9.444 1.355-14.167.112-1.453.226-2.905.226-4.237v-1.09c0-.242-.113-.484-.113-.727 0-.121-.113-.121-.226-.121s-.226.121-.226.121c0 .243-.112.485-.112.727-.113.605-.114 1.09-.114 1.695-.113 1.816-.225 3.754-.45 5.691-.452 3.996-1.017 8.112-1.243 12.108a54.196 54.196 0 000 6.054c0 1.332.113 2.664.226 3.996.113 1.332.113 2.663.226 3.995v.727c0 .242 0 .242.112.242z" fill="#000"/><path fill-rule="evenodd" clip-rule="evenodd" d="M34.204 112.484c.113-.121.112-.242.225-.363.338-1.09.34-2.301.34-3.39 0-1.211-.002-2.301-.114-3.512-.113-1.816-.339-3.511-.339-5.206 0-3.148.113-6.296.226-9.445.113-1.331.113-2.663.113-4.116 0-1.332 0-2.664-.113-4.117-.113-.605-.113-1.21-.226-1.695 0-.121-.112-.121-.112-.121-.113 0-.114.12-.114.12v5.692c0 1.331-.112 2.663-.112 3.995-.113 3.148-.34 6.297-.226 9.445 0 1.695.226 3.511.452 5.327.113 1.211.225 2.301.338 3.511.113 1.09-.113 2.18-.113 3.391-.452.242-.338.363-.225.484-.113 0-.113 0 0 0-.113.121 0 0 0 0zM30.252 25.306c-.225 0-.113-.121-.34 0-.112 0-.112.12-.112.242-.451 1.09-.677 2.18-.79 3.27 0 .484 0 .968.114 1.452.112.727.338 1.453.676 2.058.113.122.226.243.339.122.113 0 .226-.242.113-.364-.112-.605-.226-1.09-.34-1.695-.112-.605-.112-1.09-.112-1.695 0-.969.114-2.058.452-3.027 0-.121.113-.121.113-.242.113-.121.113.121-.113-.121.113 0 .113 0 0 0 .113 0 0 0 0 0zM29.92 13.387c-.113 0-.113 0-.225.178-.056 0 0 .177 0 .177-.112.887-.168 1.951-.224 2.838 0 .355-.056.887 0 1.242 0 .71.112 1.241.168 1.95 0 .178.112.178.28.178.113 0 .225-.177.225-.355 0-.71.056-1.596.056-2.306 0-1.241.056-2.306.056-3.547 0-.178.056-.355 0-.532-.056-.178-.056 0-.168-.177-.112.354-.112.354-.168.354z" fill="#000"/><path fill-rule="evenodd" clip-rule="evenodd" d="M25.152 17.56c.27 0 .54.145.674.145.538.289.944 1.011 1.078 1.589.27 1.155-.135 2.31-1.212 2.6-1.078.289-2.02-.578-2.424-1.734-.27-1.01 0-2.31 1.077-2.6a.807.807 0 01.807 0zM31.618 20.883a1.18 1.18 0 01-.27-1.156c.135-.578.539-1.444.674-1.589.134-.144.404-.722.673-.722.27 0 .404-.145.673 0 .404.289.538.722.538 1.156 0 .722-.403 1.733-.538 2.022-.134.144-.404.578-.673.722a.81.81 0 01-.809 0c0-.144-.133-.289-.268-.433z" fill="#F4D9D9"/><path fill-rule="evenodd" clip-rule="evenodd" d="M29.913 28.696c-.113.242-.113-.121-.113.242 0 0 0 .121.113.121.451.485 1.128.727 1.693.848 1.467.363 3.273 0 4.515.605 1.242.606 1.92 1.695 2.258 3.027.338 1.211.452 2.422.452 3.633 0 .726 0 1.453.112 2.058 0 .121.114.363.114.485 0 .12.112.12.112.12.113 0 .114-.12.114-.12 0-.122.112-.364.112-.485.113-.605.112-1.332.112-2.058 0-1.211 0-2.664-.338-3.875-.338-1.574-1.128-2.906-2.596-3.511-1.242-.606-3.16-.364-4.628-.606-.564-.12-1.016-.242-1.468-.605h-.112c-.452 0-.114 0-.452.121-.113 0-.113 0 0 0z" fill="#000"/><path fill-rule="evenodd" clip-rule="evenodd" d="M35.445 35.113c-.113.121-.113 0-.113.121s.113.243.113.364c.225.484.452.968.79 1.453a19.478 19.478 0 001.92 2.421c.902.848 2.256 1.574 3.046 2.422.452.605.791 1.21.678 2.18 0 .242 0 .484-.113.726 0 .242-.113.484-.113.605-.113.242-.113.484-.226.727-.113.242-.225.484-.338.605-.226.242-.451.605-.677.848-.226.242-.452.484-.79.726-.678.606-.452.727-.903 1.09a1.578 1.578 0 01-.452.363c-.113 0-.113.121-.113.121s.113.121.113 0c.225-.121.451-.242.564-.363.339-.242.113-.363.903-.969.339-.242.564-.484.79-.726.339-.242.451-.484.677-.848.113-.12.227-.363.34-.605.113-.242.225-.606.338-.848.113-.242.113-.484.226-.726s.113-.484.113-.727c.112-1.09-.227-1.937-.79-2.663-.791-.97-2.033-1.696-3.049-2.664l-1.353-1.453c-.452-.606-.904-1.332-1.355-1.938-.113-.12-.113-.363-.339-.484.226.121.338.242.113.242.113 0 .113-.12 0 0z" fill="#000"/><path fill-rule="evenodd" clip-rule="evenodd" d="M38.379 49.885c-.226.121-.112-.12-.225.121-.113.121 0 .242 0 .364v4.843c.113 1.21.226 2.422.564 3.632.226.969.677 1.817 1.241 2.664.452.848.904 1.574 1.355 2.422.226.363.339.847.565 1.332.113.242.225.605.338.847 0 .121.113.242.339.242.112 0 .225-.12.225-.242 0-.363-.112-.726-.112-.968-.113-.485-.34-.97-.452-1.453l-1.355-2.543c-.451-.848-.903-1.574-1.129-2.422-.564-1.937-.45-4.116-.45-6.296 0-.484-.001-1.09-.114-1.574 0-.242 0-.484-.112-.727v-.12c-.452-.243-.34-.122-.678-.122.113-.12.113-.12 0 0 0-.12 0-.12 0 0z" fill="#000"/><path fill-rule="evenodd" clip-rule="evenodd" d="M42.443 66.11c-.112.121-.113.242-.113.363-.113.485 0 .969.113 1.332.113.242.113.485.113.727.226.968.565 1.937.678 2.906.225 1.695.45 3.39.45 5.206.114 1.816.001 3.511-.112 5.207a30.5 30.5 0 01-1.016 6.296c-.565 2.058-1.242 3.995-2.258 5.933-.903 1.937-2.145 4.359-3.386 6.78-.79 1.574-1.58 3.148-2.258 4.48-.113.243-.225.485-.338.606-.113.242-.113.484-.226.605v.121h.113l.451-.484c.113-.121.226-.363.339-.484.451-.848.904-1.696 1.468-2.543.339-.606.677-1.09.903-1.695 1.242-2.422 2.596-5.086 3.612-7.023 1.016-1.937 1.693-3.996 2.258-6.054.564-2.058.903-4.238 1.129-6.417.112-1.695.112-3.512.112-5.328-.113-1.816-.226-3.632-.564-5.327-.113-.364-.114-.727-.226-1.09-.113-.606-.339-1.21-.565-1.937-.225-.606-.338-1.211-.45-1.817v-.12l-.227-.243c.113-.121 0-.121 0 0 0-.121 0-.121 0 0zM23.705 117.569c-.113 0-.225 0-.45.121-.114 0-.114.122-.227.122-.451.484-1.242 1.331-2.145 2.542-.451.485-.902 1.09-1.354 1.695-1.58 2.18-3.387 4.965-4.854 7.749-.903 1.696-1.693 3.27-2.483 4.844-.451 1.089-.903 2.3-1.242 3.511 0 .121 0 .242.114.242.112 0 .224 0 .224-.121l1.017-2.543c.903-1.937 1.918-3.753 2.934-5.69.903-1.816 2.032-3.512 3.048-5.207.79-1.211 1.694-2.3 2.371-3.39 1.016-1.453 1.918-2.543 2.483-3.269.113-.121.34-.242.34-.485.225.243.224.121.224-.121 0 .121 0 .121 0 0z" fill="#000"/><path fill-rule="evenodd" clip-rule="evenodd" d="M11.514 137.548c0 .121 0 .121 0 0h.113s.113 0 0 0h.113c0 .121-.113.242-.113.363-.226 1.211-.34 2.785-.34 4.238 0 1.09.114 2.058.453 3.027.112.363.339.726.451 1.09.226.363.34.726.565 1.089.339.485.563 1.09.79 1.574.112.121 0 .242-.113.242s-.226 0-.339-.121c-.338-.605-.903-1.089-1.242-1.695-.452-.605-.79-1.332-1.015-1.937a9.84 9.84 0 01-.565-3.269c0-1.453.338-3.027.677-4.238.452 0 .452-.121.565-.363 0 .121 0 .121 0 0zM21.673 102.677c.113 0 .114.121.114.121h.112v.121s.113 0 .113.121-.113.121-.113.121c-.226.605-.338 1.332-.564 1.937-.113.485-.338 1.09-.677 1.453-.226.363-.565.606-1.016.969-.79.605-1.694.968-2.484 1.574-.903.726-1.693 1.453-2.484 2.421-.677.969-1.354 1.938-1.693 2.906-.451 1.09-.677 2.18-.902 3.27-.34 1.695-.452 3.511-.677 5.206-.339 2.18-.904 4.238-1.581 6.175-.452 1.453-1.13 2.785-1.92 4.117-.338.484-.677 1.09-1.128 1.574-.113.121-.112.121-.225 0-.113 0-.113-.121 0-.242a7.88 7.88 0 00.903-1.695c.677-1.332 1.241-2.664 1.805-3.996.678-1.937 1.13-3.996 1.468-6.054.338-1.816.451-3.511.79-5.207.226-1.21.452-2.3 1.016-3.511.452-1.09 1.129-2.179 1.806-3.148.79-.969 1.693-1.816 2.596-2.543.79-.605 1.694-.968 2.484-1.574.338-.242.677-.484.902-.726.678-.848.904-2.059 1.243-3.027 0-.121 0-.242.112-.363z" fill="#000"/><path fill-rule="evenodd" clip-rule="evenodd" d="M7.902 132.463c-.226-.121 0-.121-.225-.121h-.113c-.34.121-.565.242-.903.242l-1.355.363a5.14 5.14 0 00-1.129.605c-.903.727-1.129 1.695-1.129 2.785.113 1.211.565 2.543 1.017 3.875.225.605.45 1.211.677 1.695l.338.726c0 .122.113.243.226.121.113 0 .226-.121.226-.242 0-.242 0-.484-.113-.847-.112-.485-.338-1.09-.564-1.816-.451-1.211-.904-2.422-.904-3.633 0-.847.113-1.574.79-2.179.452-.364 1.13-.606 1.807-.727.339-.121.564-.242.903-.363.226-.121.452-.121.564-.363 0 .121-.113.242-.113-.121 0 .121 0 .121 0 0z" fill="#000"/><path fill-rule="evenodd" clip-rule="evenodd" d="M13.771 149.777c-.112-.121-.113-.242-.226-.242l-.902-1.09c-.113-.121 0-.242 0-.242h.226l.902.969c.113.121.34.242.452.363.113.121.113.363-.113.484-.339.243-.677.364-1.129.485-.564.121-1.129.121-1.693.242-1.242.121-2.935.484-4.29.242-1.128-.121-2.031-.605-2.595-1.695-.452-.969-.565-1.937-.339-3.027.113-.484.113-1.09.339-1.574.225-.727.45-1.574.676-2.301v-.121l.226-.242h.114c.113.121.112.121.112.242v.242c-.112.727-.226 1.453-.452 2.301-.112.726-.338 1.453-.338 2.179 0 .727.113 1.332.338 1.938.452.847 1.13 1.21 2.033 1.331 1.355.243 2.935.001 4.063-.121.565 0 1.13 0 1.694-.121.451-.121.677-.121.902-.242zM41.427 41.773c-.113-.121 0-.121-.112-.242 0 0-.113 0-.226-.121-.452-.121-.903-.242-1.355-.242-.677 0-1.354.242-2.032.605-.79.363-1.58.969-2.257 1.695-.452.484-.903.969-1.241 1.453-.113.242-.34.484-.452.726v.243h.226l.564-.606c.452-.363.903-.847 1.355-1.332.677-.605 1.354-1.21 2.144-1.574.564-.363 1.13-.484 1.807-.605h1.467c0 .121 0 .121.112 0 0 .121 0 .121 0 0 .113 0 .113 0 0 0zM33.752 46.132c-.113-.242-.113-.363-.226-.606-.677-1.332-2.483-2.18-4.063-2.906-1.016-.484-2.145-.847-3.16-.968-.79-.121-1.58-.242-2.258-.121-1.355.12-2.145.968-2.484 2.058-.338.969-.339 2.3.113 3.27.226.483.451.847.79 1.21h.113v-.121c-.34-.363-.452-.848-.677-1.332-.226-.726-.34-1.453-.226-2.18.226-1.21.903-2.179 2.257-2.179.678 0 1.355.121 2.032.242 1.016.242 2.032.485 3.048.969 1.58.605 2.822 1.695 3.95 2.543.452 0 .565 0 .791.12z" fill="#000"/><path fill-rule="evenodd" clip-rule="evenodd" d="M22.689 48.19c-.226.121-.34.121-.452.242-.564.242-1.241.484-1.806.848-.564.242-1.128.605-1.693.968-.113.122-.112.242-.338.242h-.226v-.12c0-.122-.113-.122 0-.122l.112-.12c.452-.485 1.017-.727 1.581-1.09.79-.364 1.693-.727 2.596-.97.113 0 .226-.12.338-.12h.114c-.113 0 .112.12.112.12-.338-.12-.338.001-.338.122 0-.121 0-.121 0 0zM18.965 51.58h.338c.903-.363 1.806-.726 2.822-.968 1.129-.121 2.37-.242 3.387-.242 1.58 0 3.16.12 4.853.12h2.032c1.129 0 2.37 0 3.612-.12.79-.121 1.58-.243 2.37-.485 0 0 .113 0 0-.12h-.112c-.565.12-1.129.12-1.806.241h-.79c-1.13 0-2.258-.12-3.387-.12-1.58 0-3.16 0-4.74-.122h-2.032c-1.355 0-2.823.121-4.177.484-.79.243-1.468.485-2.146.848-.112 0-.111.121-.224.121v.363c-.113 0-.113 0 0 0-.113.122-.113.122 0 0z" fill="#000"/><path fill-rule="evenodd" clip-rule="evenodd" d="M22.576 48.311c-.113 0-.113 0 0 0h-.338a4.495 4.495 0 01-1.92-1.695c-.338-.484-.563-.968-.789-1.574a9.662 9.662 0 01-.34-2.422s.001-.12.114-.12.113 0 .113.12c.113.727.339 1.454.678 2.18.112.242.338.605.45.848.452.847 1.13 1.453 1.92 1.937.113 0 .113 0 .226.12.112.364.112.122.112.122s-.112 0-.112.242h-.114c-.226.484.452.121 0 .242zM16.368 40.562c.113 0 .227.121.34.121h.224c.678-.121 1.356-.242 2.033-.242.113 0 .113 0 .113-.121s-.113-.121-.113-.121c-.677 0-1.242.12-1.807.12-.113 0-.338 0-.45.122-.113 0-.227 0-.34.121zM33.413 45.89v-.364c0-.363.113-.847.113-1.21 0-.606 0-1.211-.113-1.817-.112-.847-.338-1.574-.564-2.421a64.49 64.49 0 01-.678-2.422c0-.121 0-.121.114-.121.113 0 .112 0 .112.121.339.848.678 1.574 1.017 2.3.338.848.563 1.696.676 2.422.113.606.114 1.211.114 1.938 0 .363-.113.847-.226 1.21 0 .121-.114.243-.114.243 1.58.363.79.847 0 .968 0 .121-.225.121-.45 0-.34 0-.453-.12-.453-.242-.677-.121-1.128-.969.453-.605l.112.12s0 .122.113.122c0 0 .113 0 .113-.121l.112-.121h-.112-.339zM23.94 48.473c.136.144.136.144.27.289.135.144.27.144.404.144.404.145.673.145 1.077.289.27 0 .539 0 .674.144 1.212.145 2.559 0 3.905-.288 0 0 .135 0 .135-.145 0 0 0-.144-.135 0-1.346 0-2.693-.144-4.04-.289-.134 0-.27 0-.539-.144-.404 0-.808-.145-1.212-.145h-.269c0-.144-.134 0-.27.145 0-.145 0-.145 0 0-.134-.145 0 0 0 0zM36.599 48.906h.405v-.144h-.136l-.27.144zM27.308 32.872c0-.144 0-.144 0 0-.27-.289-.54-.289-.809-.433-.269-.145-.538-.145-.673-.29l-2.02-.433c-.943-.144-2.019-.144-2.962-.288-.134 0-.135 0-.135.144 0 .145 0 .144.135.144.674.145 1.347.145 2.02.29.404 0 .943.144 1.347.144.539.144.942.144 1.48.289.27 0 1.078.433 1.348.288.134.29.135.145.27.145z" fill="#000"/><path fill-rule="evenodd" clip-rule="evenodd" d="M20.77 27.97c0 .12-.113.12-.113.242v.121c.113.363.338.726.451.969.113.363.226.726.452 1.09.452 1.331 1.016 2.784 1.355 4.237.339 1.09.451 2.3.677 3.39.226 1.211.451 2.301.564 3.512 0 .12.113.242.226.12.113 0 .226-.12.113-.241-.113-1.09-.226-2.18-.339-3.39a34.909 34.909 0 00-1.016-4.965c-.339-.968-.564-1.937-1.015-2.906-.339-.605-.564-1.21-.903-1.816-.113-.121-.113-.242-.226-.242 0-.121 0-.121-.226-.121 0-.121 0-.121 0 0z" fill="#000"/><path fill-rule="evenodd" clip-rule="evenodd" d="M25.059 42.015c.113-.121.114 0 .114-.121.113-.121.112-.363.112-.605.226-2.18-.112-4.36-.677-6.539-.451-1.816-1.242-3.753-2.032-5.448-.113-.243-.338-.606-.451-.848l-.339-.363c-.113-.121-.113-.121-.226-.121s-.113.12-.113.242c0 .12 0 .242.113.484.113.363.338.606.451.848.79 1.695 1.581 3.511 2.033 5.327.564 2.059.902 4.117.79 6.296 0 .243-.114.364 0 .606l.225.242zM33.751 29.907c-.112.121-.112 0-.112.121v.242c.113 1.09.45 2.059.79 3.027.225.485.451 1.09.677 1.574l1.015 1.453c0 .121.113.121.226 0 .113 0 .114-.12.114-.242-.339-.484-.452-1.09-.678-1.574a20.417 20.417 0 01-.677-1.574c-.339-.969-.677-1.937-.903-2.906 0-.12 0-.121-.113-.242-.113.121-.113.12-.339.12z" fill="#000"/><path fill-rule="evenodd" clip-rule="evenodd" d="M32.396 29.786c-.113.121-.112 0-.112.12v.122c0 .727.226 1.453.564 2.18.452 1.09 1.242 2.058 1.92 3.026.338.485.676.97 1.015 1.332l.452.485c.113.12.225.12.338.242h.226v-.121l-.338-.363c-.113-.121-.227-.364-.34-.485-.339-.484-.677-.968-.903-1.453a17.372 17.372 0 01-1.58-2.421c-.45-.727-.677-1.574-.903-2.422v-.121c-.113 0-.113 0-.339-.121.113 0 .113 0 0 0 .113 0 0 0 0 0zM21.673 68.653c.113 0 .113.12 0 0 .226.242.564.363.903.484.677.242 1.355.363 2.033.606.903.242 1.806.605 2.822.847.677.121 1.24.242 1.918.242.677 0 1.355 0 2.032-.12 1.017-.122 2.032-.243 3.047-.485 1.694-.242 3.387-.727 4.968-1.332a10.459 10.459 0 002.71-1.574c.112 0 .111-.121.224-.121v-.242c.113 0 .113-.121 0-.242-.113 0-.112-.121-.225 0-.113 0-.113-.121-.226-.121s-.113.12-.226.242c-1.016.726-2.145 1.331-3.274 1.695-1.241.484-2.709.726-4.063.969-1.016.12-2.032.363-3.048.484-.677.12-1.354.12-2.032.12-.677 0-1.24-.12-1.805-.241-.903-.121-1.92-.364-2.822-.606-.452-.12-1.017-.242-1.469-.363-.451-.121-.902-.363-1.24-.363 0 0-.114 0-.227.12.113-.12 0-.12 0 0z" fill="#000"/><path fill-rule="evenodd" clip-rule="evenodd" d="M33.977 80.761h.226c.339 0 .45-.242.79-.363a5.051 5.051 0 001.242-.969l.677-.726c.451-.606.79-1.332 1.128-1.938.565-.847 1.016-1.816 1.468-2.784.79-1.817 1.467-3.633 2.257-5.328.113-.121.113-.363.226-.484.113-.242.113-.606.339-.848 0-.121 0-.121-.113-.121h-.112a3.689 3.689 0 00-.565.847c-.112.243-.339.606-.452.97-1.128 2.542-2.032 5.206-3.386 7.506-.339.484-.564 1.09-.903 1.695-.226.364-.452.727-.678.969-.338.363-.677.605-1.129.847-.225.122-.45.364-.789.485 0 0-.113 0-.113.12-.113-.12-.113-.12-.113.122 0-.121 0-.121 0 0zM33.639 80.76c-.113 0-.114-.12-.114-.241l-.676-1.09a1.413 1.413 0 00-.565-.605c-.564-.606-1.242-1.211-1.693-1.696-.452-.363-.79-.726-1.242-1.09-.678-.483-1.355-.968-2.032-1.452-1.468-.969-3.048-2.059-4.854-2.906-.79-.363-1.58-.606-2.483-.848-.339-.12-.678-.242-1.129-.242-.113 0-.226-.121-.226-.242s.113-.242.226-.242h1.242c.903.12 1.693.484 2.596.847 1.806.727 3.386 1.938 4.966 2.906.678.485 1.469.969 2.033 1.453.452.364.903.727 1.241 1.09.678.727 1.693 1.574 2.37 2.543.339.363.452.847.565 1.21l.113.122h-.226c0 .363 0 .484-.112.484zM33.887 60.037c0-.144-.135-.144 0 0 .134.145.135.145.135.29 0 .433.135.722 0 1.155 0 .289 0 .578-.135.722 0 .145-.134.145-.134.29-.135 0-.27-.145-.27-.145 0-.29-.134-.434-.134-.722v-1.301l.134-.144s0 .145.136 0c.269-.144.268-.145.268-.145z" fill="#000"/></svg>