<svg width="62" height="156" fill="none" xmlns="http://www.w3.org/2000/svg"><path d="M31 106.929c17.121 0 31-17.939 31-40.067S48.121 26.795 31 26.795c-17.12 0-31 17.938-31 40.067s13.88 40.067 31 40.067z" fill="#D6EFF4"/><path fill-rule="evenodd" clip-rule="evenodd" d="M23.397 18.673v-.427c-.132-.712-.797-1.282-1.195-1.424-.664-.427-1.46-.285-1.858.142-1.062 1.282-.797 2.706.133 3.703.53.57 1.194.996 1.99 1.139.532.142 1.063 0 1.461-.143v-.142c0-.143 0 0-.133 0h-1.061c-.797-.143-1.46-.57-1.992-1.282-.663-.854-.929-1.993 0-2.848.133-.142.266-.142.531-.142a.98.98 0 0 1 .664.285c.398.142.663.57.929.997.265 0 .266 0 .531.142-.132 0-.132 0 0 0z" fill="#000"/><path fill-rule="evenodd" clip-rule="evenodd" d="M23.795 21.805c0 .143 0 .285.133.427.132.285.265.428.53.855a8.814 8.814 0 0 0 2.257 2.136c1.062.854 2.39 1.566 3.983 1.993.265.143.796.285 1.194.285h.93c.265-.142.53-.285.663-.427.266-.285.531-.57.797-.712.53-.427.93-.997 1.46-1.424.398-.427.797-.997 1.195-1.566 1.062-1.852 1.991-4.13 2.39-6.408.265-1.424.265-2.706.132-4.13-.133-.996-.398-1.85-.796-2.563 0 0-.133-.142-.133 0 0 0-.133.143 0 .143.265.854.398 1.709.398 2.563.133 1.281 0 2.563-.265 3.987-.398 2.278-1.195 4.414-2.257 6.123-.398.57-.664 1.14-1.062 1.566l-1.327 1.424c-.266.285-.532.427-.797.712-.133.143-.398.285-.53.285h-.665a2.37 2.37 0 0 1-1.062-.285c-1.593-.427-2.787-1.139-3.717-1.993-.929-.712-1.726-1.424-2.257-1.994-.265-.285-.398-.57-.663-.712-.266-.285-.399-.285-.531-.285 0-.142 0-.142 0 0 0-.142 0 0 0 0z" fill="#000"/><path fill-rule="evenodd" clip-rule="evenodd" d="m38.663 10.271-1.062-1.139c-.531-.427-.664-.712-1.062-.997-.266-.142-.532-.427-1.063-.427-.265 0-.663.143-1.592.285H32.82c-.265 0-.663.143-.928.427-.664.712-1.195 2.136-1.859 2.563-.53.285-1.062.285-1.593.285-.398 0-.93 0-1.328.143l-.796.427c-.266.285-.265.57-.398.997 0 .57.133 1.423 0 2.135 0 .428-.133.712-.531.855-.664.427-1.328.854-1.859 1.281-.265.285-.531.57-.664.997 0 .142 0 .285-.132.427 0 .143 0 .143.132.143.133 0 .133 0 .133-.143 0-.142.133-.285.133-.427.133-.285.265-.57.53-.712.532-.427 1.195-.712 1.86-1.139.398-.285.663-.712.796-1.282.133-.57 0-1.281 0-1.85 0-.428 0-.713.133-.997.265-.285.53-.428.796-.428.797-.142 1.859.143 2.655-.57.531-.426 1.062-1.566 1.593-2.42.265-.285.398-.57.797-.57h1.062c.797-.142 1.194-.284 1.46-.284.265 0 .398.142.663.284.399.285.664.712 1.328 1.14.133.142.531.57.797.712.132.142.266.142.398.142.531.142.531.142.664.142z" fill="#000"/><path fill-rule="evenodd" clip-rule="evenodd" d="M33.885 4.29c-.133 0-.133-.141-.266-.141-.265-.285-.663-.428-.929-.712-.929-.57-1.991-1.282-3.053-1.71-1.062-.426-2.257-.569-3.32-.142-1.061.428-1.725 1.424-2.654 1.994-.266.142-.398.285-.664.285-1.195.284-2.655.142-3.85.427-.53.142-1.062.427-1.46.997-.265.284-.398.57-.398.854-.265 1.14.266 2.563-.53 3.56-.665.854-1.992 1.281-2.789 1.993-.398.285-.796.712-.93 1.282a.966.966 0 0 0 0 .854c.134.427.399.997.532 1.424.133.427.398.854.265 1.282-.132.712-.663 1.424-1.327 1.993-.664.712-1.327 1.282-1.726 1.994-.398.712-.53 1.424-.265 2.278.132.285.265.57.398.712.265.143.398.427.663.57.133 0 .4.142.532.142.133 0 .132 0 .132.142.133.143 0 .285 0 .428l-.398.854c-.265.427-.53.854-.53 1.282-.133.284-.133.57 0 .996.132.427.398.855.796 1.282.398.427.93.57 1.327.57.266 0 .797-.143 1.195-.143.133 0 .265 0 .398.142.133.143.133.285.266.427 0 .285 0 .57.133.855 0 .427.265.854.53 1.282.266.427.664.712 1.195.854.133 0 .133 0 .133-.143 0-.142 0-.142-.133-.142-.398-.142-.797-.427-.93-.712-.265-.427-.397-.854-.397-1.139 0-.285 0-.712-.133-.997 0-.142-.133-.285-.265-.427-.133-.142-.399-.142-.532-.142-.398 0-.929.142-1.194.142-.399 0-.797-.285-1.062-.57a3.141 3.141 0 0 1-.664-1.139v-.854c.133-.427.265-.712.531-1.14.133-.284.398-.569.53-.854a.966.966 0 0 0 0-.854c0-.142-.131-.285-.264-.285-.133-.142-.399-.142-.664-.285a1.855 1.855 0 0 1-.532-.427c-.132-.142-.265-.427-.398-.57-.265-.711-.132-1.28.266-1.85.399-.712 1.062-1.282 1.593-1.852.664-.711 1.195-1.424 1.46-2.278v-.854a6.853 6.853 0 0 0-.664-1.424c-.132-.427-.398-.855-.265-1.282.133-.427.398-.854.796-1.139.93-.712 2.124-1.281 2.788-2.136.266-.285.398-.57.398-.854.266-1.14-.265-2.42.532-3.418.398-.427.796-.711 1.327-.854 1.195-.285 2.655-.142 3.85-.427.265 0 .531-.142.796-.285.93-.57 1.593-1.566 2.655-1.851 1.063-.427 1.991-.285 3.053.142 1.063.427 1.992.997 3.053 1.567.399.142.665.427 1.063.57-.266 0-.133 0 0-.143 0 .142 0 .142 0 0 0 .142 0 0 0 0zm.133.143h.398c.398 0 .796-.284 1.194-.427.664-.142 1.195 0 1.593.285.531.427.797.997 1.062 1.709.398.712.664 1.424 1.328 1.993.929.855 2.256 1.282 3.186 1.994.398.284.663.712.796 1.281.133.57 0 .997-.133 1.567-.132.57-.398 1.139-.53 1.708 0 .285 0 .57.132.997.531 1.424 1.726 2.563 2.39 3.987.265.57.398 1.14.398 1.851 0 .57-.265.997-.53 1.424-.797.997-2.125 1.709-2.788 2.848-.133.285-.266.712-.266.997 0 .57.133 1.281.266 1.993.132.57.132 1.14-.133 1.71-.266.426-.532.569-.93.711-.664.285-1.46.285-2.123.57-.266.142-.532.284-.797.57v.142h.133l.796-.428c.664-.284 1.46-.284 2.124-.57.531-.142.93-.426 1.195-.996.132-.285.265-.712.265-.997 0-.57-.133-1.281-.265-1.993-.133-.57-.133-1.14.132-1.709.664-1.139 1.992-1.709 2.788-2.848.399-.427.664-.996.664-1.708s-.132-1.424-.398-1.994c-.664-1.424-1.859-2.563-2.39-3.987-.265-.57-.133-.997 0-1.566.133-.57.398-1.14.531-1.709 0-.285 0-.57-.132-.997-.266-.57-.531-1.14-.93-1.424-.929-.854-2.256-1.281-3.185-2.136-.664-.57-.93-1.424-1.328-2.136-.265-.57-.664-1.139-1.195-1.566-.53-.427-1.194-.57-2.124-.285-.398.143-.929.285-1.327.427.133.428.133.428.133.712-.133-.142-.133-.142 0 0-.133 0-.133 0 0 0z" fill="#000"/><path fill-rule="evenodd" clip-rule="evenodd" d="M17.318 9.504c0-.146 0-.437-.135-.583-.136-.436-.137-1.019-.137-1.456 0-.583.136-1.165.68-1.748.407-.582 1.085-.874 1.764-1.02.679-.145 1.358-.145 1.902-.145.543 0 1.085 0 1.493-.146.271-.145.543-.29.815-.582.407-.437.815-1.02 1.358-1.456.679-.583 1.494-1.02 2.308-1.02.815-.146 1.493 0 2.308.291.271.146.543.292.678.292.272.145.68.436.951.582.136 0 .136.146.272.146s.408.145.544.145c.271.146.406.292.542.583.271.291.543.583.95.728.272 0 .68 0 .951.291.408.292.544 1.02.272 1.603-.271.728-.815 1.31-1.222 1.456-.272.146-.543.291-.814.582-.408.437-.816.874-1.088 1.311-.271.292-.542.729-.95 1.02-.27.146-.543.437-.815.582-.407.146-.678.292-1.086.437-.135 0-.136.146-.271.146-.136.146-.272.146-.408.146-.271.145-.678.437-1.085.728l-.407.437v.145c-.136.292-.137.583-.272.874v1.456c0 .292-.136.438-.272.729-.136.146-.136.291-.272.437-.136.146-.271.437-.407.582l-.814.874c-.136.146-.273.729-.409.874l-.27.292c-.272.145-.68.29-1.087-.292-.136-.291-.544-1.165-.68-1.31-.27-.292-.678-.438-1.085-.438-.272 0-.543.292-.68.583-.135.146-.135.291-.135.437-.135.291-.136.437-.271.728-.136.583 0 1.02.135 1.457.271.437.815.874 1.358 1.165.543.291 1.087.291 1.766.437h.135s.136-.146.272 0l.407-.146c.136 0 .271.146.407.437l.137.291.542.874c0 .146.137.146.137.291.271.292.406.729.542 1.02.136.437.271.728.407 1.165v.146c.136.437.272.874.272 1.31v.729c0 .291-.135.582-.135.728-.272 1.165-.816 1.893-1.495 2.33-.679.437-1.492.583-2.307.583h-2.173l-1.086.437-1.493.582s-.136 0-.272.146c0 0-.137 0-.137.146-.543 1.747-.95 2.184-1.22 1.893-.408.146-.544-.437-.273-1.893-.136 0-.272-.146-.272-.146-.135-.146-.542-.437-.814-.874-.135-.145-.272-.437-.272-.582v-.729c-.271-.145-.678-.145-1.085-.145-.408 0-.951-.146-1.223-.291-.407-.292-.815-.583-.95-1.311-.136-.437 0-.874.136-1.457.136-.582.543-1.165.679-1.602 0-.145.136-.291.272-.291-.136-.146-.273-.146-.409-.291-.136-.146-.271-.146-.407-.292-.407-.29-.678-.873-.814-1.31a3.57 3.57 0 0 1 .135-2.04c.272-.582.544-1.019.816-1.456.679-.874 1.628-1.456 2.172-2.33.271-.437.27-1.02.135-1.602-.136-.437-.27-.874-.27-1.311l-.137-.146c-.543-.874-.407-1.602.136-2.33l.407-.437c.136-.146.271-.291.543-.437.679-.583 1.63-1.02 2.173-1.165-.136-.437.136-.728.407-.874zm6.517 20.245-.135.145c.136 0 .135 0 .135-.145zm-11.404-8.593c-.136.145-.272.436-.272.582-.136.146-.137.437-.137.583 0-.437.137-.729.409-1.166zm8.282-5.826c.135 0 .135 0 0 0z" fill="#000"/><path fill-rule="evenodd" clip-rule="evenodd" d="M34.156 6.154c0-.291-.137-.582-.137-.874 0-.437.272-.728.544-.874 1.086-.582 1.9-.437 2.444 0 .543.292.95.874 1.222 1.603.136.436.407.873.542 1.165h.137c.271.145.543.291.679.437l1.221.873h.272c.136 0 .408.146.544.146.271.146.406.146.542.291l1.222 1.165c.272.292.407.583.407.874v1.166c0 .873-.136 1.602-.271 2.33v.728s.408.583.543.728c.272.437.543.874.815 1.457l.136.145c.136 0 .27.437.27.437l.137.729c.272.436.271.873.407 1.165 0 .582 0 1.02-.135 1.602-.136.582-.408 1.165-.816 1.748-.271.436-.679.728-.95 1.02-.272.145-.407.436-.543.582l-.136.145c-.136.292-.271.729-.407.874-.136.146-.136.146-.272.146 0 .145 0 .437-.135.582 0 0 0 .291-.136.437 0 .291 0 .583-.136.874.136.437.272 1.02.137 1.457 0 .29-.137.728-.272 1.02l-.407.436c-.136.146-.408.146-.68.146h-.271c-.407.145-.951.29-1.495.436-.135 0-.27.146-.407.146 0 0-.135 0-.135.146-.136.291-.135.582-.407.728-.136.146-.272.146-.544.146-.135 0-.543-.146-.678-.291-.272.145-.544.145-.68 0-.135 0-.27-.146-.406-.292-.136.146-.136.146-.272.146-.272.145-.68 0-.951-.146a4.436 4.436 0 0 1-.679-1.02c-.136-.436-.271-1.019-.407-1.601-.136-.437-.135-1.02-.135-1.603v-1.165s-.136-.437 0-.582c0-.146.135-.291.135-.291s.136-.146.272-.146c0-.291.136-.437.272-.583.136-.145.271-.291.407-.291h.135v-.146c0-.291.272-.582.544-.582.135 0 .27 0 .407.145.136-.145.136-.29.272-.437.135-.436.406-.728.542-1.165.271-.728.543-1.456.679-2.184.136-.583.136-1.166.272-1.748.135-.583.136-1.31.136-1.893 0-1.166-.137-2.476-.408-3.642-.272-.873-.542-1.602-.95-2.184-.271-.437-.679-.874-.95-1.165-.272-.437-.68-.729-.951-1.166l-.544-.582c-.136 0-.271.145-.407.145 0 .146-.406.292-.542.292h-.272c-.272.145-.407.437-.679.728-.543.583-.95 1.457-1.358 2.04-.135.145-.136.29-.271.29-.136.146-.544.292-.68.437a1.001 1.001 0 0 1-.678.292c-.272 0-.815-.146-1.086-.146-.272 0-.544-.146-.816-.146h-.814c-.679.146-1.629.146-2.444.437a2.933 2.933 0 0 0-1.086.728l-.95 1.602c-.136.146-.272.437-.407.583 0 0-.137 0-.137.146-.136 0-.136 0-.272.145-.136 0-.271 0-.407.292 0 .145-.271.29-.407.29-.136 0-.272-.29-.272-.436 0-.291.001-.437.137-.728.136-.146.134-.437.27-.583 0-.145.136-.145.272-.291l.95-1.748a3.748 3.748 0 0 1 1.63-1.31c.815-.438 1.901-.583 2.716-.729.407 0 .815-.146 1.086-.146.407 0 .815 0 1.223.146 0 0 .134.146.27.146-.136 0-.135.146-.135.146s.136-.146.272-.146c0 0 .135-.146.135 0h.136c.136 0 .272-.146.408-.146h.135c.407-.582.814-1.456 1.358-2.039.407-.582.814-1.02 1.357-1.31.136 0 .272-.146.407-.146.136-.146.544-.437.816-.437.543-.146.815-.146.95-.146zm.678 42.383c.135 0 .134 0 .27-.146v-.146c.272-.728.273-1.747.137-2.767 0-.437-.136-.874-.272-1.31 0-.146-.136-.438-.272-.583l-.407-.874c-.271-.437-.407-1.02-.679-1.311.136.437.408.874.544 1.456.136.292.135.583.135.874 0 .146.135.437.135.583.136.437.136.874.272 1.31.136.875.272 1.748.137 2.477v.145c-.136.146-.136.146 0 .292-.136 0 0 0 0 0zm-1.902-9.322c0-.145-.135-.145-.135-.29v-.146c0-.146 0-.292.135-.146v.146s.135 0 .135.145c.136.146.272.437.272.437-.136-.145-.135 0-.407-.145.136.145 0 0 0 0zM25.193 34.7c0 .146 0 .146 0 0 .136.146.272.146.407.146h.951c.272 0 .407-.146.679-.146.136 0 .272-.145.136-.29 0-.147-.136-.147-.271-.147h-.68c-.27 0-.678 0-.95.146-.136 0-.272 0-.272.146-.136 0 0 0 0 .145-.136 0-.136 0 0 0-.136 0 0 0 0 0zm10.59-1.456c-.136-.145-.407-.145-.679-.145-.407 0-.95.29-1.358.436-.135 0-.135.146-.135.146l.136.146 2.036-.583c.136 0 0 0 0 0zm3.667 79.085v.291c.135.146.27.291.407.583l.408.436c.136.146.407.292.542.292.136.145.272.145.407 0 .136-.146.136-.292 0-.437-.135-.146-.27-.291-.27-.437l-.272-.291c-.271-.146-.407-.292-.679-.437 0 0-.136 0-.136-.146-.272 0-.272.146-.407.146 0-.146 0-.146 0 0-.136-.146-.136 0 0 0zM16.64 65.14c0-.146.135 0 .271-.146 0 0 .136 0 .272-.145h.27c.272-.146.68-.146 1.088-.292.407-.145.678-.145.95-.29.135 0 .136-.146.136-.292s-.136-.146-.272-.146h-.814c-.408 0-.815.146-1.223.291-.271.146-.543.292-.543.437-.272.292-.271.292-.136.583-.136-.146-.136-.146 0 0-.136 0 0 0 0 0z" fill="#000"/><path fill-rule="evenodd" clip-rule="evenodd" d="M34.018 4.989c-.136-.146-.271-.437-.543-.874-.136-.291-.407-.582-.679-.874-.407-.437-.95-.874-1.494-1.31-.407-.292-.679-.583-1.086-.729C29.13.62 28.043.182 26.956.037c-.95-.146-1.764.146-2.443.728-.95.729-1.63 1.894-2.444 2.622-.271.291-.542.437-.814.583-1.358.582-3.123.29-4.345 1.165A4.294 4.294 0 0 0 15.824 6.3c-.272.437-.408.874-.544 1.456 0 .729.136 1.457.136 2.04 0 .29-.135.582-.271.728-.407.582-1.087.874-1.63 1.31-.271.146-.408.437-.543.874v.146h.136c.136-.291.271-.583.543-.728.678-.437 1.357-.729 1.764-1.311l.409-.874c.136-.728-.136-1.31 0-2.185 0-.437.135-.874.407-1.165.271-.437.543-.728.95-1.02 1.087-.873 2.851-.582 4.21-1.019.407-.145.679-.291.95-.582.815-.729 1.494-1.894 2.309-2.622.543-.437 1.222-.583 2.036-.583a8.232 8.232 0 0 1 2.444.874c.543.292 1.087.728 1.63 1.02.543.437 1.085.728 1.493 1.165.271.146.542.583.814.874.136.145.408.291.544.437.271-.146.27 0 .407-.146 0 .146 0 .146 0 0 0 .146 0 0 0 0zm-9.776 14.273c-.136-.291-.135-.582-.135-.874 0-.29.135-.728.407-1.02.136-.145.272-.145.543-.29.408-.146.815-.146 1.086-.146.136 0 .136-.146.272-.146l.543-.582c.407-.437.272-.874.136-1.457-.136-.582-.407-1.165-.407-1.748 0-.29.136-.582.407-.873.272-.292.543-.437.95-.437.68 0 1.493.145 2.308.291.543 0 .951 0 1.223-.146.407-.29.543-.582.678-.874.136-.29.272-.582.272-.873.136-.292.136-.729.272-1.02.136-.291.135-.728.27-1.02l.272-.29c0-.146.137-.146.137-.146.136 0 0 .145 0 .437 0 .29-.137.728-.137 1.02 0 .29-.135.582-.135 1.019-.136.29-.135.728-.407 1.02-.271.436-.543.873-.95 1.164-.408.291-.951.291-1.63.146-.68-.146-1.493-.291-2.172-.291-.272 0-.543.145-.68.29-.406.438-.271.875-.136 1.457.136.583.407 1.166.407 1.748 0 .291-.135.728-.407 1.02l-.679.728c-.135.146-.27.146-.407.291-.271 0-.543 0-.95.146-.136 0-.272.145-.408.145-.135.146-.271.437-.271.583 0 .291 0 .437.136.728 0 0 0 .146-.136.437-.136.146-.678.583-.543.874 0 .146.136.291.136.437.271.291.678.728.814 1.02v.145h-.136c-.271-.291-.679-.582-.95-.874-.136-.145-.272-.437-.272-.582 0-.146.136-.437.272-.583.136-.582.271-.874.407-.874zm9.774-4.719c-.132.143-.132.285-.132.428-.133.284-.133.712-.133.996 0 .855 0 1.71-.133 2.421v.997c0 .854.133 1.566.133 2.42 0-.569.133-1.139.133-1.708 0-.427.132-.712.132-1.14v-2.99c0-.284 0-.57-.132-.854.265-.285.265-.427.132-.57.133 0 .133 0 0 0 .133-.142 0-.142 0 0zM25.521 23.8c0-.143 0-.143 0 0 .133-.143.133-.143.133 0 0 .142 0 .284.133.284.133.285.265.427.265.712s.133.427.133.712c.133.854.265 1.993.133 2.99 0 .427-.133.855-.133 1.14-.133.569-.398 1.138-.664 1.708 0 0-.132.142-.132 0-.133 0-.133-.142-.133-.142l.398-1.71c0-.426.133-.711.133-1.138.133-.997.133-1.994 0-2.848 0-.285 0-.712-.133-.997 0-.142 0-.285-.133-.427-.133 0-.133-.142 0-.285zm8.496 2.278c0 .142 0 .142 0 0-.133.142-.133.142-.133.284-.133.427-.133.855-.133 1.282v.854c0 .854.266 1.566.531 2.42.133.286.266.713.531.998.133.142.266.284.532.427h.132V32.2l-.132-.142c-.133-.142-.133-.142-.133-.285l-.399-.854a4.178 4.178 0 0 1-.398-1.851c0-.285 0-.712-.133-.997v-1.709c0-.142-.132-.142-.265-.284.133 0 .133 0 0 0 .133 0 0 0 0 0z" fill="#000"/><path fill-rule="evenodd" clip-rule="evenodd" d="M27.366 18.825c.136-.291.407-.437.679-.583.407-.145.814 0 1.221.292.272.146.543.582.68.874.135.29.27.437.406.728.272.728.273 1.456.137 1.893-.136.437-.408.874-.951.874-.407.146-.815 0-1.223-.291l-.407-.437c-.407-.291-.815-1.02-.95-1.602 0-.583.137-1.311.408-1.748zm1.628 2.476c0 .146 0 .146 0 0 0 .146 0 .146 0 0 0 .146 0 0 0 0zm-.407-1.02v.292h.272c0-.146-.135-.146-.135-.291h-.137zm6.653 1.894c-.135-.146-.272-.291-.272-.437v-.728c.136-.583.408-1.457.68-1.894.542-.728 1.085-.728 1.492-.291.136.146.272.437.272.874 0 .582-.27 1.456-.542 2.039-.136.437-.407.728-.679.728a.816.816 0 0 1-.815 0c0-.146 0-.291-.136-.291zm1.086-2.622c0-.145-.136-.145 0 0-.136-.145-.136 0 0 0z" fill="#F4D9D9"/><path fill-rule="evenodd" clip-rule="evenodd" d="m11.98 62.957.133.143v.142c.133.285.132.855.265.997l.399 2.42c.265 1.852.398 3.845.664 5.697.132.854.265 1.566.397 2.42l2.788 12.53c.133.57.266 1.282.398 1.852.266 1.424.266 2.848.531 4.272.266 1.566.664 3.132.93 4.699v.57s0 .142-.133.142-.133 0-.133-.142c0-.143-.132-.285-.132-.57-.266-.712-.399-1.424-.532-2.136-.265-.854-.398-1.709-.53-2.706-.266-1.424-.399-2.847-.531-4.271-.133-.57-.266-1.14-.398-1.852l-2.921-12.388c-.266-1.139-.398-2.136-.531-3.275-.133-1.566-.265-3.275-.531-4.841l-.133-2.421v-1.282c0 .143-.133.143 0 0 0 .143 0 0 0 0z" fill="#000"/><path fill-rule="evenodd" clip-rule="evenodd" d="M22.866 104.252c0-.285-.132-.57-.132-.712 0-.428-.133-.712-.266-.997a12.53 12.53 0 0 0-.796-1.424l-1.328-2.278c-.133-.143-.265-.427-.398-.712-.133-.143-.133-.285-.133-.427.133-.712 0-1.567 0-2.421 0-.285.133-.712.266-.997h.132v.143c-.133.284-.132.711-.132.996 0 .855.133 1.709 0 2.42 0 .143 0 .143.132.286.133.142.266.427.399.57.133.284.265.427.398.711.265.57.531 1.14.797 1.567.265.569.53.996.796 1.566.133.427.265.712.265 1.139 0 .143.133.427.133.712v.285c0 .142-.132.142-.265.142s-.399-.284-.532-.427c-.132-.142-.398-.285-.53-.427-.399-.427-.664-.854-.797-1.282-.398-.712-1.062-1.281-1.593-1.993-.265-.285-.398-.57-.53-.997-.133-.142-.4-.57-.4-.854v-.427s.001.142.134.142c0 .142.133.285.265.427.133.285.266.427.398.57.266.285.399.569.664.854.266.285.399.57.664.854l.797 1.282c.132.285.398.712.663 1.139.133.285.266.427.531.57.133-.285.265-.143.398 0z" fill="#000"/><path fill-rule="evenodd" clip-rule="evenodd" d="M19.945 93.287c0 .143-.133.285 0 .57 0 .285.265.427.265.57.133.284.266.57.266.996.133.427.398.855.53 1.282 0 .142.134.427.134.57 0 .142.133.427.266.712.132.427.398.711.53.996 0 .143.133.285.265.427h.266c.133-.142.133-.142.133-.284v-2.849c.133-.569.398-1.139.531-1.566.133-.284.133-.57.133-.712 0-.142-.133-.427-.266-.712-.265-.427-.663-.996-.929-1.139 0-.142-.133-.142-.133-.284-.132-.428-.265-.855-.53-1.14-.133-.142-.133-.284-.133-.427l-.399-.854c-.133-.427-.398-.855-.53-1.282-.134-.285-.266-.427-.399-.712 0 0-.133-.142-.133 0 0 0-.133.143 0 .143 0 .142.133.427.133.57.133.426.265.996.531 1.423.133.285.265.57.53.855.134.142.134.284.267.284 0 .143.133.143.133.285.265.427.398.854.663 1.14.133.142.399.569.664.996.133.285.265.57.132.712 0 .142 0 .285-.132.427l-.399 1.709c-.132.285-.133.712-.133.997l.133 1.709c0 .142.133.284.133.427v.284h-.133c-.132-.142-.133-.142-.133-.284-.132-.143-.265-.57-.398-.855-.132-.285-.132-.712-.132-.854 0-.427 0-.855-.133-1.282-.133-.427-.265-.712-.398-1.139-.133-.285-.266-.427-.266-.712-.133-.142-.265-.427-.398-.57-.265-.284-.398-.284-.53-.427.132 0 0-.142 0 0 0-.142 0 0 0 0zm-2.788-.285s-.132-.142 0-.284h.133s.133 0 .133.142v.427l.265 1.567c.133 1.139.399 2.278.531 3.417 0 .285.133.57.133.854 0 .143.133.428.266.712.133.428.398.712.664.997.265.285.398.712.53.997.399.854.664 1.709 1.062 2.421l.399.854.133.142v-.284c.133-.428.132-.855.132-1.14 0-.284 0-.427-.132-.854.133.285.265.57.265.854.133.428 0 .712 0 1.282v.569c0 .143-.133.285-.265.143-.266-.142-.399-.285-.532-.427-.133-.285-.265-.57-.53-.855-.399-.712-.797-1.566-1.195-2.42-.133-.285-.398-.712-.531-.997-.133-.285-.398-.57-.664-.997-.133-.284-.266-.57-.266-.854 0-.285 0-.57-.133-.855-.132-1.139-.398-2.278-.53-3.417l-.133-1.566.265-.428z" fill="#000"/><path fill-rule="evenodd" clip-rule="evenodd" d="M20.079 105.818c.132 0 .132-.142.132-.285 0-.142.133-.427.133-.569 0-.285.133-.57.133-.57v.712c0 .285 0 .427-.133.712s-.266.427-.531.427c-.133 0-.266-.142-.266-.285-.133-.142-.132-.427-.132-.569l-.532-1.709c-.132-.854-.663-1.709-.928-2.563-.133-.427-.266-.712-.266-1.14-.133-.711-.133-1.28-.265-1.993v-1.281c0-.57.132-1.424.132-2.136 0-.285 0-.57-.132-.854.132.284.265.712.265 1.139v1.85c0 .428 0 .855.133 1.282.132.712.133 1.282.265 1.851 0 .285.133.428.133.712.265.997.796 1.994.93 2.991l.397 1.281c0 .143.133.285.133.427.133.143.399.428.399.57zm.531-17.088c-.133 0-.133 0 0 0v-.427c0-.284 0-.711-.133-.854-.133-.427-.133-.854-.133-1.281 0-.285 0-.57-.133-.855v-6.408c-.133-3.132-.398-6.407-.53-9.682 0-.285 0-.712-.134-1.14-.132-.854-.398-1.566-.53-2.42 0-.285-.133-.57-.133-.855 0-.284-.133-.57-.133-.854 0 0 0-.142-.132-.142-.133 0-.133 0-.133.142-.133.285-.133.57-.133.997v.712c.133 1.139.53 2.42.53 3.56.134 3.275.4 6.407.532 9.683 0 1.423.133 2.705 0 4.129v2.848c.133.712.265 1.281.398 1.85 0 .143.133.57.266.855.265.143.398.285.53.143 0 .142 0 .142 0 0 0 .142 0 0 0 0z" fill="#000"/><path fill-rule="evenodd" clip-rule="evenodd" d="m19.016 65.663-.132-.57c0-.284-.133-.57-.133-.854v-.854c0-.285 0-.712.133-.997.132-1.282.398-2.563.531-3.845.265-2.42.53-4.841.929-7.262.265-1.424.398-2.848.664-4.272.132-.996.398-1.85.53-2.848h.133v.143c0 .854-.133 1.709-.133 2.563 0 .57-.132 1.14-.132 1.709-.133 1.708-.399 3.417-.531 5.126-.266 1.709-.398 3.417-.664 4.984 0 .427-.132.996-.265 1.424-.133 1.139-.398 2.278-.531 3.417 0 .285-.133.57-.133.712v1.424h-.266zm15.399-34.887c.133 0 .265.143.398.143l1.195.712 1.46.285c.929.284 1.858.569 2.788.711l1.194.427c1.328.57 2.124 1.567 2.655 2.848.266.712.531 1.424.664 2.136.133 1.14.266 2.279.399 3.276-.266-.997-.664-2.136-.93-3.133-.265-.712-.398-1.424-.664-1.994-.53-.996-1.194-1.85-2.256-2.278l-3.982-1.282c-.266-.142-.665-.142-1.063-.285-.133 0-.398-.142-.53-.284-.266-.143-.532-.285-.665-.57l-.398-.427c-.265.142-.265 0-.265-.285-.133.143-.133 0 0 0-.133 0-.133 0 0 0z" fill="#000"/><path fill-rule="evenodd" clip-rule="evenodd" d="M43.84 39.462v.285s0 .142.133.142c.531.855 1.062 1.994 1.46 3.133.265.854.532 1.709.532 2.42 0 .57-.134 1.14-.266 1.71-.266.854-.664 1.708-.93 2.563l-.929 2.99v.142h.133c.133-.285.398-.57.531-.854.266-.712.53-1.282.929-1.994.398-.854.797-1.708 1.062-2.563.266-.57.265-1.281.265-1.85 0-.998-.264-2.28-.795-3.276-.399-.997-.93-1.851-1.594-2.563v-.142c-.265-.143-.398-.143-.53-.143z" fill="#000"/><path fill-rule="evenodd" clip-rule="evenodd" d="M44.371 50.854c-.133 0-.133 0-.133.142-.133.285 0 .712 0 1.14 0 .711.133 1.281.266 1.85l.398 1.282c.265.57.531 1.282.797 1.851.132.57.53 1.14.93 1.71.53.853 1.193 1.708 1.592 2.42a13.618 13.618 0 0 1 1.99 4.984c.134.427.134.854.134 1.281v1.282c0 .712-.265 1.281-.398 1.85-.133.285-.133.57-.266.855v.143h.133c.133-.285.398-.57.53-.855.266-.712.532-1.424.532-2.278 0-.712 0-1.424-.133-2.278-.266-1.567-.929-3.275-2.257-5.269-.53-.712-1.327-1.709-1.858-2.706-.265-.427-.399-.854-.531-1.281-.133-.285-.133-.712-.266-.997-.132-.284-.133-.427-.265-.712-.133-.57-.398-.997-.531-1.566-.133-.57-.266-1.282-.266-1.851 0-.285-.132-.57-.132-.855v-.285c-.133.143-.133.143-.266.143.133 0 0 0 0 0z" fill="#000"/><path fill-rule="evenodd" clip-rule="evenodd" d="M49.814 70.79c0 .141 0 0 0 0l-.133.142c-.133.284 0 .854 0 1.281.133.712.265 1.567.398 2.279.133.427.265.711.265.996.133.855.399 1.566.664 2.42.133.57.266 1.14.266 1.567.133 1.567-.133 3.275-.399 4.842-.53 2.42-1.327 4.84-2.124 7.12L46.76 96.99a168.123 168.123 0 0 1-1.991 4.841s0 .142-.133.142c0 .143 0 .285-.132.428 0 .142 0 .142.133.284.132 0 .265 0 .265-.142.132-.142.265-.285.265-.427.797-1.282 1.195-2.563 1.726-3.845.93-2.136 1.593-4.414 2.39-6.692.796-2.279 1.592-4.7 2.123-7.12.266-1.709.532-3.417.399-4.984 0-.57-.133-1.139-.266-1.709-.133-.854-.398-1.708-.664-2.42-.132-.427-.53-1.567-.663-2.706-.133-.57-.266-1.281-.266-1.566v-.142l-.132-.143c.132 0 .132 0 0 0 .132 0 0 0 0 0z" fill="#000"/><path fill-rule="evenodd" clip-rule="evenodd" d="M31.494 77.054v.285c0 .142.133.142.265.285.531.427.93.997 1.328 1.566.398.57.796 1.14 1.194 1.566a60.579 60.579 0 0 1 2.258 3.987c.663 1.282 1.194 2.564 1.725 3.988.796 1.993 1.593 4.129 2.39 6.122.93 2.421 2.124 4.7 3.053 7.12.398.997.796 1.994 1.062 3.133.53 1.851 1.062 3.56 1.195 5.268v1.282c0 .427-.133.854-.266 1.139-.133.285-.133.712-.266.997 0 .142 0 .285.133.285s.266 0 .399-.143c.133-.284.265-.712.398-.996.133-.428.133-.855.133-1.282v-1.282c0-1.851-.532-3.559-1.063-5.411-.398-1.424-.796-2.847-1.327-4.271-.797-2.136-1.726-4.13-2.522-6.123-.797-1.994-1.593-4.13-2.522-6.123-.531-1.424-1.195-2.706-1.859-3.987a33.988 33.988 0 0 0-2.92-4.7c-.266-.427-.532-.711-.797-.996-.398-.57-.929-.997-1.46-1.424l-.133-.142c-.265-.285-.266-.143-.398-.143-.133 0-.133 0 0 0z" fill="#000"/><path fill-rule="evenodd" clip-rule="evenodd" d="M45.699 113.507c-.133.143-.133.285-.266.428-.531 1.281-.929 2.563-1.46 3.844l-3.584 9.113-4.514 11.392-1.593 4.699v.142h.133c.266-.427.398-.854.664-1.424.398-1.139.796-2.136 1.194-3.275l4.647-11.391c.53-1.567 1.194-2.99 1.858-4.557.531-1.566 1.195-2.99 1.726-4.556.398-.997.796-1.994 1.062-2.991.133-.285.133-.569.266-.996-.133-.143-.133-.285-.133-.428zm-10.686-2.954c-.866-1.115-2.227-2.37-3.59-3.903-1.237-1.393-2.598-2.787-3.713-4.041-.742-.836-1.237-1.533-1.732-2.091-.867-1.115-1.733-2.23-2.476-3.344-.248-.28-.371-.558-.495-.976-.124-.279-.124-.418-.124-.697h.124l.371.418c1.114 1.394 2.105 2.788 3.218 4.181.496.697 1.362 1.533 2.228 2.369.99 1.115 2.229 2.37 3.343 3.624 1.361 1.533 2.723 3.066 3.465 4.181 0 0 .124.139 0 .418 0 .139-.247.418-.37.697-.125.279-.372.557-.496.836-.124.279-.247.697-.495 1.115l-1.114 2.509c-.495 1.254-1.114 2.369-1.238 2.926-.248 1.115-.371 2.509-.371 3.902 0 3.206.371 6.69.248 9.338-.124 2.23.123 4.46.123 6.689 0 .558 0 1.115-.123 1.673-.124.418-.124.697-.248 1.115l-.124.139s-.124 0-.124-.139c0-.418.124-.697.124-1.115 0-.558.124-1.115.124-1.673 0-2.229-.371-4.32-.371-6.689 0-2.648-.496-6.132-.496-9.338 0-1.393.124-2.787.372-4.041.124-.558.495-1.533.99-2.648l1.485-2.927c.248-.418.496-.836.743-1.115.248-.418.371-.697.495-.975.124-.279.124-.418.247-.418z" fill="#000"/><path fill-rule="evenodd" clip-rule="evenodd" d="M32.29 139.566c-.132 0 0-.143-.132 0-.133 0-.132.142-.132.284-.266.427-.532.855-.93 1.14-.398.427-.663.711-1.061.996-.399.285-.797.712-1.196 1.139-.265.285-.53.712-.53 1.14 0 .427.132.854.265 1.281.266.57.531 1.139.797 1.567l.664 1.566h.132v-.143c0-.284-.133-.569-.133-.854 0-.285-.133-.57-.265-.854-.133-.57-.531-1.139-.664-1.709-.133-.285-.133-.712-.133-.997 0-.285.266-.427.399-.712.398-.427.796-.712 1.062-.997.53-.569 1.062-.996 1.46-1.708.265-.427.53-.712.664-1.139v-.143c-.133.143 0 .285-.266.143.133 0 .133 0 0 0z" fill="#000"/><path fill-rule="evenodd" clip-rule="evenodd" d="M30.035 148.251c-.132 0-.133 0-.133.143l-.398 2.136c-.133.569-.265 1.139-.265 1.709 0 .427.132.854.265 1.139.133.284.266.569.531.712.266.284.664.569.93.854h.132v-.142l-.797-.855a1.129 1.129 0 0 1-.265-.712c-.132-.285-.133-.712-.133-.996 0-.57.133-1.14.266-1.567.132-.712.133-1.424.133-2.136 0-.142-.133-.142-.266-.285.133 0 .133 0 0 0z" fill="#000"/><path fill-rule="evenodd" clip-rule="evenodd" d="M36.406 154.659c-.133-.142-.265-.285-.398-.285-.398-.142-.664-.427-.93-.712l-.133-.142c-.132-.142-.132-.285-.265-.427v-.285h.266l.398.427c.133.142.266.427.531.57.133.142.265.284.398.284.133.143.266.143.399.285.132.143.132.285.265.427 0 .143 0 .143-.133.285-.133.143-.265.143-.398.143l-1.195.142c-.663 0-1.46.142-2.124.285h-.93c-.398 0-.796-.285-1.061-.427h-.133c-.133-.143 0 0 0-.143l.133-.142h.133c.398.142.663.285 1.062.285h.93c.663 0 1.46-.285 2.123-.285l1.062-.285c-.133 0 0 0 0 0zm1.859-21.643c0 .142-.133.142-.133.284-.133.712-.133 1.424-.265 2.136v5.126c.132 1.567.265 2.991.265 4.557.132 1.139.133 2.421.265 3.702 0 .285.134.712.266.997.133.427.266.997.531 1.424 0 .142.132.142.265.142s.133-.142.133-.285a18.896 18.896 0 0 1-.398-1.423c-.133-.285-.133-.57-.133-.997-.133-1.139-.133-2.421-.266-3.56-.132-1.566-.265-2.99-.398-4.557v-5.126c0-.569.133-1.281 0-1.851v-.285c0-.142 0-.142-.132-.284z" fill="#000"/><path fill-rule="evenodd" clip-rule="evenodd" d="M48.885 153.663s-.133 0 0 0c-.265 0-.398 0-.53-.143l-1.86-.142c-1.061-.143-2.256-.285-3.45-.57-.797-.142-1.461-.427-2.258-.712-.398-.285-.93-.569-1.327-.997-.133-.142-.266-.284-.266-.427 0-.142 0-.142.133-.285.133 0 .133 0 .266.143.132.142.265.427.53.569.266.143.664.285.93.428.664.284 1.328.569 2.124.712 1.062.284 2.257.569 3.319.712.398.142.663.142 1.061.284.266 0 .532.143.797.143.133 0 .265 0 .398.142.133 0 .133.143.133.143.133 0 0 .142 0 .284-.133.143-.398.285-.53.428-.266.142-.665.284-.93.284-.266 0-.53.143-.796.143h-.532c-.398 0-.93 0-1.327.142h-.93l-1.46-.142-1.725.142a9.997 9.997 0 0 1-2.92 0h-.399c-.265 0-.531-.142-.797-.142-.132 0-.132-.143-.132-.285s.133-.142.265-.142h.796c.664 0 1.328.142 1.992.284h1.195l1.725-.284h1.46l2.257-.143h1.328c.265 0 .53 0 .93-.142.132-.143.397-.427.53-.427zm-14.603-8.544v.285c0 .142 0 .142.133.284l.797 2.136c.132.428.132.712.132 1.139 0 .712-.53 1.282-.796 1.994 0 .142-.133.427-.133.57 0 0 0 .142.133.142 0 0 .133 0 .133-.142.133-.712.796-1.282 1.062-1.994.132-.142.133-.427.265-.57.133-.569 0-1.281-.266-1.851-.265-.569-.53-1.281-.796-1.851 0 0 0-.142-.133-.142-.266.142-.398 0-.53 0 0-.143 0-.143 0 0 0-.143 0 0 0 0zM20.343 52.847c-.132.143-.133 0-.133.143 0 .142 0 .285.133.427l.797 4.699c.133.712.265 1.282.398 1.851 0 .427.133.854 0 1.282-.265 1.993-1.195 3.702-1.858 5.41 0 .143-.133.428-.133.57-.133.285-.132.57-.132.855 0 .142-.001.142.132.142s.133 0 .265-.142a7.21 7.21 0 0 0 .398-.997l1.594-3.845c.265-.712.53-1.424.664-2.136a2.595 2.595 0 0 0 0-1.424c-.133-.712-.266-1.281-.398-1.993-.266-1.424-.532-2.706-.93-4.13-.133-.284 0-.712-.266-.854-.265 0-.265.142-.53.142.132-.142.132-.142 0 0 0-.142 0 0 0 0zM34.946 31.63c.133.143.133.428.266.57l.398.427c.664.712 1.46 1.282 1.991 1.994 1.062 1.14 2.124 2.278 3.32 3.417.53.427.928.997 1.46 1.424l1.99 1.709c.266.285.399.57.664.712.133.142.266.285.399.57 0 0 .132.142.132 0 0 0 .133-.143 0-.143-.132-.285-.132-.427-.265-.712s-.398-.57-.663-.854c-.664-.712-1.328-1.282-1.992-1.851-.53-.427-.93-.997-1.46-1.424-1.062-1.14-2.124-2.42-3.319-3.418-.53-.57-1.194-.996-1.858-1.566-.266-.142-.398-.427-.664-.712 0 .142-.133 0-.399-.142.133 0 .133 0 0 0zm-11.284-.569c-.133 0-.133 0 0 0-.133 0-.133 0 0 0-.133.142-.265.285-.265.427-.133.57-.133 1.282-.133 1.851l-.266 2.99c-.132 1.567-.398 2.99-.796 4.557-.266 1.424-.53 2.706-.93 4.13l-.398 1.708c-.133.428-.132.712-.132 1.14 0 0 0 .142.132.142 0 0 .133 0 .133-.142.133-.428.266-.712.399-1.14.133-.57.398-1.139.53-1.708.266-.997.532-1.852.664-2.848.399-1.851.797-3.845 1.062-5.838.133-.57.133-1.14.133-1.852v-1.281c0-.712-.133-1.424 0-1.994v-.142h-.133z" fill="#000"/><path fill-rule="evenodd" clip-rule="evenodd" d="M21.14 55.695c.133 0 .133.143 0 0 .265.143.398.143.53.143h.664c.532 0 .93-.143 1.46-.143l7.7-.57c2.124-.142 4.248-.142 6.373-.426 1.46-.143 2.92-.285 4.247-.712.266-.143.664-.143.93-.285l.796-.427c.133-.143.265-.143.265-.285h-.53c-.532.142-1.062.57-1.593.712-1.328.285-2.788.427-4.248.57-2.124.142-4.248.142-6.505.284-1.062 0-2.124.143-3.054.285-1.593.142-3.053.285-4.646.427-.53 0-.929.142-1.46.285-.265 0-.664.142-.93.142h-.132c.133-.142.266-.142.133 0 0-.142 0-.142 0 0zm.267-5.41c0 .142-.001.142.132.284l.398.427c.531.428 1.062.712 1.726.997.398.143.796.285 1.195.285 1.99.285 3.982 0 5.841-.57-1.593.428-3.186.57-4.78.285l-1.99-.427c-.399-.143-.797-.285-1.195-.57-.266-.142-.664-.427-.93-.57h-.132c0-.284-.133-.142-.265-.142 0-.142 0-.142 0 0zm13.274-19.224c0 .142 0 .427.133.57 0 0 0 .142.132.142.664 1.424 1.195 2.99 1.859 4.414.265.57.53 1.282.796 1.851.664 1.424 1.328 3.133 1.727 4.842.265 1.139.264 2.278.132 3.275-.133 1.281-.796 2.136-1.593 2.42-.796.428-1.859.285-2.92-.427l-1.195-.854c-.266-.143-.531-.427-.797-.57-1.726-1.566-3.185-3.417-4.247-5.41-1.726-2.99-3.054-6.408-4.382-9.541 0-.142-.265-.285-.398-.142-.132 0-.265.284-.132.427 1.327 3.132 2.654 6.55 4.38 9.54 1.195 1.994 2.655 3.987 4.381 5.553.266.285.531.428.797.712.398.285.796.57 1.327.855 1.328.854 2.522.997 3.451.57.93-.428 1.727-1.424 1.86-2.99.132-1.14.132-2.422-.134-3.56-.398-1.71-1.062-3.418-1.726-4.984-.929-1.852-1.725-3.703-2.522-5.554l-.398-.854c-.133 0-.265-.143-.53-.285z" fill="#000"/><path fill-rule="evenodd" clip-rule="evenodd" d="M34.813 48.433h.133c.133-.427.133-.854.266-1.281 0-.712-.133-1.424-.399-2.136l-.132-.143s-.133 0-.133.143c.133.57.133 1.139.133 1.709 0 .57 0 .996-.133 1.566 0 0 .133 0 .265.142-.133 0-.133 0 0 0-.133 0-.133 0 0 0zm3.983 6.692v.57c.133.712.398 1.282.531 1.993.266.712.398 1.282.664 1.994l.132.142c.133 0 .133-.142.133-.142-.265-.854-.398-1.709-.797-2.563a10.226 10.226 0 0 0-.53-1.424v-.142c0-.285 0-.428-.133-.428zm4.912 10.253c-.133-.142 0-.142-.133-.142h-.265a2.38 2.38 0 0 0-1.063.284c-.132 0-.132.143-.265.143-.132 0-.133.142-.133.142 0 .142.133.143.266.143h.265c.399-.143.797-.143 1.195-.143.265-.142.133-.142.133-.427.133.142.133.142 0 0 .133.142 0 0 0 0zm-10.753 8.686c-.133-.142-.399-.285-.531-.427-.531-.285-.93-.57-1.46-.712-.266-.143-.532-.285-.797-.57h-.133v.143c.531.427 1.062.712 1.726.996.133.143.398.285.53.285.133 0 .399.285.665.285 0 .142 0 0 0 0z" fill="#000"/><path fill-rule="evenodd" clip-rule="evenodd" d="M49.681 71.786c-.265.142-.663.142-1.061.284a38.365 38.365 0 0 1-9.956 1.71c-3.85.141-7.966-.143-11.284-.855-.797-.143-1.46-.427-2.257-.57-1.46-.427-2.788-.854-4.116-1.424-.398-.142-.663-.285-1.061-.285-.133 0-.399 0-.399.285 0 .143 0 .427.266.427.265 0 .398.143.664.143 1.858.427 3.584 1.139 5.31 1.709l1.593.427c3.982.996 9.16 1.139 13.673.854 2.92-.285 5.442-.712 7.168-1.424.266-.142.531-.142.664-.285.265-.427.531-.712.797-.996 0-.143 0-.143 0 0zm-16.859 6.55c-.133-.142-.133-.285-.265-.427-.266-.285-.532-.57-.797-.712l-1.991-1.282c-1.726-.854-3.85-1.708-5.974-1.85-1.46-.143-2.92 0-4.115.711-.133.143-.266.285-.133.428.133.142.266.142.398.142 1.195-.57 2.523-.712 3.85-.57 1.991.143 4.115.997 5.708 1.851.398.285.93.428 1.328.712.53.285.929.712 1.46.997.265-.142.398-.142.53 0zm5.045 7.547h.132c.399-.285.93-.712 1.328-.997a6.52 6.52 0 0 0 1.327-1.424c.797-.997 1.46-2.136 2.124-3.275.133-.285.399-.57.531-.712.93-1.139 1.859-2.136 3.053-2.99 1.195-.855 2.39-1.567 3.717-2.136.133 0 .266-.285.266-.427 0-.143-.265-.285-.398-.143-1.46.428-2.788 1.14-4.116 1.994-1.194.854-2.256 1.993-3.185 3.275l-.797 1.281c-.664.997-1.195 1.994-1.858 2.848a4.2 4.2 0 0 1-1.063 1.14c-.398.427-.796.712-1.194 1.139l-.133.142c.133.142.133 0 .266.285-.133-.142-.133 0 0 0-.133 0-.133 0 0 0zm-2.92 54.964h.266v.143c0 .427 0 .712-.133 1.139 0 .427-.133.712-.133 1.139-.133.569-.266 1.139-.398 1.566-.266 1.282-.266 2.563-.266 3.987 0 1.139.266 2.136.399 3.133 0 .285.132.57.132.854 0 .143 0 .143-.132.143-.133 0-.133 0-.133-.143-.133-.284-.266-.569-.266-.712-.398-.996-.53-2.136-.53-3.275-.134-1.424 0-2.848.132-4.129.133-.57.265-.997.398-1.567.133-.712.398-1.424.53-2.135 0 0 .001-.143.134-.143zM25.786 29.78c0-.143 0-.143 0 0 .133 0 .133 0 .133.142v.285c-.133.142-.133.284-.266.427-.132.142-.265.285-.398.285-.265.142-.664.284-.93.427l-1.592.427c-.398 0-.797.142-1.195.142-.797.143-1.726.143-2.655.285-.531.143-1.061.285-1.46.427a4.77 4.77 0 0 0-1.593 1.14 16.196 16.196 0 0 0-1.858 2.42c-.93 1.424-1.461 2.99-1.726 4.557-.532 2.42-.664 4.984-.796 7.547a29.489 29.489 0 0 0 0 4.841c0 1.14.132 2.278.265 3.418.132 2.42.398 4.699.398 7.12v.854s0 .142-.133.142h-.133c0-.285-.132-.57-.132-.854l-.797-7.262c-.265-2.706-.265-5.411-.132-8.117.133-2.42.265-5.126.796-7.547.398-1.709.93-3.275 1.859-4.841.53-.855 1.194-1.851 1.858-2.563.531-.57 1.062-.997 1.726-1.282.663-.285 1.327-.427 2.124-.57 1.062-.142 2.256-.284 3.186-.427.265 0 .664-.142.93-.142.53-.142.928-.285 1.46-.427l.795-.427c.266-.285.266-.428.266-.428zm-13.779-4.546c-.407 0-1.086-.146-1.086-.146-.543-.146-1.086-.437-1.63-.874-.407-.437-.678-1.02-.814-1.602-.135-.874.272-1.602.951-2.185.815-.873 2.037-1.601 2.716-2.038l1.357-1.02c.136-.146.407-.291.543-.437h.136c-.136.146-.408.437-.543.437l-1.358 1.165c-.679.583-1.9 1.165-2.58 2.04-.542.582-.815 1.164-.815 1.892 0 .583.272 1.02.68 1.311.407.437.814.729 1.357.874.136 0 .95.292 1.358.292.136 0 .136-.146.136-.146h.136c.136.145 0 .291-.136.291h-.136c-.543.291-1.63 1.165-1.63 1.311-.135.291-.135.582-.135.874 0 .437.271.728.407 1.31.136.583.679.729 1.086.729.815 0 1.902-.437 2.445-.583.136 0 .27 0 .27.146.136.145.273.582.409.728.136.146.135.146.27.146.136 0 .408.145.68.145.135 0 .136 0 .136.146l-.137.146c-.271 0-.407 0-.678-.146-.136 0-.272-.146-.407-.291l-.408-.729c-.678.146-1.629.583-2.443.583-.68 0-1.223-.291-1.495-1.02-.135-.582-.407-.873-.407-1.31 0-.291 0-.583.272-1.02 0 .146.95-.582 1.493-1.02zm21.726-20.39s.136 0 .136-.146h.136c.271-.291.543-.874.678-.874.272-.291.68-.437 1.087-.437.678-.145 1.358-.145 1.901-.145.272 0 .543.145.814.29.407.292.68.73.95 1.02.408.583.545 1.457.816 2.185.136.291.272.728.68.874.95.728 2.579 1.165 3.8 2.04.544.29.816.873.951 1.31v1.165c0 .291-.136.583-.408.728a4.294 4.294 0 0 0-1.086 1.165c-.271.292-.27.729-.135 1.165 0 .146.136.437.272.583.271.291.678.582.814 1.02.543.728 1.358 1.893 1.901 2.912.272.729.542 1.457.27 2.185-.135.728-.406 1.165-.813 1.31-.68.438-1.494.584-2.309 1.02-.271.146-.407.292-.679.583l-.814.874v.146h.135l.816-.874c.136-.146.407-.292.679-.437.814-.583 1.765-.583 2.444-1.02.407-.291.814-.728.95-1.602.136-.728 0-1.602-.408-2.33-.543-1.165-1.357-2.185-1.9-3.059-.272-.291-.544-.582-.816-1.02-.136-.145-.134-.29-.27-.436-.136-.291 0-.583.135-.874.271-.437.679-.874 1.086-1.02.272-.145.407-.436.407-.873.136-.437.136-1.02 0-1.311-.136-.583-.543-1.165-1.086-1.602-1.086-.874-2.852-1.311-3.666-2.04-.272-.145-.407-.436-.543-.728-.271-.728-.408-1.602-.815-2.33a4.294 4.294 0 0 0-1.086-1.165c-.272-.291-.679-.437-1.086-.437-.543 0-1.358 0-2.037.146-.543.145-.95.291-1.222.582l-.27.292c-.137.29-.273.582-.41.728v.437c-.135 0-.135 0 0 0-.135 0-.135.145 0 0z" fill="#000"/><path fill-rule="evenodd" clip-rule="evenodd" d="M37.806 31.933c-.135.146.137.292.409.438.407.145 1.221.29 1.221.29.95.146 1.766.292 2.58.146.544-.145 1.086-.291 1.494-.874.95-.873 1.086-1.893.95-2.912-.136-1.02-.543-2.04-.95-3.059-.136-.437-.407-.874-.543-1.165l-.136-.146-.136.146.407 1.31c.408 1.02.815 1.894.951 2.914.136.873-.136 1.747-.95 2.476-.408.437-.815.582-1.358.728-.68.145-1.494 0-2.444 0-.136 0-.815 0-1.223-.146.136 0 0 0-.272-.146.136.146.136.146 0 0 .136 0 .136 0 0 0 .136 0 .136 0 0 0z" fill="#000"/></svg>