<svg width="108" height="110" fill="none" xmlns="http://www.w3.org/2000/svg"><path d="m33.462 63.45.01-.016-6.603-3.512c-.283.38-.547.737-.794 1.071-3.687 4.978-3.704 5-5.795 7.159-.291.3-.719.472-1.229.55-.51.078-1.115.063-1.772-.017-1.314-.16-2.857-.584-4.328-1.076a54.952 54.952 0 0 1-3.911-1.492 58.543 58.543 0 0 1-1.584-.7l-.09-.041-.023-.01-.006-.004h-.001l.042-.091-.043.09-.016-.007-.013-.013L3.2 61.09c-.68-.61-1.761-.538-2.3.202l-.504.72-.004.005c-.266.333-.336.734-.268 1.144l.648 2.95v.001a1.79 1.79 0 0 0 1.087 1.225l4.536 1.224.017.005.015.01-.058.082.058-.082.002.002.006.004.025.017.095.068.37.254c.32.219.783.529 1.354.895a57.161 57.161 0 0 0 4.443 2.582c1.727.895 3.603 1.727 5.35 2.215 1.752.488 3.356.625 4.55.15h.001c1.208-.462 2.494-1.402 3.748-2.561 1.252-1.158 2.465-2.528 3.526-3.841a60.853 60.853 0 0 0 3.565-4.911z" fill="#F9C495" stroke="#000" stroke-width=".2"/><path d="m26.055 59.73-.035.1 7.437 5.665c4.268-4.894 5.737-8.796 5.896-11.618.161-2.838-1-4.582-1.97-5.17-.786-.469-1.547-.645-2.28-.6-.732.045-1.443.313-2.123.743-1.363.864-2.594 2.374-3.633 4.014-1.036 1.638-1.874 3.396-2.453 4.746a40.483 40.483 0 0 0-.839 2.12z" fill="#608CFF" stroke="#000" stroke-width=".2"/><path opacity=".1" d="M33.534 54.59v-.002l-1.441-2.057-.02.023c-.067.08-.165.203-.288.372-.247.336-.594.855-.992 1.581-.793 1.443-1.791 3.703-2.615 6.977l5.207 4.01a54.117 54.117 0 0 0 2.154-2.714l.71-4.404-2.715-3.787z" fill="#000" stroke="#000" stroke-width=".2"/><path d="M58.887 105.918v-.023l.01-.02v-.001l.002-.002.006-.012.021-.047c.02-.042.048-.107.084-.195.072-.177.174-.446.294-.816.24-.74.55-1.882.828-3.486.555-3.193.985-8.218.492-15.545l-24.173 1.502-.002.067-.011.454a96.22 96.22 0 0 0-.021 1.699c-.006 1.447.014 3.477.118 5.808.207 4.665.747 10.531 2.078 15.349 2.655 9.69 5.382 16.303 7.54 21.412 6.028.477 11.912-1.979 14.387-3.208-.131-1.561-.314-3.369-.511-5.316-.567-5.599-1.249-12.34-1.142-17.62z" fill="#263238" stroke="#000" stroke-width=".2"/><path opacity=".5" d="M58.887 105.917v-.022l.01-.019v-.001l.002-.002.005-.012a3.315 3.315 0 0 0 .103-.243c.07-.176.17-.446.287-.816.234-.741.537-1.886.81-3.494.547-3.203.977-8.246.52-15.609L36.45 87.201l-.002.067-.012.455a125.056 125.056 0 0 0 .089 7.516c.198 4.673.72 10.557 2.015 15.412 2.655 9.688 5.382 16.302 7.54 21.41 2.04.135 4.011-.005 5.845-.353 2.464-5.44 5.037-12.089 6.649-16.256l.599-1.546c-.215-2.805-.359-5.54-.287-7.989z" fill="#000" stroke="#000" stroke-width=".2"/><path d="m60.054 83.764-.042-.082-22.523 2.646.003.014a202.063 202.063 0 0 1 .42 1.658c.271 1.092.634 2.589 1 4.203.728 3.222 1.47 6.927 1.506 8.813v.001c.037 3.222-1.174 9.541-2.39 15.042a315.828 315.828 0 0 1-2.387 9.999l-.036.139c5.808 3.242 11.256 4.326 13.591 4.696a1408.74 1408.74 0 0 0 7.32-16.715 1787.33 1787.33 0 0 0 3.209-7.489l.187-.44.048-.114.012-.028.003-.008v-.001l.001-.001.092.039-.092-.039.004-.009.005-.008c3.367-4.979 3.37-10.589 2.526-14.963a30.357 30.357 0 0 0-1.583-5.389 26.29 26.29 0 0 0-.672-1.552c-.086-.18-.155-.319-.202-.412z" fill="#263238" stroke="#000" stroke-width=".2"/><path d="m50.498 38.825-2.611-7.364h-.1v-.001a.141.141 0 0 0-.061-.12.297.297 0 0 0-.172-.05c-.143 0-.262.073-.288.184-.07 2.15.29 4.57 1.496 6.345.458.634 1.004 1.058 1.602 1.432.254.16.517.31.786.463l.144.083c.319.182.646.373.973.591l.002.001c.737.516 1.233 1.179 1.634 1.899.262.47.486.971.71 1.472.117.259.233.518.354.772.04.065.086.089.128.095a.22.22 0 0 0 .152-.04c.105-.07.165-.204.116-.33a39.57 39.57 0 0 1-.307-.728c-.145-.348-.29-.698-.448-1.043-.27-.582-.57-1.131-.959-1.59-.42-.49-.931-.826-1.477-1.13a25.15 25.15 0 0 0-.519-.28c-.386-.203-.78-.412-1.155-.661z" fill="#1A2E35" stroke="#000" stroke-width=".2"/><path d="m47.626 28.207.001.014-.002.014-.574 3.228.004.025a13.698 13.698 0 0 0 .092.557c.068.37.17.881.314 1.446.288 1.134.735 2.468 1.37 3.316l.002.001c.827 1.132 1.797 1.547 2.834 1.992.294.126.592.254.895.401.683.332 1.375.76 2.04 1.48.667.72 1.303 1.727 1.883 3.214 1.138 2.914 3.75 4.283 5.776 4.523 1.017.12 1.86-.047 2.297-.417a.86.86 0 0 0 .327-.688c-.003-.28-.129-.62-.427-1.015-.33-.423-.444-.847-.399-1.27.046-.419.247-.826.531-1.222.284-.396.655-.789 1.049-1.178.158-.157.319-.312.48-.467.242-.234.485-.468.716-.706.384-.392.729-.784.979-1.18.25-.396.4-.789.404-1.184.007-.783-.564-1.635-2.287-2.568-1.722-.943-2.844-1.905-3.672-2.865-.748-.865-1.254-1.726-1.743-2.557l-.155-.265c-.54-.913-1.089-1.788-1.952-2.61-.863-.822-2.044-1.595-3.854-2.294-3.81-1.437-5.517-.825-6.286.08-.389.458-.55 1.005-.614 1.443a3.643 3.643 0 0 0-.033.698c0 .018.002.032.003.04v.013zm-4.126 8.55c.084.187.213.42.398.63.194.219.446.41.771.502.324.091.73.086 1.235-.106.26-.107.42-.189.505-.25a.367.367 0 0 0 .04-.034 1.113 1.113 0 0 0-.189-.057 7.472 7.472 0 0 0-.504-.08l-.073-.01a10.757 10.757 0 0 1-1.299-.23c-.32-.085-.632-.2-.885-.365z" fill="#1A2E35" stroke="#000" stroke-width=".2"/><path d="m46.562 31.948.015.008.011.011c.023.023.057.047.106.082l.035.025c.064.046.142.104.22.181.123.124.27.163.394.136.123-.028.242-.125.305-.313.347-1.04.687-2.806-.198-4.457a6.12 6.12 0 0 1-.157.231 3.077 3.077 0 0 1-.22.279 1.096 1.096 0 0 1-.114.11.399.399 0 0 1-.122.071v.001l-.012.003a.515.515 0 0 1-.202-.008 1.355 1.355 0 0 1-.22-.068 3.725 3.725 0 0 1-.467-.233 7.481 7.481 0 0 1-.406-.253l-.134 4.232.028-.006c.093-.018.222-.041.36-.06a3.34 3.34 0 0 1 .42-.032c.13 0 .264.013.358.06zm15.241 52.268c-4.826-12.12-5.313-19.116-4.952-23.903.09-1.2.234-2.26.375-3.224l.078-.53c.112-.758.216-1.456.282-2.124.16-1.638.093-3.078-.636-4.697v-.001c-.669-1.547-2.298-2.665-4.445-3.36-2.143-.693-4.784-.958-7.442-.814-2.658.143-5.326.695-7.526 1.631-2.201.938-3.918 2.253-4.696 3.915l-.091-.042.09.042c-2.911 6.219-3.159 10.594-2.479 14.157.341 1.783.915 3.367 1.51 4.881.105.27.21.536.316.801.489 1.228.966 2.427 1.308 3.662.868 3.002 1.193 6.2 1.301 8.645.054 1.223.054 2.26.04 2.99a34.859 34.859 0 0 1-.034 1.047c4.535-.117 11.279-.885 16.91-1.627a455.45 455.45 0 0 0 10.009-1.436l.082-.013z" fill="#608CFF" stroke="#000" stroke-width=".2"/><path d="M45.47 45.489a7.554 7.554 0 0 1-.55-.453 9.644 9.644 0 0 1-1.304-1.452c-.902-1.235-1.78-3.055-1.748-5.432l-4.666 5.353c.427.622.59 1.205.587 1.734a2.786 2.786 0 0 1-.421 1.42 4.17 4.17 0 0 1-.763.917 4.316 4.316 0 0 1-.38.308l-.018.013a2.743 2.743 0 0 0-.123.17 5.85 5.85 0 0 0-.313.511c-.24.44-.51 1.06-.634 1.785a4.406 4.406 0 0 0 .242 2.41c.337.843.986 1.721 2.123 2.563 3.74-3.213 5.735-5.693 6.795-7.368.533-.842.83-1.48.993-1.906a4.658 4.658 0 0 0 .18-.573z" fill="#F9C495" stroke="#000" stroke-width=".2"/><path opacity=".1" d="m41.855 38.168-4.655 5.34c.611.952.628 1.8.424 2.49 3.01-1.976 4.04-4.637 4.393-6.033a6.94 6.94 0 0 1-.163-1.797z" fill="#000" stroke="#000" stroke-width=".2"/><path d="M43.318 29.666v-.007c0-1.133-.355-2.268-.923-3.191l-.001-.003c-2.064-3.629-6.616-4.908-10.243-2.846l-.002.001c-2.518 1.383-3.716 4.12-4.057 7.132-.34 3.01.18 6.274 1.075 8.675 1.987 5.25 8.734 5.976 12.37 1.271 1.214-1.572 1.747-2.942 1.934-4.608.17-1.517.054-3.278-.103-5.665l-.05-.76z" fill="#F9C495" stroke="#000" stroke-width=".2"/><path d="m34.383 33.022.012-.003h.013c.09 0 .188-.069.262-.215a.894.894 0 0 0 .072-.534 1.044 1.044 0 0 0-.22-.5c-.105-.121-.214-.163-.306-.14l-.012.003h-.013c-.09 0-.188.07-.262.215a.895.895 0 0 0-.071.534c.033.2.117.381.22.5.105.121.213.163.305.14zm-5.045.648.012-.002h.012c.09 0 .189-.07.262-.215a.895.895 0 0 0 .072-.534 1.044 1.044 0 0 0-.22-.5c-.105-.121-.213-.163-.306-.14l-.012.003h-.012c-.09 0-.189.069-.262.215a.894.894 0 0 0-.072.534c.034.2.117.38.22.5.105.121.214.163.306.14zm-.808-1.489.051.03a.59.59 0 0 0 .311.082.396.396 0 0 0 .156-.042l-.518-.07z" fill="#263238" stroke="#000" stroke-width=".2"/><path d="m31.775 36.584-.357-2.621c-.274.889-.641 1.733-1.058 2.573.431.215.918.218 1.415.048z" fill="#F0B481" stroke="#000" stroke-width=".2"/><path d="M34.448 37.998v-.001l.011-.002c.968-.208 1.733-.826 2.226-1.657a.263.263 0 0 0-.003-.017.151.151 0 0 0-.015.003l-.012.019a3.835 3.835 0 0 1-2.207 1.655zm-.627.137a.943.943 0 0 1 .083-.023l-.06.008h-.013a.041.041 0 0 0-.021.01.102.102 0 0 0 .011.005zm.299-8.432h.008c.884.074 1.774.442 2.37 1.113.035.034.063.04.188.04v-.033l.056-.028c.044-.022.058-.049.063-.078a.254.254 0 0 0-.03-.136c-.705-.77-1.613-1.254-2.655-1.254a.19.19 0 0 0-.128.06.19.19 0 0 0-.06.128c0 .04.02.087.06.127a.19.19 0 0 0 .128.061zm-6.413.671-.013.015-.017.008c-.018.01-.033.028-.026.079a.239.239 0 0 0 .052.122c.014.014.043.027.09.035a.78.78 0 0 0 .172.007v-.009l.024-.028c.452-.527 1.202-.829 1.883-.756a.262.262 0 0 0 .138-.037c.03-.02.045-.045.045-.079a.264.264 0 0 0-.037-.143.09.09 0 0 0-.079-.045h-.008c-.839-.07-1.671.21-2.224.831zm6.41 1.231-.534-.071c.03.019.062.037.095.054.098.05.2.077.295.067a.344.344 0 0 0 .144-.05z" fill="#263238" stroke="#000" stroke-width=".2"/><path d="m42.19 33.696.02.02.007.027.505 2.019a.928.928 0 0 0 1.692.26c1.582-2.59 3.639-7.361-.135-11.776-2.715-3.18-5.636-3.692-7.877-3.416a9.677 9.677 0 0 0-3.535 1.174 5.868 5.868 0 0 0-.26.158l-.013.009-.003.002h-.001l-.05.034-.053-.028c-.986-.52-1.593-.576-1.957-.417-.358.157-.524.543-.573 1.032-.048.486.024 1.04.11 1.477a8.51 8.51 0 0 0 .156.651c2.795-.8 5.29-.454 7.104.449 1.83.91 2.982 2.397 3.02 3.853a6.826 6.826 0 0 0 .95 3.277c.226.386.45.686.618.889a4.942 4.942 0 0 0 .256.287l.014.014.004.004z" fill="#263238" stroke="#000" stroke-width=".2"/><path d="m45.41 33.747.001-.004c.068-.27.07-.542.07-.688-.14-.883-.956-1.558-1.904-1.423-.64.101-1.105.574-1.412 1.19a4.582 4.582 0 0 0-.45 1.955c0 .625.244 1.15.61 1.434.36.279.855.335 1.399-.005a4.047 4.047 0 0 0 1.686-2.46z" fill="#F9C495" stroke="#000" stroke-width=".2"/><path d="M30.285 24.884a2.377 2.377 0 0 0-.744-.072 1.543 1.543 0 0 0-.857.32c-.268.211-.51.552-.667 1.094a3 3 0 0 0-.11.548.43.43 0 0 0 0 .04 1.135 1.135 0 0 0 .141-.11 8.32 8.32 0 0 0 .36-.358l.021-.023c.275-.283.618-.638.99-.932.271-.214.565-.403.866-.507zm3.455-.174c.206.232.367.532.499.845.177.42.305.88.409 1.255l.018.065c.055.195.102.361.147.486a1.095 1.095 0 0 0 .082.179.372.372 0 0 0 .028-.044c.05-.092.109-.259.18-.528.122-.54.072-.95-.063-1.262a1.577 1.577 0 0 0-.606-.693 2.479 2.479 0 0 0-.694-.302z" fill="#1A2E35" stroke="#000" stroke-width=".2"/><path d="M43.772 33.798a1.15 1.15 0 0 0-.456.203c-.224.168-.442.474-.377 1.045l.002.005a1.235 1.235 0 0 1 .028.168c.01.112.013.272-.02.467-.064.376-.26.875-.77 1.407a.846.846 0 0 0 .09.097c.08.073.188.14.316.152.155-.158.842-.873 1.315-1.636.265-.425.452-.85.46-1.194a.661.661 0 0 0-.128-.431c-.09-.116-.234-.215-.46-.283z" fill="#608CFF" stroke="#000" stroke-width=".2"/><path opacity=".5" d="M43.772 33.798a1.15 1.15 0 0 0-.456.203c-.224.168-.442.474-.377 1.045l.002.005a1.235 1.235 0 0 1 .028.168c.01.112.013.272-.02.467-.064.376-.26.875-.77 1.407a.846.846 0 0 0 .09.097c.08.073.188.14.316.152.155-.158.842-.873 1.315-1.636.265-.425.452-.85.46-1.194a.661.661 0 0 0-.128-.431c-.09-.116-.234-.215-.46-.283z" fill="#F9C495" stroke="#000" stroke-width=".2"/><path opacity=".1" d="M57.973 71.19c-.724-5.37-.507-9.548-.332-12.916.035-.672.068-1.313.092-1.924a4.868 4.868 0 0 1-.194-.448l-6.184-2.275-2.135 1.17v.006a12.061 12.061 0 0 0 .22 1.07c.191.753.532 1.868 1.134 3.31 1.181 2.83 3.37 6.92 7.4 12.007z" fill="#000" stroke="#000" stroke-width=".2"/><path d="M62.931 73.11c-1.102-.657-2.205-1.8-3.243-3.15-1.037-1.35-2.003-2.902-2.83-4.373a61.922 61.922 0 0 1-2.702-5.432l-.008-.018 7.096-2.389.638 1.237c2.781 5.393 2.84 5.506 4.519 7.924m-3.47 6.201 3.552-6.258m-3.552 6.258c1.089.667 2.687.8 4.492.612 1.802-.188 3.79-.695 5.643-1.288a57.504 57.504 0 0 0 4.816-1.804 57.303 57.303 0 0 0 2-.895l.028-.013.006-.003.002-.001.044.09-.044-.09.016-.008.017-.002 4.679-.504c.54-.137 1.02-.545 1.296-1.096l1.15-2.804c.136-.41.135-.814-.067-1.218l-.002-.003-.36-.791c-.405-.809-1.487-1.079-2.229-.54M62.931 73.11l21.487-10.358M66.401 66.91l.082-.057m-.082.057-.001-.001.083-.056m-.082.057c.233.349.623.592 1.11.755.49.164 1.087.251 1.747.282 1.321.061 2.915-.102 4.449-.346a54.626 54.626 0 0 0 4.112-.833 58.625 58.625 0 0 0 1.681-.431l.096-.027.025-.007.006-.002h.002l-.027-.096m-13.119.648c1.73 2.595 13.119-.648 13.119-.648m0 0 .027.096.018-.005.014-.011 4.757-3.531m-4.816 3.45 4.816-3.45m0 0" fill="#F9C495" stroke="#000" stroke-width=".2"/><path d="M50.75 47.116c-.97.589-2.131 2.333-1.97 5.17.16 2.823 1.628 6.725 5.896 11.62l7.438-5.668a22.329 22.329 0 0 0-.213-.591c-.153-.41-.38-.988-.672-1.667-.585-1.36-1.43-3.122-2.47-4.76-1.043-1.64-2.277-3.146-3.636-4-.679-.426-1.386-.689-2.114-.727-.727-.038-1.482.146-2.259.623z" fill="#608CFF" stroke="#000" stroke-width=".2"/><path d="M94.642 20.552c1.911-.468 3.933-.988 5.919-2.204 1.983-1.216 3.936-3.13 5.694-6.395 1.609-3.04 1.805-6.2.688-9.217-1.117-3.02-3.551-5.907-7.215-8.385-8.552-5.822-22.077-8.415-35.25-6.76-11.3 1.44-27.563 6.477-41.022 22.599-9.934 11.805-13.028 21.808-15.478 29.95l-.324 1.08-.325 1.082v.001c-4.101 13.125-3.92 20.47-3.89 21.486l.664-.056v-.006a25.311 25.311 0 0 1 .003-1.342c.025-.935.104-2.317.316-4.122.425-3.61 1.38-8.914 3.51-15.731l.323-1.08.324-1.082c2.452-8.005 5.557-18.04 15.373-29.732C35.466-3.042 50.248-9.72 64.182-11.607c13.93-1.885 27.02 1.018 35.154 6.513 3.543 2.422 5.902 5.158 6.984 8.021 1.083 2.867.881 5.852-.681 8.76-1.665 3.148-3.497 4.965-5.397 6.12-1.822 1.107-3.703 1.602-5.538 2.086l-.228.06h-.002c-1.912.47-3.75.935-5.374 2.031-1.618 1.094-3.03 2.823-4.07 5.834-1.112 3.229-1.76 7.848-1.931 14.08-.17 6.208.132 14.01.92 23.621l.665-.055C83 44.77 83.61 34.019 85.58 28.204c.987-2.918 2.319-4.6 3.879-5.669 1.555-1.066 3.33-1.515 5.183-1.983z" fill="#608CFF" stroke="#000" stroke-width=".2"/><path opacity=".3" d="M94.642 20.552c1.911-.468 3.933-.988 5.919-2.204 1.983-1.216 3.936-3.13 5.694-6.395 1.609-3.04 1.805-6.2.688-9.217-1.117-3.02-3.551-5.907-7.215-8.385-8.552-5.822-22.077-8.415-35.25-6.76-11.3 1.44-27.563 6.477-41.022 22.599-9.934 11.805-13.028 21.808-15.478 29.95l-.324 1.08-.325 1.082v.001c-4.101 13.125-3.92 20.47-3.89 21.486l.664-.056v-.006a25.311 25.311 0 0 1 .003-1.342c.025-.935.104-2.317.316-4.122.425-3.61 1.38-8.914 3.51-15.731l.323-1.08.324-1.082c2.452-8.005 5.557-18.04 15.373-29.732C35.466-3.042 50.248-9.72 64.182-11.607c13.93-1.885 27.02 1.018 35.154 6.513 3.543 2.422 5.902 5.158 6.984 8.021 1.083 2.867.881 5.852-.681 8.76-1.665 3.148-3.497 4.965-5.397 6.12-1.822 1.107-3.703 1.602-5.538 2.086l-.228.06h-.002c-1.912.47-3.75.935-5.374 2.031-1.618 1.094-3.03 2.823-4.07 5.834-1.112 3.229-1.76 7.848-1.931 14.08-.17 6.208.132 14.01.92 23.621l.665-.055C83 44.77 83.61 34.019 85.58 28.204c.987-2.918 2.319-4.6 3.879-5.669 1.555-1.066 3.33-1.515 5.183-1.983z" fill="#F9C495" stroke="#000" stroke-width=".2"/><path d="M85.773 70.645V60.609H83.09v10.036h2.683z" fill="#608CFF" stroke="#000" stroke-width=".2"/><path opacity=".1" d="M85.773 62.14v-1.53H83.09v1.53h2.683zm0 8.433v-.954H83.09v.954h2.683z" fill="#000" stroke="#000" stroke-width=".2"/><path d="M82.918 61.202h2.955a.7.7 0 0 0 .693-.693.7.7 0 0 0-.693-.693h-2.956a.7.7 0 0 0-.692.693.7.7 0 0 0 .693.693zm0 10.524h2.955a.7.7 0 0 0 .693-.693.7.7 0 0 0-.693-.693h-2.955a.7.7 0 0 0-.693.693.7.7 0 0 0 .693.693zM5.115 68.843V58.807H2.432v10.036h2.683z" fill="#608CFF" stroke="#000" stroke-width=".2"/><path opacity=".1" d="M5.115 60.337v-1.53H2.432v1.53h2.683zm0 8.506v-.954H2.432v.954h2.683z" fill="#000" stroke="#000" stroke-width=".2"/><path d="M2.26 59.4h2.955a.7.7 0 0 0 .693-.693.7.7 0 0 0-.693-.693H2.26a.7.7 0 0 0-.693.693.7.7 0 0 0 .693.693zm0 10.596h2.956a.7.7 0 0 0 .692-.693.7.7 0 0 0-.692-.693H2.26a.7.7 0 0 0-.693.693.7.7 0 0 0 .693.693z" fill="#608CFF" stroke="#000" stroke-width=".2"/></svg>