<svg width="50" height="20" viewBox="0 0 50 20" fill="none" xmlns="http://www.w3.org/2000/svg">
<path fill-rule="evenodd" clip-rule="evenodd" d="M23.1158 15.6429V9.77361H26.145C27.3863 9.77361 28.4341 9.35768 29.2882 8.53736L29.4932 8.3294C31.0533 6.631 30.9508 3.9852 29.2882 2.41389C28.4568 1.58202 27.318 1.13143 26.145 1.15453H21.2823V15.6429H23.1158ZM23.1143 7.99352V2.93298H26.1896C26.8502 2.93298 27.4767 3.18717 27.9437 3.64931C28.9346 4.61983 28.9574 6.23735 28.0006 7.24252C27.5336 7.73933 26.873 8.01662 26.1896 7.99352H23.1143ZM38.0449 6.50324C37.2591 5.77536 36.1886 5.40564 34.8334 5.40564C33.091 5.40564 31.7814 6.05265 30.9159 7.33511L32.533 8.36339C33.1252 7.48531 33.9337 7.04627 34.9587 7.04627C35.6078 7.04627 36.2341 7.2889 36.7238 7.72794C37.2021 8.14387 37.4755 8.74467 37.4755 9.38012V9.80761C36.7694 9.41478 35.8811 9.20682 34.7878 9.20682C33.5124 9.20682 32.4874 9.50721 31.7244 10.1196C30.9614 10.7319 30.5742 11.5407 30.5742 12.569C30.5514 13.5048 30.95 14.3944 31.6561 14.9952C32.3735 15.6422 33.2846 15.9657 34.3551 15.9657C35.6192 15.9657 36.6213 15.3996 37.3843 14.2673H37.4641V15.6422H39.2178V9.53032C39.2178 8.24786 38.8307 7.23113 38.0449 6.50324ZM33.0695 13.8167C32.6937 13.5394 32.4659 13.0889 32.4659 12.6036C32.4659 12.0606 32.7164 11.61 33.2062 11.2518C33.7074 10.8936 34.3338 10.7088 35.0742 10.7088C36.0993 10.6972 36.8966 10.9283 37.4661 11.3905C37.4661 12.1761 37.1585 12.8578 36.5549 13.4355C36.0082 13.99 35.2678 14.302 34.4933 14.302C33.9807 14.3135 33.4796 14.1402 33.0695 13.8167ZM43.1592 19.9987L49.2861 5.72986H47.2932L44.4575 12.847H44.4233L41.5193 5.72986H39.5264L43.5464 15.0075L41.2688 19.9987H43.1592Z" fill="#3C4043"/>
<path d="M16.7843 8.50459C16.7843 7.93846 16.7388 7.37233 16.6477 6.81775H8.91508V10.0181H13.3451C13.1629 11.0464 12.5707 11.9707 11.7052 12.5484V14.6281H14.3473C15.896 13.1839 16.7843 11.0464 16.7843 8.50459Z" fill="#4285F4"/>
<path d="M8.91738 16.6397C11.1267 16.6397 12.9943 15.9002 14.3495 14.6293L11.7075 12.5497C10.9673 13.058 10.022 13.3469 8.91738 13.3469C6.7764 13.3469 4.96568 11.8795 4.31655 9.91541H1.59477V12.0644C2.98413 14.872 5.81979 16.6397 8.91738 16.6397Z" fill="#34A853"/>
<path d="M4.316 9.9155C3.9743 8.88722 3.9743 7.76651 4.316 6.72667V4.58923H1.59379C0.42062 6.93464 0.42062 9.70753 1.59379 12.0529L4.316 9.9155Z" fill="#FBBC04"/>
<path d="M8.91738 3.29466C10.0904 3.27155 11.2178 3.72215 12.0605 4.54246L14.4065 2.16239C12.9146 0.752838 10.9559 -0.0212618 8.91738 0.0018456C5.81979 0.0018456 2.98413 1.78112 1.59477 4.58868L4.31655 6.73767C4.96568 4.76198 6.7764 3.29466 8.91738 3.29466Z" fill="#EA4335"/>
</svg>
