<svg width="26" height="26" viewBox="0 0 26 26" fill="none" xmlns="http://www.w3.org/2000/svg">
<g clip-path="url(#clip0)">
<path d="M13 26C20.1797 26 26 20.1797 26 13C26 5.8203 20.1797 0 13 0C5.8203 0 0 5.8203 0 13C0 20.1797 5.8203 26 13 26Z" fill="#FFD93B"/>
<path d="M26.0001 13.0001C26.0001 20.1826 20.1785 26.0001 13.0001 26.0001C8.91318 26.0001 5.26506 24.1151 2.88037 21.1616C5.11068 22.9654 7.95037 24.0419 11.0419 24.0419C18.2204 24.0419 24.0419 18.2244 24.0419 11.0419C24.0419 7.95037 22.9654 5.11068 21.1616 2.88037C24.111 5.26506 26.0001 8.91318 26.0001 13.0001Z" fill="#F4C534"/>
<path d="M16.8812 19.5406C16.8812 19.92 16.5781 20.2174 16.2044 20.2174H9.7962C9.42245 20.2174 9.11938 19.9192 9.11938 19.5406C9.11938 19.1668 9.42245 18.8638 9.7962 18.8638H16.2044C16.5773 18.8638 16.8812 19.1668 16.8812 19.5406Z" fill="#3E4347"/>
<path d="M5.67757 13.2884C5.99526 13.1015 6.93532 14.109 8.41164 14.1643C9.93995 14.2212 10.828 13.1015 11.1457 13.2884C11.5414 13.4241 11.0019 16.0078 8.41164 16.0176C5.8222 16.0078 5.28189 13.4241 5.67757 13.2884Z" fill="#3E4347"/>
<path d="M5.06835 12.1525C4.77341 12.1054 4.57191 11.8275 4.61985 11.5318C4.66779 11.2368 4.94078 11.0345 5.2406 11.0833C8.28584 11.5724 9.21128 9.39734 9.22022 9.37541C9.33234 9.09834 9.64759 8.96509 9.92628 9.07803C10.2033 9.19097 10.3366 9.50703 10.2237 9.78409C9.61265 11.2807 7.69353 12.5742 5.06835 12.1525Z" fill="#E9B02C"/>
<path d="M20.322 13.2884C20.0044 13.1015 19.0643 14.109 17.588 14.1643C16.0597 14.2212 15.1716 13.1015 14.8539 13.2884C14.4582 13.4241 14.9977 16.0078 17.588 16.0176C20.1774 16.0078 20.7177 13.4241 20.322 13.2884Z" fill="#3E4347"/>
<path d="M15.7765 9.78332C15.6636 9.50626 15.7968 9.1902 16.0739 9.07726C16.3501 8.96432 16.6654 9.09676 16.7791 9.3722C16.8198 9.4697 17.7501 11.5668 20.7596 11.0833C21.0578 11.0346 21.3332 11.2369 21.3803 11.5318C21.4275 11.8276 21.2268 12.1054 20.9318 12.1526C18.3253 12.5718 16.3924 11.2938 15.7765 9.78332Z" fill="#E9B02C"/>
</g>
<defs>
<clipPath id="clip0">
<rect width="26" height="26" fill="white"/>
</clipPath>
</defs>
</svg>
