<svg width="26" height="26" viewBox="0 0 26 26" fill="none" xmlns="http://www.w3.org/2000/svg">
<g clip-path="url(#clip0)">
<path d="M13 26C20.1797 26 26 20.1797 26 13C26 5.8203 20.1797 0 13 0C5.8203 0 0 5.8203 0 13C0 20.1797 5.8203 26 13 26Z" fill="#FFD93B"/>
<path d="M26.0001 13.0001C26.0001 20.1826 20.1785 26.0001 13.0001 26.0001C8.91318 26.0001 5.26506 24.1151 2.88037 21.1616C5.11068 22.9654 7.95037 24.0419 11.0419 24.0419C18.2204 24.0419 24.0419 18.2244 24.0419 11.0419C24.0419 7.95037 22.9654 5.11068 21.1616 2.88037C24.111 5.26506 26.0001 8.91318 26.0001 13.0001Z" fill="#F4C534"/>
<path d="M17.7824 13.4965C18.9091 13.4965 19.8226 12.583 19.8226 11.4563C19.8226 10.3295 18.9091 9.41608 17.7824 9.41608C16.6556 9.41608 15.7422 10.3295 15.7422 11.4563C15.7422 12.583 16.6556 13.4965 17.7824 13.4965Z" fill="#3E4347"/>
<path d="M18.5231 10.1869C18.2114 10.0486 17.8861 10.1001 17.7966 10.3019C17.7071 10.5038 17.8872 10.7794 18.199 10.9177C18.5107 11.056 18.836 11.0044 18.9255 10.8026C19.015 10.6008 18.8348 10.3251 18.5231 10.1869Z" fill="#5A5F63"/>
<path d="M8.21768 13.4965C9.34445 13.4965 10.2579 12.583 10.2579 11.4563C10.2579 10.3295 9.34445 9.41608 8.21768 9.41608C7.09092 9.41608 6.17749 10.3295 6.17749 11.4563C6.17749 12.583 7.09092 13.4965 8.21768 13.4965Z" fill="#3E4347"/>
<path d="M8.9579 10.1866C8.64616 10.0483 8.32089 10.0998 8.23139 10.3016C8.14189 10.5035 8.32205 10.7791 8.63379 10.9174C8.94553 11.0556 9.2708 11.0041 9.3603 10.8023C9.4498 10.6005 9.26964 10.3248 8.9579 10.1866Z" fill="#5A5F63"/>
<path d="M7.67473 18.1318C7.42936 17.901 7.41798 17.5151 7.64873 17.2705C7.87948 17.0259 8.26461 17.0138 8.50998 17.2445C11.0279 19.6146 14.9718 19.6146 17.4897 17.2445C17.7351 17.0138 18.1202 17.0259 18.351 17.2705C18.5817 17.5159 18.5704 17.901 18.325 18.1318C15.339 20.943 10.6607 20.943 7.67473 18.1318Z" fill="#3E4347"/>
</g>
<defs>
<clipPath id="clip0">
<rect width="26" height="26" fill="white"/>
</clipPath>
</defs>
</svg>
