<svg width="26" height="26" viewBox="0 0 26 26" fill="none" xmlns="http://www.w3.org/2000/svg">
<path d="M21.5312 12.5938H20.3125V9.34375C20.3125 8.67059 19.7669 8.125 19.0938 8.125H18.6875V4.875C18.6875 3.75334 17.7779 2.84375 16.6562 2.84375H9.34375C8.22209 2.84375 7.3125 3.75334 7.3125 4.875V8.125H6.90625C6.23309 8.125 5.6875 8.67059 5.6875 9.34375V12.5938H4.46875C3.79559 12.5938 3.25 13.1393 3.25 13.8125V23.1562H22.75V13.8125C22.75 13.1393 22.2044 12.5938 21.5312 12.5938Z" fill="#59AAE2"/>
<path d="M11.375 11.7812H14.625V14.2188H11.375V11.7812Z" fill="#CFCFCF"/>
<path d="M15.5207 20.139L15.2327 19.8031C14.8475 19.3533 14.681 18.7562 14.7785 18.1724L15.0312 16.6562H10.9687L11.2213 18.1724C11.3188 18.7566 11.1523 19.3537 10.7672 19.8031L10.4791 20.139C9.67272 21.0795 9.90632 22.5188 10.9687 23.1562H15.0312C16.0935 22.5188 16.3271 21.0795 15.5207 20.139V20.139Z" fill="#CFCFCF"/>
<path d="M18.4413 16.6562C19.0259 16.6562 19.5 16.1822 19.5 15.5976C19.5 15.2437 19.6767 14.913 19.9712 14.7168L20.7188 14.2188H14.625H11.375H5.28125L6.02875 14.7172C6.32328 14.9134 6.5 15.2437 6.5 15.5976C6.5 16.1822 6.97409 16.6562 7.55869 16.6562H10.9688H15.0312H18.4413Z" fill="#CFCFCF"/>
<path d="M16.6564 11.7812C17.241 11.7812 17.715 11.3072 17.715 10.7226C17.715 10.3687 17.8918 10.038 18.1863 9.84181L18.9338 9.34375H14.6251H11.3751H7.06641L7.81391 9.84222C8.10844 10.0384 8.28516 10.3691 8.28516 10.723C8.28516 11.3072 8.75925 11.7812 9.34385 11.7812H11.3751H14.6251H16.6564Z" fill="#CFCFCF"/>
<path d="M12.7128 2.15032L12.0055 2.8576C11.8739 2.98923 11.8487 3.19398 11.9446 3.35404L12.6519 4.53257C12.8095 4.79542 13.191 4.79542 13.3486 4.53257L14.0559 3.35404C14.1518 3.19438 14.1266 2.98963 13.995 2.8576L13.2877 2.15032C13.1288 1.99148 12.8713 1.99148 12.7128 2.15032V2.15032Z" fill="#CFCFCF"/>
<path d="M17.8873 9.34375C17.78 9.51153 17.715 9.70531 17.715 9.91006C17.715 10.4947 17.241 10.9688 16.6564 10.9688H14.6251H11.3751H9.5356C9.5165 10.8895 9.50391 10.8079 9.50391 10.7226C9.50391 10.3687 9.32719 10.038 9.03266 9.84181L8.28516 9.34375H8.11291H7.06641L7.81391 9.84222C8.10844 10.0384 8.28516 10.3691 8.28516 10.723C8.28516 11.3072 8.75925 11.7812 9.34385 11.7812H10.5626H11.3751H14.6251H16.6564C17.241 11.7812 17.715 11.3072 17.715 10.7226C17.715 10.3687 17.8918 10.038 18.1863 9.84181L18.9338 9.34375H17.8873Z" fill="#BDBDBD"/>
<path d="M11.375 11.7812H12.5938V14.2188H11.375V11.7812Z" fill="#BDBDBD"/>
<path d="M7.71875 15.5976C7.71875 15.2437 7.54203 14.913 7.2475 14.7168L6.5 14.2188H5.28125L6.02875 14.7172C6.32328 14.9134 6.5 15.2437 6.5 15.5976C6.5 16.1822 6.97409 16.6562 7.55869 16.6562H8.77744C8.19284 16.6562 7.71875 16.1822 7.71875 15.5976Z" fill="#BDBDBD"/>
<path d="M11.6979 20.139L11.9859 19.8031C12.371 19.3533 12.5376 18.7562 12.4401 18.1724L12.1874 16.6562H10.9687L11.2213 18.1724C11.3188 18.7566 11.1523 19.3537 10.7672 19.8031L10.4791 20.139C9.67272 21.0795 9.90632 22.5188 10.9687 23.1562H12.1874C11.1251 22.5188 10.8915 21.0795 11.6979 20.139Z" fill="#BDBDBD"/>
<path d="M13.1634 4.53253L12.4561 3.354C12.3602 3.19434 12.3854 2.98959 12.517 2.85756L13.2243 2.15028C13.2336 2.14094 13.2458 2.13769 13.256 2.12956C13.0963 1.99753 12.8623 2.00119 12.7128 2.15028L12.0055 2.85756C11.8739 2.98919 11.8487 3.19394 11.9446 3.354L12.6519 4.53253C12.7843 4.75353 13.0732 4.78644 13.256 4.63613C13.221 4.60728 13.1885 4.57437 13.1634 4.53253Z" fill="#BDBDBD"/>
<path d="M14.625 8.12459C14.625 6.89772 15.3721 5.79475 16.5108 5.33934L16.6562 5.28125V4.875C16.6562 4.65075 16.4742 4.46875 16.25 4.46875H13H9.75C9.52575 4.46875 9.34375 4.65075 9.34375 4.875V5.28125L9.48878 5.33934C10.6279 5.79475 11.375 6.89813 11.375 8.125V9.34375H14.625V8.12459Z" fill="#CFCFCF"/>
<path d="M11.375 8.125V9.34375H12.5938V8.125C12.5938 6.89813 11.8467 5.79475 10.7075 5.33934L10.5625 5.28125V4.875C10.5625 4.65075 10.7445 4.46875 10.9688 4.46875H9.75C9.52575 4.46875 9.34375 4.65075 9.34375 4.875V5.28125L9.48878 5.33934C10.6279 5.79475 11.375 6.89813 11.375 8.125Z" fill="#BDBDBD"/>
<path d="M19.6722 14.2188C19.565 14.3865 19.5 14.5803 19.5 14.7851C19.5 15.3697 19.0259 15.8438 18.4413 15.8438H15.0312H10.9688H8.96919C8.95009 15.7645 8.9375 15.6829 8.9375 15.5976C8.9375 15.2437 8.76078 14.913 8.46625 14.7168L7.71875 14.2188H6.32775H5.28125L6.02875 14.7172C6.32328 14.9134 6.5 15.2437 6.5 15.5976C6.5 16.1822 6.97409 16.6562 7.55869 16.6562H9.99619H10.9688H15.0312H18.4413C19.0259 16.6562 19.5 16.1822 19.5 15.5976C19.5 15.2437 19.6767 14.913 19.9712 14.7168L20.7188 14.2188H19.6722Z" fill="#BDBDBD"/>
<path d="M25.1875 23.1562H15.0312H10.9688H0.8125V25.1875H25.1875V23.1562Z" fill="#A3A3A3"/>
<path d="M19.0938 12.7969C18.9816 12.7969 18.8906 12.7059 18.8906 12.5938V10.5625C18.8906 10.4504 18.9816 10.3594 19.0938 10.3594C19.2059 10.3594 19.2969 10.4504 19.2969 10.5625V12.5938C19.2969 12.7059 19.2059 12.7969 19.0938 12.7969Z" fill="white"/>
<path d="M18.2812 20.1094C18.1691 20.1094 18.0781 20.0184 18.0781 19.9062V18.2812C18.0781 18.1691 18.1691 18.0781 18.2812 18.0781C18.3934 18.0781 18.4844 18.1691 18.4844 18.2812V19.9062C18.4844 20.0184 18.3934 20.1094 18.2812 20.1094Z" fill="white"/>
<path d="M18.2812 21.3281C18.1691 21.3281 18.0781 21.2371 18.0781 21.125V20.7188C18.0781 20.6066 18.1691 20.5156 18.2812 20.5156C18.3934 20.5156 18.4844 20.6066 18.4844 20.7188V21.125C18.4844 21.2371 18.3934 21.3281 18.2812 21.3281Z" fill="white"/>
<path d="M7.71875 20.1094C7.60663 20.1094 7.51562 20.0184 7.51562 19.9062V18.2812C7.51562 18.1691 7.60663 18.0781 7.71875 18.0781C7.83087 18.0781 7.92188 18.1691 7.92188 18.2812V19.9062C7.92188 20.0184 7.83087 20.1094 7.71875 20.1094Z" fill="white"/>
<path d="M7.71875 21.3281C7.60663 21.3281 7.51562 21.2371 7.51562 21.125V20.7188C7.51562 20.6066 7.60663 20.5156 7.71875 20.5156C7.83087 20.5156 7.92188 20.6066 7.92188 20.7188V21.125C7.92188 21.2371 7.83087 21.3281 7.71875 21.3281Z" fill="white"/>
<path d="M6.90625 12.7969C6.79413 12.7969 6.70312 12.7059 6.70312 12.5938V10.5625C6.70312 10.4504 6.79413 10.3594 6.90625 10.3594C7.01837 10.3594 7.10938 10.4504 7.10938 10.5625V12.5938C7.10938 12.7059 7.01837 12.7969 6.90625 12.7969Z" fill="white"/>
<path d="M17.4688 7.10938C17.3566 7.10938 17.2656 7.01837 17.2656 6.90625V6.5C17.2656 6.38788 17.3566 6.29688 17.4688 6.29688C17.5809 6.29688 17.6719 6.38788 17.6719 6.5V6.90625C17.6719 7.01837 17.5809 7.10938 17.4688 7.10938Z" fill="white"/>
<path d="M8.53125 7.10938C8.41913 7.10938 8.32812 7.01837 8.32812 6.90625V6.5C8.32812 6.38788 8.41913 6.29688 8.53125 6.29688C8.64337 6.29688 8.73438 6.38788 8.73438 6.5V6.90625C8.73438 7.01837 8.64337 7.10938 8.53125 7.10938Z" fill="white"/>
<path d="M20.5156 17.875C20.4035 17.875 20.3125 17.784 20.3125 17.6719V16.0469C20.3125 15.9348 20.4035 15.8438 20.5156 15.8438C20.6277 15.8438 20.7188 15.9348 20.7188 16.0469V17.6719C20.7188 17.784 20.6277 17.875 20.5156 17.875Z" fill="white"/>
<path d="M20.5156 19.0938C20.4035 19.0938 20.3125 19.0027 20.3125 18.8906V18.4844C20.3125 18.3723 20.4035 18.2812 20.5156 18.2812C20.6277 18.2812 20.7188 18.3723 20.7188 18.4844V18.8906C20.7188 19.0027 20.6277 19.0938 20.5156 19.0938Z" fill="white"/>
<path d="M5.48438 17.875C5.37225 17.875 5.28125 17.784 5.28125 17.6719V16.0469C5.28125 15.9348 5.37225 15.8438 5.48438 15.8438C5.5965 15.8438 5.6875 15.9348 5.6875 16.0469V17.6719C5.6875 17.784 5.5965 17.875 5.48438 17.875Z" fill="white"/>
<path d="M5.48438 19.0938C5.37225 19.0938 5.28125 19.0027 5.28125 18.8906V18.4844C5.28125 18.3723 5.37225 18.2812 5.48438 18.2812C5.5965 18.2812 5.6875 18.3723 5.6875 18.4844V18.8906C5.6875 19.0027 5.5965 19.0938 5.48438 19.0938Z" fill="white"/>
</svg>
