<svg width="26" height="26" viewBox="0 0 26 26" fill="none" xmlns="http://www.w3.org/2000/svg">
<path d="M21.4295 0.474487L19.5317 23.6594C19.4368 24.6716 18.5511 25.494 17.539 25.494H8.39784C7.38567 25.494 6.50003 24.6716 6.40513 23.6594L4.50732 0.474487H21.4295Z" fill="#F4F5F7"/>
<path d="M8.68262 23.691L6.78481 0.506104H4.53906L6.43688 23.691C6.53177 24.7032 7.41741 25.5256 8.42958 25.5256H10.6753C9.63153 25.5256 8.74588 24.7032 8.68262 23.691Z" fill="white"/>
<path d="M17.8865 21.0973L18.7089 8.8248C16.7162 9.52066 14.6919 9.4574 12.9522 8.85643C10.5167 7.93916 7.25879 9.20436 7.25879 9.20436L8.14443 21.0973H17.8865Z" fill="#50C1E9"/>
<path d="M11.9401 8.57178C9.69431 8.25548 7.25879 9.17276 7.25879 9.17276L8.14443 21.0657H10.2004L9.28312 9.20439C9.28312 9.20439 10.4534 8.76157 11.9401 8.57178Z" fill="#87D3E8"/>
<path d="M21.4294 0H4.53891C4.41238 0 4.28586 0.0632603 4.19097 0.158151C4.09608 0.253041 4.06445 0.379562 4.06445 0.537713L5.96226 23.7226C6.05715 24.9878 7.16421 26 8.42942 26H17.5705C18.8357 26 19.9428 24.9878 20.0377 23.7226L21.9355 0.537713C21.9355 0.411192 21.9039 0.284672 21.809 0.158151C21.7141 0.0632603 21.5876 0 21.4294 0ZM17.5705 25.0195H8.39779C7.67029 25.0195 6.97443 24.4185 6.91117 23.6594H19.0572C18.9623 24.4185 18.298 25.0195 17.5705 25.0195ZM19.152 22.7105H6.81628L5.04499 0.980535H20.9233L19.152 22.7105Z" fill="#56596A"/>
<path d="M7.67069 21.1289C7.70232 21.382 7.8921 21.5718 8.14515 21.5718H17.8872C18.1403 21.5718 18.3617 21.382 18.3617 21.1289L19.1841 8.85643C19.1841 8.69828 19.1208 8.54013 18.9943 8.44524C18.8678 8.35035 18.7096 8.31872 18.5515 8.38198C16.7486 9.01458 14.8191 9.01458 13.1111 8.41361C12.4785 8.19219 11.751 8.06567 10.9286 8.06567C8.9359 8.06567 7.13298 8.76154 7.06972 8.79317C6.87994 8.85643 6.75342 9.07784 6.75342 9.26762L7.67069 21.1289ZM10.9602 9.01458C11.6561 9.01458 12.2887 9.10947 12.8264 9.29925C14.5028 9.90022 16.4006 9.96348 18.2035 9.48903L17.4444 20.6229H8.58797L7.73395 9.55229C8.33493 9.36251 9.63176 9.01458 10.9602 9.01458Z" fill="#56596A"/>
</svg>
