<svg width="26" height="26" viewBox="0 0 26 26" fill="none" xmlns="http://www.w3.org/2000/svg">
<path d="M12.7273 11.4934C12.388 11.2186 12.4617 10.7002 12.4617 10.7002C14.0608 10.2594 15.9519 10.3406 16.124 12.0245C15.8828 12.0753 15.6402 12.1361 15.3963 12.2068H15.3953C14.1334 12.5735 12.8441 13.2194 11.5913 14.2223C10.9631 12.1449 12.7273 11.4934 12.7273 11.4934V11.4934Z" fill="#49BDFF"/>
<path d="M12.6562 8.16211C12.898 8.61152 13.0686 9.12187 12.7781 9.35547C12.6411 9.46295 12.4719 9.52109 12.2977 9.52051C11.7483 9.53066 11.3014 9.07566 11.2867 8.52773C11.2841 8.43582 11.2791 8.34695 11.2714 8.26113C11.2714 8.26113 8.07018 7.4207 8.18597 10.6346C8.19511 10.8645 8.21766 11.0935 8.2535 11.3207C8.75624 14.591 9.8846 15.7123 9.8846 15.7123C9.23917 16.2729 8.64808 16.769 8.10776 17.2068C5.30261 14.4854 5.68042 11.0262 5.68651 10.9718C6.18315 11.0343 6.32991 10.7646 6.36393 10.5204C6.3863 10.342 6.35389 10.161 6.271 10.0014C5.20054 7.8818 3.94929 7.76348 3.04995 8.07578C3.04995 8.07578 2.8778 5.76066 4.65362 6.12832C6.42944 6.49598 6.24511 7.84422 7.01292 7.44609C7.6294 7.12617 7.19725 6.05672 5.62151 5.47273C5.31073 5.35746 5.35745 4.90449 5.68448 4.85066C7.88636 4.49113 13.4139 4.40582 12.6562 8.16211V8.16211Z" fill="#49BDFF"/>
<path d="M20.4372 20.6772L19.4317 21.0509C19.0953 21.176 18.7253 21.1778 18.3877 21.056L17.468 20.7244C17.3481 20.6811 17.2232 20.6533 17.0963 20.6416V20.6411C16.2676 20.2877 15.0605 19.8301 14.5131 19.5488C13.0719 18.8079 12.2066 17.3205 13.0846 15.9606C13.6914 15.0211 14.8203 14.3539 16.7002 14.753C16.7002 14.753 11.5246 18.9887 20.4372 20.6772V20.6772Z" fill="#49BDFF"/>
<path d="M8.1073 17.2067C7.06527 18.0518 6.21265 18.6814 5.52761 19.1496C0.532259 13.1483 3.3887 9.62256 3.3887 9.62256C3.62382 9.82416 3.89195 10.174 4.1489 10.7783C4.44648 11.4761 4.79636 11.1805 5.04925 10.7783C5.25152 10.872 5.46584 10.9372 5.68605 10.9718C5.67995 11.0262 5.30214 14.4854 8.1073 17.2067V17.2067Z" fill="#3090FC"/>
<path d="M18.0852 15.342C18.0852 15.342 15.8163 17.6292 22.3661 20.9873L21.5628 20.672C21.2151 20.5354 20.8293 20.5318 20.4791 20.6618L20.4374 20.6771C11.5248 18.9886 16.7004 14.7529 16.7004 14.7529L16.7294 14.759C17.2144 14.8652 17.6746 15.063 18.0852 15.342V15.342Z" fill="#3090FC"/>
<path d="M5.6864 10.9718C5.4662 10.9372 5.25188 10.8721 5.04961 10.7784C4.79672 11.1806 4.44683 11.4761 4.14925 10.7784C3.8923 10.1741 3.62418 9.82418 3.38906 9.62258C3.38906 9.62258 0.532614 13.1483 5.52797 19.1497C5.01507 19.5 4.59613 19.76 4.26097 19.9515C4.26097 19.9515 -1.0284 14.9211 1.49441 9.50578C1.64489 9.17553 1.86007 8.87882 2.12724 8.63319C2.39441 8.38757 2.70813 8.19803 3.04984 8.07578C3.94918 7.76348 5.20043 7.8818 6.27089 10.0014C6.35378 10.161 6.38619 10.342 6.36382 10.5204C6.3298 10.7647 6.18304 11.0343 5.6864 10.9718V10.9718Z" fill="#61CFFF"/>
<path d="M12.4613 10.7002C12.4613 10.7002 12.3877 11.2186 12.7269 11.4934C12.7269 11.4934 10.9628 12.1449 11.5909 14.2223C11.3939 14.3793 11.1982 14.5453 11.0039 14.7205C10.6139 15.0719 10.2407 15.4025 9.88418 15.7123C9.88418 15.7123 8.75582 14.591 8.25309 11.3207C8.21724 11.0935 8.19469 10.8644 8.18555 10.6346H8.18606C8.18606 10.6346 9.55309 12.0448 11.173 11.1983C11.5839 10.9878 12.0157 10.8208 12.4613 10.7002V10.7002Z" fill="#4E6CCA"/>
<path d="M2.80457 9.50572C2.95504 9.17547 3.17023 8.87875 3.4374 8.63313C3.70457 8.38751 4.01829 8.19796 4.36 8.07572C4.3798 8.06881 4.39986 8.06226 4.42002 8.05581C3.9247 7.8827 3.45208 7.93607 3.04984 8.07572C2.70813 8.19796 2.39441 8.38751 2.12724 8.63313C1.86007 8.87875 1.64489 9.17547 1.49441 9.50572C-1.0284 14.921 4.26097 19.9514 4.26097 19.9514C4.49518 19.8177 4.77127 19.6495 5.09074 19.4413C3.84756 18.0318 0.759555 13.8954 2.80457 9.50572V9.50572Z" fill="#53BCE0"/>
<path d="M2.88096 21.2905C2.85608 20.8046 3.62186 20.2937 3.83311 20.185C3.95651 20.1216 4.0987 20.0444 4.26069 19.9514C4.59585 19.76 5.01479 19.5 5.52768 19.1496C6.21272 18.6814 7.06534 18.0517 8.10737 17.2067C8.64768 16.769 9.23878 16.2728 9.88421 15.7122C10.2407 15.4014 10.6139 15.0708 11.0039 14.7205C11.1984 14.5453 11.3941 14.3792 11.591 14.2223C12.8437 13.2194 14.1331 12.5734 15.395 12.2068H15.396C15.6398 12.1357 15.8823 12.0749 16.1237 12.0245C19.9338 11.2282 23.3742 12.8969 24.6341 14.8637C24.7033 14.971 24.7401 15.096 24.7403 15.2237C24.7401 15.3606 24.6989 15.4942 24.622 15.6074C24.5451 15.7207 24.4359 15.8082 24.3087 15.8587C24.1815 15.9092 24.0421 15.9205 23.9085 15.8909C23.7748 15.8613 23.6531 15.7924 23.5591 15.6929C23.2879 15.408 23.0016 15.1377 22.7014 14.8835C22.7014 14.8835 21.2282 14.6097 20.9428 15.4278C20.7641 15.9402 19.7871 15.2232 19.0827 14.6174C19.5377 15.213 19.4824 15.5497 19.3138 15.7376C19.1264 15.9468 18.9085 16.1007 18.7318 15.8823L18.647 15.7996C18.4736 15.6306 18.2855 15.4775 18.0849 15.342C17.6742 15.0631 17.214 14.8652 16.729 14.759L16.7001 14.7529C14.8201 14.3538 13.6913 15.0211 13.0844 15.9605C12.2064 17.3205 13.0717 18.8078 14.5129 19.5487C15.0603 19.8301 16.2674 20.2876 17.0962 20.641V20.6416C16.8113 20.614 16.5244 20.6679 16.2689 20.7969L15.8733 20.997C15.6705 21.0994 15.4472 21.155 15.22 21.1595C14.9928 21.1641 14.7675 21.1176 14.5607 21.0234L13.5532 20.6446C13.3761 20.5778 13.1869 20.5492 12.998 20.5608C12.8092 20.5723 12.6249 20.6237 12.4573 20.7116L11.6417 21.1387C11.449 21.2396 11.2369 21.2979 11.0197 21.3096C10.8025 21.3214 10.5853 21.2863 10.3829 21.2067L9.36573 20.8071C9.01788 20.6705 8.6319 20.6669 8.28155 20.7969L7.23444 21.1859C6.89813 21.311 6.52839 21.3128 6.19089 21.191L5.27073 20.8594C5.07645 20.7893 4.86992 20.7596 4.66377 20.7721C4.45762 20.7846 4.25618 20.839 4.07178 20.932L3.6762 21.1321C3.43039 21.2561 3.15554 21.311 2.88096 21.291V21.2905Z" fill="#4689D3"/>
<path d="M5.14355 20.185C5.26694 20.1215 5.40913 20.0444 5.57112 19.9514C5.90628 19.76 6.32523 19.5 6.83812 19.1496C7.52316 18.6814 8.37577 18.0517 9.4178 17.2067C9.95812 16.769 10.5492 16.2728 11.1946 15.7122C11.5511 15.4014 11.9244 15.0708 12.3144 14.7205C12.5089 14.5453 12.7044 14.3696 12.9014 14.2126C14.0335 13.3085 15.3232 12.6219 16.7054 12.1875H16.7064C16.9502 12.1367 17.1929 12.0656 17.4341 12.0148C17.8637 11.9266 18.2989 11.868 18.7365 11.8395C17.8618 11.7764 16.9827 11.8345 16.124 12.0124C15.8828 12.0632 15.64 12.1367 15.3963 12.1875H15.3953C14.0131 12.6219 12.7233 13.3085 11.5912 14.2126C11.3942 14.3696 11.1987 14.5404 11.0042 14.7156C10.6142 15.067 10.241 15.3984 9.88448 15.7098C9.23905 16.2704 8.64678 16.769 8.10765 17.2055C7.06562 18.0505 6.213 18.6808 5.52796 19.149C5.01507 19.4994 4.59612 19.7597 4.26097 19.9513C4.09898 20.0443 3.96339 20.1216 3.83999 20.1849C3.62874 20.2935 2.84366 20.8046 2.89444 21.2905V21.291C3.16679 21.3093 3.43907 21.2544 3.68308 21.1321L4.07536 20.932C4.17175 20.8832 4.27314 20.8449 4.37777 20.8179C4.61248 20.5119 5.00187 20.2579 5.14355 20.185V20.185Z" fill="#386E9E"/>
<path d="M5.52368 9.78741C5.48527 9.7694 5.44353 9.75961 5.40112 9.75864C5.35871 9.75768 5.31656 9.76558 5.27737 9.78183C5.23819 9.79808 5.20282 9.82232 5.17353 9.85301C5.14424 9.8837 5.12168 9.92016 5.10728 9.96006C4.92878 10.4556 4.67843 10.8211 4.56453 10.8861C4.5054 10.8197 4.45962 10.7425 4.4297 10.6588C3.96627 9.57042 3.4413 9.20642 3.05195 9.0947C2.99733 9.07985 2.93963 9.08063 2.88542 9.09693C2.83121 9.11323 2.78266 9.14441 2.74528 9.18692C2.7079 9.22944 2.6832 9.28158 2.67397 9.33743C2.66474 9.39328 2.67136 9.4506 2.69308 9.50288C2.71023 9.54481 2.73658 9.58234 2.77019 9.6127C2.80381 9.64307 2.84382 9.66548 2.88727 9.67828C3.08313 9.73576 3.47415 9.96997 3.86903 10.8973C4.04011 11.2991 4.27066 11.5026 4.55457 11.5026H4.57204C5.13988 11.4861 5.53034 10.5817 5.67628 10.1788C5.70388 10.1063 5.70355 10.0261 5.67535 9.95373C5.64716 9.88141 5.59311 9.82214 5.52368 9.78741V9.78741Z" fill="#49A2BA"/>
<path d="M12.279 9.8251C11.5802 9.8251 11.0006 9.25168 10.9816 8.53556C10.9379 6.88801 9.96788 6.27265 9.95808 6.2666C9.92375 6.24576 9.89388 6.21834 9.87019 6.18591C9.8465 6.15348 9.82945 6.11669 9.82003 6.07765C9.81061 6.03861 9.80899 5.9981 9.81529 5.95843C9.82158 5.91877 9.83565 5.88074 9.85669 5.84653C9.87773 5.81232 9.90533 5.78261 9.93789 5.75911C9.97045 5.73561 10.0073 5.71877 10.0464 5.70957C10.0855 5.70038 10.1261 5.699 10.1657 5.70552C10.2053 5.71204 10.2433 5.72633 10.2773 5.74757C10.3288 5.7792 11.5384 6.54554 11.5908 8.51941C11.5928 8.70209 11.6657 8.87686 11.7941 9.00679C11.9225 9.13672 12.0964 9.21164 12.2791 9.21572H12.2917C12.3984 9.2178 12.5026 9.18331 12.5869 9.11797C12.7589 8.97979 12.4041 8.18898 11.8709 7.52141C11.8456 7.49019 11.8266 7.45426 11.8152 7.41569C11.8038 7.37712 11.8002 7.33668 11.8045 7.29669C11.8088 7.25671 11.821 7.21797 11.8403 7.18271C11.8597 7.14746 11.8858 7.11638 11.9172 7.09128C11.9487 7.06617 11.9847 7.04754 12.0234 7.03645C12.0621 7.02536 12.1025 7.02203 12.1425 7.02666C12.1824 7.03129 12.2211 7.04378 12.2562 7.06341C12.2913 7.08305 12.3221 7.10943 12.347 7.14106C12.5868 7.44122 13.7435 8.96999 12.9688 9.59293C12.7796 9.74329 12.5451 9.8251 12.3035 9.825C12.2952 9.825 12.2871 9.8251 12.279 9.8251V9.8251Z" fill="#3E94BA"/>
<path d="M10.9386 21.6167C10.7104 21.6167 10.4842 21.5738 10.2718 21.4903L9.25475 21.0906C8.97684 20.9812 8.66832 20.9783 8.38842 21.0825L7.34121 21.4717C6.93725 21.6215 6.4933 21.6237 6.08793 21.4777L5.16818 21.146C5.01286 21.0902 4.84783 21.0667 4.68313 21.0767C4.51842 21.0867 4.35746 21.1301 4.21004 21.2042L3.8145 21.404C3.57111 21.5276 3.30295 21.5947 3.03001 21.6003C2.75707 21.6058 2.48641 21.5496 2.2382 21.436L1.09207 20.9147C1.01851 20.8812 0.961268 20.8199 0.932927 20.7442C0.904585 20.6686 0.907469 20.5847 0.940944 20.5112C0.974419 20.4376 1.03574 20.3804 1.11142 20.352C1.18711 20.3237 1.27095 20.3266 1.3445 20.36L2.49033 20.8813C2.65553 20.9569 2.83568 20.9943 3.01733 20.9906C3.19899 20.9869 3.37748 20.9423 3.53947 20.86L3.93501 20.6602C4.15655 20.5488 4.39843 20.4836 4.64596 20.4685C4.89349 20.4534 5.14149 20.4889 5.37491 20.5726L6.29471 20.9044C6.56454 21.0016 6.86007 21.0002 7.12894 20.9003L8.17605 20.5113C8.59654 20.3548 9.06003 20.3591 9.47753 20.5234L10.4946 20.9231C10.6564 20.9868 10.8301 21.0149 11.0037 21.0055C11.1774 20.9961 11.347 20.9495 11.501 20.8688L12.3167 20.4416C12.5223 20.3341 12.7484 20.2712 12.98 20.257C13.2116 20.2428 13.4437 20.2776 13.6609 20.3593L14.6684 20.7385C14.6748 20.7408 14.6811 20.7436 14.6873 20.7463C14.8525 20.8219 15.0326 20.8593 15.2143 20.8556C15.3959 20.8519 15.5744 20.8073 15.7364 20.725L16.1319 20.5252C16.3534 20.4138 16.5953 20.3486 16.8429 20.3335C17.0904 20.3185 17.3384 20.3539 17.5718 20.4377L18.4918 20.7695C18.7616 20.8667 19.0571 20.8653 19.3259 20.7655L20.3732 20.3763C20.7937 20.2198 21.2571 20.2241 21.6746 20.3885L22.6917 20.7882C22.8536 20.8518 23.0272 20.8799 23.2008 20.8705C23.3745 20.8612 23.5441 20.8146 23.6981 20.7339L25.0464 20.028C25.0818 20.0094 25.1206 19.9979 25.1605 19.9942C25.2004 19.9906 25.2406 19.9949 25.2789 20.0068C25.3171 20.0187 25.3526 20.038 25.3834 20.0637C25.4142 20.0893 25.4396 20.1208 25.4582 20.1563C25.4768 20.1918 25.4882 20.2306 25.4917 20.2705C25.4953 20.3104 25.491 20.3506 25.479 20.3888C25.467 20.427 25.4476 20.4625 25.4219 20.4932C25.3962 20.524 25.3647 20.5493 25.3291 20.5678L23.9809 21.2737C23.7494 21.3949 23.4946 21.465 23.2337 21.4791C22.9728 21.4932 22.712 21.451 22.4688 21.3553L21.4518 20.9556C21.1739 20.8463 20.8654 20.8434 20.5855 20.9475L19.5382 21.3367C19.1343 21.4867 18.6903 21.4888 18.2849 21.3428L17.3652 21.011C17.2098 20.9552 17.0447 20.9317 16.88 20.9417C16.7152 20.9517 16.5542 20.9951 16.4067 21.0692L16.0112 21.269C15.7694 21.3918 15.5032 21.4589 15.2321 21.4652C14.961 21.4715 14.6919 21.4169 14.4447 21.3055L13.4463 20.9297C13.3095 20.8782 13.1633 20.8563 13.0174 20.8652C12.8714 20.8741 12.729 20.9138 12.5995 20.9815L11.7838 21.4087C11.523 21.5454 11.233 21.6167 10.9386 21.6167V21.6167Z" fill="#4E6CCA"/>
</svg>
