<svg width="81" height="85" fill="none" xmlns="http://www.w3.org/2000/svg"><path d="M43.822 39.613c-.384.894-1.406 1.278-2.3.894-.128 0-.255-.127-.383-.255l-3.96-2.939-12.649 1.789c-.511.128-1.022-.128-1.405-.383l-.128-.128-8.816-7.666-3.45-2.938c-1.149-1.022-1.277-2.683-.255-3.705.256-.384.64-.639 1.15-.767.895-.255 1.917-.128 2.683.511l.128.128 10.86 10.987h12.137c.255 0 .383 0 .639.128h.127l4.855 2.172c.767.256 1.15 1.278.767 2.172Z" fill="#BF8654"/><path d="m16.864 45.49 21.592 4.088h.255c1.278.256 2.044 1.406 2.044 2.555l-.255 6.133-.128 3.066c0 1.022-.128 2.044-.128 3.066 0 1.023-.127 2.045-.127 3.067-.128 1.022-.128 2.044-.256 3.066 0 1.022-.128 2.044-.128 3.066v3.067-.256c.128.511.256.894.384 1.405 0 .128.127.256.127.384.128.127.128.255.256.383s.128.255.255.383c.128.128.256.256.256.384l-2.428-2.3 7.922 2.044c.638.128 1.022.894.894 1.533-.128.511-.511.894-1.022.894l-8.049.895-.639.127c-.894.128-1.788-.51-1.916-1.533 0-.255 0-.639.127-.894 0-.128.128-.255.128-.383s0-.256.128-.383v-1.534c0-.255-.128-.51-.128-.766v-.256c0-.51-.127-1.022-.127-1.533-.128-.51-.128-1.022-.256-1.533-.128-.511-.128-1.022-.256-1.533l-.383-1.533c-.255-1.022-.51-2.044-.639-3.067-.127-.51-.255-1.022-.255-1.533-.128-.51-.128-1.022-.128-1.533 0-.51-.128-1.022-.128-1.533v-3.066c0-.511.128-1.022.128-1.533 0-.511.128-1.022.256-1.533.127-.511.127-1.022.255-1.533l.384-1.534c.127-.51.383-1.022.638-1.533l2.3 2.683-21.975-.766c-2.427-.128-4.216-2.044-4.216-4.472.128-2.427 2.044-4.216 4.472-4.216.383-.128.51-.128.766 0Z" fill="#404040"/><path d="M21.72 36.675c-.129.766-.129 1.66-.256 2.427 0 .511-.128 1.15-.128 1.66 0 .384-.128.64-.128.895 0 .256 0 .64-.128.895 0 .638-.127 1.15-.127 1.66v.384c-.128 1.788-.256 3.066-.256 3.066l-.128 1.789c-.255 3.066-2.938 5.366-5.877 4.982-2.938-.383-4.982-3.066-4.727-6.132 0-.128 0-.384.128-.511 0 0 .128-.383.128-.895.127-.638.255-1.405.383-2.427.128-.511.128-1.022.256-1.66 0-.129 0-.256.127-.384v-.511c0-.256 0-.639-.127-.894-.128-1.278-.256-2.683-.384-3.961-.51-5.494-.639-11.882-.639-11.882-.255-2.938 1.023-5.11 3.194-6.26.767-.383 1.661-.639 2.683-.767 1.15-.127 2.3.128 3.322.64l2.939 5.237c0-.255-.128 11.371-.256 12.649Z" fill="#A9A9A9"/><path d="m37.178 37.313-12.776 1.79c-.51.127-1.022-.129-1.405-.384l-.128-.128-8.815-7.666-2.556-7.538c.895-.255 1.917-.127 2.683.512l.128.127 10.86 10.988h11.498l.511 2.172v.127Z" fill="#9366F4"/><path d="M18.909 18.533c.255 2.172 1.277 4.727 1.277 4.727s-10.86-1.278-8.56-2.683a3.808 3.808 0 0 0 1.278-1.789c.383-1.022.639-2.172.766-3.322.256-.894.256-1.533.256-2.044v-.894l6.26 3.194c-.383-.128-.639 0-.894.255-.128.128-.256.256-.256.511-.255.512-.255 1.15-.128 2.045Z" fill="#DEA26F"/><path d="M23.763 8.823c0 .766-.383 2.81-.383 3.066-.767 2.683-2.172 4.344-2.172 4.344s-4.855-.895-7.154-2.555c-1.661-1.278-2.939-2.939-2.939-4.855 0-4.472.639-8.177 6.26-8.177 3.833 0 5.366 1.661 5.877 4.216.384 1.15.511 2.555.511 3.96Z" fill="#E8B589"/><path d="M23.38 4.862c-1.277.128-3.322-1.533-4.471-.383-1.15 1.022-.895 2.938-1.023 4.472-.383 0-.766 0-1.15-.128.128-.895-.383-1.278-1.15-1.278-1.021 0-1.15.767-1.405 1.661-.127.639.767 1.278.767 1.917 0 .894-.767 1.788-.767 2.683-1.66-1.278-2.938-2.939-2.938-4.855 0-4.472.511-8.944 6.132-8.944 3.833-.127 6.772 1.406 6.005 4.855Z" fill="#523F2C"/><path d="M22.102 32.842a428.467 428.467 0 0 0-.383 3.96c-.128.767-.128 1.661-.255 2.428 0 .51-.128 1.15-.128 1.66 0 .384-.128.64-.128.895s0 .639-.128.894c0 .639-.127 1.15-.127 1.661v.383c-.384-.127-.895-.127-1.278-.255-1.278-.128-2.683-.256-3.96-.511-1.406-.256-3.194-1.022-4.855-1.278 0-.128 0-.255.127-.383v-.511c0-.256 0-.639-.127-.894-.128-1.278-.256-2.683-.384-3.961-.51-5.494-.639-11.882-.639-11.882-.255-2.938 1.023-5.11 3.194-6.26.384-1.022.64-2.172.767-3.322 1.278.128 3.45 1.917 4.983 2.428-.128.51 0 0 .128.766l2.938 5.238v8.305c.128-.128.255.255.255.639Z" fill="#608CFF"/><path d="M52.382 42.424H40.628v-2.3l11.754-1.278v3.578Z" fill="#000"/><path d="M45.866 41.657c-.383.895-1.533 1.15-2.3.767a.275.275 0 0 1-.255-.256l-4.089-3.322H25.17c-.384 0-.639-.127-.895-.255-.127-.128-.383-.255-.51-.383l-.128-.128-10.988-13.415c-.894-1.15-.766-2.81.384-3.705 1.15-.894 2.81-.767 3.705.383l.127.128 9.455 13.543 12.648 1.533.639.128c.127 0 .383.127.51.127h.129l4.854 2.556c.895.383 1.15 1.533.767 2.3Z" fill="#F0B481"/><path d="M2.555 44.723c-2.427 3.194.128 9.2 3.194 11.243 3.066-1.916-2.044-6.004-1.533-9.198l-1.66-2.045Z" fill="#A9A9A9"/><path d="M8.432 46.129c0 2.3-1.916 4.216-4.216 4.216-2.3 0-4.216-1.916-4.216-4.216V31.564c0-2.3 1.916-4.216 4.216-4.216 2.3 0 4.216 1.916 4.216 4.216V46.13Z" fill="#EC445A"/><path d="M16.353 75.897V59.799c0-.639-.51-1.277-1.277-1.277-.639 0-1.278.51-1.278 1.277v16.098l-8.432 6.771c-.511.384-.767 1.15-.383 1.661.255.384.639.511 1.022.511a.976.976 0 0 0 .639-.255l8.304-6.644c3.577 2.683 7.282 5.622 8.049 6.388.256.384.639.639 1.022.639h.128c.51 0 1.022-.383 1.15-.894.383-.895.383-1.022-8.944-8.177Z" fill="#A9A9A9"/><path d="M4.216 56.733c0 2.683 2.172 4.727 4.727 4.727h13.543c2.683 0 4.727-2.172 4.727-4.727 0-2.683-2.172-4.727-4.727-4.727H8.943c-2.683 0-4.727 2.044-4.727 4.727Z" fill="#C24646"/><path d="M81 42.424H32.962v3.194H81v-3.194Z" fill="#A9A9A9"/><path d="M48.293 44.723h-1.788v39.095h1.788V44.723ZM81 42.424h-1.79v41.522H81V42.424ZM55.065 31.82l5.877-.767 7.92-22.997-4.087-4.216-9.71 27.98Z" fill="#000"/><path d="M69.63 42.296H55.064v-1.405h13.159V18.533H64.39v-1.406h5.238v25.169Z" fill="#404040"/><path d="m38.967 36.547-.511 2.3-.383 1.916-12.265-1.789-1.661-.255c-.128-.128-.384-.256-.511-.383l-.128-.128-10.86-13.543c-.894-1.15-.766-2.81.384-3.705 1.15-.894 2.81-.767 3.705.383l.127.128 9.455 13.543 12.648 1.533Z" fill="#2B478E"/><path d="M45.994 80.368c-.128.511-.511.895-1.022.895l-8.05.894-.638.128c-.894.128-1.789-.639-1.916-1.533 0-.256 0-.639.127-.895 0-.127.128-.255.128-.383s0-.255.128-.383v-1.533c0-.128 0-.256-.128-.384l-1.533.128-.511-11.37c-.128-.511-.128-1.023-.128-1.534 0-.51-.128-1.022-.128-1.533v-1.533c0-.51 0-1.022.128-1.533 0-.51.128-1.022.128-1.533 0-.511.128-1.022.255-1.533.128-.511.128-1.022.256-1.533 0-.128.128-.384.128-.511l-18.781-.64c-2.428-.127-4.216-2.043-4.216-4.47.128-2.428 2.044-4.217 4.471-4.217.256 0 .384 0 .64.128l21.59 4.088h.256c1.278.256 2.044 1.406 2.044 2.555l-.255 6.133-.128 3.066v1.278l-.255 14.181v.128H38.2c0 .128 0 .255.128.255l6.644 1.661c.766.128 1.15.895 1.022 1.534Z" fill="#747373"/><path d="M45.994 80.368c-.128.511-.511.895-1.022.895l-8.05.894-.638.128c-.894.128-1.789-.639-1.916-1.533 0-.256 0-.639.127-.894 0-.128.128-.256.128-.384s0-.255.128-.383v-1.533c0-.128 0-.256-.128-.384l4.216-.51v.127h-.383c0 .128 0 .256.128.256l6.643 1.66c.511.256.895 1.023.767 1.662Z" fill="#000"/></svg>