<svg width="81" height="84" fill="none" xmlns="http://www.w3.org/2000/svg"><path d="m37.581 19.33 6.264 11.681-.911-.786 10.932 4.493c.114 0 .228.112.342.224l3.416 3.033c.57.562.684 1.46.114 2.134-.569.562-1.48.674-2.163.113l-.228-.225-2.62-3.594.456.224-11.502-3.032a1.77 1.77 0 0 1-.911-.674l-.114-.113-7.06-11.12c-.684-1.01-.342-2.47.683-3.145 1.025-.674 2.505-.337 3.188.674l.114.113Zm8.427 42.345-4.213-1.01-1.48-.338c0-.112-.114-.224-.114-.449v-.337l-.114-.898V48.084l.683-4.942c.114-.786-.342-1.685-1.025-2.134l-.228-.112-4.213-2.247-10.82-5.953c-.227-.112-.34-.225-.569-.225-1.936-.673-4.1.337-4.783 2.247-.455 1.235-.227 2.47.57 3.37.455.561 1.025 1.01 1.708 1.235l2.733.899 8.427 2.92 2.847 1.01c-.113.113-.113.226-.227.338-.114.225-.114.45-.228.674-.114.45-.228.786-.342 1.235 0 .225-.114.45-.114.674 0 .225-.114.45-.114.674v.675c0 .56 0 1.235.114 1.796 0 .337.114.562.114.899 0 .337.114.562.114.899.114.337.114.561.228.898l.228.899c.114.337.227.561.227.898l.342.899.57 1.797c.113.337.227.562.227.899.114.337.114.561.228.898.114.337.114.562.228.899v.561c0 .113 0 .337.114.45v.898c0 .112 0 .225-.114.337 0 .225-.114.337-.114.562-.114.224-.114.449-.114.786.114.786.797 1.348 1.594 1.236l.57-.113 6.947-.786c.455 0 .797-.337.91-.786.115-.899-.227-1.46-.797-1.573Z" fill="#F0BE92"/><path d="M46.806 62.91c-.114.45-.456.787-.911.787l-6.947.786-.57.112c-.797.113-1.594-.449-1.594-1.235 0-.225 0-.562.114-.786.114-.225.114-.337.114-.562l4.783-1.348 4.213 1.011c.57.112.912.674.798 1.236Zm-11.73-24.373-2.733 4.605-8.428-2.92-4.441-2.247c-.683-.898-.911-2.246-.57-3.37.684-1.909 2.848-2.92 4.784-2.246.227.112.341.112.569.225l10.819 5.953Z" fill="#9366F4"/><path d="M41.225 16.971c-.91-1.01-1.936.337-2.847 1.91 0 0-.114.673-.227 1.684-.228 1.685-.684 4.044-1.367 4.83 0 0-3.53 3.145-6.947 6.402-.91.787-1.708 1.573-2.62 2.36-.227.224-.455.336-.569.56l-.569.563c-.342.337-.57.561-.911.786l-.114.112A49.187 49.187 0 0 1 22.89 38.2l-1.139 1.01c-1.936 1.798-5.01 1.686-6.832-.224-1.823-1.91-1.709-4.942.227-6.74l.342-.336s.228-.225.683-.45c.228-.224.57-.449 1.025-.786.228-.224.456-.337.683-.561.342-.337.684-.562 1.14-.899.113-.112.227-.112.341-.224 0 0 0-.113.114-.113.114-.112.114-.112.114-.224.114-.225.341-.45.455-.674.684-.899 1.367-1.798 2.05-2.808 2.62-3.595 6.72-7.302 7.516-7.975 0 0 .114 0 .114-.113l2.392-1.123 1.252-.562.912-.449h.113c.114 0 .228-.112.342-.112 2.05-.899 4.328-3.482 4.328-3.482l2.163 5.616Z" fill="#DEA26F"/><path d="m34.165 15.174-.911.449-1.253.562-2.392 1.123-.114.112c-.683.562-4.783 4.268-7.516 7.975-.683.899-1.366 1.91-2.05 2.808-.113.225-.341.45-.455.674 0 .112-.114.112-.114.225 0 0 0 .112-.114.112-.114.112-.228.112-.342.225-.455.337-.797.561-1.138.898-.228.225-.456.337-.684.562 2.847 2.022 6.036 4.043 7.972 5.391.228-.224.57-.561.911-.786.228-.112.342-.337.57-.562l.569-.561c.797-.786 1.708-1.573 2.62-2.359 3.53-3.145 8.427-4.605 8.427-4.605.683-.786-.228-4.942 0-6.627-.798-1.91-2.392-3.931-3.986-5.616Zm-3.303 10.221c-3.075-.45-3.416-6.852 1.594-7.75 7.175 1.01 1.48 8.2-1.594 7.75Z" fill="#EC445A"/><path d="M26.079 35.28c-.342.336-.683.673-1.025.898-1.253 1.236-2.164 2.022-2.164 2.022l-1.139 1.01c-1.936 1.798-5.01 1.686-6.832-.224-1.823-1.91-1.709-4.942.227-6.74l.342-.336s.228-.225.683-.45a44.296 44.296 0 0 0 1.709-1.347c.341-.337.683-.562 1.138-.899.114-.112.228-.112.342-.225 0 0 0-.112.114-.112l6.605 6.402Z" fill="#9366F4"/><path d="M46.92 12.253c-.114.674-.798 2.36-.912 2.584-1.138 2.246-2.733 3.37-2.733 3.37s-4.213-1.685-5.808-3.483c-1.252-1.347-2.05-3.032-1.708-4.717.797-3.931 2.05-7.076 7.06-5.953 3.417.674 4.442 2.47 4.442 4.717.114 1.011-.114 2.247-.342 3.482Z" fill="#E8B589"/><path d="M47.375 8.771c-1.139-.112-2.62-1.91-3.986-1.235-1.252.786-1.366 2.47-1.708 3.707-1.48.112-.797-2.584-3.075-1.236-1.139.674-1.025 1.797-1.366 2.92-.684 3.258-3.872 3.707-6.833 2.696-1.48-.45-3.189-1.348-4.1-2.583-.911-1.236-.456-2.808-1.139-4.156 2.733 1.684 7.175 1.572 9.566-1.011 1.253-1.348 1.822-3.033 3.53-4.044 2.05-1.348 4.442-.898 6.606 0 1.025.45 2.05 1.011 2.505 2.022.114.225.57 2.92 0 2.92Z" fill="#523F2C"/><path d="M15.033 83.803C6.719 83.803 0 77.176 0 68.976S6.72 54.15 15.033 54.15c8.313 0 15.032 6.627 15.032 14.826 0 8.087-6.72 14.827-15.033 14.827Zm0-27.856c-7.289 0-13.21 5.84-13.21 13.03 0 7.188 5.921 13.029 13.21 13.029 7.288 0 13.21-5.841 13.21-13.03 0-7.188-5.922-13.03-13.21-13.03Zm42.933 27.856c-8.313 0-15.032-6.627-15.032-14.827S49.653 54.15 57.966 54.15c8.313 0 15.033 6.627 15.033 14.826.113 8.087-6.72 14.827-15.033 14.827Zm0-27.856c-7.288 0-13.21 5.84-13.21 13.03 0 7.188 5.922 13.029 13.21 13.029 7.288 0 13.21-5.841 13.21-13.03 0-7.188-5.922-13.03-13.21-13.03Z" fill="#000"/><path d="M37.695 70.773c-.114 0-.114 0 0 0l-22.662-.898c-.342 0-.57-.225-.798-.45-.114-.224-.227-.561-.114-.898l8.428-21.454c.114-.337.455-.561.91-.561h28.927l2.62-10.334c.113-.45.455-.674.91-.674.114 0 4.214.113 6.264 2.92 1.367 1.798 1.594 4.156.683 7.077-.114.45-.683.786-1.139.674-.455-.113-.797-.674-.683-1.123.683-2.36.57-4.156-.342-5.392-1.024-1.46-2.96-1.91-3.985-2.022l-2.62 9.997 4.783 21.229c.114.561-.227 1.01-.683 1.123-.57.112-1.025-.225-1.139-.674l-4.441-19.32L38.379 70.55c-.114.112-.456.224-.684.224ZM16.4 67.965l20.727.899 14.12-20.444H24.03L16.4 67.965Z" fill="#EC445A"/><path d="M23.46 48.421c-.456 0-.911-.337-.911-.786l-1.253-6.74c-.114-.561.228-1.01.797-1.123.57-.112 1.025.225 1.14.787l1.252 6.739c.114.561-.228 1.01-.797 1.123h-.228Z" fill="#EC445A"/><path d="M25.851 41.233H14.008a.892.892 0 0 1-.912-.899c0-.562.456-.899.912-.899H25.85c.57 0 .911.45.911.899 0 .45-.341.899-.91.899Z" fill="#000"/><path d="M40.2 80.096c-.113 0-.341 0-.455-.112l-4.67-2.584c-.34-.224-.569-.674-.455-1.123l2.05-6.74c.114-.448.683-.785 1.139-.673.456.112.797.674.683 1.123l-1.822 6.066 3.986 2.134c.456.224.683.786.342 1.235-.114.562-.456.674-.797.674ZM18.221 68.864c0 1.797-1.48 3.145-3.188 3.145a3.161 3.161 0 0 1-3.19-3.145c0-1.797 1.481-3.145 3.19-3.145a3.161 3.161 0 0 1 3.188 3.145Zm43.048 0c0 1.797-1.48 3.145-3.19 3.145a3.161 3.161 0 0 1-3.188-3.145c0-1.797 1.48-3.145 3.189-3.145 1.708 0 3.189 1.46 3.189 3.145Z" fill="#A9A9A9"/><path d="m43.161 74.817-5.466-1.123-.342-.113c-.113-.224-.113-.561-.227-.786l-.228-1.348-.228-1.348-.342-2.583c-.113-.899-.113-1.797-.227-2.696l-.342-2.583-.342-2.584-.683-5.279c0-.337-.114-.561-.341-.898l-.114-.225-3.986-5.504-9.339-12.917-.341-.337c-1.367-1.46-3.758-1.572-5.239-.224-1.48 1.348-1.594 3.706-.228 5.166L26.08 51.117l4.1 4.38c-.114.337-.114.674-.228 1.011-.114.45-.114.899-.114 1.348v2.696c0 .45.114.899.114 1.348 0 .45.114.898.228 1.348.114.898.342 1.685.683 2.583.114.45.342.786.456 1.236.114.449.341.786.57 1.235l1.138 2.471.455 1.236c.114.45.342.898.456 1.235.114.337.228.562.228.899v.337c0 .45 0 .898-.228 1.348-.114.224-.114.45-.114.786.114.786.911 1.348 1.708 1.236l.57-.113 6.947-1.01c.455-.113.797-.338.91-.787.115-.45-.227-1.01-.797-1.123Z" fill="#F0BE92"/><path d="m35.19 19.554 6.49 12.243-.91-.786 11.388 4.605c.114.113.228.113.342.225l3.53 3.145c.57.562.683 1.46.114 2.134-.57.562-1.48.674-2.164.113l-.228-.225-2.733-3.82.456.225-11.958-3.144a1.77 1.77 0 0 1-.91-.675l-.115-.112-7.402-11.681c-.683-1.011-.342-2.471.683-3.145 1.025-.674 2.506-.337 3.189.674.114.112.228.112.228.224Z" fill="#F0B481"/><path d="m30.52 47.86-4.213 3.37-10.933-11.682c-1.366-1.46-1.253-3.82.228-5.167 1.48-1.348 3.872-1.236 5.239.224l.341.338 9.339 12.917Z" fill="#9366F4"/><path d="M41.567 8.097c1.594-1.572-1.822 8.986-1.822 8.986l.683.562 2.847-9.66-1.708.112Z" fill="#993737"/><path d="M49.31 8.884s-12.754.337-14.234-1.011c-1.48-1.46-.57-7.638 5.58-7.863 6.15-.337 11.047 7.75 8.655 8.874Z" fill="#EC445A"/><path d="M44.983 5.514s-7.516-3.145-9.338-.337c0-.224 2.62 2.471 9.338.337Zm1.253-1.797s-5.01-5.729-9.338-1.685c-.228 0 6.72.562 9.338 1.685Z" fill="#993737"/><path d="M43.959 76.052c-.114.45-.456.787-.912.787l-6.946 1.01-.57.113c-.797.112-1.594-.45-1.708-1.236 0-.224 0-.449.114-.786.228-.45.228-.898.228-1.348v-.337l3.53-.561 5.466 1.123c.57.112.911.674.797 1.236Z" fill="#9366F4"/></svg>