<svg width="81" height="87" fill="none" xmlns="http://www.w3.org/2000/svg"><path d="m28.517 21.603 14.35 9.448-1.634-.233 13.884-2.8-.817.934.817-6.532c.116-.933 1.05-1.633 1.983-1.517.933.117 1.633 1.05 1.517 1.983 0 .117 0 .234-.117.35l-1.983 6.182c-.117.467-.467.7-.817.817L42.283 34.9c-.466.116-1.05.116-1.516-.117l-.234-.117L25.6 26.27c-1.283-.7-1.75-2.45-1.05-3.732.7-1.284 2.45-1.75 3.733-1.05.117 0 .234 0 .234.116Z" fill="#F0B481"/><path d="M68.883 81.324c-.116-.35-.233-.7-.583-.816l-7.117-4.083c0-.116-.116-.233-.116-.35 0-.116-.117-.233-.117-.35v-.233l-.117-1.516v-.467l-.116-1.05-.117-3.149v-3.15c0-1.049 0-2.099-.117-3.149l-.116-1.516v-.817l-.117-.816-.7-6.182c-.117-.933-.7-1.866-1.75-2.1l-.35-.116-20.533-6.882c-.234-.117-.467-.117-.7-.117a4.565 4.565 0 0 0-5.134 3.616 4.564 4.564 0 0 0 3.617 5.132l18.9 3.15c-.117.466-.117.933-.233 1.4 0 .583-.117 1.05-.117 1.633v2.916c0 .466.117 1.05.117 1.516.116.466.116 1.05.233 1.516.117.467.233 1.05.35 1.517.117.466.233 1.05.467 1.516.116.467.35 1.05.466 1.516l1.05 3.033.467 1.516c.117.35.117.7.233.934 0 .233.117.35.117.583v.466c0 .117 0 .234.117.35 0 .234.116.467.116.817v.583c0 .35-.116.7-.233 1.05 0 .117-.117.233-.117.233-.116.817.35 1.633 1.167 1.75l.583.116 8.75 1.633c.467.117 1.05-.116 1.284-.583.466-.466.583-.7.466-1.05Zm-7.35-4.082.817 1.05c-.35-.35-.583-.7-.817-1.05Z" fill="#436CD8"/><path d="M68.767 82.258c-.234.466-.817.7-1.284.583l-8.75-1.633-.583-.117c-.817-.116-1.4-.933-1.167-1.75 0-.116 0-.233.117-.233.117-.35.233-.7.233-1.05v-.583c0-.233 0-.466-.116-.816 0-.117 0-.234-.117-.35v-.467c0-.233-.117-.35-.117-.583l3.85-1.866v.466l.117 1.517v.233c0 .117.117.233.117.35 0 .117.116.233.116.35L68.3 80.39c.35.234.583.467.583.817.117.466 0 .7-.116 1.05Z" fill="#F0B481"/><path d="M68.767 82.258c-.234.466-.817.7-1.284.583l-8.75-1.633-.583-.117c-.817-.116-1.4-.933-1.167-1.75 0-.116 0-.233.117-.233.117-.35.233-.7.233-1.05l11.084 2.567.583.816c0 .233-.117.467-.233.817Z" fill="#BA4343"/><path d="M35.283 24.753c4.084 1.866.7 6.532 1.4 12.13.117 1.4.35 2.8.467 4.2 0 .35.117.7.117.933 0 .35.116.583.116.933.117.583.117 1.166.234 1.75.233 2.1.466 3.499.466 3.499l.234 1.75c.35 3.149-1.867 6.065-5.017 6.532-3.15.35-6.067-1.867-6.533-5.016v-1.517c0-.583-.117-1.516-.117-2.566 0-.583-.117-1.166-.117-1.75v-.466c0-.117-.116-.35-.116-.466-.117-.35-.234-.584-.35-.933-.467-1.284-.817-2.567-1.284-3.966-1.75-5.366-3.616-10.732-3.616-10.732l-.117-.233a4.834 4.834 0 0 1-.35-1.866l2.683-6.182.117-.117c0-.117.117-.35.117-.466.583-2.683-.467-6.65-.467-6.65l6.883 1.75c-1.633.117-1.05 2.1-.116 4.083.116 0 .7 3.15 5.366 5.366Z" fill="#EC445A"/><path d="m66.2 83.424-7.467-5.599c-.116-.35-.233-.7-.35-1.166l-.35-1.517-.233-1.632-.467-3.15-.35-3.15-.466-3.149-.467-3.149L55 54.613c-.117-1.05-.933-1.866-2.1-2.1l-.35-.116-19.95-3.85c-.233 0-.467-.116-.7-.116-2.45 0-4.433 1.983-4.55 4.433 0 2.45 1.983 4.432 4.433 4.549l17.617.233c0 .467-.117.817-.117 1.283v1.633c0 .583.117 1.05.117 1.633.117.583.117 1.05.233 1.633.117.583.234 1.05.35 1.516.234 1.05.584 2.1.934 3.033.233.467.35 1.05.583 1.517.233.466.467 1.05.7 1.516l1.4 3.033.35.816.233.7c.234.467.35 1.05.584 1.516.233.467.35 1.05.35 1.517v.7c0 .35-.117.7-.233 1.05-.234.7.116 1.4.816 1.632l.583.234 8.867 3.032c.467.117 1.05 0 1.4-.466.35-.583.234-1.4-.35-1.75Zm-7.233-5.249c0-.116-.117-.233-.117-.233l1.283 1.633c-.583-.467-.933-.933-1.166-1.4Z" fill="#608CFF"/><path d="M66.433 85.174c-.35.467-.933.583-1.4.467l-8.866-3.033-.584-.233a1.26 1.26 0 0 1-.816-1.633c.116-.35.116-.7.233-1.05v-.7a3.23 3.23 0 0 0-.35-1.516 8.095 8.095 0 0 0-.583-1.517l-.234-.7 4.084-1.75.233 1.634.35 1.516c.117.35.233.7.35 1.167l7.467 5.598c.466.35.583 1.167.116 1.75Z" fill="#F0B481"/><path d="m61.3 14.605-8.75-5.716-1.983 20.296 7.35.933L61.3 14.605Z" fill="#FF6E54"/><path d="m46.717 13.205 14.583 1.4-3.617 20.412-11.433 1.516.467-23.328Z" fill="#EC445A"/><path d="m26.767 24.52 14.7 8.048-1.517-.117 14.583-2.916-.7.467 3.267-5.716c.467-.816 1.633-1.166 2.45-.7.817.467 1.167 1.633.7 2.45a.251.251 0 0 1-.233.233L55.7 31.285c-.117.233-.35.35-.583.466l-14 4.666c-.467.117-.934.117-1.284-.117l-.233-.116-15.167-6.882c-1.4-.583-1.983-2.216-1.4-3.616.584-1.4 2.217-1.983 3.617-1.4-.117.117 0 .233.117.233Z" fill="#F0B481"/><path d="M34.817 10.289c0 .816-.234 3.033-.35 3.383-.7 2.916-2.1 4.782-2.1 4.782s-5.367-.817-7.817-2.45c-1.867-1.283-3.267-3.032-3.383-5.132-.234-4.899.233-8.865 6.416-9.098 4.2-.117 5.834 1.633 6.65 4.316.35 1.283.467 2.683.584 4.199Z" fill="#E8B589"/><path d="M34.233 5.973c-3.266 0-5.25-.933-6.533 3.383-.7 2.1-.117 4.199-.233 6.415-.117 3.266-5.017 13.064-9.217 10.148 4.083-2.683 2.567-6.649 1.633-10.614-1.05-4.433-.466-11.781 3.734-14.58 3.033-2.1 11.9.582 10.616 5.248Z" fill="#523F2C"/><path d="M29.567 67.094s7.116 15.047-.467 16.797c-7.583 1.75-7.117 3.499 6.767 3.032 13.883-.466 13.416-1.983 5.833-3.266-7.467-1.283-6.3-14.23-3.267-15.746l-8.866-.817Z" fill="#000"/><path d="M48.7 56.48c-1.283-3.5-12.833-5.366-19.133-6.182-2.45-10.615-6.884-28.695-7.35-28.811-.817-.234-8.634-3.85-9.217 1.166l4.55 38.142C20.7 74.56 50.1 68.377 50.1 68.377s.35-7.115-1.4-11.897Z" fill="#A9A9A9"/><path d="M66.433 85.174c-.35.466-.933.583-1.75.35l-8.866-3.033-.234-.117a1.26 1.26 0 0 1-.816-1.633c.116-.35.116-.7.233-1.05 3.267 1.4 8.633 3.5 11.317 3.733.466.35.583 1.166.116 1.75Z" fill="#EC445A"/></svg>