<svg width="98" height="45" fill="none" xmlns="http://www.w3.org/2000/svg"><path d="M56.24 15.703c.642.206 1.144.551 1.508 1.037.363.475.545 1.064.545 1.766 0 .994-.385 1.76-1.155 2.3-.759.53-1.87.794-3.335.794h-5.805V10.26h5.484c1.368 0 2.416.265 3.143.794.738.53 1.107 1.247 1.107 2.155 0 .55-.134 1.042-.401 1.474-.257.432-.62.772-1.09 1.02Zm-5.66-3.466v2.672h2.581c.642 0 1.128-.113 1.46-.34.331-.227.497-.561.497-1.004 0-.443-.166-.772-.497-.988-.332-.227-.818-.34-1.46-.34H50.58Zm3.03 7.387c.684 0 1.198-.114 1.54-.34.353-.227.529-.578.529-1.053 0-.94-.69-1.41-2.069-1.41h-3.03v2.803h3.03Zm12.086 2.17c-1.165 0-2.218-.253-3.159-.76a5.71 5.71 0 0 1-2.197-2.09c-.524-.897-.786-1.901-.786-3.014 0-1.112.262-2.111.786-2.997a5.673 5.673 0 0 1 2.197-2.106c.94-.508 1.994-.761 3.16-.761 1.165 0 2.212.253 3.142.761a5.673 5.673 0 0 1 2.197 2.106c.535.886.802 1.885.802 2.997 0 1.113-.267 2.117-.802 3.013a5.71 5.71 0 0 1-2.197 2.09c-.93.508-1.977.761-3.143.761Zm0-2.235c.663 0 1.262-.151 1.796-.454a3.299 3.299 0 0 0 1.251-1.296c.31-.55.465-1.177.465-1.879s-.155-1.328-.465-1.88c-.3-.55-.716-.977-1.25-1.279a3.487 3.487 0 0 0-1.797-.47c-.663 0-1.261.157-1.796.47a3.297 3.297 0 0 0-1.267 1.28c-.3.55-.449 1.177-.449 1.88 0 .701.15 1.328.45 1.878.31.551.732.983 1.266 1.296a3.583 3.583 0 0 0 1.796.454Zm8.094-9.299h5.1c1.219 0 2.293.238 3.223.713.941.464 1.668 1.123 2.181 1.976.524.854.786 1.847.786 2.981s-.262 2.128-.786 2.98c-.513.854-1.24 1.518-2.18 1.994-.93.464-2.005.696-3.224.696h-5.1V10.26Zm4.972 9.185c1.122 0 2.015-.313 2.678-.94.673-.636 1.01-1.495 1.01-2.575s-.337-1.933-1.01-2.56c-.663-.637-1.556-.955-2.678-.955h-2.374v7.03h2.374Zm13.18-1.863V21.6h-2.598v-4.05l-4.346-7.29h2.758l3 5.038 2.998-5.038h2.55l-4.362 7.322ZM52.857 26.46c.994 0 1.854.168 2.581.502.738.335 1.305.81 1.7 1.426.396.615.594 1.345.594 2.187 0 .832-.198 1.56-.594 2.187-.395.615-.962 1.09-1.7 1.425-.727.325-1.587.486-2.581.486h-2.262V37.8h-2.597V26.46h4.859Zm-.145 6.075c.78 0 1.374-.167 1.78-.502.407-.346.61-.832.61-1.458 0-.637-.203-1.123-.61-1.458-.406-.346-1-.518-1.78-.518h-2.117v3.936h2.117Zm6.874-6.075h2.598v9.202h5.629V37.8h-8.227V26.46Zm17.165 8.91H71.54l-.994 2.43h-2.662l5.004-11.34h2.565l5.02 11.34h-2.726l-.995-2.43Zm-.818-1.992-1.78-4.342-1.78 4.341h3.56Zm15.999-6.918V37.8h-2.133l-5.597-6.885V37.8h-2.566V26.46h2.15l5.58 6.885V26.46h2.566Z" fill="#000"/><path d="M34.258 0H8.909C3.99 0 0 4.03 0 9v25.607c0 4.97 3.989 9 8.91 9h25.348c4.92 0 8.909-4.03 8.909-9V9c0-4.97-3.989-9-8.91-9Z" fill="#F64E4F"/><path d="m19.341 30.6-.021-9.072-4.405 7.474h-1.56l-4.384-7.28V30.6h-3.25V15.48h2.865l5.602 9.396 5.517-9.396h2.844l.042 15.12h-3.25Zm13.986-5.357V30.6h-3.464v-5.4l-5.794-9.72h3.677l3.999 6.718 3.998-6.718h3.4l-5.816 9.763Z" fill="#fff"/></svg>