<svg width="251" height="45" viewBox="0 0 251 45" fill="none" xmlns="http://www.w3.org/2000/svg">
<path d="M20.8081 5C16.9116 15.4648 25.521 15.8359 30.268 22.4902C33.5738 27.1243 34.1304 37.3223 22.2183 39.9941C27.228 37.3594 28.3042 29.7148 22.8862 24.9277C24.2851 29.5703 21.7147 32.546 18.4831 31.4535C15.3159 30.3828 13.2581 32.6574 13.312 35.2441C13.3491 37.0254 13.9058 38.3984 15.8726 39.4004C15.8726 39.4004 4.99953 37.3223 4.99953 26.709C4.99953 20.252 10.7515 19.3567 7.85695 13.9434C11.3081 14.2402 12.4997 16.4957 12.1616 20.2148C11.939 22.6641 14.4995 24.3463 16.3921 23.2214C17.9294 22.3077 17.8765 20.5071 16.5405 19.1758C13.6962 16.3413 12.5698 9.86133 20.8081 5Z" fill="#fff"/>
<path d="M56.796 33.2986C54.6862 33.2986 52.7754 32.8408 51.0637 31.9252C49.3719 30.9897 48.0384 29.706 47.0631 28.0739C46.1077 26.4418 45.63 24.6007 45.63 22.5506C45.63 20.5005 46.1177 18.6594 47.093 17.0273C48.0682 15.3953 49.4018 14.1214 51.0936 13.2059C52.8053 12.2704 54.716 11.8026 56.8258 11.8026C58.5375 11.8026 60.1 12.1012 61.5131 12.6983C62.9263 13.2954 64.1205 14.1612 65.0958 15.2957L62.5879 17.6543C61.0753 16.0222 59.2143 15.2062 57.005 15.2062C55.5719 15.2062 54.2881 15.5246 53.1536 16.1615C52.0191 16.7786 51.1334 17.6444 50.4965 18.759C49.8596 19.8736 49.5411 21.1374 49.5411 22.5506C49.5411 23.9638 49.8596 25.2276 50.4965 26.3422C51.1334 27.4568 52.0191 28.3326 53.1536 28.9695C54.2881 29.5865 55.5719 29.895 57.005 29.895C59.2143 29.895 61.0753 29.069 62.5879 27.417L65.0958 29.8055C64.1205 30.94 62.9163 31.8058 61.4833 32.4029C60.0701 33 58.5077 33.2986 56.796 33.2986ZM74.5469 16.8781C76.8955 16.8781 78.6868 17.4453 79.9209 18.5798C81.1748 19.6944 81.8018 21.3862 81.8018 23.6553V33H78.2788V31.0594C77.821 31.756 77.1642 32.2934 76.3084 32.6716C75.4724 33.0299 74.4573 33.209 73.2631 33.209C72.0689 33.209 71.0239 33.01 70.1283 32.6119C69.2326 32.1939 68.536 31.6267 68.0384 30.9101C67.5607 30.1737 67.3219 29.3477 67.3219 28.4321C67.3219 26.9991 67.8493 25.8546 68.9042 24.9987C69.979 24.123 71.6609 23.6851 73.9498 23.6851H78.0698V23.4463C78.0698 22.3317 77.7315 21.4758 77.0547 20.8787C76.3979 20.2816 75.4127 19.983 74.0991 19.983C73.2034 19.983 72.3177 20.1224 71.4419 20.401C70.5861 20.6797 69.8596 21.0678 69.2625 21.5654L67.7996 18.8485C68.6355 18.2116 69.6406 17.724 70.815 17.3856C71.9893 17.0473 73.2333 16.8781 74.5469 16.8781ZM74.0393 30.4921C74.9748 30.4921 75.8008 30.2832 76.5173 29.8652C77.2538 29.4273 77.7713 28.8103 78.0698 28.0141V26.1631H74.2185C72.0689 26.1631 70.9941 26.8697 70.9941 28.2828C70.9941 28.9596 71.2628 29.497 71.8002 29.895C72.3376 30.2931 73.084 30.4921 74.0393 30.4921ZM86.5912 10.8473H90.3231V33H86.5912V10.8473ZM102.387 33.209C100.774 33.209 99.3214 32.8607 98.0277 32.164C96.734 31.4674 95.7189 30.5021 94.9825 29.2681C94.2659 28.0141 93.9077 26.601 93.9077 25.0286C93.9077 23.4562 94.2659 22.053 94.9825 20.819C95.7189 19.585 96.734 18.6196 98.0277 17.923C99.3214 17.2264 100.774 16.8781 102.387 16.8781C104.019 16.8781 105.482 17.2264 106.775 17.923C108.069 18.6196 109.074 19.585 109.791 20.819C110.527 22.053 110.895 23.4562 110.895 25.0286C110.895 26.601 110.527 28.0141 109.791 29.2681C109.074 30.5021 108.069 31.4674 106.775 32.164C105.482 32.8607 104.019 33.209 102.387 33.209ZM102.387 30.0145C103.76 30.0145 104.894 29.5567 105.79 28.6411C106.686 27.7255 107.134 26.5214 107.134 25.0286C107.134 23.5358 106.686 22.3317 105.79 21.4161C104.894 20.5005 103.76 20.0427 102.387 20.0427C101.013 20.0427 99.8787 20.5005 98.9831 21.4161C98.1073 22.3317 97.6694 23.5358 97.6694 25.0286C97.6694 26.5214 98.1073 27.7255 98.9831 28.6411C99.8787 29.5567 101.013 30.0145 102.387 30.0145ZM118.017 19.3859C119.092 17.714 120.982 16.8781 123.689 16.8781V20.4309C123.371 20.3712 123.082 20.3413 122.824 20.3413C121.371 20.3413 120.236 20.7692 119.42 21.6251C118.604 22.461 118.196 23.6752 118.196 25.2674V33H114.464V17.0572H118.017V19.3859ZM126.855 17.0572H130.587V33H126.855V17.0572ZM128.736 14.4299C128.059 14.4299 127.492 14.2209 127.034 13.803C126.577 13.3651 126.348 12.8277 126.348 12.1908C126.348 11.5539 126.577 11.0264 127.034 10.6084C127.492 10.1706 128.059 9.95161 128.736 9.95161C129.413 9.95161 129.98 10.1606 130.438 10.5786C130.896 10.9766 131.125 11.4842 131.125 12.1012C131.125 12.758 130.896 13.3153 130.438 13.7731C130 14.211 129.433 14.4299 128.736 14.4299ZM150.473 25.1182C150.473 25.3769 150.453 25.7451 150.413 26.2228H137.904C138.123 27.3971 138.69 28.3326 139.605 29.0292C140.541 29.706 141.695 30.0443 143.069 30.0443C144.82 30.0443 146.263 29.4671 147.398 28.3127L149.398 30.6116C148.681 31.4674 147.776 32.1143 146.681 32.5522C145.586 32.99 144.352 33.209 142.979 33.209C141.228 33.209 139.685 32.8607 138.351 32.164C137.018 31.4674 135.983 30.5021 135.246 29.2681C134.53 28.0141 134.172 26.601 134.172 25.0286C134.172 23.4761 134.52 22.0829 135.217 20.8488C135.933 19.5949 136.918 18.6196 138.172 17.923C139.426 17.2264 140.839 16.8781 142.412 16.8781C143.964 16.8781 145.348 17.2264 146.562 17.923C147.796 18.5997 148.751 19.5651 149.428 20.819C150.124 22.053 150.473 23.4861 150.473 25.1182ZM142.412 19.8636C141.218 19.8636 140.202 20.2219 139.367 20.9384C138.55 21.635 138.053 22.5705 137.874 23.7448H146.92C146.761 22.5904 146.273 21.6549 145.457 20.9384C144.641 20.2219 143.626 19.8636 142.412 19.8636ZM158.984 33.209C157.69 33.209 156.426 33.0398 155.192 32.7014C153.958 32.3631 152.973 31.9352 152.236 31.4177L153.669 28.5814C154.386 29.0591 155.242 29.4472 156.237 29.7458C157.252 30.0244 158.247 30.1637 159.222 30.1637C161.452 30.1637 162.566 29.5766 162.566 28.4023C162.566 27.845 162.278 27.4568 161.7 27.2379C161.143 27.019 160.238 26.81 158.984 26.6109C157.67 26.4119 156.595 26.183 155.759 25.9243C154.943 25.6655 154.227 25.2177 153.61 24.5808C153.013 23.924 152.714 23.0183 152.714 21.8639C152.714 20.3513 153.341 19.1471 154.595 18.2514C155.869 17.3359 157.58 16.8781 159.73 16.8781C160.825 16.8781 161.919 17.0074 163.014 17.2662C164.109 17.505 165.004 17.8334 165.701 18.2514L164.268 21.0877C162.915 20.2915 161.392 19.8935 159.7 19.8935C158.605 19.8935 157.769 20.0626 157.192 20.401C156.635 20.7195 156.356 21.1474 156.356 21.6848C156.356 22.2819 156.655 22.7098 157.252 22.9686C157.869 23.2074 158.814 23.4363 160.088 23.6553C161.362 23.8543 162.407 24.0832 163.223 24.3419C164.039 24.6007 164.736 25.0386 165.313 25.6556C165.91 26.2726 166.209 27.1483 166.209 28.2828C166.209 29.7756 165.562 30.9698 164.268 31.8655C162.974 32.7612 161.213 33.209 158.984 33.209Z" fill="white"/>
<path d="M173.662 15.3554V21.7146H183.753V24.9987H173.662V33H169.781V12.1012H185.037V15.3554H173.662ZM195.597 33.209C193.985 33.209 192.532 32.8607 191.238 32.164C189.945 31.4674 188.93 30.5021 188.193 29.2681C187.477 28.0141 187.118 26.601 187.118 25.0286C187.118 23.4562 187.477 22.053 188.193 20.819C188.93 19.585 189.945 18.6196 191.238 17.923C192.532 17.2264 193.985 16.8781 195.597 16.8781C197.229 16.8781 198.692 17.2264 199.986 17.923C201.28 18.6196 202.285 19.585 203.001 20.819C203.738 22.053 204.106 23.4562 204.106 25.0286C204.106 26.601 203.738 28.0141 203.001 29.2681C202.285 30.5021 201.28 31.4674 199.986 32.164C198.692 32.8607 197.229 33.209 195.597 33.209ZM195.597 30.0145C196.971 30.0145 198.105 29.5567 199.001 28.6411C199.897 27.7255 200.344 26.5214 200.344 25.0286C200.344 23.5358 199.897 22.3317 199.001 21.4161C198.105 20.5005 196.971 20.0427 195.597 20.0427C194.224 20.0427 193.089 20.5005 192.194 21.4161C191.318 22.3317 190.88 23.5358 190.88 25.0286C190.88 26.5214 191.318 27.7255 192.194 28.6411C193.089 29.5567 194.224 30.0145 195.597 30.0145ZM214.84 33.209C213.228 33.209 211.775 32.8607 210.481 32.164C209.187 31.4674 208.172 30.5021 207.436 29.2681C206.719 28.0141 206.361 26.601 206.361 25.0286C206.361 23.4562 206.719 22.053 207.436 20.819C208.172 19.585 209.187 18.6196 210.481 17.923C211.775 17.2264 213.228 16.8781 214.84 16.8781C216.472 16.8781 217.935 17.2264 219.229 17.923C220.523 18.6196 221.528 19.585 222.244 20.819C222.981 22.053 223.349 23.4562 223.349 25.0286C223.349 26.601 222.981 28.0141 222.244 29.2681C221.528 30.5021 220.523 31.4674 219.229 32.164C217.935 32.8607 216.472 33.209 214.84 33.209ZM214.84 30.0145C216.213 30.0145 217.348 29.5567 218.244 28.6411C219.139 27.7255 219.587 26.5214 219.587 25.0286C219.587 23.5358 219.139 22.3317 218.244 21.4161C217.348 20.5005 216.213 20.0427 214.84 20.0427C213.467 20.0427 212.332 20.5005 211.437 21.4161C210.561 22.3317 210.123 23.5358 210.123 25.0286C210.123 26.5214 210.561 27.7255 211.437 28.6411C212.332 29.5567 213.467 30.0145 214.84 30.0145ZM242.532 10.8473V33H238.949V30.94C238.332 31.6963 237.566 32.2636 236.65 32.6417C235.755 33.0199 234.76 33.209 233.665 33.209C232.132 33.209 230.749 32.8706 229.515 32.1939C228.301 31.5172 227.345 30.5618 226.649 29.3278C225.952 28.0739 225.604 26.6408 225.604 25.0286C225.604 23.4164 225.952 21.9933 226.649 20.7593C227.345 19.5253 228.301 18.5699 229.515 17.8932C230.749 17.2164 232.132 16.8781 233.665 16.8781C234.72 16.8781 235.685 17.0572 236.561 17.4155C237.437 17.7737 238.183 18.3111 238.8 19.0277V10.8473H242.532ZM234.113 30.0145C235.008 30.0145 235.814 29.8154 236.531 29.4173C237.248 28.9994 237.815 28.4122 238.233 27.6559C238.651 26.8995 238.86 26.0238 238.86 25.0286C238.86 24.0334 238.651 23.1577 238.233 22.4013C237.815 21.645 237.248 21.0678 236.531 20.6697C235.814 20.2517 235.008 20.0427 234.113 20.0427C233.217 20.0427 232.411 20.2517 231.694 20.6697C230.978 21.0678 230.411 21.645 229.993 22.4013C229.575 23.1577 229.366 24.0334 229.366 25.0286C229.366 26.0238 229.575 26.8995 229.993 27.6559C230.411 28.4122 230.978 28.9994 231.694 29.4173C232.411 29.8154 233.217 30.0145 234.113 30.0145Z" fill="#000"/>
</svg>
