<svg width="178" height="82" fill="none" xmlns="http://www.w3.org/2000/svg"><path d="M102.151 28.616c1.165.374 2.077 1.004 2.738 1.89.66.865.99 1.938.99 3.217 0 1.81-.699 3.208-2.097 4.192-1.379.964-3.398 1.446-6.059 1.446H87.18V18.697h9.962c2.485 0 4.388.482 5.709 1.447 1.34.964 2.009 2.273 2.009 3.926 0 1.004-.242 1.899-.728 2.686-.466.787-1.126 1.407-1.98 1.86Zm-10.282-6.317v4.87h4.69c1.164 0 2.048-.206 2.65-.62.602-.413.903-1.023.903-1.83 0-.806-.301-1.407-.903-1.8-.602-.414-1.486-.62-2.65-.62h-4.69Zm5.505 13.46c1.243 0 2.175-.206 2.796-.62.641-.412.961-1.052.961-1.918 0-1.712-1.252-2.568-3.757-2.568h-5.505v5.107h5.505Zm21.952 3.956c-2.117 0-4.03-.462-5.738-1.387-1.69-.925-3.02-2.194-3.991-3.808-.951-1.634-1.427-3.464-1.427-5.49 0-2.028.476-3.848 1.427-5.462a10.315 10.315 0 0 1 3.991-3.838c1.708-.925 3.621-1.387 5.738-1.387 2.116 0 4.019.462 5.709 1.387a10.32 10.32 0 0 1 3.99 3.838c.971 1.614 1.456 3.434 1.456 5.461s-.485 3.857-1.456 5.491c-.971 1.614-2.301 2.883-3.99 3.808-1.69.925-3.593 1.387-5.709 1.387Zm0-4.073c1.204 0 2.291-.276 3.262-.827a6.002 6.002 0 0 0 2.272-2.361c.563-1.004.845-2.146.845-3.425s-.282-2.42-.845-3.424a5.8 5.8 0 0 0-2.272-2.332c-.971-.57-2.058-.856-3.262-.856-1.204 0-2.292.285-3.263.856a6.002 6.002 0 0 0-2.301 2.332c-.543 1.004-.815 2.145-.815 3.424 0 1.28.272 2.42.815 3.425a6.215 6.215 0 0 0 2.301 2.361c.971.551 2.059.827 3.263.827Zm14.701-16.945h9.263c2.214 0 4.165.433 5.855 1.3 1.708.845 3.029 2.046 3.961 3.6.951 1.555 1.427 3.366 1.427 5.432 0 2.067-.476 3.877-1.427 5.432-.932 1.555-2.253 2.765-3.961 3.63-1.69.847-3.641 1.27-5.855 1.27h-9.263V18.697Zm9.03 16.738c2.039 0 3.66-.57 4.864-1.712 1.224-1.161 1.835-2.726 1.835-4.694s-.611-3.523-1.835-4.664c-1.204-1.161-2.825-1.742-4.864-1.742h-4.311v12.812h4.311Zm23.94-3.395v7.321h-4.719v-7.38l-7.893-13.284h5.009l5.447 9.181 5.447-9.18h4.631l-7.922 13.342ZM96.005 48.217c1.806 0 3.369.305 4.689.915 1.34.61 2.369 1.476 3.088 2.598.718 1.122 1.077 2.45 1.077 3.985 0 1.516-.359 2.844-1.077 3.985-.719 1.122-1.748 1.988-3.088 2.598-1.32.59-2.883.886-4.69.886h-4.106v5.697h-4.719V48.217h8.826Zm-.262 11.07c1.417 0 2.495-.305 3.233-.915.738-.63 1.107-1.515 1.107-2.657 0-1.16-.37-2.046-1.107-2.657-.738-.63-1.816-.944-3.233-.944h-3.845v7.173h3.845Zm12.485-11.07h4.719v16.768h10.223v3.896h-14.942V48.217Zm31.177 16.236h-9.466l-1.806 4.428h-4.835l9.088-20.664h4.66l9.117 20.664h-4.952l-1.806-4.428Zm-1.485-3.63-3.233-7.912-3.233 7.911h6.466Zm29.058-12.606v20.664h-3.874l-10.165-12.546v12.546h-4.661V48.217h3.903l10.137 12.546V48.217h4.66Z" fill="#fff"/><path d="M62.223 0H16.182C7.245 0 0 7.343 0 16.4v46.662c0 9.057 7.245 16.4 16.182 16.4h46.041c8.937 0 16.182-7.343 16.182-16.4V16.4C78.405 7.343 71.16 0 62.223 0Z" fill="#F64E4F"/><path d="m35.13 55.76-.039-16.53-8 13.618h-2.835l-7.961-13.264V55.76h-5.903V28.209h5.204L25.77 45.33l10.02-17.12h5.165l.077 27.552H35.13ZM60.532 46v9.76h-6.291v-9.84L43.716 28.21h6.68l7.263 12.24 7.262-12.24h6.175L60.532 46Z" fill="#fff"/></svg>