<svg width="516" height="476" viewBox="0 0 516 476" fill="none" xmlns="http://www.w3.org/2000/svg">
<g clip-path="url(#clip0)">
<path d="M22.1143 420V169.474H110.231C178.306 174.197 215.896 179.32 278.13 209.03C327.583 245.895 356.218 264.922 394.371 316.105C440.074 346.88 473.983 362.526 517.474 346.88V420H22.1143Z" fill="url(#paint0_linear)"/>
<line x1="20.6401" y1="170.447" x2="504.206" y2="170.447" stroke="#E6564F" stroke-dasharray="5 5"/>
<g filter="url(#filter0_d)">
<path d="M39.3059 171.684C39.3059 181.582 31.2792 189.605 21.3773 189.605C11.4754 189.605 3.44873 181.582 3.44873 171.684C3.44873 161.787 11.4754 153.763 21.3773 153.763C31.2792 153.763 39.3059 161.787 39.3059 171.684Z" stroke="#EC445A"/>
</g>
<ellipse cx="21.3795" cy="171.684" rx="12.2857" ry="12.2807" fill="#EC445A"/>
<path d="M517.205 52.3926L517.474 52.5005V169.474H390L402.623 135L424.5 79.5C434.083 64.0263 441.786 53.1491 462.189 43.474C484.656 39.3194 496.729 44.1683 517.205 52.3926Z" fill="#FFB4AF" stroke="#FFB4AF"/>
<path d="M518.211 52.3154C368.168 -18.6184 448.354 262.783 236.735 337.964C207.968 348.184 178.369 329.212 169.479 300.005L156.013 255.76L136.913 209.017C127.538 186.076 105.216 171.083 80.4331 171.083L23.5761 171.082" stroke="#E75951"/>
<path d="M21.0217 458.555V462.091H19.9177V459.579H10.1417L10.1257 462.091H9.0217L9.0377 458.555H9.5977C10.3337 458.512 10.8457 457.931 11.1337 456.811C11.4217 455.68 11.5977 454.08 11.6617 452.011L11.7897 448.379H19.3417V458.555H21.0217ZM12.7177 452.123C12.6644 453.83 12.531 455.238 12.3177 456.347C12.115 457.446 11.7684 458.182 11.2777 458.555H18.1737V449.403H12.8137L12.7177 452.123ZM30.2905 455.723H23.2505C23.3145 456.598 23.6505 457.307 24.2585 457.851C24.8665 458.384 25.6345 458.651 26.5625 458.651C27.0851 458.651 27.5651 458.56 28.0025 458.379C28.4398 458.187 28.8185 457.91 29.1385 457.547L29.7785 458.283C29.4051 458.731 28.9358 459.072 28.3705 459.307C27.8158 459.542 27.2025 459.659 26.5305 459.659C25.6665 459.659 24.8985 459.478 24.2265 459.115C23.5651 458.742 23.0478 458.23 22.6745 457.579C22.3011 456.928 22.1145 456.192 22.1145 455.371C22.1145 454.55 22.2905 453.814 22.6425 453.163C23.0051 452.512 23.4958 452.006 24.1145 451.643C24.7438 451.28 25.4478 451.099 26.2265 451.099C27.0051 451.099 27.7038 451.28 28.3225 451.643C28.9411 452.006 29.4265 452.512 29.7785 453.163C30.1305 453.803 30.3065 454.539 30.3065 455.371L30.2905 455.723ZM26.2265 452.075C25.4158 452.075 24.7331 452.336 24.1785 452.859C23.6345 453.371 23.3251 454.043 23.2505 454.875H29.2185C29.1438 454.043 28.8291 453.371 28.2745 452.859C27.7305 452.336 27.0478 452.075 26.2265 452.075ZM32.8211 451.163H33.9571V454.891H39.2531V451.163H40.3891V459.579H39.2531V455.867H33.9571V459.579H32.8211V451.163ZM47.234 454.139C48.29 454.15 49.09 454.384 49.634 454.843C50.1886 455.302 50.466 455.963 50.466 456.827C50.466 457.723 50.1673 458.411 49.57 458.891C48.9833 459.371 48.13 459.606 47.01 459.595L43.618 459.579V451.163H44.754V454.107L47.234 454.139ZM46.946 458.731C47.7246 458.742 48.3113 458.587 48.706 458.267C49.1113 457.936 49.314 457.456 49.314 456.827C49.314 456.208 49.1166 455.75 48.722 455.451C48.3273 455.152 47.7353 454.998 46.946 454.987L44.754 454.955V458.699L46.946 458.731ZM59.1411 448.379V459.579H57.9891V449.403H55.3491V448.379H59.1411Z" fill="black"/>
<path d="M205.176 458.555V462.091H204.072V459.579H194.296L194.28 462.091H193.176L193.192 458.555H193.752C194.488 458.512 195 457.931 195.288 456.811C195.576 455.68 195.752 454.08 195.816 452.011L195.944 448.379H203.496V458.555H205.176ZM196.872 452.123C196.819 453.83 196.685 455.238 196.472 456.347C196.269 457.446 195.923 458.182 195.432 458.555H202.328V449.403H196.968L196.872 452.123ZM214.445 455.723H207.405C207.469 456.598 207.805 457.307 208.413 457.851C209.021 458.384 209.789 458.651 210.717 458.651C211.239 458.651 211.719 458.56 212.157 458.379C212.594 458.187 212.973 457.91 213.293 457.547L213.933 458.283C213.559 458.731 213.09 459.072 212.525 459.307C211.97 459.542 211.357 459.659 210.685 459.659C209.821 459.659 209.053 459.478 208.381 459.115C207.719 458.742 207.202 458.23 206.829 457.579C206.455 456.928 206.269 456.192 206.269 455.371C206.269 454.55 206.445 453.814 206.797 453.163C207.159 452.512 207.65 452.006 208.269 451.643C208.898 451.28 209.602 451.099 210.381 451.099C211.159 451.099 211.858 451.28 212.477 451.643C213.095 452.006 213.581 452.512 213.933 453.163C214.285 453.803 214.461 454.539 214.461 455.371L214.445 455.723ZM210.381 452.075C209.57 452.075 208.887 452.336 208.333 452.859C207.789 453.371 207.479 454.043 207.405 454.875H213.373C213.298 454.043 212.983 453.371 212.429 452.859C211.885 452.336 211.202 452.075 210.381 452.075ZM216.975 451.163H218.111V454.891H223.407V451.163H224.543V459.579H223.407V455.867H218.111V459.579H216.975V451.163ZM231.388 454.139C232.444 454.15 233.244 454.384 233.788 454.843C234.343 455.302 234.62 455.963 234.62 456.827C234.62 457.723 234.322 458.411 233.724 458.891C233.138 459.371 232.284 459.606 231.164 459.595L227.772 459.579V451.163H228.908V454.107L231.388 454.139ZM231.1 458.731C231.879 458.742 232.466 458.587 232.86 458.267C233.266 457.936 233.468 457.456 233.468 456.827C233.468 456.208 233.271 455.75 232.876 455.451C232.482 455.152 231.89 454.998 231.1 454.987L228.908 454.955V458.699L231.1 458.731ZM247.839 458.555V459.579H239.983V458.763L244.639 454.203C245.226 453.627 245.621 453.131 245.823 452.715C246.037 452.288 246.143 451.862 246.143 451.435C246.143 450.774 245.914 450.262 245.455 449.899C245.007 449.526 244.362 449.339 243.519 449.339C242.207 449.339 241.189 449.755 240.463 450.587L239.647 449.883C240.085 449.371 240.639 448.976 241.311 448.699C241.994 448.422 242.762 448.283 243.615 448.283C244.757 448.283 245.658 448.555 246.319 449.099C246.991 449.632 247.327 450.368 247.327 451.307C247.327 451.883 247.199 452.438 246.943 452.971C246.687 453.504 246.202 454.118 245.487 454.811L241.679 458.555H247.839ZM255.701 453.707C256.405 453.942 256.944 454.294 257.317 454.763C257.701 455.232 257.893 455.798 257.893 456.459C257.893 457.11 257.717 457.68 257.365 458.171C257.013 458.651 256.506 459.024 255.845 459.291C255.194 459.547 254.426 459.675 253.541 459.675C252.197 459.675 251.141 459.387 250.373 458.811C249.605 458.235 249.221 457.451 249.221 456.459C249.221 455.787 249.402 455.222 249.765 454.763C250.138 454.294 250.677 453.942 251.381 453.707C250.805 453.483 250.368 453.163 250.069 452.747C249.77 452.32 249.621 451.819 249.621 451.243C249.621 450.336 249.973 449.616 250.677 449.083C251.392 448.55 252.346 448.283 253.541 448.283C254.33 448.283 255.018 448.406 255.605 448.651C256.202 448.886 256.666 449.227 256.997 449.675C257.328 450.123 257.493 450.646 257.493 451.243C257.493 451.819 257.338 452.32 257.029 452.747C256.72 453.163 256.277 453.483 255.701 453.707ZM250.773 451.275C250.773 451.894 251.018 452.384 251.509 452.747C252 453.11 252.677 453.291 253.541 453.291C254.405 453.291 255.082 453.11 255.573 452.747C256.074 452.384 256.325 451.899 256.325 451.291C256.325 450.662 256.069 450.166 255.557 449.803C255.056 449.44 254.384 449.259 253.541 449.259C252.688 449.259 252.01 449.44 251.509 449.803C251.018 450.166 250.773 450.656 250.773 451.275ZM253.541 458.699C254.533 458.699 255.306 458.496 255.861 458.091C256.426 457.686 256.709 457.136 256.709 456.443C256.709 455.75 256.426 455.206 255.861 454.811C255.306 454.406 254.533 454.203 253.541 454.203C252.56 454.203 251.786 454.406 251.221 454.811C250.666 455.206 250.389 455.75 250.389 456.443C250.389 457.147 250.666 457.702 251.221 458.107C251.776 458.502 252.549 458.699 253.541 458.699Z" fill="black"/>
<path d="M438.244 458.555V462.091H437.14V459.579H427.364L427.348 462.091H426.244L426.26 458.555H426.82C427.556 458.512 428.068 457.931 428.356 456.811C428.644 455.68 428.82 454.08 428.884 452.011L429.012 448.379H436.564V458.555H438.244ZM429.94 452.123C429.887 453.83 429.754 455.238 429.54 456.347C429.338 457.446 428.991 458.182 428.5 458.555H435.396V449.403H430.036L429.94 452.123ZM447.513 455.723H440.473C440.537 456.598 440.873 457.307 441.481 457.851C442.089 458.384 442.857 458.651 443.785 458.651C444.308 458.651 444.788 458.56 445.225 458.379C445.662 458.187 446.041 457.91 446.361 457.547L447.001 458.283C446.628 458.731 446.158 459.072 445.593 459.307C445.038 459.542 444.425 459.659 443.753 459.659C442.889 459.659 442.121 459.478 441.449 459.115C440.788 458.742 440.27 458.23 439.897 457.579C439.524 456.928 439.337 456.192 439.337 455.371C439.337 454.55 439.513 453.814 439.865 453.163C440.228 452.512 440.718 452.006 441.337 451.643C441.966 451.28 442.67 451.099 443.449 451.099C444.228 451.099 444.926 451.28 445.545 451.643C446.164 452.006 446.649 452.512 447.001 453.163C447.353 453.803 447.529 454.539 447.529 455.371L447.513 455.723ZM443.449 452.075C442.638 452.075 441.956 452.336 441.401 452.859C440.857 453.371 440.548 454.043 440.473 454.875H446.441C446.366 454.043 446.052 453.371 445.497 452.859C444.953 452.336 444.27 452.075 443.449 452.075ZM450.044 451.163H451.18V454.891H456.476V451.163H457.612V459.579H456.476V455.867H451.18V459.579H450.044V451.163ZM464.457 454.139C465.513 454.15 466.313 454.384 466.857 454.843C467.411 455.302 467.689 455.963 467.689 456.827C467.689 457.723 467.39 458.411 466.793 458.891C466.206 459.371 465.353 459.606 464.233 459.595L460.841 459.579V451.163H461.977V454.107L464.457 454.139ZM464.169 458.731C464.947 458.742 465.534 458.587 465.929 458.267C466.334 457.936 466.537 457.456 466.537 456.827C466.537 456.208 466.339 455.75 465.945 455.451C465.55 455.152 464.958 454.998 464.169 454.987L461.977 454.955V458.699L464.169 458.731ZM477.9 452.875C478.636 452.875 479.286 453.014 479.852 453.291C480.428 453.568 480.876 453.963 481.196 454.475C481.516 454.976 481.676 455.563 481.676 456.235C481.676 456.918 481.51 457.52 481.18 458.043C480.849 458.566 480.39 458.971 479.804 459.259C479.228 459.536 478.577 459.675 477.852 459.675C476.369 459.675 475.233 459.19 474.444 458.219C473.654 457.238 473.26 455.856 473.26 454.075C473.26 452.827 473.473 451.771 473.9 450.907C474.326 450.043 474.924 449.392 475.692 448.955C476.46 448.507 477.356 448.283 478.38 448.283C479.489 448.283 480.374 448.486 481.036 448.891L480.572 449.819C480.038 449.467 479.313 449.291 478.396 449.291C477.158 449.291 476.188 449.686 475.484 450.475C474.78 451.254 474.428 452.39 474.428 453.883C474.428 454.15 474.444 454.454 474.476 454.795C474.753 454.187 475.196 453.718 475.804 453.387C476.412 453.046 477.11 452.875 477.9 452.875ZM477.804 458.699C478.614 458.699 479.27 458.48 479.772 458.043C480.284 457.595 480.54 457.003 480.54 456.267C480.54 455.531 480.284 454.944 479.772 454.507C479.27 454.07 478.588 453.851 477.724 453.851C477.158 453.851 476.657 453.958 476.22 454.171C475.793 454.384 475.457 454.678 475.212 455.051C474.966 455.424 474.844 455.84 474.844 456.299C474.844 456.726 474.956 457.12 475.18 457.483C475.414 457.846 475.756 458.139 476.204 458.363C476.652 458.587 477.185 458.699 477.804 458.699ZM492.53 456.635H490.29V459.579H489.138V456.635H482.818V455.803L488.754 448.379H490.034L484.306 455.611H489.17V453.019H490.29V455.611H492.53V456.635Z" fill="black"/>
<path d="M23.1612 172.659C417.19 148.054 338.062 386.478 517.474 348.526" stroke="#EC445A" stroke-width="4"/>
<path d="M9.528 126.224C10.3067 126.384 10.8987 126.699 11.304 127.168C11.7093 127.627 11.912 128.229 11.912 128.976C11.912 129.947 11.5653 130.693 10.872 131.216C10.1893 131.739 9.18133 132 7.848 132H2.888V120.8H7.544C8.73867 120.8 9.672 121.045 10.344 121.536C11.016 122.027 11.352 122.736 11.352 123.664C11.352 124.293 11.192 124.827 10.872 125.264C10.552 125.691 10.104 126.011 9.528 126.224ZM4.056 125.872H7.48C8.344 125.872 9.00533 125.696 9.464 125.344C9.93333 124.992 10.168 124.48 10.168 123.808C10.168 123.136 9.93333 122.624 9.464 122.272C9.00533 121.92 8.344 121.744 7.48 121.744H4.056V125.872ZM7.848 131.056C9.77867 131.056 10.744 130.336 10.744 128.896C10.744 127.488 9.77867 126.784 7.848 126.784H4.056V131.056H7.848ZM22.7924 130.976V132H14.8724V120.8H22.5524V121.824H16.0564V125.808H21.8484V126.816H16.0564V130.976H22.7924ZM30.2528 132.096C29.1434 132.096 28.1408 131.851 27.2448 131.36C26.3594 130.869 25.6608 130.192 25.1488 129.328C24.6474 128.453 24.3968 127.477 24.3968 126.4C24.3968 125.323 24.6474 124.352 25.1488 123.488C25.6608 122.613 26.3648 121.931 27.2608 121.44C28.1568 120.949 29.1594 120.704 30.2688 120.704C31.1008 120.704 31.8688 120.843 32.5728 121.12C33.2768 121.397 33.8741 121.803 34.3648 122.336L33.6128 123.088C32.7381 122.203 31.6341 121.76 30.3008 121.76C29.4154 121.76 28.6101 121.963 27.8848 122.368C27.1594 122.773 26.5888 123.328 26.1728 124.032C25.7674 124.736 25.5648 125.525 25.5648 126.4C25.5648 127.275 25.7674 128.064 26.1728 128.768C26.5888 129.472 27.1594 130.027 27.8848 130.432C28.6101 130.837 29.4154 131.04 30.3008 131.04C31.6448 131.04 32.7488 130.592 33.6128 129.696L34.3648 130.448C33.8741 130.981 33.2714 131.392 32.5568 131.68C31.8528 131.957 31.0848 132.096 30.2528 132.096Z" fill="black"/>
<path d="M374.384 20.517C373.275 20.517 372.267 20.2717 371.36 19.781C370.464 19.2797 369.76 18.597 369.248 17.733C368.747 16.869 368.496 15.8984 368.496 14.821C368.496 13.7437 368.747 12.773 369.248 11.909C369.76 11.045 370.464 10.3677 371.36 9.87702C372.267 9.37569 373.275 9.12502 374.384 9.12502C375.493 9.12502 376.491 9.37035 377.376 9.86102C378.272 10.3517 378.976 11.0344 379.488 11.909C380 12.773 380.256 13.7437 380.256 14.821C380.256 15.8984 380 16.8744 379.488 17.749C378.976 18.613 378.272 19.2904 377.376 19.781C376.491 20.2717 375.493 20.517 374.384 20.517ZM374.384 19.461C375.269 19.461 376.069 19.2637 376.784 18.869C377.499 18.4637 378.059 17.909 378.464 17.205C378.869 16.4904 379.072 15.6957 379.072 14.821C379.072 13.9464 378.869 13.157 378.464 12.453C378.059 11.7384 377.499 11.1837 376.784 10.789C376.069 10.3837 375.269 10.181 374.384 10.181C373.499 10.181 372.693 10.3837 371.968 10.789C371.253 11.1837 370.688 11.7384 370.272 12.453C369.867 13.157 369.664 13.9464 369.664 14.821C369.664 15.6957 369.867 16.4904 370.272 17.205C370.688 17.909 371.253 18.4637 371.968 18.869C372.693 19.2637 373.499 19.461 374.384 19.461ZM383.081 9.22102H391.273V10.229H384.249V13.893H387.913C389.236 13.893 390.239 14.165 390.921 14.709C391.615 15.253 391.961 16.0424 391.961 17.077C391.961 18.1544 391.588 18.981 390.841 19.557C390.105 20.133 389.044 20.421 387.657 20.421H383.081V9.22102ZM387.641 19.477C388.676 19.477 389.455 19.2797 389.977 18.885C390.511 18.4904 390.777 17.9037 390.777 17.125C390.777 16.357 390.516 15.7864 389.993 15.413C389.481 15.029 388.697 14.837 387.641 14.837H384.249V19.477H387.641ZM399.394 13.221C400.717 13.221 401.725 13.5197 402.418 14.117C403.122 14.7144 403.474 15.589 403.474 16.741C403.474 17.9464 403.101 18.8637 402.354 19.493C401.618 20.1117 400.552 20.421 399.154 20.421H394.706V9.22102H395.874V13.221H399.394ZM399.122 19.477C400.157 19.477 400.941 19.2477 401.474 18.789C402.018 18.3304 402.29 17.653 402.29 16.757C402.29 15.0397 401.234 14.181 399.122 14.181H395.874V19.477H399.122ZM405.41 9.22102H406.578V20.421H405.41V9.22102ZM417.938 9.22102V20.421H416.786V15.781C415.57 16.3037 414.392 16.565 413.25 16.565C411.938 16.565 410.914 16.245 410.178 15.605C409.453 14.965 409.09 14.069 409.09 12.917V9.22102H410.258V12.789C410.258 13.653 410.53 14.325 411.074 14.805C411.618 15.285 412.381 15.525 413.362 15.525C414.482 15.525 415.624 15.2584 416.786 14.725V9.22102H417.938ZM431.097 9.22102V20.421H429.929V15.253H422.921V20.421H421.737V9.22102H422.921V14.213H429.929V9.22102H431.097ZM442.046 17.429H435.806L434.462 20.421H433.23L438.35 9.22102H439.518L444.638 20.421H443.39L442.046 17.429ZM441.614 16.469L438.926 10.453L436.238 16.469H441.614ZM454.205 9.22102V20.421H453.037V17.029H449.693C449.543 17.029 449.33 17.0184 449.053 16.997L446.701 20.421H445.437L447.981 16.789C447.159 16.5437 446.53 16.1117 446.093 15.493C445.655 14.8637 445.437 14.0957 445.437 13.189C445.437 11.9304 445.831 10.9544 446.621 10.261C447.421 9.56769 448.498 9.22102 449.853 9.22102H454.205ZM446.621 13.157C446.621 14.0744 446.887 14.7837 447.421 15.285C447.965 15.7757 448.754 16.021 449.789 16.021H453.037V10.245H449.901C448.855 10.245 448.045 10.4957 447.469 10.997C446.903 11.4877 446.621 12.2077 446.621 13.157ZM472.463 19.397V22.933H471.359V20.421H461.583L461.567 22.933H460.463L460.479 19.397H461.039C461.775 19.3544 462.287 18.773 462.575 17.653C462.863 16.5224 463.039 14.9224 463.103 12.853L463.231 9.22102H470.783V19.397H472.463ZM464.159 12.965C464.106 14.6717 463.972 16.0797 463.759 17.189C463.556 18.2877 463.21 19.0237 462.719 19.397H469.615V10.245H464.255L464.159 12.965ZM474.878 9.22102H476.046V18.501L483.214 9.22102H484.286V20.421H483.118V11.157L475.95 20.421H474.878V9.22102ZM495.986 19.397V20.421H488.066V9.22102H495.746V10.245H489.25V14.229H495.042V15.237H489.25V19.397H495.986ZM505.94 10.245H502.004V20.421H500.836V10.245H496.9V9.22102H505.94V10.245ZM514.624 17.429H508.384L507.04 20.421H505.808L510.928 9.22102H512.096L517.216 20.421H515.968L514.624 17.429ZM514.192 16.469L511.504 10.453L508.816 16.469H514.192Z" fill="black"/>
<ellipse cx="220.274" cy="337.474" rx="11.0571" ry="10.3158" fill="#E75951"/>
<line x1="220.037" y1="328.632" x2="220.037" y2="420" stroke="#E6564F" stroke-dasharray="5 5"/>
<line x1="-5.89697" y1="431.29" x2="554.332" y2="431.29" stroke="#EEEEEE"/>
<path d="M478.819 306.865C479.304 307.02 479.683 307.281 479.958 307.648C480.232 308.007 480.369 308.452 480.369 308.982C480.369 309.733 480.079 310.312 479.497 310.72C478.924 311.12 478.085 311.32 476.979 311.32H472.595V302.752H476.737C477.77 302.752 478.561 302.952 479.11 303.352C479.667 303.752 479.945 304.294 479.945 304.98C479.945 305.396 479.845 305.767 479.643 306.094C479.449 306.42 479.174 306.677 478.819 306.865ZM474.545 304.245V306.265H476.494C476.979 306.265 477.346 306.179 477.596 306.008C477.847 305.837 477.972 305.584 477.972 305.249C477.972 304.915 477.847 304.666 477.596 304.502C477.346 304.331 476.979 304.245 476.494 304.245H474.545ZM476.833 309.827C477.35 309.827 477.738 309.741 477.996 309.57C478.262 309.398 478.395 309.133 478.395 308.774C478.395 308.064 477.875 307.709 476.833 307.709H474.545V309.827H476.833ZM485.959 311.467C485.08 311.467 484.284 311.275 483.574 310.892C482.872 310.508 482.319 309.982 481.915 309.313C481.519 308.635 481.322 307.877 481.322 307.036C481.322 306.196 481.519 305.441 481.915 304.772C482.319 304.094 482.872 303.564 483.574 303.181C484.284 302.797 485.08 302.605 485.959 302.605C486.839 302.605 487.631 302.797 488.333 303.181C489.035 303.564 489.588 304.094 489.992 304.772C490.395 305.441 490.597 306.196 490.597 307.036C490.597 307.877 490.395 308.635 489.992 309.313C489.588 309.982 489.035 310.508 488.333 310.892C487.631 311.275 486.839 311.467 485.959 311.467ZM485.959 309.778C486.46 309.778 486.912 309.664 487.316 309.435C487.719 309.199 488.034 308.872 488.26 308.456C488.494 308.04 488.611 307.567 488.611 307.036C488.611 306.506 488.494 306.032 488.26 305.616C488.034 305.2 487.719 304.878 487.316 304.649C486.912 304.413 486.46 304.294 485.959 304.294C485.459 304.294 485.007 304.413 484.603 304.649C484.2 304.878 483.881 305.2 483.647 305.616C483.421 306.032 483.308 306.506 483.308 307.036C483.308 307.567 483.421 308.04 483.647 308.456C483.881 308.872 484.2 309.199 484.603 309.435C485.007 309.664 485.459 309.778 485.959 309.778ZM492.071 302.752H495.922C496.842 302.752 497.654 302.932 498.356 303.291C499.066 303.642 499.615 304.139 500.003 304.784C500.398 305.429 500.596 306.179 500.596 307.036C500.596 307.893 500.398 308.644 500.003 309.288C499.615 309.933 499.066 310.435 498.356 310.794C497.654 311.145 496.842 311.32 495.922 311.32H492.071V302.752ZM495.825 309.692C496.673 309.692 497.347 309.456 497.848 308.982C498.356 308.501 498.61 307.852 498.61 307.036C498.61 306.22 498.356 305.575 497.848 305.102C497.347 304.621 496.673 304.38 495.825 304.38H494.033V309.692H495.825ZM505.778 308.285V311.32H503.816V308.26L500.535 302.752H502.617L504.882 306.559L507.146 302.752H509.071L505.778 308.285ZM476.264 314.992C477.015 314.992 477.665 315.119 478.214 315.372C478.771 315.625 479.199 315.984 479.497 316.449C479.796 316.914 479.945 317.465 479.945 318.101C479.945 318.729 479.796 319.28 479.497 319.753C479.199 320.219 478.771 320.578 478.214 320.831C477.665 321.075 477.015 321.198 476.264 321.198H474.557V323.56H472.595V314.992H476.264ZM476.155 319.582C476.745 319.582 477.193 319.456 477.499 319.203C477.806 318.942 477.96 318.574 477.96 318.101C477.96 317.62 477.806 317.252 477.499 316.999C477.193 316.738 476.745 316.608 476.155 316.608H474.557V319.582H476.155ZM481.346 314.992H483.308V321.944H487.558V323.56H481.346V314.992ZM494.307 321.724H490.372L489.621 323.56H487.611L491.389 314.992H493.326L497.117 323.56H495.058L494.307 321.724ZM493.69 320.219L492.346 316.938L491.001 320.219H493.69ZM505.77 314.992V323.56H504.159L499.933 318.358V323.56H497.996V314.992H499.619L503.832 320.194V314.992H505.77Z" fill="black"/>
<path d="M461.868 295H442.727C439.012 295 436 298.044 436 301.8V321.148C436 324.903 439.012 327.948 442.727 327.948H461.868C465.583 327.948 468.595 324.903 468.595 321.148V301.8C468.595 298.044 465.583 295 461.868 295Z" fill="#F64E4F"/>
<path d="M450.605 318.12L450.589 311.266L447.263 316.912H446.084L442.774 311.413V318.12H440.32V306.696H442.484L446.714 313.795L450.879 306.696H453.027L453.059 318.12H450.605ZM461.165 314.073V318.12H458.55V314.04L454.174 306.696H456.951L459.971 311.772L462.99 306.696H465.557L461.165 314.073Z" fill="white"/>
</g>
<defs>
<filter id="filter0_d" x="-6.05127" y="148.263" width="54.8571" height="54.8421" filterUnits="userSpaceOnUse" color-interpolation-filters="sRGB">
<feFlood flood-opacity="0" result="BackgroundImageFix"/>
<feColorMatrix in="SourceAlpha" type="matrix" values="0 0 0 0 0 0 0 0 0 0 0 0 0 0 0 0 0 0 127 0"/>
<feOffset dy="4"/>
<feGaussianBlur stdDeviation="4.5"/>
<feColorMatrix type="matrix" values="0 0 0 0 0.579167 0 0 0 0 0.579167 0 0 0 0 0.579167 0 0 0 0.25 0"/>
<feBlend mode="normal" in2="BackgroundImageFix" result="effect1_dropShadow"/>
<feBlend mode="normal" in="SourceGraphic" in2="effect1_dropShadow" result="shape"/>
</filter>
<linearGradient id="paint0_linear" x1="106.659" y1="170.672" x2="444.022" y2="417.863" gradientUnits="userSpaceOnUse">
<stop stop-color="#FFEDE1"/>
<stop offset="1" stop-color="#E5F1DE"/>
</linearGradient>
<clipPath id="clip0">
<rect width="516" height="476" fill="white"/>
</clipPath>
</defs>
</svg>
