<svg width="44" height="19" viewBox="0 0 44 19" fill="none" xmlns="http://www.w3.org/2000/svg">
<path d="M17.795 10.1449L15.5949 16.095L15.3592 14.8844C14.8092 13.4014 13.6185 11.8458 12.2343 11.2102L14.2531 18.8551H16.6406L20.1885 10.1328H17.795V10.1449Z" fill="#727272" fill-opacity="0.6"/>
<path d="M19.6836 18.8733L21.0919 10.1328H23.3464L21.9381 18.8733H19.6836Z" fill="#727272" fill-opacity="0.6"/>
<path d="M30.111 10.3497C29.6637 10.1742 28.9626 9.98047 28.0922 9.98047C25.8619 9.98047 24.2964 11.1668 24.2843 12.8617C24.2722 14.1207 25.4025 14.8168 26.2548 15.2344C27.1372 15.6642 27.4273 15.9366 27.4273 16.3179C27.4213 16.905 26.7262 17.1714 26.0795 17.1714C25.1789 17.1714 24.7014 17.0382 23.9579 16.7174L23.6678 16.5782L23.3535 18.5333C23.8794 18.7754 24.8525 18.9873 25.8679 18.9994C28.2312 18.9994 29.7725 17.8251 29.7906 16.0153C29.8027 15.0165 29.1983 14.266 27.8988 13.6425C27.113 13.237 26.6295 12.9706 26.6355 12.559C26.6355 12.1958 27.0405 11.8085 27.929 11.8085C28.6664 11.7964 29.1983 11.9658 29.6154 12.1474L29.8148 12.2503L30.111 10.3497Z" fill="#727272" fill-opacity="0.6"/>
<path d="M35.889 10.1445H34.1482C33.6103 10.1445 33.2053 10.2959 32.9636 10.8709L29.6211 18.8789H31.9844C31.9844 18.8789 32.3712 17.8015 32.4619 17.5654C32.7218 17.5654 35.0186 17.5715 35.345 17.5715C35.4175 17.8741 35.617 18.8789 35.617 18.8789H37.7143L35.889 10.1445ZM33.1086 15.7738C33.296 15.2714 34.0032 13.3284 34.0032 13.3284C33.9911 13.3526 34.1905 12.826 34.3054 12.4931L34.4565 13.2436C34.4565 13.2436 34.8917 15.3319 34.9823 15.7677C34.6318 15.7738 33.5499 15.7738 33.1086 15.7738Z" fill="#727272" fill-opacity="0.6"/>
<path d="M13.5415 10.1387H9.90895L9.88477 10.29C12.7074 11.0163 14.5751 12.7899 15.3488 14.8902L14.563 10.8711C14.43 10.3203 14.0311 10.1568 13.5415 10.1387Z" fill="#727272" fill-opacity="0.6"/>
<path d="M3.09465 8.02707H1.66217L0 0.545626L1.58963 0.279297L2.72595 6.13249L5.6151 0.357984H7.13824L3.09465 8.02707Z" fill="#727272" fill-opacity="0.6"/>
<path d="M10.5697 5.58174H7.14258C7.04587 6.62285 7.52941 7.07682 8.35142 7.07682C9.03442 7.07682 9.63884 6.8226 10.2856 6.411L10.2795 7.4521C9.64489 7.8516 8.90749 8.10582 8.04317 8.10582C6.55024 8.10582 5.56503 7.25236 5.8612 5.32752C6.12714 3.59032 7.32995 2.53711 8.72012 2.53711C10.3218 2.53711 10.8537 3.74165 10.6241 5.26094C10.612 5.36989 10.5757 5.50305 10.5697 5.58174ZM8.55088 3.45716C8.01899 3.45716 7.52336 3.87481 7.29368 4.75249H9.41521C9.45147 3.92323 9.19157 3.45716 8.55088 3.45716Z" fill="#727272" fill-opacity="0.6"/>
<path d="M12.801 4.92822L12.3296 7.99101H11.0059L11.8279 2.64626H12.9582V3.71763C13.4054 3.10023 14.0159 2.57967 14.856 2.53125L14.8621 3.85079C14.0159 3.91132 13.2664 4.35319 12.801 4.92822Z" fill="#727272" fill-opacity="0.6"/>
<path d="M14.8379 7.99054L15.6599 2.64579H16.9836L16.1676 7.99054H14.8379ZM16.4698 1.74995C16.0286 1.74995 15.7203 1.44125 15.7929 0.999387C15.8654 0.545416 16.2643 0.224609 16.7056 0.224609C17.1347 0.224609 17.443 0.545416 17.3704 0.999387C17.3039 1.44125 16.905 1.74995 16.4698 1.74995Z" fill="#727272" fill-opacity="0.6"/>
<path d="M20.6617 1.18328C20.2084 1.18328 19.9364 1.38303 19.8639 1.86121L19.743 2.64809H20.7584V3.73157H19.5737L18.921 7.98679H17.6033L18.2561 3.72552H17.4824L17.6517 2.64204H18.4253L18.5643 1.72199C18.7457 0.535615 19.5677 0.09375 20.6617 0.09375C20.8914 0.09375 21.0667 0.117962 21.1996 0.13612L21.2117 1.2196C21.0787 1.20749 20.8853 1.18328 20.6617 1.18328Z" fill="#727272" fill-opacity="0.6"/>
<path d="M20.6719 7.99054L21.4939 2.64579H22.8176L22.0016 7.99054H20.6719ZM22.3099 1.74995C21.8686 1.74995 21.5604 1.44125 21.6269 0.999387C21.6994 0.545416 22.0983 0.224609 22.5396 0.224609C22.9687 0.224609 23.2769 0.545416 23.2044 0.999387C23.1379 1.44125 22.739 1.74995 22.3099 1.74995Z" fill="#727272" fill-opacity="0.6"/>
<path d="M27.9681 5.58174H24.541C24.4504 6.62285 24.9279 7.07682 25.7499 7.07682C26.4329 7.07682 27.0373 6.8226 27.684 6.411L27.678 7.4521C27.0433 7.8516 26.3059 8.10582 25.4416 8.10582C23.9487 8.10582 22.9635 7.25236 23.2596 5.32752C23.5256 3.59032 24.7284 2.53711 26.1186 2.53711C27.7203 2.53711 28.2522 3.74165 28.0225 5.26094C28.0104 5.36989 27.9741 5.50305 27.9681 5.58174ZM25.9493 3.45716C25.4174 3.45716 24.9218 3.87481 24.6921 4.75249H26.8137C26.8499 3.92323 26.59 3.45716 25.9493 3.45716Z" fill="#727272" fill-opacity="0.6"/>
<path d="M31.8887 7.98989L31.8947 7.24538C31.4474 7.69935 30.8672 8.09884 30.1298 8.09884C29.0116 8.09884 28.244 7.26959 28.522 5.46581C28.8303 3.47439 30.0573 2.59066 31.2963 2.59066C31.8041 2.59066 32.203 2.68146 32.5052 2.79041L32.9041 0.211853L34.2641 0L33.0371 7.98989H31.8887ZM32.336 3.88599C32.0277 3.72862 31.7859 3.65598 31.3326 3.65598C30.6375 3.65598 30.0391 4.2189 29.8639 5.39318C29.7067 6.43428 30.0694 6.91852 30.6557 6.91852C31.1392 6.91852 31.5623 6.62798 31.9854 6.18611L32.336 3.88599Z" fill="#727272" fill-opacity="0.6"/>
<path d="M37.0943 8.04473C36.4657 8.04473 35.9519 7.94183 35.4805 7.7784L36.3509 2.10074L37.3784 1.94336L37.0036 4.40086C37.3058 4.13453 37.7229 3.86214 38.2306 3.86214C39.0828 3.86214 39.657 4.4977 39.4455 5.85961C39.2158 7.34864 38.2971 8.04473 37.0943 8.04473ZM37.8377 4.74587C37.5053 4.74587 37.1668 4.96983 36.8707 5.27248L36.5866 7.10652C36.786 7.17916 36.919 7.21548 37.2031 7.21548C37.8377 7.21548 38.285 6.82809 38.424 5.90804C38.5449 5.13326 38.285 4.74587 37.8377 4.74587Z" fill="#727272" fill-opacity="0.6"/>
<path d="M41.8125 8.21243C41.2987 9.21117 40.791 9.51987 40.0113 9.51987C39.836 9.51987 39.7393 9.50171 39.6486 9.4775L39.6426 8.64824C39.7695 8.68456 39.9085 8.70877 40.102 8.70877C40.3921 8.70877 40.652 8.57561 40.8212 8.27901L40.9542 8.01268L40.102 4.02379L41.1718 3.89062L41.6674 6.77183L43.0032 3.9451H44.0005L41.8125 8.21243Z" fill="#727272" fill-opacity="0.6"/>
</svg>
