<svg width="80" height="35" viewBox="0 0 80 35" fill="none" xmlns="http://www.w3.org/2000/svg">
<path d="M32.0967 19.0559L28.1428 29.7488L27.7192 27.5732C26.7308 24.9082 24.5909 22.1126 22.1035 20.9704L25.7315 34.709H30.022L36.398 19.0342H32.0967V19.0559Z" fill="#727272" fill-opacity="0.6"/>
<path d="M35.4902 34.7417L38.0211 19.0342H42.0727L39.5418 34.7417H35.4902Z" fill="#727272" fill-opacity="0.6"/>
<path d="M54.2298 19.4243C53.426 19.1088 52.166 18.7607 50.6018 18.7607C46.5937 18.7607 43.7804 20.8928 43.7587 23.9386C43.737 26.2011 45.7682 27.4521 47.2997 28.2026C48.8856 28.975 49.407 29.4645 49.407 30.1498C49.3961 31.2049 48.147 31.6835 46.9847 31.6835C45.3663 31.6835 44.5082 31.4442 43.1721 30.8677L42.6508 30.6175L42.0859 34.131C43.0309 34.5661 44.7797 34.9469 46.6046 34.9686C50.8517 34.9686 53.6215 32.8583 53.6541 29.6059C53.6758 27.811 52.5896 26.4622 50.2542 25.3418C48.8422 24.613 47.9732 24.1344 47.9841 23.3947C47.9841 22.742 48.7118 22.0458 50.3086 22.0458C51.6337 22.0241 52.5896 22.3286 53.3391 22.655L53.6975 22.8399L54.2298 19.4243Z" fill="#727272" fill-opacity="0.6"/>
<path d="M64.6136 19.0557H61.4853C60.5186 19.0557 59.7908 19.3276 59.3564 20.361L53.3496 34.7523H57.5967C57.5967 34.7523 58.2919 32.816 58.4548 32.3918C58.9219 32.3918 63.0495 32.4027 63.636 32.4027C63.7664 32.9466 64.1248 34.7523 64.1248 34.7523H67.894L64.6136 19.0557ZM59.617 29.172C59.9538 28.2691 61.2246 24.7774 61.2246 24.7774C61.2029 24.8209 61.5614 23.8745 61.7677 23.2762L62.0393 24.6251C62.0393 24.6251 62.8214 28.3779 62.9843 29.1611C62.3543 29.172 60.41 29.172 59.617 29.172Z" fill="#727272" fill-opacity="0.6"/>
<path d="M24.4524 19.0449H17.9243L17.8809 19.3169C22.9535 20.6222 26.3099 23.8094 27.7002 27.584L26.2881 20.3611C26.0492 19.3713 25.3323 19.0776 24.4524 19.0449Z" fill="#727272" fill-opacity="0.6"/>
<path d="M5.67859 15.2507H3.10427L0.117188 1.80577L2.97392 1.32715L5.016 11.8459L10.2081 1.46856H12.9453L5.67859 15.2507Z" fill="#727272" fill-opacity="0.6"/>
<path d="M19.1108 10.8563H12.952C12.7782 12.7273 13.6472 13.5431 15.1244 13.5431C16.3518 13.5431 17.438 13.0862 18.6003 12.3465L18.5894 14.2175C17.4489 14.9354 16.1237 15.3923 14.5704 15.3923C11.8875 15.3923 10.117 13.8585 10.6492 10.3994C11.1272 7.2775 13.2887 5.38477 15.787 5.38477C18.6655 5.38477 19.6213 7.54944 19.2086 10.2798C19.1868 10.4756 19.1217 10.7149 19.1108 10.8563ZM15.4829 7.03819C14.527 7.03819 13.6363 7.78875 13.2235 9.36603H17.0361C17.1013 7.87577 16.6342 7.03819 15.4829 7.03819Z" fill="#727272" fill-opacity="0.6"/>
<path d="M23.1206 9.68162L22.2733 15.1858H19.8945L21.3718 5.5807H23.403V7.50606C24.2068 6.39653 25.3039 5.46105 26.8137 5.37402L26.8246 7.74538C25.3039 7.85415 23.957 8.64823 23.1206 9.68162Z" fill="#727272" fill-opacity="0.6"/>
<path d="M26.7812 15.1857L28.2585 5.5806H30.6373L29.1709 15.1857H26.7812ZM29.714 3.97069C28.9211 3.97069 28.3671 3.41592 28.4975 2.62185C28.6278 1.80601 29.3447 1.22949 30.1376 1.22949C30.9088 1.22949 31.4628 1.80601 31.3325 2.62185C31.213 3.41592 30.4961 3.97069 29.714 3.97069Z" fill="#727272" fill-opacity="0.6"/>
<path d="M37.2486 2.95116C36.434 2.95116 35.9452 3.31012 35.8148 4.16947L35.5976 5.58358H37.4224V7.5307H35.2934L34.1203 15.1778H31.7524L32.9255 7.51982H31.5352L31.8393 5.5727H33.2296L33.4795 3.91928C33.8053 1.78724 35.2826 0.993164 37.2486 0.993164C37.6614 0.993164 37.9764 1.03667 38.2154 1.06931L38.2371 3.01643C37.9981 2.99467 37.6505 2.95116 37.2486 2.95116Z" fill="#727272" fill-opacity="0.6"/>
<path d="M37.2676 15.1857L38.7448 5.5806H41.1236L39.6572 15.1857H37.2676ZM40.2112 3.97069C39.4183 3.97069 38.8643 3.41592 38.9838 2.62185C39.1141 1.80601 39.831 1.22949 40.624 1.22949C41.3952 1.22949 41.9491 1.80601 41.8188 2.62185C41.6993 3.41592 40.9824 3.97069 40.2112 3.97069Z" fill="#727272" fill-opacity="0.6"/>
<path d="M50.3784 10.8563H44.2196C44.0566 12.7273 44.9147 13.5431 46.392 13.5431C47.6194 13.5431 48.7056 13.0862 49.8679 12.3465L49.857 14.2175C48.7165 14.9354 47.3913 15.3923 45.838 15.3923C43.1551 15.3923 41.3846 13.8585 41.9168 10.3994C42.3947 7.2775 44.5563 5.38477 47.0546 5.38477C49.933 5.38477 50.8889 7.54944 50.4761 10.2798C50.4544 10.4756 50.3892 10.7149 50.3784 10.8563ZM46.7504 7.03819C45.7946 7.03819 44.9039 7.78875 44.4911 9.36603H48.3037C48.3689 7.87577 47.9018 7.03819 46.7504 7.03819Z" fill="#727272" fill-opacity="0.6"/>
<path d="M57.4244 15.1838L57.4353 13.8459C56.6315 14.6617 55.5887 15.3796 54.2635 15.3796C52.2541 15.3796 50.8746 13.8894 51.3742 10.6478C51.9282 7.06903 54.1332 5.48087 56.3599 5.48087C57.2723 5.48087 57.9892 5.64404 58.5324 5.83984L59.2493 1.20592L61.6932 0.825195L59.4882 15.1838H57.4244ZM58.2282 7.80872C57.6742 7.5259 57.2398 7.39536 56.4251 7.39536C55.176 7.39536 54.1006 8.40699 53.7856 10.5173C53.5032 12.3883 54.1549 13.2585 55.2085 13.2585C56.0775 13.2585 56.8379 12.7363 57.5982 11.9423L58.2282 7.80872Z" fill="#727272" fill-opacity="0.6"/>
<path d="M66.781 15.2822C65.6514 15.2822 64.7281 15.0972 63.8809 14.8035L65.445 4.60021L67.2916 4.31738L66.6181 8.73375C67.1612 8.25513 67.9107 7.76563 68.8231 7.76563C70.3547 7.76563 71.3866 8.9078 71.0064 11.3553C70.5936 14.0312 68.9426 15.2822 66.781 15.2822ZM68.1171 9.35378C67.5197 9.35378 66.9114 9.75626 66.3791 10.3002L65.8686 13.5961C66.2271 13.7266 66.466 13.7919 66.9766 13.7919C68.1171 13.7919 68.9209 13.0957 69.1707 11.4423C69.3879 10.05 68.9209 9.35378 68.1171 9.35378Z" fill="#727272" fill-opacity="0.6"/>
<path d="M75.2569 15.5831C74.3336 17.378 73.4212 17.9327 72.02 17.9327C71.705 17.9327 71.5312 17.9001 71.3683 17.8566L71.3574 16.3663C71.5855 16.4316 71.8354 16.4751 72.1829 16.4751C72.7043 16.4751 73.1714 16.2358 73.4755 15.7028L73.7145 15.2242L72.1829 8.05572L74.1055 7.81641L74.9962 12.9942L77.3968 7.91431H79.189L75.2569 15.5831Z" fill="#727272" fill-opacity="0.6"/>
</svg>
