<svg width="58" height="19" viewBox="0 0 58 19" fill="none" xmlns="http://www.w3.org/2000/svg">
<path d="M2.92579 0.00117946L0 6.90984H1.90486L2.44471 5.52639H5.58311L6.12012 6.90984H8.06698L5.14385 0.00117946H2.92579ZM4.00828 1.60898L4.96489 4.02652H3.04889L4.00828 1.60898ZM8.26834 6.90866V0L10.9752 0.0101926L12.5496 4.4645L14.0863 0H16.7716V6.90866H15.071V1.81807L13.2682 6.90866H11.7767L9.96899 1.81807V6.90866H8.26834ZM17.9352 6.90866V0H23.4847V1.54535H19.6538V2.72708H23.3952V4.18158H19.6538V5.40879H23.4847V6.90866H17.9352ZM24.4694 0.00117946V6.90984H26.17V4.45542H26.886L28.9251 6.90984H31.0034L28.7657 4.36452C29.6841 4.2858 30.6314 3.48532 30.6314 2.2425C30.6314 0.788702 29.5079 0.00117946 28.2539 0.00117946H24.4694ZM26.17 1.54653H28.114C28.5804 1.54653 28.9196 1.91699 28.9196 2.27373C28.9196 2.73268 28.48 3.00098 28.1392 3.00098H26.17V1.54653ZM33.0621 6.90866H31.3257V0H33.0621V6.90866ZM37.1795 6.90866H36.8047C34.9912 6.90866 33.8901 5.45758 33.8901 3.48273C33.8901 1.45904 34.9788 0 37.269 0H39.1487V1.63626H37.2003C36.2706 1.63626 35.6131 2.37312 35.6131 3.49976C35.6131 4.83773 36.365 5.39966 37.448 5.39966H37.8956L37.1795 6.90866ZM40.8801 0.00117946L37.9543 6.90984H39.8592L40.399 5.52639H43.5374L44.0745 6.90984H46.0213L43.0983 0.00117946H40.8801ZM41.9626 1.60898L42.9192 4.02652H41.0032L41.9626 1.60898ZM46.2198 6.90866V0H48.382L51.1428 4.34065V0H52.8435V6.90866H50.7512L47.9205 2.45442V6.90866H46.2198ZM12.3857 18.9988V12.0902H17.9352V13.6355H14.1043V14.8173H17.8457V16.2717H14.1043V17.499H17.9352V18.9988H12.3857ZM39.5784 18.9988V12.0902H45.1278V13.6355H41.2969V14.8173H45.0205V16.2717H41.2968V17.499H45.1278V18.9988H39.5784ZM18.1506 18.9988L20.8526 15.5871L18.0863 12.0902H20.2289L21.8764 14.2519L23.5296 12.0902H25.5883L22.8583 15.5445L25.5652 18.9988H23.423L21.8233 16.8712L20.2625 18.9988H18.1506ZM25.7672 12.0913V19H27.5126V16.8184H29.3028C30.8175 16.8184 31.9657 16.0022 31.9657 14.4151C31.9657 13.1003 31.0652 12.0913 29.5238 12.0913H25.7672ZM27.5126 13.6538H29.3979C29.8873 13.6538 30.237 13.9584 30.237 14.4491C30.237 14.9102 29.889 15.2446 29.3923 15.2446H27.5126V13.6538ZM32.7041 12.0902V18.9988H34.4048V16.5444H35.1208L37.1599 18.9988H39.2382L37.0005 16.4536C37.9188 16.3748 38.8662 15.5743 38.8662 14.3315C38.8662 12.8777 37.7426 12.0902 36.4886 12.0902H32.7041ZM34.4048 13.6355H36.3488C36.8151 13.6355 37.1544 14.006 37.1544 14.3628C37.1544 14.8217 36.7148 15.09 36.3739 15.09H34.4048V13.6355ZM45.9155 18.9988V17.499H49.3191C49.8227 17.499 50.0407 17.2225 50.0407 16.9194C50.0407 16.6289 49.8234 16.3354 49.3191 16.3354H47.781C46.4442 16.3354 45.6996 15.5082 45.6996 14.2662C45.6996 13.1584 46.3814 12.0902 48.3681 12.0902H51.6799L50.9638 13.6446H48.0995C47.552 13.6446 47.3835 13.9364 47.3835 14.2151C47.3835 14.5014 47.5917 14.8173 48.01 14.8173H49.6212C51.1115 14.8173 51.7582 15.6758 51.7582 16.8001C51.7582 18.0089 51.0376 18.9988 49.5401 18.9988H45.9155ZM52.1573 18.9988V17.499H55.5609C56.0645 17.499 56.2825 17.2225 56.2825 16.9194C56.2825 16.6289 56.0652 16.3354 55.5609 16.3354H54.0229C52.6859 16.3354 51.9414 15.5082 51.9414 14.2662C51.9414 13.1584 52.6232 12.0902 54.6099 12.0902H57.9217L57.2056 13.6446H54.3414C53.7938 13.6446 53.6253 13.9364 53.6253 14.2151C53.6253 14.5014 53.8335 14.8173 54.2518 14.8173H55.863C57.3533 14.8173 58 15.6758 58 16.8001C58 18.0089 57.2794 18.9988 55.7819 18.9988H52.1573Z" fill="#727272" fill-opacity="0.6"/>
</svg>
