<svg width="53" height="16" viewBox="0 0 53 16" fill="none" xmlns="http://www.w3.org/2000/svg">
<path fill-rule="evenodd" clip-rule="evenodd" d="M5.32529 0.559136C5.7909 0.556271 7.17465 0.428076 7.76079 2.46288C8.15561 3.83354 8.78455 6.07876 9.64759 9.19852H9.99907C10.9246 5.90945 11.5604 3.66423 11.9065 2.46288C12.4987 0.40688 13.9793 0.559176 14.5715 0.559176L19.1408 0.559182V15.1796H14.4837V6.56354H14.1714L11.5753 15.1796H8.07139L5.47527 6.55715H5.16298V15.1796H0.505859V0.559182L5.32529 0.559136ZM25.8283 0.559182V9.18164H26.1999L29.3578 2.09145C29.9708 0.680487 31.2773 0.559182 31.2773 0.559182H35.784V15.1796H31.0296V6.55715H30.6581L27.5621 13.6473C26.9491 15.0519 25.5807 15.1796 25.5807 15.1796H21.0739V0.559182H25.8283ZM52.2173 7.50691C51.5541 9.43999 49.4714 10.8244 47.1656 10.8244H42.1797V15.1796H37.6586V7.50691H52.2173Z" fill="#727272" fill-opacity="0.6"/>
<path fill-rule="evenodd" clip-rule="evenodd" d="M47.3821 0.560547H37.4199C37.657 3.81555 40.3822 6.60205 43.2033 6.60205H52.5299C53.0681 3.89676 51.2153 0.560547 47.3821 0.560547Z" fill="#999999" fill-opacity="0.6"/>
</svg>
