<svg width="53" height="19" viewBox="0 0 53 19" fill="none" xmlns="http://www.w3.org/2000/svg">
<path fill-rule="evenodd" clip-rule="evenodd" d="M50.0996 7.4536C50.0996 6.8746 50.5528 6.40234 51.0957 6.40234C51.6547 6.40234 52.0929 6.8746 52.0929 7.4536C52.0929 8.03261 51.6547 8.50486 51.0957 8.50486C50.5528 8.51994 50.0996 8.04769 50.0996 7.4536ZM51.0957 8.27628C51.5189 8.27628 51.8513 7.91077 51.8513 7.46869C51.8513 7.0266 51.504 6.6611 51.0957 6.6611C50.6736 6.6611 50.3411 7.0266 50.3411 7.46869C50.3411 7.91077 50.6736 8.27628 51.0957 8.27628ZM50.96 7.92586H50.7483V6.99643H51.1267C51.2015 6.99643 51.2924 6.99643 51.3533 7.04169C51.4281 7.0881 51.4591 7.1786 51.4591 7.27027C51.4591 7.37702 51.3982 7.46869 51.3073 7.49886L51.4741 7.91077H51.2475L51.1118 7.54411H50.96V7.92586ZM50.96 7.40719H51.0807C51.1267 7.40719 51.1716 7.40719 51.2015 7.3921C51.2314 7.37702 51.2475 7.33177 51.2475 7.28535C51.2475 7.25519 51.2314 7.20993 51.2015 7.19485C51.1716 7.1786 51.1118 7.1786 51.0807 7.1786H50.9749L50.96 7.40719Z" fill="#727272" fill-opacity="0.6"/>
<path fill-rule="evenodd" clip-rule="evenodd" d="M35.829 0.427001L35.5576 2.22551C34.9687 1.90526 34.5304 1.78343 34.0623 1.78343C32.8236 1.78343 31.9471 3.06327 31.9471 4.87686C31.9471 6.12538 32.536 6.88771 33.5033 6.88771C33.9105 6.88771 34.3637 6.7508 34.9227 6.46071L34.6351 8.35089C34.0163 8.53306 33.6241 8.59456 33.156 8.59456C31.3582 8.59456 30.2402 7.22305 30.2402 5.02887C30.2402 2.07235 31.7815 0 34.0014 0C34.2878 0 34.5454 0.0301686 34.757 0.091666L35.4517 0.274998C35.6323 0.35042 35.6783 0.365504 35.829 0.427001Z" fill="#727272" fill-opacity="0.6"/>
<path fill-rule="evenodd" clip-rule="evenodd" d="M30.2853 1.66157C30.2393 1.64648 30.1795 1.64648 30.1185 1.64648C29.5745 1.64648 29.2582 1.93541 28.7441 2.743L28.8947 1.72191H27.3845L26.3574 8.44137H28.0344C28.6383 4.32801 28.7889 3.62717 29.5895 3.62717C29.6355 3.62717 29.6504 3.62717 29.7102 3.62717C29.8621 2.81958 30.0576 2.22549 30.3451 1.67665L30.2853 1.66157Z" fill="#727272" fill-opacity="0.6"/>
<path fill-rule="evenodd" clip-rule="evenodd" d="M20.2991 8.34981C19.846 8.50181 19.4837 8.57723 19.1064 8.57723C18.261 8.57723 17.7929 8.05973 17.7929 7.10014C17.7929 6.9168 17.8078 6.7033 17.8377 6.4898L17.9436 5.83538L18.0183 5.30163L18.7441 0.714844H20.405L20.2094 1.70576H21.0698L20.8282 3.33603H19.9817L19.5446 6.13938C19.5297 6.26122 19.5136 6.35288 19.5136 6.41438C19.5136 6.7648 19.6953 6.9168 20.0887 6.9168C20.2842 6.9168 20.4199 6.90172 20.5407 6.85647L20.2991 8.34981Z" fill="#727272" fill-opacity="0.6"/>
<path fill-rule="evenodd" clip-rule="evenodd" d="M13.7156 3.83992C13.7156 4.69392 14.1078 5.27292 14.9842 5.71501C15.649 6.05034 15.7698 6.15593 15.7698 6.4611C15.7698 6.87302 15.4673 7.07027 14.8175 7.07027C14.3194 7.07027 13.8663 6.99485 13.3222 6.79644L13.0956 8.35128L13.1715 8.36636L13.474 8.4267C13.5799 8.44178 13.7156 8.47195 13.9111 8.4882C14.3045 8.51836 14.6219 8.54853 14.8324 8.54853C16.5853 8.54853 17.4008 7.83261 17.4008 6.3091C17.4008 5.39476 17.0684 4.84592 16.223 4.43517C15.5283 4.09983 15.4524 4.02325 15.4524 3.703C15.4524 3.33749 15.7238 3.15532 16.2679 3.15532C16.6003 3.15532 17.0385 3.20058 17.4618 3.26091L17.7033 1.70723C17.2651 1.63065 16.6152 1.57031 16.2379 1.57031C14.3493 1.57031 13.7006 2.5914 13.7156 3.83992Z" fill="#727272" fill-opacity="0.6"/>
<path fill-rule="evenodd" clip-rule="evenodd" d="M49.1332 8.42861H47.5471L47.623 7.77418C47.1699 8.29169 46.6868 8.52027 46.0829 8.52027C44.8591 8.52027 44.0586 7.40752 44.0586 5.732C44.0586 3.4914 45.2973 1.60239 46.7776 1.60239C47.4264 1.60239 47.9106 1.89247 48.3787 2.51673L48.741 0.154297H50.3869L49.1332 8.42861ZM46.6718 6.85984C47.4574 6.85984 48.0003 5.93042 48.0003 4.58908C48.0003 3.73623 47.684 3.26282 47.1089 3.26282C46.3544 3.26282 45.8103 4.20849 45.8103 5.5185C45.8103 6.40267 46.0979 6.85984 46.6718 6.85984Z" fill="#727272" fill-opacity="0.6"/>
<path fill-rule="evenodd" clip-rule="evenodd" d="M25.5859 8.28675C25.012 8.46892 24.4691 8.56058 23.8652 8.56058C22.0065 8.56058 21.0254 7.52441 21.0254 5.54373C21.0254 3.22771 22.263 1.53711 23.94 1.53711C25.3145 1.53711 26.1909 2.4967 26.1909 3.99005C26.1909 4.47738 26.1299 4.96472 25.9793 5.65048H22.6564C22.6414 5.75723 22.6414 5.80364 22.6414 5.86398C22.6414 6.65648 23.1394 7.05215 24.1068 7.05215C24.6956 7.05215 25.2397 6.91524 25.8435 6.62631L25.5859 8.28675ZM24.6496 4.27897C24.6657 4.14205 24.6657 4.02021 24.6657 3.94363C24.6657 3.3948 24.3782 3.07571 23.8802 3.07571C23.3511 3.07571 22.9738 3.50271 22.822 4.27897H24.6496Z" fill="#727272" fill-opacity="0.6"/>
<path fill-rule="evenodd" clip-rule="evenodd" d="M7.00902 8.42603H5.34814L6.29935 2.07207L4.15425 8.42603H3.02131L2.88559 2.11848L1.87342 8.42603H0.318359L1.61692 0.167969H4.01852L4.07948 5.28734L5.71045 0.167969H8.30873L7.00902 8.42603Z" fill="#727272" fill-opacity="0.6"/>
<path fill-rule="evenodd" clip-rule="evenodd" d="M11.3115 5.43947C11.1298 5.42439 11.055 5.4093 10.9342 5.4093C9.98186 5.4093 9.51374 5.75972 9.51374 6.43039C9.51374 6.84231 9.75528 7.11615 10.1176 7.11615C10.7824 7.11615 11.2816 6.43039 11.3115 5.43947ZM12.5192 8.42616H11.1298L11.1597 7.72532C10.7375 8.28924 10.1785 8.53291 9.40792 8.53291C8.50157 8.53291 7.88277 7.78682 7.88277 6.70423C7.88277 5.05888 8.9697 4.11437 10.8135 4.11437C11.009 4.11437 11.2505 4.12946 11.4921 4.15963C11.5381 3.93104 11.553 3.83938 11.553 3.71754C11.553 3.27662 11.2666 3.10837 10.481 3.10837C10.0129 3.10837 9.46888 3.18495 9.09047 3.30678L8.87998 3.38221L8.72816 3.42862L8.95474 1.92019C9.78518 1.66144 10.3442 1.55469 10.9492 1.55469C12.3835 1.55469 13.1391 2.24044 13.1391 3.52029C13.1391 3.85562 13.1081 4.09929 13.0023 4.86047L12.671 7.25306L12.6101 7.68007L12.5652 8.01424L12.5353 8.25907L12.5192 8.42616Z" fill="#727272" fill-opacity="0.6"/>
<path fill-rule="evenodd" clip-rule="evenodd" d="M38.7119 5.43698C38.5463 5.42189 38.4554 5.40681 38.3347 5.40681C37.3835 5.40681 36.8992 5.75723 36.8992 6.4279C36.8992 6.83981 37.1419 7.11365 37.5042 7.11365C38.184 7.11365 38.682 6.4279 38.7119 5.43698ZM39.9208 8.42366H38.5313L38.5612 7.72283C38.138 8.28675 37.579 8.53041 36.8095 8.53041C35.9032 8.53041 35.2832 7.78432 35.2832 6.70174C35.2832 5.05639 36.3713 4.11188 38.2139 4.11188C38.3945 4.11188 38.6521 4.12696 38.8937 4.15713C38.9385 3.92855 38.9535 3.83688 38.9535 3.71505C38.9535 3.27412 38.6671 3.10587 37.8815 3.10587C37.4134 3.10587 36.8693 3.18246 36.4921 3.30429L36.2505 3.36463L36.0987 3.41104L36.3253 1.90261C37.1569 1.64386 37.7159 1.53711 38.3197 1.53711C39.754 1.53711 40.5097 2.22286 40.5097 3.50271C40.5097 3.83688 40.4798 4.08171 40.3739 4.84289L40.0266 7.2204L39.9806 7.6474L39.9357 7.98158L39.9058 8.21016L39.9208 8.42366Z" fill="#727272" fill-opacity="0.6"/>
<path fill-rule="evenodd" clip-rule="evenodd" d="M44.5861 1.66157C44.5401 1.64648 44.4803 1.64648 44.4193 1.64648C43.8753 1.64648 43.5578 1.93541 43.0448 2.743L43.1967 1.72191H41.6853L40.6582 8.44137H42.3352C42.939 4.32801 43.0897 3.62717 43.8902 3.62717C43.9362 3.62717 43.9362 3.62717 44.0122 3.62717C44.1628 2.81958 44.3745 2.22549 44.6459 1.67665L44.5861 1.66157Z" fill="#727272" fill-opacity="0.6"/>
<path fill-rule="evenodd" clip-rule="evenodd" d="M37.5791 14.9627C37.5791 16.4862 37.1109 17.3855 36.3714 17.3855C35.8273 17.4006 35.5099 16.7914 35.5099 15.8921C35.5099 14.8258 35.993 13.6063 36.7486 13.6063C37.3674 13.6063 37.5791 14.2619 37.5791 14.9627ZM39.2261 14.9778C39.2261 13.286 38.3946 11.9609 36.8395 11.9609C35.0417 11.9609 33.8789 13.561 33.8789 15.9223C33.8789 17.6141 34.5736 19.0007 36.2656 19.0007C37.9724 19.0007 39.2261 17.7811 39.2261 14.9778Z" fill="#727272" fill-opacity="0.6"/>
<path fill-rule="evenodd" clip-rule="evenodd" d="M34.4055 10.7903L34.1478 12.5876C33.59 12.2685 33.1966 12.1455 32.7584 12.1455C31.5956 12.1455 30.7801 13.4266 30.7801 15.239C30.7801 16.4887 31.3241 17.251 32.2305 17.251C32.6227 17.251 33.046 17.1129 33.5589 16.824L33.2875 18.713C32.7136 18.8963 32.3351 18.9567 31.8981 18.9567C30.2211 18.9567 29.1641 17.5863 29.1641 15.391C29.1641 12.4356 30.6133 10.3633 32.6836 10.3633C32.9551 10.3633 33.1817 10.3934 33.3784 10.4549L34.0121 10.6371C34.2238 10.6986 34.2686 10.7137 34.4055 10.7903Z" fill="#727272" fill-opacity="0.6"/>
<path fill-rule="evenodd" clip-rule="evenodd" d="M24.0928 12.0053C24.0479 11.9902 23.9881 11.9902 23.9272 11.9902C23.4142 11.9902 23.1266 12.2803 22.6436 13.0867L22.7942 12.0668H21.3899L20.4375 18.7863H21.9937C22.5527 14.6718 22.7034 13.9709 23.4441 13.9709C23.489 13.9709 23.489 13.9709 23.5649 13.986C23.7006 13.1784 23.8973 12.5843 24.1538 12.0355L24.0928 12.0053Z" fill="#727272" fill-opacity="0.6"/>
<path fill-rule="evenodd" clip-rule="evenodd" d="M44.4532 18.7288H42.9729L43.0488 18.0743C42.6255 18.5918 42.1723 18.8204 41.5984 18.8204C40.4655 18.8204 39.7109 17.7077 39.7109 16.0322C39.7109 13.7927 40.8738 11.9025 42.2483 11.9025C42.8521 11.9025 43.3202 12.1926 43.7435 12.832L44.0909 10.4707H45.6321L44.4532 18.7288ZM42.1424 17.1449C42.8832 17.1449 43.3812 16.2155 43.3812 14.8742C43.3812 14.0213 43.0936 13.5641 42.5508 13.5641C41.8411 13.5641 41.3419 14.4936 41.3419 15.8187C41.3419 16.7028 41.6134 17.1449 42.1424 17.1449Z" fill="#727272" fill-opacity="0.6"/>
<path fill-rule="evenodd" clip-rule="evenodd" d="M9.47074 18.6969C8.94165 18.8802 8.42866 18.9719 7.86967 18.9719C6.13288 18.9719 5.22653 17.9357 5.22653 15.9539C5.22653 13.6541 6.38937 11.9473 7.94443 11.9473C9.2292 11.9473 10.0447 12.8918 10.0447 14.4002C10.0447 14.8875 9.98372 15.3749 9.848 16.0606H6.75168C6.73673 16.1674 6.73673 16.2138 6.73673 16.2741C6.73673 17.0516 7.20486 17.4472 8.11121 17.4472C8.6702 17.4472 9.16824 17.3103 9.72723 17.0214L9.47074 18.6969ZM8.59429 14.6891C8.59429 14.5522 8.60924 14.4304 8.60924 14.3549C8.60924 13.8061 8.3378 13.4859 7.86967 13.4859C7.37049 13.4859 7.02313 13.9129 6.87245 14.6891H8.59429Z" fill="#727272" fill-opacity="0.6"/>
<path fill-rule="evenodd" clip-rule="evenodd" d="M28.0181 18.6969C27.489 18.8802 26.976 18.9719 26.4171 18.9719C24.6653 18.9719 23.7578 17.9357 23.7578 15.9539C23.7578 13.6541 24.9218 11.9473 26.4769 11.9473C27.7605 11.9473 28.5921 12.8918 28.5921 14.4002C28.5921 14.8875 28.5311 15.3749 28.3954 16.0606H25.2991C25.2841 16.1674 25.2841 16.2138 25.2841 16.2741C25.2841 17.0516 25.7522 17.4472 26.6586 17.4472C27.2176 17.4472 27.7156 17.3103 28.2746 17.0214L28.0181 18.6969ZM27.1417 14.6891C27.1566 14.5522 27.1566 14.4304 27.1566 14.3549C27.1566 13.8061 26.8852 13.4859 26.4171 13.4859C25.9179 13.4859 25.5705 13.9129 25.4198 14.6891H27.1417Z" fill="#727272" fill-opacity="0.6"/>
<path fill-rule="evenodd" clip-rule="evenodd" d="M49.7689 18.6969C49.2249 18.8802 48.7119 18.9719 48.1679 18.9719C46.4311 18.9719 45.5098 17.9357 45.5098 15.9539C45.5098 13.6541 46.6726 11.9473 48.2438 11.9473C49.5274 11.9473 50.3429 12.8918 50.3429 14.4002C50.3429 14.8875 50.2819 15.3749 50.1462 16.0606H47.0499C47.0349 16.1674 47.0349 16.2138 47.0349 16.2741C47.0349 17.0516 47.503 17.4472 48.4094 17.4472C48.9684 17.4472 49.4664 17.3103 50.0254 17.0214L49.7689 18.6969ZM48.8925 14.6891C48.8925 14.5522 48.9074 14.4304 48.9074 14.3549C48.9074 13.8061 48.636 13.4859 48.1679 13.4859C47.6687 13.4859 47.3225 13.9129 47.1706 14.6891H48.8925Z" fill="#727272" fill-opacity="0.6"/>
<path fill-rule="evenodd" clip-rule="evenodd" d="M4.84805 12.3137C4.5467 12.1002 4.12343 11.9331 3.54949 11.9331C2.91458 11.9331 2.41655 12.07 2.41655 12.7395C2.41655 13.9288 4.71233 13.4868 4.71233 16.0464C4.71233 18.3775 3.20213 18.9879 1.82765 18.9879C1.2238 18.9879 0.512985 18.7895 0 18.5458L0.377263 16.8389C0.694715 17.129 1.31467 17.3263 1.84261 17.3263C2.34064 17.3263 3.09631 17.1894 3.09631 16.3203C3.09631 14.965 0.800533 15.4674 0.800533 13.0899C0.800533 10.912 2.14511 10.2715 3.44367 10.2715C4.16829 10.2715 4.86416 10.3782 5.25637 10.6521L4.84805 12.3137Z" fill="#727272" fill-opacity="0.6"/>
<path fill-rule="evenodd" clip-rule="evenodd" d="M14.0329 18.696C13.7155 18.848 13.2773 18.9548 12.6424 18.9548C11.284 18.9548 10.4374 17.5844 10.4374 15.9078C10.4374 13.7136 11.6612 11.9766 13.4578 11.9766C13.8512 11.9766 14.4551 12.1436 14.9232 12.4186L14.577 14.0187C14.2434 13.7902 13.8961 13.6532 13.5338 13.6532C12.7033 13.6532 12.0995 14.4295 12.0995 15.801C12.0995 16.5935 12.5377 17.2491 13.2174 17.2491C13.6246 17.2491 13.911 17.1574 14.2595 16.959L14.0329 18.696Z" fill="#727272" fill-opacity="0.6"/>
<path fill-rule="evenodd" clip-rule="evenodd" d="M19.8616 17.003C19.7869 17.5832 19.711 18.1459 19.6661 18.74H18.1709L18.2916 17.6586H18.2767C17.8086 18.3907 17.3255 18.8932 16.464 18.8932C15.5277 18.8932 15.0136 17.8872 15.0136 16.5922C15.0136 16.1351 15.0435 15.8914 15.1344 15.1906L15.5576 12.082H17.2346L16.7814 15.2056C16.7354 15.541 16.6756 15.8763 16.6756 16.2267C16.6756 16.6224 16.8562 17.0192 17.3094 16.9879C17.9891 16.9879 18.3975 16.1501 18.5182 15.1604L18.9864 12.082H20.6024L19.8616 17.003Z" fill="#727272" fill-opacity="0.6"/>
<path fill-rule="evenodd" clip-rule="evenodd" d="M51.3219 18.665H51.0654V17.5523H50.7031V17.3086H51.6842V17.5523H51.3219V18.665Z" fill="#727272" fill-opacity="0.6"/>
<path fill-rule="evenodd" clip-rule="evenodd" d="M53.0001 18.665H52.7585V17.5372L52.5319 18.665H52.2904L52.0638 17.5372V18.665H51.8223V17.3086H52.1995L52.4112 18.3749H52.4261L52.6378 17.3086H53.0001V18.665Z" fill="#727272" fill-opacity="0.6"/>
</svg>
