<svg width="105" height="35" viewBox="0 0 105 35" fill="none" xmlns="http://www.w3.org/2000/svg">
<path d="M5.82436 0.828291L0.566406 13.2439H3.98962L4.95979 10.7577H10.5998L11.5649 13.2439H15.0636L9.81043 0.828291H5.82436ZM7.7697 3.71767L9.48881 8.06223H6.04558L7.7697 3.71767ZM15.4254 13.2417V0.826172L20.2899 0.844489L23.1193 8.84933L25.881 0.826172H30.7067V13.2417H27.6505V4.09343L24.4107 13.2417H21.7304L18.4817 4.09343V13.2417H15.4254ZM32.7978 13.2417V0.826172H42.7708V3.60333H35.8863V5.72701H42.61V8.3409H35.8863V10.5463H42.7708V13.2417H32.7978ZM44.5403 0.828291V13.2439H47.5966V8.83302H48.8834L52.5478 13.2439H56.2827L52.2613 8.66965C53.9117 8.5282 55.6142 7.08965 55.6142 4.85617C55.6142 2.24355 53.595 0.828291 51.3415 0.828291H44.5403ZM47.5966 3.60544H51.0901C51.9282 3.60544 52.5378 4.2712 52.5378 4.91229C52.5378 5.73707 51.7479 6.21923 51.1354 6.21923H47.5966V3.60544ZM59.9824 13.2417H56.8619V0.826172H59.9824V13.2417ZM67.3817 13.2417H66.7083C63.4491 13.2417 61.4703 10.634 61.4703 7.08499C61.4703 3.44822 63.4269 0.826172 67.5426 0.826172H70.9206V3.7667H67.4192C65.7484 3.7667 64.5668 5.0909 64.5668 7.11559C64.5668 9.52006 65.9179 10.5299 67.8643 10.5299H68.6686L67.3817 13.2417ZM74.0322 0.828291L68.7742 13.2439H72.1974L73.1675 10.7577H78.8075L79.7727 13.2439H83.2713L78.0183 0.828291H74.0322ZM75.9775 3.71767L77.6966 8.06223H74.2533L75.9775 3.71767ZM83.6281 13.2417V0.826172H87.5138L92.4752 8.62677V0.826172H95.5315V13.2417H91.7715L86.6844 5.23701V13.2417H83.6281ZM22.8248 34.969V22.5534H32.7978V25.3306H25.9132V27.4544H32.6369V30.0681H25.9132V32.2736H32.7978V34.969H22.8248ZM71.6928 34.969V22.5534H81.6657V25.3306H74.7811V27.4544H81.4727V30.0681H74.781V32.2736H81.6656V34.969H71.6928ZM33.1849 34.969L38.0407 28.8379L33.0693 22.5534H36.9198L39.8806 26.4384L42.8514 22.5534H46.5511L41.645 28.7612L46.5097 34.969H42.6599L39.7851 31.1453L36.9802 34.969H33.1849ZM46.8727 22.5555V34.9711H50.0094V31.0505H53.2265C55.9486 31.0505 58.012 29.5838 58.012 26.7315C58.012 24.3687 56.3937 22.5555 53.6236 22.5555H46.8727ZM50.0094 25.3634H53.3974C54.2768 25.3634 54.9054 25.9108 54.9054 26.7927C54.9054 27.6213 54.28 28.2222 53.3874 28.2222H50.0094V25.3634ZM59.339 22.5534V34.969H62.3952V30.5581H63.6821L67.3466 34.969H71.0814L67.0601 30.3949C68.7104 30.2534 70.4128 28.8148 70.4128 26.5813C70.4128 23.9687 68.3937 22.5534 66.1402 22.5534H59.339ZM62.3952 25.3306H65.8888C66.7269 25.3306 67.3366 25.9963 67.3366 26.6375C67.3366 27.4623 66.5467 27.9444 65.9341 27.9444H62.3952V25.3306ZM83.0812 34.969V32.2736H89.1978C90.1028 32.2736 90.4947 31.7768 90.4947 31.232C90.4947 30.7101 90.1041 30.1825 89.1978 30.1825H86.4338C84.0313 30.1825 82.6932 28.696 82.6932 26.464C82.6932 24.4732 83.9185 22.5534 87.4888 22.5534H93.4403L92.1536 25.347H87.0061C86.0222 25.347 85.7193 25.8713 85.7193 26.3721C85.7193 26.8866 86.0936 27.4544 86.8453 27.4544H89.7407C92.4189 27.4544 93.5811 28.9972 93.5811 31.0176C93.5811 33.1899 92.2861 34.969 89.5949 34.969H83.0812ZM94.2984 34.969V32.2736H100.415C101.32 32.2736 101.712 31.7768 101.712 31.232C101.712 30.7101 101.321 30.1825 100.415 30.1825H97.651C95.2484 30.1825 93.9104 28.696 93.9104 26.464C93.9104 24.4732 95.1357 22.5534 98.7059 22.5534H104.658L103.371 25.347H98.2233C97.2394 25.347 96.9364 25.8713 96.9364 26.3721C96.9364 26.8866 97.3107 27.4544 98.0625 27.4544H100.958C103.636 27.4544 104.798 28.9972 104.798 31.0176C104.798 33.1899 103.503 34.969 100.812 34.969H94.2984Z" fill="#727272" fill-opacity="0.6"/>
</svg>
