<svg width="90" height="35" viewBox="0 0 90 35" fill="none" xmlns="http://www.w3.org/2000/svg">
<path d="M52.1486 21.5984C49.3988 22.4715 46.7129 23.3284 43.9631 24.2015C43.9631 23.9752 43.9631 23.7973 43.9631 23.6356C43.9631 19.448 43.9631 15.2441 43.9631 11.0564C43.9631 10.5067 43.9631 10.5067 43.4035 10.5067C41.9967 10.5067 40.5738 10.5229 39.1669 10.5067C38.7992 10.5067 38.6873 10.6199 38.6873 10.9918C38.7033 15.2765 38.7033 19.545 38.6873 23.8297C38.6873 24.1692 38.7832 24.2986 39.1349 24.2986C40.5738 24.2824 42.0126 24.2986 43.4835 24.3471C43.4035 24.3794 43.3076 24.4279 43.2277 24.4602C33.1237 27.6778 23.0038 30.8954 12.8999 34.1129C12.692 34.1776 12.5162 34.2584 12.4043 33.9512C11.2532 30.766 10.0861 27.5808 8.90306 24.3309C9.11089 24.3147 9.27076 24.2986 9.43064 24.2986C10.8215 24.2986 12.1964 24.2824 13.5873 24.3147C13.987 24.3147 14.0829 24.1854 14.0669 23.8135C14.051 22.7787 14.0829 21.7439 14.051 20.7091C14.035 20.2887 14.1788 20.1917 14.5785 20.1917C16.0494 20.2241 17.5202 20.0947 18.9271 19.5773C20.27 19.0761 21.3731 18.3 21.9167 16.9095C22.796 14.7106 21.9007 12.4469 19.7584 11.4445C18.5434 10.8786 17.2484 10.6037 15.9374 10.5876C13.6992 10.539 11.461 10.5714 9.2228 10.539C8.79115 10.539 8.83911 10.8139 8.83911 11.0726C8.83911 15.1956 8.83911 19.3186 8.83911 23.4416C8.83911 23.5871 8.83911 23.7165 8.83911 23.862C8.80713 23.862 8.77516 23.8782 8.75917 23.8782C6.13726 16.6993 3.54733 9.5851 0.941406 2.39006C1.8207 2.34155 2.65204 2.27687 3.48338 2.22837C10.7736 1.82415 18.0797 1.40377 25.3699 0.999552C30.9974 0.676179 36.609 0.352806 42.2365 0.0294336C42.5562 0.0132649 42.6521 0.174952 42.7481 0.401313C44.9703 5.41359 47.1925 10.4259 49.4307 15.4381C50.2621 17.3137 51.0934 19.1893 51.9247 21.0487C51.9887 21.2103 52.0367 21.372 52.1486 21.5984ZM36.2892 14.6459C36.3052 14.4519 36.3212 14.3063 36.3212 14.177C36.3212 13.2392 36.3052 12.3014 36.3372 11.3798C36.3532 11.0241 36.2253 10.8786 35.9055 10.7816C34.3548 10.248 32.772 10.2157 31.1733 10.2965C29.6705 10.3774 28.1997 10.7007 26.8567 11.4445C24.4267 12.7703 23.0678 14.7752 23.1477 17.6209C23.2276 20.5151 24.6825 22.52 27.3044 23.5871C30.262 24.7998 33.2836 24.7513 36.3372 23.9267C36.593 23.862 36.6569 23.7165 36.6569 23.474C36.6409 22.5362 36.6409 21.5984 36.6409 20.6768C36.6409 20.5798 36.609 20.4989 36.593 20.3857C35.8735 20.5798 35.2021 20.8061 34.5146 20.9516C33.2836 21.1942 32.0686 21.2265 30.8695 20.7415C29.3188 20.127 28.4874 18.7365 28.6473 17.0388C28.8072 15.2441 29.7984 14.1123 31.493 13.7889C32.9958 13.5141 34.4187 13.8051 35.7776 14.4357C35.9215 14.4842 36.0814 14.5489 36.2892 14.6459ZM44.4907 6.22202C44.4907 4.41114 43.2117 3.19849 41.3092 3.19849C39.4067 3.19849 38.1277 4.41114 38.1277 6.22202C38.1277 8.00057 39.4067 9.21322 41.2932 9.22939C43.1957 9.24555 44.4907 8.01674 44.4907 6.22202Z" fill="#727272" fill-opacity="0.6"/>
<path d="M59.0918 5.03875H63.7601C64.6873 5.03875 65.4227 5.1681 65.9823 5.41063C66.5419 5.66933 67.0215 6.02503 67.3892 6.49392C67.7569 6.96281 68.0287 7.51255 68.1885 8.14313C68.3484 8.7737 68.4443 9.43662 68.4443 10.1319C68.4443 11.2313 68.3164 12.0883 68.0766 12.6865C67.8368 13.2848 67.4851 13.8021 67.0534 14.2064C66.6218 14.6106 66.1422 14.8854 65.6466 15.031C64.9591 15.225 64.3356 15.3058 63.7761 15.3058H59.1078V5.03875H59.0918ZM62.2253 7.36703V12.9775H62.9927C63.6482 12.9775 64.1118 12.8967 64.3996 12.7512C64.6713 12.6057 64.8952 12.347 65.055 11.9751C65.2149 11.6032 65.2948 11.0211 65.2948 10.1965C65.2948 9.11324 65.119 8.36949 64.7673 7.96527C64.4156 7.56106 63.84 7.36703 63.0247 7.36703H62.2253ZM69.5475 11.9266L72.5371 11.7326C72.601 12.2176 72.7289 12.5895 72.9368 12.8482C73.2565 13.2686 73.7201 13.4788 74.3276 13.4788C74.7753 13.4788 75.127 13.3656 75.3668 13.1554C75.6066 12.9452 75.7345 12.7027 75.7345 12.4116C75.7345 12.1529 75.6226 11.9104 75.3828 11.7002C75.159 11.49 74.6154 11.296 73.7681 11.102C72.3932 10.7948 71.402 10.3744 70.8264 9.857C70.2349 9.33961 69.9311 8.67669 69.9311 7.86826C69.9311 7.33469 70.075 6.83347 70.3788 6.36458C70.6825 5.89569 71.1302 5.52381 71.7377 5.24894C72.3452 4.97408 73.1766 4.84473 74.2317 4.84473C75.5267 4.84473 76.5179 5.08726 77.2053 5.57232C77.8928 6.05737 78.2925 6.83347 78.4204 7.9006L75.4627 8.07845C75.3828 7.60956 75.2229 7.28619 74.9671 7.076C74.7113 6.8658 74.3596 6.75262 73.928 6.75262C73.5603 6.75262 73.2885 6.83347 73.0966 6.99515C72.9048 7.15684 72.8248 7.33469 72.8248 7.56106C72.8248 7.72274 72.9048 7.86826 73.0487 7.99761C73.1925 8.12696 73.5443 8.25631 74.1038 8.36949C75.4787 8.67669 76.4539 8.96773 77.0615 9.27493C77.653 9.58214 78.0846 9.95401 78.3564 10.4067C78.6282 10.8595 78.7561 11.3607 78.7561 11.9266C78.7561 12.5895 78.5802 13.1877 78.2125 13.7536C77.8448 14.3034 77.3492 14.7238 76.6938 15.0148C76.0543 15.3058 75.2229 15.4513 74.2477 15.4513C72.5211 15.4513 71.322 15.1118 70.6506 14.4489C70.0111 13.8183 69.6274 12.9614 69.5475 11.9266ZM79.7953 11.9266L82.7849 11.7326C82.8489 12.2176 82.9767 12.5895 83.1846 12.8482C83.5043 13.2686 83.968 13.4788 84.5755 13.4788C85.0231 13.4788 85.3748 13.3656 85.6146 13.1554C85.8544 12.9452 85.9824 12.7027 85.9824 12.4116C85.9824 12.1529 85.8704 11.9104 85.6306 11.7002C85.4068 11.49 84.8632 11.296 84.0159 11.102C82.641 10.7948 81.6498 10.3744 81.0743 9.857C80.4827 9.33961 80.179 8.67669 80.179 7.86826C80.179 7.33469 80.3229 6.83347 80.6266 6.36458C80.9304 5.89569 81.378 5.52381 81.9855 5.24894C82.5931 4.97408 83.4244 4.84473 84.4795 4.84473C85.7745 4.84473 86.7657 5.08726 87.4532 5.57232C88.1406 6.05737 88.5403 6.83347 88.6682 7.9006L85.7106 8.07845C85.6306 7.60956 85.4708 7.28619 85.215 7.076C84.9592 6.8658 84.6074 6.75262 84.1758 6.75262C83.8081 6.75262 83.5363 6.83347 83.3445 6.99515C83.1526 7.15684 83.0727 7.33469 83.0727 7.56106C83.0727 7.72274 83.1526 7.86826 83.2965 7.99761C83.4404 8.12696 83.7921 8.25631 84.3517 8.36949C85.7266 8.67669 86.7018 8.96773 87.3093 9.27493C87.9008 9.58214 88.3325 9.95401 88.6043 10.4067C88.876 10.8595 89.0039 11.3607 89.0039 11.9266C89.0039 12.5895 88.8281 13.1877 88.4604 13.7536C88.0927 14.3034 87.5971 14.7238 86.9416 15.0148C86.3021 15.3058 85.4708 15.4513 84.4955 15.4513C82.7689 15.4513 81.5699 15.1118 80.8984 14.4489C80.2589 13.8183 79.8752 12.9614 79.7953 11.9266Z" fill="#727272" fill-opacity="0.6"/>
<path d="M61.0098 19.3806L61.8412 19.6393C61.7772 19.8818 61.6973 20.0758 61.5694 20.2375C61.4415 20.3992 61.2976 20.5124 61.1218 20.5932C60.9459 20.674 60.7221 20.7226 60.4343 20.7226C60.0986 20.7226 59.8268 20.674 59.6189 20.577C59.4111 20.48 59.2193 20.3022 59.0754 20.0596C58.9315 19.8171 58.8516 19.4937 58.8516 19.1057C58.8516 18.5883 58.9795 18.1841 59.2672 17.9092C59.539 17.6343 59.9227 17.4888 60.4183 17.4888C60.802 17.4888 61.1058 17.5697 61.3296 17.7314C61.5534 17.893 61.7133 18.1356 61.8252 18.4589L60.9779 18.653C60.9459 18.556 60.9139 18.4913 60.8819 18.4428C60.834 18.3619 60.77 18.3134 60.6901 18.2649C60.6102 18.2164 60.5302 18.2002 60.4343 18.2002C60.2105 18.2002 60.0506 18.2811 59.9387 18.4589C59.8588 18.5883 59.8108 18.7985 59.8108 19.0734C59.8108 19.4129 59.8588 19.6554 59.9707 19.7848C60.0666 19.9141 60.2265 19.9788 60.4023 19.9788C60.5782 19.9788 60.7221 19.9303 60.818 19.8171C60.8979 19.7201 60.9779 19.5746 61.0098 19.3806ZM62.3688 19.0895C62.3688 18.5721 62.5126 18.1841 62.7844 17.893C63.0722 17.602 63.4559 17.4727 63.9515 17.4727C64.4631 17.4727 64.8628 17.6182 65.1346 17.893C65.4063 18.1679 65.5502 18.556 65.5502 19.0734C65.5502 19.4452 65.4863 19.7363 65.3744 19.9788C65.2465 20.2052 65.0706 20.3992 64.8468 20.5285C64.623 20.6579 64.3352 20.7226 63.9835 20.7226C63.6317 20.7226 63.344 20.674 63.1202 20.5609C62.8963 20.4477 62.7045 20.2698 62.5606 20.0273C62.4167 19.7848 62.3688 19.4614 62.3688 19.0895ZM63.328 19.1057C63.328 19.4291 63.3919 19.6554 63.5039 19.7848C63.6158 19.9303 63.7756 19.995 63.9835 19.995C64.1913 19.995 64.3512 19.9303 64.4631 19.7848C64.575 19.6554 64.639 19.4129 64.639 19.0572C64.639 18.7662 64.575 18.556 64.4631 18.4104C64.3512 18.2811 64.1913 18.2002 63.9835 18.2002C63.7916 18.2002 63.6318 18.2649 63.5198 18.4104C63.376 18.556 63.328 18.7823 63.328 19.1057ZM66.2537 17.5373H67.5167L67.9963 19.4452L68.4759 17.5373H69.7229V20.6579H68.9395V18.2811L68.332 20.6579H67.6286L67.021 18.2811V20.6579H66.2377L66.2537 17.5373ZM70.5063 17.5373H72.089C72.4407 17.5373 72.6965 17.6182 72.8724 17.7799C73.0482 17.9416 73.1282 18.1841 73.1282 18.4913C73.1282 18.8147 73.0323 19.0572 72.8404 19.235C72.6486 19.4129 72.3608 19.4937 71.9771 19.4937H71.4495V20.6579H70.4903L70.5063 17.5373ZM71.4655 18.8632H71.7053C71.8972 18.8632 72.0251 18.8308 72.089 18.7661C72.1689 18.7015 72.2009 18.6206 72.2009 18.5236C72.2009 18.4266 72.1689 18.3458 72.105 18.2811C72.041 18.2164 71.9131 18.1841 71.7373 18.1841H71.4655V18.8632ZM73.7996 17.5373H74.7589V19.898H76.2457V20.674H73.7996V17.5373ZM76.8852 17.5373H77.8444V20.6579H76.8852V17.5373ZM80.5942 20.1405H79.5071L79.3632 20.6579H78.388L79.5551 17.5373H80.5942L81.7613 20.6579H80.7541L80.5942 20.1405ZM80.4024 19.4614L80.0667 18.3458L79.7309 19.4614H80.4024ZM82.2409 17.5373H83.1362L84.3033 19.2674V17.5373H85.1986V20.6579H84.3033L83.1522 18.944V20.6579H82.2569L82.2409 17.5373ZM85.7741 17.5373H88.6838V18.3134H87.7086V20.674H86.7493V18.3134H85.7741V17.5373Z" fill="#727272" fill-opacity="0.6"/>
</svg>
