<svg width="29" height="9" viewBox="0 0 29 9" fill="none" xmlns="http://www.w3.org/2000/svg">
<path fill-rule="evenodd" clip-rule="evenodd" d="M2.68178 0.407639C2.94087 0.406044 3.71086 0.33471 4.03702 1.46698C4.25672 2.22969 4.60669 3.47904 5.08693 5.21504H5.28251C5.79753 3.38483 6.15132 2.13548 6.34388 1.46698C6.67344 0.322915 7.49732 0.407661 7.82687 0.407661L10.3694 0.407664V8.54321H7.77798V3.7488H7.60421L6.15959 8.54321H4.20985L2.76524 3.74524H2.59146V8.54321H0V0.407664L2.68178 0.407639ZM14.0907 0.407664V5.20565H14.2975L16.0547 1.2603C16.3958 0.475164 17.1228 0.407664 17.1228 0.407664H19.6306V8.54323H16.985V3.74524H16.7783L15.0555 7.69059C14.7144 8.47217 13.9529 8.54323 13.9529 8.54323H11.4451V0.407664H14.0907ZM28.7749 4.27374C28.4059 5.34941 27.247 6.11977 25.9639 6.11977H23.1895V8.54323H20.6737V4.27374H28.7749Z" fill="#727272" fill-opacity="0.6"/>
<path fill-rule="evenodd" clip-rule="evenodd" d="M26.0845 0.408203H20.541C20.6729 2.21946 22.1894 3.77001 23.7592 3.77001H28.949C29.2485 2.26464 28.2175 0.408203 26.0845 0.408203Z" fill="#999999" fill-opacity="0.6"/>
</svg>
