<svg width="96" height="35" viewBox="0 0 96 35" fill="none" xmlns="http://www.w3.org/2000/svg">
<path fill-rule="evenodd" clip-rule="evenodd" d="M90.0332 14.2203C90.0332 13.1797 90.8476 12.3311 91.8232 12.3311C92.8278 12.3311 93.6153 13.1797 93.6153 14.2203C93.6153 15.2608 92.8278 16.1095 91.8232 16.1095C90.8476 16.1366 90.0332 15.2879 90.0332 14.2203ZM91.8232 15.6987C92.5839 15.6987 93.1813 15.0419 93.1813 14.2474C93.1813 13.4529 92.557 12.7961 91.8232 12.7961C91.0646 12.7961 90.4673 13.4529 90.4673 14.2474C90.4673 15.0419 91.0646 15.6987 91.8232 15.6987ZM91.5793 15.069H91.199V13.3987H91.879C92.0134 13.3987 92.1767 13.3987 92.2862 13.48C92.4206 13.5634 92.4764 13.7261 92.4764 13.8908C92.4764 14.0826 92.3669 14.2474 92.2036 14.3016L92.5033 15.0419H92.0961L91.8522 14.3829H91.5793V15.069ZM91.5793 14.1369H91.7964C91.879 14.1369 91.9597 14.1369 92.0134 14.1098C92.0671 14.0826 92.0961 14.0013 92.0961 13.9179C92.0961 13.8637 92.0671 13.7824 92.0134 13.7553C91.9597 13.7261 91.8522 13.7261 91.7964 13.7261H91.6062L91.5793 14.1369Z" fill="#727272" fill-opacity="0.6"/>
<path fill-rule="evenodd" clip-rule="evenodd" d="M64.3893 1.59256L63.9015 4.82467C62.8432 4.24914 62.0556 4.03019 61.2144 4.03019C58.9882 4.03019 57.4131 6.3302 57.4131 9.58941C57.4131 11.8331 58.4715 13.2031 60.2098 13.2031C60.9415 13.2031 61.7559 12.9571 62.7605 12.4358L62.2437 15.8326C61.1317 16.16 60.4268 16.2705 59.5856 16.2705C56.3548 16.2705 54.3457 13.8057 54.3457 9.86258C54.3457 4.54941 57.1155 0.825195 61.1048 0.825195C61.6195 0.825195 62.0825 0.879411 62.4628 0.989928L63.7113 1.31939C64.0358 1.45493 64.1185 1.48204 64.3893 1.59256Z" fill="#727272" fill-opacity="0.6"/>
<path fill-rule="evenodd" clip-rule="evenodd" d="M54.4241 3.81129C54.3414 3.78418 54.2339 3.78418 54.1244 3.78418C53.1467 3.78418 52.5782 4.3034 51.6543 5.75472L51.9251 3.91972H49.2111L47.3652 15.9953H50.3789C51.4641 8.60314 51.7349 7.34367 53.1735 7.34367C53.2562 7.34367 53.2831 7.34367 53.3906 7.34367C53.6634 5.89235 54.0148 4.82471 54.5316 3.8384L54.4241 3.81129Z" fill="#727272" fill-opacity="0.6"/>
<path fill-rule="evenodd" clip-rule="evenodd" d="M36.4806 15.8302C35.6662 16.1033 35.0151 16.2389 34.3371 16.2389C32.8178 16.2389 31.9766 15.3089 31.9766 13.5844C31.9766 13.2549 32.0034 12.8712 32.0572 12.4876L32.2473 11.3115L32.3817 10.3523L33.686 2.10938H36.6707L36.3193 3.89016H37.8655L37.4314 6.81991H35.9101L35.1246 11.8578C35.0977 12.0768 35.0688 12.2415 35.0688 12.352C35.0688 12.9818 35.3954 13.2549 36.1023 13.2549C36.4537 13.2549 36.6976 13.2278 36.9146 13.1465L36.4806 15.8302Z" fill="#727272" fill-opacity="0.6"/>
<path fill-rule="evenodd" clip-rule="evenodd" d="M24.6493 7.72617C24.6493 9.2609 25.3541 10.3014 26.9292 11.0959C28.1239 11.6985 28.341 11.8883 28.341 12.4367C28.341 13.177 27.7973 13.5314 26.6295 13.5314C25.7345 13.5314 24.9201 13.3959 23.9424 13.0393L23.5352 15.8335L23.6716 15.8607L24.2152 15.9691C24.4054 15.9962 24.6493 16.0504 25.0007 16.0796C25.7076 16.1338 26.2781 16.188 26.6563 16.188C29.8065 16.188 31.272 14.9014 31.272 12.1635C31.272 10.5204 30.6746 9.53406 29.1554 8.79589C27.9069 8.19326 27.7705 8.05564 27.7705 7.48011C27.7705 6.82327 28.2583 6.49588 29.236 6.49588C29.8333 6.49588 30.6209 6.57721 31.3815 6.68564L31.8156 3.89352C31.0281 3.75589 29.8602 3.64746 29.1822 3.64746C25.7882 3.64746 24.6224 5.48246 24.6493 7.72617Z" fill="#727272" fill-opacity="0.6"/>
<path fill-rule="evenodd" clip-rule="evenodd" d="M88.2974 15.9723H85.447L85.5834 14.7962C84.769 15.7263 83.9009 16.137 82.8157 16.137C80.6164 16.137 79.1777 14.1373 79.1777 11.1262C79.1777 7.09966 81.4039 3.70491 84.0641 3.70491C85.2299 3.70491 86.1001 4.22621 86.9414 5.34807L87.5925 1.10254H90.5504L88.2974 15.9723ZM83.874 13.1531C85.2857 13.1531 86.2614 11.4828 86.2614 9.07229C86.2614 7.53964 85.6929 6.68887 84.6594 6.68887C83.3035 6.68887 82.3258 8.38833 82.3258 10.7426C82.3258 12.3315 82.8425 13.1531 83.874 13.1531Z" fill="#727272" fill-opacity="0.6"/>
<path fill-rule="evenodd" clip-rule="evenodd" d="M45.9808 15.7167C44.9494 16.0441 43.9738 16.2088 42.8886 16.2088C39.5483 16.2088 37.7852 14.3467 37.7852 10.7872C37.7852 6.62509 40.0093 3.58691 43.023 3.58691C45.493 3.58691 47.0681 5.3114 47.0681 7.99509C47.0681 8.87089 46.9585 9.74668 46.6878 10.9791H40.7162C40.6893 11.1709 40.6893 11.2543 40.6893 11.3627C40.6893 12.7869 41.5843 13.498 43.3227 13.498C44.381 13.498 45.3587 13.252 46.4439 12.7327L45.9808 15.7167ZM44.2983 8.51431C44.3272 8.26825 44.3272 8.04931 44.3272 7.91168C44.3272 6.92537 43.8105 6.35193 42.9155 6.35193C41.9646 6.35193 41.2867 7.11929 41.0138 8.51431H44.2983Z" fill="#727272" fill-opacity="0.6"/>
<path fill-rule="evenodd" clip-rule="evenodd" d="M12.5961 15.9675H9.6113L11.3207 4.54882L7.46574 15.9675H5.42974L5.18583 4.63222L3.36686 15.9675H0.572266L2.90592 1.12695H7.22184L7.33139 10.327L10.2624 1.12695H14.9318L12.5961 15.9675Z" fill="#727272" fill-opacity="0.6"/>
<path fill-rule="evenodd" clip-rule="evenodd" d="M20.3278 10.6005C20.0012 10.5734 19.8668 10.5463 19.6498 10.5463C17.9383 10.5463 17.097 11.176 17.097 12.3813C17.097 13.1215 17.5311 13.6136 18.1822 13.6136C19.3769 13.6136 20.274 12.3813 20.3278 10.6005ZM22.4981 15.9679H20.0012L20.0549 14.7084C19.2963 15.7218 18.2918 16.1597 16.9069 16.1597C15.2781 16.1597 14.166 14.8189 14.166 12.8734C14.166 9.91653 16.1193 8.21916 19.4328 8.21916C19.7841 8.21916 20.2182 8.24627 20.6523 8.30048C20.735 7.88969 20.7618 7.72496 20.7618 7.50601C20.7618 6.71362 20.2472 6.41126 18.8354 6.41126C17.9941 6.41126 17.0164 6.54889 16.3364 6.76784L15.9581 6.90338L15.6853 6.98679L16.0925 4.27599C17.5848 3.81098 18.5894 3.61914 19.6767 3.61914C22.2542 3.61914 23.6122 4.85151 23.6122 7.15152C23.6122 7.75415 23.5564 8.19205 23.3663 9.55996L22.771 13.8597L22.6614 14.6271L22.5808 15.2276L22.5271 15.6676L22.4981 15.9679Z" fill="#727272" fill-opacity="0.6"/>
<path fill-rule="evenodd" clip-rule="evenodd" d="M69.568 10.5954C69.2704 10.5683 69.1071 10.5412 68.89 10.5412C67.1806 10.5412 66.3104 11.1709 66.3104 12.3762C66.3104 13.1164 66.7465 13.6085 67.3976 13.6085C68.6192 13.6085 69.5143 12.3762 69.568 10.5954ZM71.7404 15.9628H69.2435L69.2972 14.7033C68.5366 15.7167 67.532 16.1546 66.1492 16.1546C64.5204 16.1546 63.4062 14.8138 63.4062 12.8683C63.4062 9.91141 65.3616 8.21404 68.673 8.21404C68.9975 8.21404 69.4605 8.24115 69.8946 8.29536C69.9752 7.88457 70.0021 7.71984 70.0021 7.50089C70.0021 6.7085 69.4874 6.40614 68.0756 6.40614C67.2344 6.40614 66.2567 6.54377 65.5787 6.76272L65.1446 6.87115L64.8718 6.95456L65.279 4.24376C66.7734 3.77876 67.778 3.58691 68.8632 3.58691C71.4407 3.58691 72.7987 4.81929 72.7987 7.11929C72.7987 7.71984 72.745 8.15982 72.5548 9.52773L71.9306 13.8004L71.8479 14.5677L71.7673 15.1683L71.7136 15.5791L71.7404 15.9628Z" fill="#727272" fill-opacity="0.6"/>
<path fill-rule="evenodd" clip-rule="evenodd" d="M80.1252 3.81129C80.0426 3.78418 79.9351 3.78418 79.8255 3.78418C78.8478 3.78418 78.2773 4.3034 77.3555 5.75472L77.6283 3.91972H74.9122L73.0664 15.9953H76.0801C77.1653 8.60314 77.4361 7.34367 78.8747 7.34367C78.9574 7.34367 78.9574 7.34367 79.0938 7.34367C79.3646 5.89235 79.7449 4.82471 80.2327 3.8384L80.1252 3.81129Z" fill="#727272" fill-opacity="0.6"/>
<path fill-rule="evenodd" clip-rule="evenodd" d="M67.5324 27.7148C67.5324 30.4527 66.6911 32.0688 65.362 32.0688C64.3843 32.0959 63.8138 31.0011 63.8138 29.3851C63.8138 27.4687 64.682 25.2772 66.04 25.2772C67.1521 25.2772 67.5324 26.4553 67.5324 27.7148ZM70.4923 27.7419C70.4923 24.7016 68.9979 22.3203 66.2033 22.3203C62.9726 22.3203 60.8828 25.1958 60.8828 29.4393C60.8828 32.4795 62.1313 34.9714 65.1719 34.9714C68.2393 34.9714 70.4923 32.7798 70.4923 27.7419Z" fill="#727272" fill-opacity="0.6"/>
<path fill-rule="evenodd" clip-rule="evenodd" d="M61.8295 20.2166L61.3665 23.4466C60.364 22.8732 59.6571 22.6521 58.8696 22.6521C56.7798 22.6521 55.3143 24.9542 55.3143 28.2114C55.3143 30.4571 56.292 31.8271 57.9208 31.8271C58.6257 31.8271 59.3863 31.579 60.3082 31.0598L59.8204 34.4545C58.7889 34.784 58.1089 34.8924 57.3234 34.8924C54.3097 34.8924 52.4102 32.4298 52.4102 28.4845C52.4102 23.1734 55.0146 19.4492 58.7352 19.4492C59.223 19.4492 59.6302 19.5034 59.9837 19.614L61.1226 19.9413C61.5029 20.0518 61.5835 20.079 61.8295 20.2166Z" fill="#727272" fill-opacity="0.6"/>
<path fill-rule="evenodd" clip-rule="evenodd" d="M43.2975 22.3992C43.2169 22.3721 43.1094 22.3721 42.9998 22.3721C42.0779 22.3721 41.5612 22.8934 40.693 24.3426L40.9638 22.5097H38.44L36.7285 34.5853H39.5252C40.5297 27.191 40.8005 25.9316 42.1317 25.9316C42.2123 25.9316 42.2123 25.9316 42.3487 25.9587C42.5926 24.5073 42.9461 23.4397 43.407 22.4534L43.2975 22.3992Z" fill="#727272" fill-opacity="0.6"/>
<path fill-rule="evenodd" clip-rule="evenodd" d="M79.8875 34.4822H77.2273L77.3637 33.3061C76.603 34.2361 75.7886 34.6469 74.7572 34.6469C72.7212 34.6469 71.3652 32.6472 71.3652 29.6361C71.3652 25.6116 73.455 22.2148 75.9251 22.2148C77.0102 22.2148 77.8515 22.7361 78.6122 23.885L79.2364 19.6416H82.0062L79.8875 34.4822ZM75.7349 31.6358C77.066 31.6358 77.9611 29.9656 77.9611 27.555C77.9611 26.0224 77.4443 25.2008 76.4687 25.2008C75.1933 25.2008 74.2963 26.8711 74.2963 29.2524C74.2963 30.8414 74.7841 31.6358 75.7349 31.6358Z" fill="#727272" fill-opacity="0.6"/>
<path fill-rule="evenodd" clip-rule="evenodd" d="M17.0198 34.4257C16.069 34.7551 15.1471 34.9199 14.1426 34.9199C11.0214 34.9199 9.39258 33.0578 9.39258 29.4962C9.39258 25.3633 11.4823 22.2959 14.2769 22.2959C16.5858 22.2959 18.0513 23.9933 18.0513 26.7041C18.0513 27.5799 17.9417 28.4557 17.6978 29.688H12.1334C12.1066 29.8799 12.1066 29.9633 12.1066 30.0717C12.1066 31.4688 12.9478 32.1799 14.5766 32.1799C15.5812 32.1799 16.4762 31.9338 17.4808 31.4146L17.0198 34.4257ZM15.4448 27.2233C15.4448 26.9772 15.4717 26.7583 15.4717 26.6227C15.4717 25.6364 14.9838 25.0609 14.1426 25.0609C13.2455 25.0609 12.6212 25.8283 12.3505 27.2233H15.4448Z" fill="#727272" fill-opacity="0.6"/>
<path fill-rule="evenodd" clip-rule="evenodd" d="M50.3515 34.4257C49.4007 34.7551 48.4788 34.9199 47.4742 34.9199C44.3262 34.9199 42.6953 33.0578 42.6953 29.4962C42.6953 25.3633 44.7871 22.2959 47.5817 22.2959C49.8885 22.2959 51.383 23.9933 51.383 26.7041C51.383 27.5799 51.2734 28.4557 51.0295 29.688H45.4651C45.4382 29.8799 45.4382 29.9633 45.4382 30.0717C45.4382 31.4688 46.2795 32.1799 47.9083 32.1799C48.9129 32.1799 49.8079 31.9338 50.8125 31.4146L50.3515 34.4257ZM48.7765 27.2233C48.8033 26.9772 48.8033 26.7583 48.8033 26.6227C48.8033 25.6364 48.3155 25.0609 47.4742 25.0609C46.5772 25.0609 45.9529 25.8283 45.6821 27.2233H48.7765Z" fill="#727272" fill-opacity="0.6"/>
<path fill-rule="evenodd" clip-rule="evenodd" d="M89.4393 34.4257C88.4616 34.7551 87.5397 34.9199 86.562 34.9199C83.4408 34.9199 81.7852 33.0578 81.7852 29.4962C81.7852 25.3633 83.8749 22.2959 86.6984 22.2959C89.0052 22.2959 90.4707 23.9933 90.4707 26.7041C90.4707 27.5799 90.3612 28.4557 90.1173 29.688H84.5529C84.526 29.8799 84.526 29.9633 84.526 30.0717C84.526 31.4688 85.3673 32.1799 86.9961 32.1799C88.0007 32.1799 88.8957 31.9338 89.9002 31.4146L89.4393 34.4257ZM87.8642 27.2233C87.8642 26.9772 87.8911 26.7583 87.8911 26.6227C87.8911 25.6364 87.4033 25.0609 86.562 25.0609C85.6649 25.0609 85.0428 25.8283 84.7699 27.2233H87.8642Z" fill="#727272" fill-opacity="0.6"/>
<path fill-rule="evenodd" clip-rule="evenodd" d="M8.71245 22.9542C8.17089 22.5705 7.41023 22.2702 6.37879 22.2702C5.2378 22.2702 4.34279 22.5163 4.34279 23.7195C4.34279 25.8568 8.46854 25.0624 8.46854 29.6624C8.46854 33.8516 5.75455 34.9484 3.28448 34.9484C2.1993 34.9484 0.921886 34.5918 0 34.154L0.677979 31.0866C1.24847 31.6079 2.36259 31.9624 3.31135 31.9624C4.20636 31.9624 5.56439 31.7163 5.56439 30.1545C5.56439 27.7189 1.43864 28.6218 1.43864 24.3492C1.43864 20.4352 3.85497 19.2842 6.18863 19.2842C7.49084 19.2842 8.74138 19.476 9.44623 19.9681L8.71245 22.9542Z" fill="#727272" fill-opacity="0.6"/>
<path fill-rule="evenodd" clip-rule="evenodd" d="M25.2193 34.4232C24.6488 34.6964 23.8613 34.8882 22.7203 34.8882C20.2791 34.8882 18.7578 32.4256 18.7578 29.4124C18.7578 25.4692 20.9571 22.3477 24.1858 22.3477C24.8927 22.3477 25.9779 22.6479 26.8191 23.1421L26.197 26.0177C25.5975 25.6069 24.9733 25.3608 24.3222 25.3608C22.8298 25.3608 21.7446 26.7558 21.7446 29.2206C21.7446 30.6448 22.5322 31.8229 23.7538 31.8229C24.4855 31.8229 25.0002 31.6582 25.6265 31.3016L25.2193 34.4232Z" fill="#727272" fill-opacity="0.6"/>
<path fill-rule="evenodd" clip-rule="evenodd" d="M35.6929 31.3806C35.5586 32.4232 35.4221 33.4345 35.3415 34.5022H32.6544L32.8714 32.5587H32.8446C32.0033 33.8745 31.1352 34.7774 29.587 34.7774C27.9044 34.7774 26.9805 32.9695 26.9805 30.6424C26.9805 29.8208 27.0342 29.3829 27.1975 28.1234L27.9582 22.5371H30.9719L30.1575 28.1505C30.0748 28.7532 29.9673 29.3558 29.9673 29.9856C29.9673 30.6966 30.2918 31.4098 31.1062 31.3535C32.3278 31.3535 33.0616 29.8479 33.2786 28.0692L34.1199 22.5371H37.0241L35.6929 31.3806Z" fill="#727272" fill-opacity="0.6"/>
<path fill-rule="evenodd" clip-rule="evenodd" d="M92.2312 34.3673H91.7702V32.3676H91.1191V31.9297H92.8823V32.3676H92.2312V34.3673Z" fill="#727272" fill-opacity="0.6"/>
<path fill-rule="evenodd" clip-rule="evenodd" d="M95.2475 34.3673H94.8134V32.3405L94.4062 34.3673H93.9721L93.5649 32.3405V34.3673H93.1309V31.9297H93.8088L94.1892 33.846H94.216L94.5964 31.9297H95.2475V34.3673Z" fill="#727272" fill-opacity="0.6"/>
</svg>
