<svg width="50" height="19" viewBox="0 0 50 19" fill="none" xmlns="http://www.w3.org/2000/svg">
<path d="M28.4943 12.0027C26.9642 12.4885 25.4696 12.9654 23.9395 13.4512C23.9395 13.3253 23.9395 13.2263 23.9395 13.1363C23.9395 10.8061 23.9395 8.46686 23.9395 6.13662C23.9395 5.83072 23.9395 5.83072 23.6281 5.83072C22.8453 5.83072 22.0535 5.83971 21.2707 5.83072C21.066 5.83072 21.0038 5.8937 21.0038 6.10063C21.0127 8.48485 21.0127 10.8601 21.0038 13.2443C21.0038 13.4332 21.0571 13.5052 21.2529 13.5052C22.0535 13.4962 22.8542 13.5052 23.6726 13.5322C23.6281 13.5502 23.5747 13.5772 23.5303 13.5952C17.9079 15.3856 12.2767 17.176 6.65431 18.9664C6.53866 19.0024 6.4408 19.0474 6.37853 18.8765C5.738 17.104 5.08859 15.3316 4.43027 13.5232C4.54592 13.5142 4.63488 13.5052 4.72385 13.5052C5.49781 13.5052 6.26288 13.4962 7.03684 13.5142C7.25924 13.5142 7.31262 13.4422 7.30372 13.2353C7.29483 12.6595 7.31262 12.0837 7.29483 11.5079C7.28593 11.2739 7.366 11.22 7.5884 11.22C8.40684 11.238 9.22529 11.166 10.0081 10.8781C10.7554 10.5992 11.3693 10.1673 11.6717 9.39355C12.161 8.16995 11.6628 6.91036 10.4707 6.35255C9.79464 6.03765 9.07405 5.8847 8.34457 5.8757C7.09911 5.84871 5.85365 5.8667 4.6082 5.84871C4.368 5.84871 4.39469 6.00166 4.39469 6.14561C4.39469 8.43987 4.39469 10.7341 4.39469 13.0284C4.39469 13.1093 4.39469 13.1813 4.39469 13.2623C4.3769 13.2623 4.3591 13.2713 4.35021 13.2713C2.89124 9.27659 1.45007 5.31788 0 1.31419C0.489287 1.2872 0.951886 1.25121 1.41448 1.22422C5.47112 0.999294 9.53665 0.76537 13.5933 0.540443C16.7247 0.360502 19.8473 0.180561 22.9787 0.000619481C23.1566 -0.00837758 23.21 0.0815933 23.2634 0.207552C24.4999 2.99664 25.7365 5.78573 26.982 8.57482C27.4446 9.61848 27.9072 10.6621 28.3698 11.6968C28.4053 11.7868 28.432 11.8767 28.4943 12.0027ZM19.6693 8.13396C19.6782 8.026 19.6871 7.94503 19.6871 7.87305C19.6871 7.35122 19.6782 6.82939 19.696 6.31656C19.7049 6.11862 19.6338 6.03765 19.4558 5.98367C18.5929 5.68676 17.7122 5.66877 16.8226 5.71375C15.9863 5.75874 15.1679 5.93868 14.4206 6.35255C13.0684 7.0903 12.3122 8.20594 12.3567 9.78942C12.4012 11.3999 13.2108 12.5155 14.6697 13.1093C16.3155 13.7841 17.9969 13.7571 19.696 13.2983C19.8384 13.2623 19.874 13.1813 19.874 13.0464C19.8651 12.5245 19.8651 12.0027 19.8651 11.4899C19.8651 11.4359 19.8473 11.3909 19.8384 11.3279C19.438 11.4359 19.0644 11.5618 18.6819 11.6428C17.9969 11.7778 17.3208 11.7958 16.6536 11.5259C15.7906 11.184 15.328 10.4102 15.417 9.46553C15.506 8.46686 16.0575 7.83706 17.0005 7.65712C17.8367 7.50417 18.6285 7.66612 19.3847 8.017C19.4647 8.04399 19.5537 8.07998 19.6693 8.13396ZM24.2331 3.4465C24.2331 2.43883 23.5214 1.76404 22.4627 1.76404C21.4041 1.76404 20.6924 2.43883 20.6924 3.4465C20.6924 4.43617 21.4041 5.11095 22.4538 5.11995C23.5125 5.12894 24.2331 4.44517 24.2331 3.4465Z" fill="#727272" fill-opacity="0.6"/>
<path d="M32.3574 2.78765H34.9551C35.4711 2.78765 35.8803 2.85963 36.1917 2.99458C36.503 3.13854 36.7699 3.33647 36.9745 3.59739C37.1791 3.8583 37.3304 4.1642 37.4193 4.51509C37.5083 4.86597 37.5617 5.23485 37.5617 5.62173C37.5617 6.23353 37.4905 6.71037 37.357 7.04326C37.2236 7.37615 37.0279 7.66406 36.7877 7.88899C36.5475 8.11391 36.2806 8.26686 36.0048 8.34784C35.6223 8.4558 35.2754 8.50079 34.964 8.50079H32.3663V2.78765H32.3574ZM34.1011 4.08323V7.20521H34.5281C34.8928 7.20521 35.1508 7.16022 35.3109 7.07925C35.4622 6.99828 35.5867 6.85432 35.6757 6.64739C35.7646 6.44046 35.8091 6.11656 35.8091 5.65771C35.8091 5.05491 35.7113 4.64105 35.5155 4.41612C35.3198 4.19119 34.9996 4.08323 34.5459 4.08323H34.1011ZM38.1755 6.6204L39.8391 6.51243C39.8747 6.78235 39.9458 6.98928 40.0615 7.13323C40.2394 7.36716 40.4974 7.48412 40.8354 7.48412C41.0845 7.48412 41.2802 7.42114 41.4137 7.30418C41.5471 7.18722 41.6183 7.05226 41.6183 6.89031C41.6183 6.74636 41.556 6.6114 41.4226 6.49444C41.298 6.37748 40.9956 6.26951 40.5241 6.16155C39.759 5.9906 39.2074 5.75668 38.8872 5.46878C38.558 5.18087 38.389 4.81199 38.389 4.36214C38.389 4.06523 38.4691 3.78633 38.6381 3.52541C38.8071 3.2645 39.0562 3.05756 39.3943 2.90461C39.7323 2.75166 40.1949 2.67969 40.7821 2.67969C41.5026 2.67969 42.0542 2.81464 42.4367 3.08456C42.8193 3.35447 43.0417 3.78633 43.1128 4.38013L41.4671 4.4791C41.4226 4.21819 41.3336 4.03824 41.1913 3.92128C41.0489 3.80432 40.8532 3.74134 40.613 3.74134C40.4084 3.74134 40.2572 3.78633 40.1504 3.8763C40.0437 3.96627 39.9992 4.06523 39.9992 4.19119C39.9992 4.28116 40.0437 4.36214 40.1237 4.43411C40.2038 4.50609 40.3995 4.57807 40.7109 4.64105C41.476 4.81199 42.0186 4.97394 42.3567 5.14488C42.6858 5.31583 42.926 5.52276 43.0773 5.77468C43.2285 6.02659 43.2997 6.3055 43.2997 6.6204C43.2997 6.98928 43.2018 7.32217 42.9972 7.63707C42.7926 7.94297 42.5168 8.17689 42.1521 8.33884C41.7962 8.50079 41.3336 8.58176 40.791 8.58176C39.8302 8.58176 39.163 8.39282 38.7893 8.02394C38.4335 7.67306 38.22 7.19621 38.1755 6.6204ZM43.8779 6.6204L45.5415 6.51243C45.5771 6.78235 45.6482 6.98928 45.7639 7.13323C45.9418 7.36716 46.1998 7.48412 46.5379 7.48412C46.7869 7.48412 46.9827 7.42114 47.1161 7.30418C47.2495 7.18722 47.3207 7.05226 47.3207 6.89031C47.3207 6.74636 47.2584 6.6114 47.125 6.49444C47.0005 6.37748 46.698 6.26951 46.2265 6.16155C45.4614 5.9906 44.9099 5.75668 44.5896 5.46878C44.2604 5.18087 44.0914 4.81199 44.0914 4.36214C44.0914 4.06523 44.1715 3.78633 44.3405 3.52541C44.5095 3.2645 44.7586 3.05756 45.0967 2.90461C45.4347 2.75166 45.8973 2.67969 46.4845 2.67969C47.2051 2.67969 47.7566 2.81464 48.1392 3.08456C48.5217 3.35447 48.7441 3.78633 48.8153 4.38013L47.1695 4.4791C47.125 4.21819 47.036 4.03824 46.8937 3.92128C46.7514 3.80432 46.5556 3.74134 46.3154 3.74134C46.1108 3.74134 45.9596 3.78633 45.8529 3.8763C45.7461 3.96627 45.7016 4.06523 45.7016 4.19119C45.7016 4.28116 45.7461 4.36214 45.8262 4.43411C45.9062 4.50609 46.1019 4.57807 46.4133 4.64105C47.1784 4.81199 47.721 4.97394 48.0591 5.14488C48.3882 5.31583 48.6284 5.52276 48.7797 5.77468C48.9309 6.02659 49.0021 6.3055 49.0021 6.6204C49.0021 6.98928 48.9042 7.32217 48.6996 7.63707C48.495 7.94297 48.2192 8.17689 47.8545 8.33884C47.4986 8.50079 47.036 8.58176 46.4934 8.58176C45.5326 8.58176 44.8654 8.39282 44.4917 8.02394C44.1359 7.67306 43.9224 7.19621 43.8779 6.6204Z" fill="#727272" fill-opacity="0.6"/>
<path d="M33.4236 10.7687L33.8862 10.9126C33.8506 11.0476 33.8062 11.1556 33.735 11.2455C33.6638 11.3355 33.5838 11.3985 33.4859 11.4435C33.3881 11.4885 33.2635 11.5154 33.1034 11.5154C32.9166 11.5154 32.7653 11.4885 32.6497 11.4345C32.534 11.3805 32.4273 11.2815 32.3472 11.1466C32.2671 11.0116 32.2227 10.8317 32.2227 10.6157C32.2227 10.3278 32.2938 10.1029 32.454 9.94995C32.6052 9.797 32.8187 9.71603 33.0945 9.71603C33.308 9.71603 33.477 9.76101 33.6016 9.85098C33.7261 9.94096 33.8151 10.0759 33.8773 10.2559L33.4058 10.3638C33.388 10.3098 33.3703 10.2738 33.3525 10.2469C33.3258 10.2019 33.2902 10.1749 33.2457 10.1479C33.2012 10.1209 33.1567 10.1119 33.1034 10.1119C32.9788 10.1119 32.8899 10.1569 32.8276 10.2559C32.7831 10.3278 32.7564 10.4448 32.7564 10.5977C32.7564 10.7867 32.7831 10.9216 32.8454 10.9936C32.8988 11.0656 32.9877 11.1016 33.0856 11.1016C33.1834 11.1016 33.2635 11.0746 33.3169 11.0116C33.3614 10.9576 33.4058 10.8767 33.4236 10.7687ZM34.1798 10.6067C34.1798 10.3188 34.2599 10.1029 34.4111 9.94096C34.5712 9.77901 34.7847 9.70703 35.0605 9.70703C35.3452 9.70703 35.5676 9.78801 35.7188 9.94096C35.8701 10.0939 35.9501 10.3098 35.9501 10.5977C35.9501 10.8047 35.9146 10.9666 35.8523 11.1016C35.7811 11.2275 35.6833 11.3355 35.5587 11.4075C35.4342 11.4795 35.274 11.5154 35.0783 11.5154C34.8826 11.5154 34.7225 11.4885 34.5979 11.4255C34.4734 11.3625 34.3666 11.2635 34.2866 11.1286C34.2065 10.9936 34.1798 10.8137 34.1798 10.6067ZM34.7136 10.6157C34.7136 10.7957 34.7492 10.9216 34.8114 10.9936C34.8737 11.0746 34.9627 11.1106 35.0783 11.1106C35.194 11.1106 35.2829 11.0746 35.3452 10.9936C35.4075 10.9216 35.4431 10.7867 35.4431 10.5887C35.4431 10.4268 35.4075 10.3098 35.3452 10.2289C35.2829 10.1569 35.194 10.1119 35.0783 10.1119C34.9716 10.1119 34.8826 10.1479 34.8203 10.2289C34.7403 10.3098 34.7136 10.4358 34.7136 10.6157ZM36.3416 9.74302H37.0444L37.3112 10.8047L37.5781 9.74302H38.272V11.4795H37.8361V10.1569L37.4981 11.4795H37.1066L36.7686 10.1569V11.4795H36.3327L36.3416 9.74302ZM38.7079 9.74302H39.5887C39.7844 9.74302 39.9267 9.78801 40.0246 9.87798C40.1224 9.96795 40.1669 10.1029 40.1669 10.2738C40.1669 10.4538 40.1135 10.5887 40.0068 10.6877C39.9 10.7867 39.7399 10.8317 39.5264 10.8317H39.2328V11.4795H38.699L38.7079 9.74302ZM39.2417 10.4808H39.3751C39.4819 10.4808 39.5531 10.4628 39.5887 10.4268C39.6331 10.3908 39.6509 10.3458 39.6509 10.2918C39.6509 10.2379 39.6331 10.1929 39.5975 10.1569C39.562 10.1209 39.4908 10.1029 39.3929 10.1029H39.2417V10.4808ZM40.5405 9.74302H41.0743V11.0566H41.9016V11.4885H40.5405V9.74302ZM42.2575 9.74302H42.7913V11.4795H42.2575V9.74302ZM44.3214 11.1915H43.7165L43.6364 11.4795H43.0937L43.7432 9.74302H44.3214L44.9708 11.4795H44.4104L44.3214 11.1915ZM44.2146 10.8137L44.0278 10.1929L43.841 10.8137H44.2146ZM45.2377 9.74302H45.7359L46.3853 10.7057V9.74302H46.8835V11.4795H46.3853L45.7448 10.5258V11.4795H45.2466L45.2377 9.74302ZM47.2037 9.74302H48.8228V10.1749H48.2802V11.4885H47.7464V10.1749H47.2037V9.74302Z" fill="#727272" fill-opacity="0.6"/>
</svg>
